<?xml version="1.0" encoding="UTF-8" standalone="no"?>
<!-- Created with Inkscape (http://www.inkscape.org/) -->

<svg
   xmlns:dc="http://purl.org/dc/elements/1.1/"
   xmlns:cc="http://creativecommons.org/ns#"
   xmlns:rdf="http://www.w3.org/1999/02/22-rdf-syntax-ns#"
   xmlns:svg="http://www.w3.org/2000/svg"
   xmlns="http://www.w3.org/2000/svg"
   xmlns:sodipodi="http://sodipodi.sourceforge.net/DTD/sodipodi-0.dtd"
   xmlns:inkscape="http://www.inkscape.org/namespaces/inkscape"
   sodipodi:docname="0018.svg"
   inkscape:version="0.92.4 (5da689c313, 2019-01-14)"
   id="svg8"
   version="1.1"
   viewBox="0 0 104.02487 80.069063"
   height="100.08633mm"
   width="130.0311mm">
  <defs
     id="defs2">
    <marker
       inkscape:stockid="Arrow2Mend"
       orient="auto"
       refY="0"
       refX="0"
       id="marker1058"
       style="overflow:visible"
       inkscape:isstock="true">
      <path
         inkscape:connector-curvature="0"
         id="path1056"
         style="fill:#007600;fill-opacity:1;fill-rule:evenodd;stroke:#007600;stroke-width:0.625;stroke-linejoin:round;stroke-opacity:1"
         d="M 8.7185878,4.0337352 -2.2072895,0.01601326 8.7185884,-4.0017078 c -1.7454984,2.3720609 -1.7354408,5.6174519 -6e-7,8.035443 z"
         transform="scale(-0.6)" />
    </marker>
    <marker
       inkscape:stockid="Arrow1Send"
       orient="auto"
       refY="0.0"
       refX="0.0"
       id="marker1299"
       style="overflow:visible;"
       inkscape:isstock="true">
      <path
         id="path1051"
         d="M 0.0,0.0 L 5.0,-5.0 L -12.5,0.0 L 5.0,5.0 L 0.0,0.0 z "
         style="fill-rule:evenodd;stroke:#007600;stroke-width:1pt;stroke-opacity:1;fill:#007600;fill-opacity:1"
         transform="scale(0.2) rotate(180) translate(6,0)" />
    </marker>
    <marker
       inkscape:stockid="Arrow1Send"
       orient="auto"
       refY="0.0"
       refX="0.0"
       id="Arrow1Send"
       style="overflow:visible;"
       inkscape:isstock="true">
      <path
         id="path5440"
         d="M 0.0,0.0 L 5.0,-5.0 L -12.5,0.0 L 5.0,5.0 L 0.0,0.0 z "
         style="fill-rule:evenodd;stroke:#007600;stroke-width:1pt;stroke-opacity:1;fill:#007600;fill-opacity:1"
         transform="scale(0.2) rotate(180) translate(6,0)" />
    </marker>
    <marker
       inkscape:isstock="true"
       style="overflow:visible"
       id="marker5303"
       refX="0"
       refY="0"
       orient="auto"
       inkscape:stockid="Arrow2Mend">
      <path
         inkscape:connector-curvature="0"
         transform="scale(-0.6)"
         d="M 8.7185878,4.0337352 -2.2072895,0.01601326 8.7185884,-4.0017078 c -1.7454984,2.3720609 -1.7354408,5.6174519 -6e-7,8.035443 z"
         style="fill:#007600;fill-opacity:1;fill-rule:evenodd;stroke:#007600;stroke-width:0.625;stroke-linejoin:round;stroke-opacity:1"
         id="path5301" />
    </marker>
    <marker
       inkscape:stockid="Arrow2Mend"
       orient="auto"
       refY="0"
       refX="0"
       id="marker5179"
       style="overflow:visible"
       inkscape:isstock="true">
      <path
         inkscape:connector-curvature="0"
         id="path5177"
         style="fill:#007600;fill-opacity:1;fill-rule:evenodd;stroke:#007600;stroke-width:0.625;stroke-linejoin:round;stroke-opacity:1"
         d="M 8.7185878,4.0337352 -2.2072895,0.01601326 8.7185884,-4.0017078 c -1.7454984,2.3720609 -1.7354408,5.6174519 -6e-7,8.035443 z"
         transform="scale(-0.6)" />
    </marker>
    <marker
       inkscape:isstock="true"
       style="overflow:visible"
       id="marker8787"
       refX="0"
       refY="0"
       orient="auto"
       inkscape:stockid="Arrow2Mend"
       inkscape:collect="always">
      <path
         transform="scale(-0.6)"
         d="M 8.7185878,4.0337352 -2.2072895,0.01601326 8.7185884,-4.0017078 c -1.7454984,2.3720609 -1.7354408,5.6174519 -6e-7,8.035443 z"
         style="fill:#007600;fill-opacity:1;fill-rule:evenodd;stroke:#007600;stroke-width:0.625;stroke-linejoin:round;stroke-opacity:1"
         id="path8785"
         inkscape:connector-curvature="0" />
    </marker>
    <marker
       inkscape:stockid="Arrow1Mend"
       orient="auto"
       refY="0"
       refX="0"
       id="Arrow1Mend"
       style="overflow:visible"
       inkscape:isstock="true">
      <path
         id="path4561"
         d="M 0,0 5,-5 -12.5,0 5,5 Z"
         style="fill:#ff0000;fill-opacity:1;fill-rule:evenodd;stroke:#ff0000;stroke-width:1.00000003pt;stroke-opacity:1"
         transform="matrix(-0.4,0,0,-0.4,-4,0)"
         inkscape:connector-curvature="0" />
    </marker>
    <marker
       inkscape:stockid="Arrow1Lend"
       orient="auto"
       refY="0"
       refX="0"
       id="marker7317"
       style="overflow:visible"
       inkscape:isstock="true">
      <path
         id="path7315"
         d="M 0,0 5,-5 -12.5,0 5,5 Z"
         style="fill:#007600;fill-opacity:1;fill-rule:evenodd;stroke:#007600;stroke-width:1.00000003pt;stroke-opacity:1"
         transform="matrix(-0.8,0,0,-0.8,-10,0)"
         inkscape:connector-curvature="0" />
    </marker>
    <marker
       inkscape:stockid="Arrow1Lend"
       orient="auto"
       refY="0"
       refX="0"
       id="marker7253"
       style="overflow:visible"
       inkscape:isstock="true">
      <path
         id="path7251"
         d="M 0,0 5,-5 -12.5,0 5,5 Z"
         style="fill:#007600;fill-opacity:1;fill-rule:evenodd;stroke:#007600;stroke-width:1.00000003pt;stroke-opacity:1"
         transform="matrix(-0.8,0,0,-0.8,-10,0)"
         inkscape:connector-curvature="0" />
    </marker>
    <marker
       inkscape:stockid="Arrow2Lend"
       orient="auto"
       refY="0"
       refX="0"
       id="Arrow2Lend"
       style="overflow:visible"
       inkscape:isstock="true">
      <path
         id="path4573"
         style="fill:#000000;fill-opacity:1;fill-rule:evenodd;stroke:#000000;stroke-width:0.625;stroke-linejoin:round;stroke-opacity:1"
         d="M 8.7185878,4.0337352 -2.2072895,0.01601326 8.7185884,-4.0017078 c -1.7454984,2.3720609 -1.7354408,5.6174519 -6e-7,8.035443 z"
         transform="matrix(-1.1,0,0,-1.1,-1.1,0)"
         inkscape:connector-curvature="0" />
    </marker>
    <inkscape:path-effect
       effect="bspline"
       id="path-effect7193"
       is_visible="true"
       weight="33.333333"
       steps="2"
       helper_size="0"
       apply_no_weight="true"
       apply_with_weight="true"
       only_selected="false" />
    <marker
       inkscape:stockid="Arrow2Mend"
       orient="auto"
       refY="0"
       refX="0"
       id="Arrow2Mend"
       style="overflow:visible"
       inkscape:isstock="true"
       inkscape:collect="always">
      <path
         id="path4579"
         style="fill:#007600;fill-opacity:1;fill-rule:evenodd;stroke:#007600;stroke-width:0.625;stroke-linejoin:round;stroke-opacity:1"
         d="M 8.7185878,4.0337352 -2.2072895,0.01601326 8.7185884,-4.0017078 c -1.7454984,2.3720609 -1.7354408,5.6174519 -6e-7,8.035443 z"
         transform="scale(-0.6)"
         inkscape:connector-curvature="0" />
    </marker>
    <marker
       inkscape:stockid="Arrow2Sstart"
       orient="auto"
       refY="0"
       refX="0"
       id="Arrow2Sstart"
       style="overflow:visible"
       inkscape:isstock="true">
      <path
         id="path4582"
         style="fill:#000000;fill-opacity:1;fill-rule:evenodd;stroke:#000000;stroke-width:0.625;stroke-linejoin:round;stroke-opacity:1"
         d="M 8.7185878,4.0337352 -2.2072895,0.01601326 8.7185884,-4.0017078 c -1.7454984,2.3720609 -1.7354408,5.6174519 -6e-7,8.035443 z"
         transform="matrix(0.3,0,0,0.3,-0.69,0)"
         inkscape:connector-curvature="0" />
    </marker>
    <inkscape:path-effect
       effect="bspline"
       id="path-effect38"
       is_visible="true"
       weight="33.333333"
       steps="2"
       helper_size="0"
       apply_no_weight="true"
       apply_with_weight="true"
       only_selected="false" />
    <inkscape:path-effect
       effect="bspline"
       id="path-effect34"
       is_visible="true"
       weight="33.333333"
       steps="2"
       helper_size="0"
       apply_no_weight="true"
       apply_with_weight="true"
       only_selected="false" />
    <inkscape:path-effect
       effect="bspline"
       id="path-effect30"
       is_visible="true"
       weight="33.333333"
       steps="2"
       helper_size="0"
       apply_no_weight="true"
       apply_with_weight="true"
       only_selected="false" />
    <inkscape:path-effect
       effect="bspline"
       id="path-effect26"
       is_visible="true"
       weight="33.333333"
       steps="2"
       helper_size="0"
       apply_no_weight="true"
       apply_with_weight="true"
       only_selected="false" />
    <inkscape:path-effect
       effect="bspline"
       id="path-effect22"
       is_visible="true"
       weight="33.333333"
       steps="2"
       helper_size="0"
       apply_no_weight="true"
       apply_with_weight="true"
       only_selected="false" />
    <inkscape:path-effect
       effect="bspline"
       id="path-effect18"
       is_visible="true"
       weight="33.333333"
       steps="2"
       helper_size="0"
       apply_no_weight="true"
       apply_with_weight="true"
       only_selected="false" />
    <inkscape:path-effect
       effect="bspline"
       id="path-effect14"
       is_visible="true"
       weight="33.333333"
       steps="2"
       helper_size="0"
       apply_no_weight="true"
       apply_with_weight="true"
       only_selected="false" />
    <marker
       inkscape:stockid="Arrow2Mend"
       orient="auto"
       refY="0"
       refX="0"
       id="Arrow2Mend-7"
       style="overflow:visible"
       inkscape:isstock="true">
      <path
         inkscape:connector-curvature="0"
         id="path4579-6"
         style="fill:#000000;fill-opacity:1;fill-rule:evenodd;stroke:#000000;stroke-width:0.625;stroke-linejoin:round;stroke-opacity:1"
         d="M 8.7185878,4.0337352 -2.2072895,0.01601326 8.7185884,-4.0017078 c -1.7454984,2.3720609 -1.7354408,5.6174519 -6e-7,8.035443 z"
         transform="scale(-0.6)" />
    </marker>
    <marker
       inkscape:stockid="Arrow2Mend"
       orient="auto"
       refY="0"
       refX="0"
       id="Arrow2Mend-7-5"
       style="overflow:visible"
       inkscape:isstock="true">
      <path
         inkscape:connector-curvature="0"
         id="path4579-6-0"
         style="fill:#000000;fill-opacity:1;fill-rule:evenodd;stroke:#000000;stroke-width:0.625;stroke-linejoin:round;stroke-opacity:1"
         d="M 8.7185878,4.0337352 -2.2072895,0.01601326 8.7185884,-4.0017078 c -1.7454984,2.3720609 -1.7354408,5.6174519 -6e-7,8.035443 z"
         transform="scale(-0.6)" />
    </marker>
    <inkscape:path-effect
       effect="bspline"
       id="path-effect7193-0"
       is_visible="true"
       weight="33.333333"
       steps="2"
       helper_size="0"
       apply_no_weight="true"
       apply_with_weight="true"
       only_selected="false" />
    <marker
       inkscape:stockid="Arrow2Mend"
       orient="auto"
       refY="0"
       refX="0"
       id="Arrow2Mend-7-5-7"
       style="overflow:visible"
       inkscape:isstock="true">
      <path
         inkscape:connector-curvature="0"
         id="path4579-6-0-5"
         style="fill:#000000;fill-opacity:1;fill-rule:evenodd;stroke:#000000;stroke-width:0.625;stroke-linejoin:round;stroke-opacity:1"
         d="M 8.7185878,4.0337352 -2.2072895,0.01601326 8.7185884,-4.0017078 c -1.7454984,2.3720609 -1.7354408,5.6174519 -6e-7,8.035443 z"
         transform="scale(-0.6)" />
    </marker>
    <inkscape:path-effect
       effect="bspline"
       id="path-effect7193-0-9"
       is_visible="true"
       weight="33.333333"
       steps="2"
       helper_size="0"
       apply_no_weight="true"
       apply_with_weight="true"
       only_selected="false" />
    <marker
       inkscape:stockid="Arrow2Mend"
       orient="auto"
       refY="0"
       refX="0"
       id="Arrow2Mend-7-59"
       style="overflow:visible"
       inkscape:isstock="true">
      <path
         inkscape:connector-curvature="0"
         id="path4579-6-3"
         style="fill:#f42000;fill-opacity:1;fill-rule:evenodd;stroke:#f42000;stroke-width:0.625;stroke-linejoin:round;stroke-opacity:1"
         d="M 8.7185878,4.0337352 -2.2072895,0.01601326 8.7185884,-4.0017078 c -1.7454984,2.3720609 -1.7354408,5.6174519 -6e-7,8.035443 z"
         transform="scale(-0.6)" />
    </marker>
    <inkscape:path-effect
       effect="bspline"
       id="path-effect7193-2"
       is_visible="true"
       weight="33.333333"
       steps="2"
       helper_size="0"
       apply_no_weight="true"
       apply_with_weight="true"
       only_selected="false" />
    <marker
       inkscape:stockid="Arrow2Mend"
       orient="auto"
       refY="0"
       refX="0"
       id="Arrow2Mend-4"
       style="overflow:visible"
       inkscape:isstock="true"
       inkscape:collect="always">
      <path
         id="path4579-0"
         style="fill:#ff0000;fill-opacity:1;fill-rule:evenodd;stroke:#ff0000;stroke-width:0.625;stroke-linejoin:round;stroke-opacity:1"
         d="M 8.7185878,4.0337352 -2.2072895,0.01601326 8.7185884,-4.0017078 c -1.7454984,2.3720609 -1.7354408,5.6174519 -6e-7,8.035443 z"
         transform="scale(-0.6)"
         inkscape:connector-curvature="0" />
    </marker>
    <marker
       inkscape:stockid="Arrow2Mend"
       orient="auto"
       refY="0"
       refX="0"
       id="Arrow2Mend-4-2"
       style="overflow:visible"
       inkscape:isstock="true"
       inkscape:collect="always">
      <path
         id="path4579-0-2"
         style="fill:#ff0000;fill-opacity:1;fill-rule:evenodd;stroke:#ff0000;stroke-width:0.625;stroke-linejoin:round;stroke-opacity:1"
         d="M 8.7185878,4.0337352 -2.2072895,0.01601326 8.7185884,-4.0017078 c -1.7454984,2.3720609 -1.7354408,5.6174519 -6e-7,8.035443 z"
         transform="scale(-0.6)"
         inkscape:connector-curvature="0" />
    </marker>
    <marker
       inkscape:stockid="Arrow2Mend"
       orient="auto"
       refY="0"
       refX="0"
       id="Arrow2Mend-7-5-7-4"
       style="overflow:visible"
       inkscape:isstock="true">
      <path
         inkscape:connector-curvature="0"
         id="path4579-6-0-5-5"
         style="fill:#007600;fill-opacity:1;fill-rule:evenodd;stroke:#007600;stroke-width:0.625;stroke-linejoin:round;stroke-opacity:1"
         d="M 8.7185878,4.0337352 -2.2072895,0.01601326 8.7185884,-4.0017078 c -1.7454984,2.3720609 -1.7354408,5.6174519 -6e-7,8.035443 z"
         transform="scale(-0.6)" />
    </marker>
    <inkscape:path-effect
       effect="bspline"
       id="path-effect7193-0-9-4"
       is_visible="true"
       weight="33.333333"
       steps="2"
       helper_size="0"
       apply_no_weight="true"
       apply_with_weight="true"
       only_selected="false" />
  </defs>
  <sodipodi:namedview
     id="base"
     pagecolor="#ffffff"
     bordercolor="#666666"
     borderopacity="1.0"
     inkscape:pageopacity="0.0"
     inkscape:pageshadow="2"
     inkscape:zoom="1.979899"
     inkscape:cx="434.5776"
     inkscape:cy="138.51867"
     inkscape:document-units="mm"
     inkscape:current-layer="g435"
     showgrid="false"
     inkscape:window-width="1366"
     inkscape:window-height="705"
     inkscape:window-x="-8"
     inkscape:window-y="-8"
     inkscape:window-maximized="1"
     inkscape:snap-to-guides="false"
     inkscape:snap-global="false"
     fit-margin-top="0"
     fit-margin-left="0"
     fit-margin-right="0"
     fit-margin-bottom="0"
     scale-x="0.8" />
  <metadata
     id="metadata5">
    <rdf:RDF>
      <cc:Work
         rdf:about="">
        <dc:format>image/svg+xml</dc:format>
        <dc:type
           rdf:resource="http://purl.org/dc/dcmitype/StillImage" />
        <dc:title />
      </cc:Work>
    </rdf:RDF>
  </metadata>
  <g
     inkscape:label="Layer 1"
     inkscape:groupmode="layer"
     id="layer1"
     transform="translate(-37.09596,-101.556)">
    <path
       style="fill:none;stroke:#000000;stroke-width:0.26458332px;stroke-linecap:butt;stroke-linejoin:miter;stroke-opacity:1"
       d="m 52.919607,109.77753 c 13.096251,-6.36978 32.339656,-8.06249 49.366463,-6.9906 17.02682,1.07188 31.79433,4.8972 43.28679,10.06436 11.49246,5.16716 19.68883,11.6708 24.67782,19.46602 4.98899,7.79523 6.77079,16.88244 6.81537,25.21237 0.0446,8.32994 -1.64808,15.9024 -7.14693,22.67855 -5.49885,6.77616 -14.73352,12.71039 -25.28009,17.01885 -10.54658,4.30846 -22.09061,6.86245 -35.30096,7.0355 -13.210348,0.17304 -27.998826,-2.05414 -40.516116,-7.13232 -12.51729,-5.07819 -22.762469,-13.00706 -29.533346,-23.29707 -6.770876,-10.29001 -10.067188,-22.94072 -8.240774,-34.78965 1.826414,-11.84893 8.775523,-22.89623 21.871773,-29.26601 z"
       id="path12"
       inkscape:connector-curvature="0"
       inkscape:path-effect="#path-effect14"
       inkscape:original-d="m 46.772168,105.10048 c 19.243669,-1.69297 38.487074,-3.38568 57.730222,-5.07812 14.78895,3.91963 29.57809,7.66146 44.36674,11.49259 8.19642,6.50321 16.39279,13.00685 24.58879,19.51067 1.78205,9.08686 3.56386,18.17407 5.34539,27.26149 -1.69248,7.57255 -3.38515,15.14501 -5.07812,22.71791 -9.30497,5.97929 -18.53964,11.91352 -27.91457,17.93799 -11.71822,2.5923 -23.26225,5.1463 -34.89377,7.71989 -14.789083,-2.22758 -29.577561,-4.45476 -44.366739,-6.68174 -10.24522,-7.92938 -20.490397,-15.85826 -30.735995,-23.78699 -3.296071,-12.65107 -6.592385,-25.30178 -9.888972,-37.95227 6.949171,-11.04725 13.89828,-22.09455 20.847024,-33.14142 z"
       transform="matrix(0.70870348,0,0,0.67422277,15.539155,32.545782)"
       sodipodi:nodetypes="cccccccccccc" />
    <path
       style="fill:none;stroke:#000000;stroke-width:0.26458332px;stroke-linecap:butt;stroke-linejoin:miter;stroke-opacity:1"
       d="m 58.977716,125.94726 c 5.790914,-6.23621 12.829015,-9.79981 19.421498,-11.58152 6.592482,-1.78172 12.739959,-1.78172 17.149707,-0.17818 4.409747,1.60354 7.082549,4.81091 8.240739,9.08712 1.15819,4.2762 0.80183,9.62154 -1.10471,15.75109 -1.90655,6.12955 -5.398687,13.11383 -9.675044,18.45935 -4.276358,5.34552 -9.354245,9.08713 -15.947149,10.95812 -6.592903,1.871 -14.877782,1.871 -20.62429,-1.51458 -5.746508,-3.38558 -9.042725,-10.15618 -8.419024,-17.99612 0.623701,-7.83994 5.167358,-16.74907 10.958273,-22.98528 z"
       id="path16"
       inkscape:connector-curvature="0"
       inkscape:path-effect="#path-effect18"
       inkscape:original-d="m 57.730217,123.27481 c 7.038361,-3.56386 14.076461,-7.12746 21.114292,-10.69079 6.147187,-2.6e-4 12.294664,-2.6e-4 18.441599,0 2.672844,3.20684 5.345652,6.41421 8.018082,9.62171 -0.3561,5.34517 -0.71245,10.69051 -1.06908,16.03617 -3.38532,6.94911 -6.948738,13.89775 -10.423508,20.84702 -5.078087,3.74168 -10.155975,7.48328 -15.234361,11.22532 -8.107387,-2.6e-4 -16.392266,-2.6e-4 -24.588798,0 -3.296166,-6.77131 -6.592382,-13.54192 -9.888971,-20.31248 4.543771,-8.90911 9.087429,-17.81824 13.630745,-26.72695 z"
       transform="matrix(0.75252464,0,0,0.74260709,9.1800113,26.140111)" />
    <path
       style="fill:none;stroke:#000000;stroke-width:0.26458332px;stroke-linecap:butt;stroke-linejoin:miter;stroke-opacity:1"
       d="m 138.62407,126.88293 c 5.96899,-0.0445 13.7198,0.57912 18.97591,4.76614 5.25611,4.18702 8.01798,11.93807 8.15167,19.33251 0.1337,7.39445 -2.36077,14.43241 -6.59258,20.00067 -4.2318,5.56826 -10.20055,9.66621 -16.97159,11.58174 -6.77105,1.91554 -14.3433,1.64828 -19.73344,-1.02454 -5.39014,-2.67282 -8.59727,-7.75078 -9.97813,-14.07621 -1.38087,-6.32542 -0.93541,-13.89816 1.3364,-20.62435 2.27181,-6.72619 6.3701,-12.60634 10.51271,-15.90251 4.14262,-3.29618 8.33006,-4.00894 14.29905,-4.05345 z"
       id="path20"
       inkscape:connector-curvature="0"
       inkscape:path-effect="#path-effect22"
       inkscape:original-d="m 136.842,126.21477 c 7.75108,0.62336 15.50189,1.24699 23.25244,1.87089 2.76197,7.75031 5.52384,15.50136 8.28536,23.25245 -2.4943,7.03797 -4.98877,14.07593 -7.48355,21.11429 -5.96902,4.09805 -11.93777,8.196 -17.90705,12.2944 -7.57276,-0.26755 -15.14501,-0.53481 -22.71791,-0.80181 -3.20708,-5.07856 -6.41421,-10.15651 -9.62171,-15.23437 0.44571,-7.57279 0.89117,-15.14553 1.33635,-22.7179 4.09825,-5.87998 8.19653,-11.76013 12.2944,-17.63979 4.18727,-0.71295 8.37471,-1.42571 12.56167,-2.13816 z"
       transform="matrix(0.75252464,0,0,0.74260709,9.1800113,26.140111)" />
    <path
       style="fill:none;stroke:#000000;stroke-width:0.26458332px;stroke-linecap:butt;stroke-linejoin:miter;stroke-opacity:1"
       d="m 56.928408,154.54534 c 4.543892,-1.06915 9.087475,-2.13823 11.84914,-4.81104 2.761666,-2.67281 3.741655,-6.94913 5.033496,-10.73545 1.291841,-3.78631 2.895465,-7.08265 5.167332,-9.62165 2.271866,-2.53899 5.211834,-4.32078 8.06256,-5.70158 2.850726,-1.3808 5.612817,-2.3609 8.374285,-3.34078"
       id="path24"
       inkscape:connector-curvature="0"
       inkscape:path-effect="#path-effect26"
       inkscape:original-d="m 56.928408,154.54534 c 4.543847,-1.06934 9.087429,-2.13842 13.630747,-3.20723 0.980252,-4.27658 1.960242,-8.5529 2.939963,-12.82894 1.603879,-3.29658 3.207501,-6.59292 4.810853,-9.88898 2.940228,-1.78205 5.880193,-3.56385 8.819894,-5.34538 2.761742,-0.98015 5.523836,-1.96024 8.285356,-2.93997"
       sodipodi:nodetypes="cccccc"
       transform="matrix(0.75252464,0,0,0.74260709,9.1800113,26.140111)" />
    <path
       style="fill:none;stroke:#000000;stroke-width:0.26458332px;stroke-linecap:butt;stroke-linejoin:miter;stroke-opacity:1"
       d="m 121.60763,171.38332 c 4.45481,-2.76198 8.90929,-5.52376 11.35912,-10.20102 2.44983,-4.67727 2.89527,-11.26992 5.12266,-15.7689 2.2274,-4.49899 6.23645,-6.90442 9.17633,-8.28524 2.93989,-1.38081 4.81092,-1.7372 6.68151,-2.0935"
       id="path28"
       inkscape:connector-curvature="0"
       inkscape:path-effect="#path-effect30"
       inkscape:original-d="m 121.60763,171.38332 c 4.45476,-2.76205 8.90925,-5.52383 13.36348,-8.28535 0.44571,-6.59292 0.89116,-13.18557 1.33634,-19.77795 4.00931,-2.40569 8.01836,-4.81112 12.02714,-7.21628 1.871,-0.35659 3.74203,-0.71298 5.61266,-1.06908"
       sodipodi:nodetypes="ccccc"
       transform="matrix(0.75252464,0,0,0.74260709,9.1800113,26.140111)" />
    <path
       style="fill:none;stroke:#000000;stroke-width:0.26458332px;stroke-linecap:butt;stroke-linejoin:miter;stroke-opacity:1"
       d="m 71.628232,121.93846 c -0.08908,3.11787 -0.178172,6.23601 0.712798,8.81984 0.89097,2.58382 2.761696,4.63271 4.988982,6.54817 2.227286,1.91547 4.810879,3.69725 6.770785,6.01348 1.959907,2.31623 3.296284,5.16717 4.632686,8.01816"
       id="path32"
       inkscape:connector-curvature="0"
       inkscape:path-effect="#path-effect34"
       inkscape:original-d="m 71.628232,121.93846 c -0.08883,3.11788 -0.177914,6.23602 -0.267269,9.35443 1.871313,2.04898 3.742039,4.09787 5.612659,6.1472 2.583887,1.78154 5.167477,3.56333 7.750818,5.34539 1.336582,2.85055 2.672958,5.70149 4.009043,8.55263"
       transform="matrix(0.75252464,0,0,0.74260709,9.1800113,26.140111)" />
    <path
       style="fill:none;stroke:#000000;stroke-width:0.26458332px;stroke-linecap:butt;stroke-linejoin:miter;stroke-opacity:1"
       d="m 129.09118,136.90555 c 0.0891,3.29847 0.17817,6.5924 1.11372,8.86438 0.93554,2.27198 2.7172,3.51915 5.03348,5.3009 2.31627,1.78176 5.16723,4.09816 6.59266,7.21614 1.42542,3.11798 1.42542,7.03798 1.11366,9.71069 -0.31177,2.67271 -0.93535,4.09806 -1.55912,5.52382"
       id="path36"
       inkscape:connector-curvature="0"
       inkscape:path-effect="#path-effect38"
       inkscape:original-d="m 129.09118,136.90555 c 0.17844,3.29606 0.17844,6.59239 0.26727,9.88897 1.7822,1.24709 3.56386,2.49425 5.34539,3.74178 2.85105,2.316 5.70201,4.6324 8.55262,6.94901 2.7e-4,3.91964 2.7e-4,7.83964 0,11.75985 -0.6234,1.42527 -1.24699,2.85061 -1.87088,4.27632"
       transform="matrix(0.75252464,0,0,0.74260709,9.1800113,26.140111)" />
    <path
       style="fill:none;stroke:#000000;stroke-width:0.23060746;stroke-linecap:butt;stroke-linejoin:miter;stroke-miterlimit:4;stroke-dasharray:none;stroke-opacity:1;marker-end:url(#Arrow2Mend)"
       d="m 65.495021,127.09135 4.861221,-9.29509"
       id="path42"
       inkscape:connector-curvature="0" />
    <path
       style="fill:none;stroke:#000000;stroke-width:0.26483452;stroke-linecap:butt;stroke-linejoin:miter;stroke-miterlimit:4;stroke-dasharray:none;stroke-opacity:1;marker-end:url(#marker8787)"
       d="m 111.53731,139.00687 2.65942,-11.26251"
       id="path42-7"
       inkscape:connector-curvature="0" />
    <path
       style="fill:none;stroke:#000000;stroke-width:0.26458332;stroke-linecap:butt;stroke-linejoin:miter;stroke-miterlimit:4;stroke-dasharray:0.79374995, 0.79374995;stroke-dashoffset:0;stroke-opacity:1;marker-end:url(#Arrow2Mend-7)"
       d="m 75.102738,135.43557 c 4.811116,-0.0446 9.62197,-0.0891 14.143144,0.13363 4.521174,0.22273 8.753175,0.71275 13.252028,1.95997 4.49885,1.24721 9.26542,3.25184 13.18533,4.9668 3.9199,1.71496 6.99359,3.14044 9.68852,4.34313 2.69493,1.2027 5.01135,2.18272 6.65947,2.93997 1.64812,0.75725 2.62816,1.29182 3.60805,1.8263"
       id="path7191"
       inkscape:connector-curvature="0"
       inkscape:path-effect="#path-effect7193"
       inkscape:original-d="m 75.102738,135.43557 c 4.811114,-0.0448 9.621967,-0.0894 14.432552,-0.13364 4.231799,0.48971 8.463801,0.97973 12.6953,1.46999 4.76631,2.00414 9.53288,4.00877 14.29892,6.01356 3.07378,1.42513 6.14747,2.85061 9.2208,4.27631 2.31651,0.97969 4.63294,1.95971 6.94901,2.93997 0.9802,0.53424 1.96024,1.06881 2.93996,1.60361"
       transform="matrix(0.75252464,0,0,0.74260709,9.1800113,26.140111)" />
    <path
       transform="matrix(0.75252464,0,0,0.74260709,19.65505,16.24866)"
       style="fill:none;stroke:#000000;stroke-width:0.26458332;stroke-linecap:butt;stroke-linejoin:miter;stroke-miterlimit:4;stroke-dasharray:0.79374995, 0.79374995;stroke-dashoffset:0;stroke-opacity:1;marker-end:url(#Arrow2Mend-7-5)"
       d="m 76.973625,135.83647 c 4.187495,-0.17819 8.37472,-0.35637 12.584075,-0.20046 4.209356,0.15592 8.441357,0.64594 12.94021,1.89316 4.49885,1.24721 9.26542,3.25184 13.18533,4.9668 3.9199,1.71496 6.99359,3.14044 9.44353,4.25405 2.44994,1.1136 4.27635,1.91544 5.59044,2.44998 1.31409,0.53454 2.1159,0.80181 2.91755,1.06902"
       id="path7191-8"
       inkscape:connector-curvature="0"
       inkscape:path-effect="#path-effect7193-0"
       inkscape:original-d="m 76.973625,135.83647 c 4.187484,-0.17844 8.374709,-0.35662 12.561665,-0.53454 4.231799,0.48971 8.463801,0.97973 12.6953,1.46999 4.76631,2.00414 9.53288,4.00877 14.29892,6.01356 3.07378,1.42513 6.14747,2.85061 9.2208,4.27631 1.82654,0.80151 3.65295,1.60336 5.47903,2.40543 0.80207,0.267 1.60388,0.53427 2.40542,0.8018"
       sodipodi:nodetypes="ccccccc" />
    <path
       transform="matrix(0.75252464,0,0,0.74260709,2.090987,37.734413)"
       style="fill:none;stroke:#000000;stroke-width:0.37455717;stroke-linecap:butt;stroke-linejoin:miter;stroke-miterlimit:4;stroke-dasharray:1.12367151,1.12367151;stroke-dashoffset:0;stroke-opacity:1;marker-end:url(#Arrow2Mend-7-5-7)"
       d="m 76.305451,135.5692 c 4.410214,-0.0891 8.820164,-0.17819 13.140884,0.0223 4.320721,0.20046 8.552722,0.69048 13.051575,1.9377 4.49885,1.24721 9.26542,3.25184 13.18533,4.9668 3.9199,1.71496 6.99359,3.14044 9.44353,4.25405 2.44994,1.1136 4.27635,1.91544 6.16953,2.58361 1.89318,0.66817 3.85317,1.20271 5.81296,1.7372"
       id="path7191-8-6"
       inkscape:connector-curvature="0"
       inkscape:path-effect="#path-effect7193-0-9"
       inkscape:original-d="m 76.305451,135.5692 c 4.41021,-0.0893 8.820159,-0.17844 13.229839,-0.26727 4.231799,0.48971 8.463801,0.97973 12.6953,1.46999 4.76631,2.00414 9.53288,4.00877 14.29892,6.01356 3.07378,1.42513 6.14747,2.85061 9.2208,4.27631 1.82654,0.80151 3.65295,1.60336 5.47903,2.40543 1.96023,0.53427 3.92022,1.06881 5.87992,1.60361"
       sodipodi:nodetypes="ccccccc" />
    <text
       xml:space="preserve"
       style="font-style:italic;font-variant:normal;font-weight:normal;font-stretch:normal;font-size:7.91156435px;line-height:1.25;font-family:'Adobe Hebrew';-inkscape-font-specification:'Adobe Hebrew, Italic';font-variant-ligatures:normal;font-variant-caps:normal;font-variant-numeric:normal;font-feature-settings:normal;text-align:start;letter-spacing:0px;word-spacing:0px;writing-mode:lr-tb;text-anchor:start;fill:#000000;fill-opacity:1;stroke:none;stroke-width:0.1977891"
       x="96.146523"
       y="111.86176"
       id="text8823"
       transform="scale(1.0066554,0.99338863)"><tspan
         sodipodi:role="line"
         id="tspan8821"
         x="96.146523"
         y="111.86176"
         style="font-style:italic;font-variant:normal;font-weight:normal;font-stretch:normal;font-size:7.91156435px;font-family:'Adobe Hebrew';-inkscape-font-specification:'Adobe Hebrew, Italic';font-variant-ligatures:normal;font-variant-caps:normal;font-variant-numeric:normal;font-feature-settings:normal;text-align:start;writing-mode:lr-tb;text-anchor:start;stroke-width:0.1977891">G</tspan></text>
    <text
       xml:space="preserve"
       style="font-style:italic;font-variant:normal;font-weight:normal;font-stretch:normal;font-size:3.6443305px;line-height:1.25;font-family:'Adobe Hebrew';-inkscape-font-specification:'Adobe Hebrew, Italic';font-variant-ligatures:normal;font-variant-caps:normal;font-variant-numeric:normal;font-feature-settings:normal;text-align:start;letter-spacing:0px;word-spacing:0px;writing-mode:lr-tb;text-anchor:start;fill:#000000;fill-opacity:1;stroke:none;stroke-width:0.09111031"
       x="62.42157"
       y="129.46492"
       id="text8823-5"
       transform="scale(1.0139977,0.98619551)"><tspan
         sodipodi:role="line"
         id="tspan8843"
         x="62.42157"
         y="129.46492"
         style="stroke-width:0.09111031">e</tspan></text>
    <text
       xml:space="preserve"
       style="font-style:italic;font-variant:normal;font-weight:normal;font-stretch:normal;font-size:3.6443305px;line-height:1.25;font-family:'Adobe Hebrew';-inkscape-font-specification:'Adobe Hebrew, Italic';font-variant-ligatures:normal;font-variant-caps:normal;font-variant-numeric:normal;font-feature-settings:normal;text-align:start;letter-spacing:0px;word-spacing:0px;writing-mode:lr-tb;text-anchor:start;fill:#000000;fill-opacity:1;stroke:none;stroke-width:0.09111031"
       x="110.90723"
       y="140.81174"
       id="text8823-5-0"
       transform="scale(1.0139977,0.98619551)"><tspan
         sodipodi:role="line"
         id="tspan8863"
         x="110.90723"
         y="140.81174"
         style="stroke-width:0.09111031">g</tspan></text>
    <text
       xml:space="preserve"
       style="font-style:italic;font-variant:normal;font-weight:normal;font-stretch:normal;font-size:3.64433556px;line-height:1.25;font-family:'Adobe Hebrew';-inkscape-font-specification:'Adobe Hebrew, Italic';font-variant-ligatures:normal;font-variant-caps:normal;font-variant-numeric:normal;font-feature-settings:normal;text-align:start;letter-spacing:0px;word-spacing:0px;writing-mode:lr;text-anchor:start;fill:#000000;fill-opacity:1;stroke:none;stroke-width:0.09111031;"
       x="74.021942"
       y="118.32703"
       id="text8823-5-0-7-1"
       transform="scale(1.0139977,0.98619551)"><tspan
         sodipodi:role="line"
         id="tspan2966">a</tspan></text>
    <text
       xml:space="preserve"
       style="font-style:italic;font-variant:normal;font-weight:normal;font-stretch:normal;font-size:3.64433556px;line-height:1.25;font-family:'Adobe Hebrew';-inkscape-font-specification:'Adobe Hebrew, Italic';font-variant-ligatures:normal;font-variant-caps:normal;font-variant-numeric:normal;font-feature-settings:normal;text-align:start;letter-spacing:0px;word-spacing:0px;writing-mode:lr;text-anchor:start;fill:#000000;fill-opacity:1;stroke:none;stroke-width:0.09111031;"
       x="118.02876"
       y="131.90408"
       id="text8823-5-0-7-1-0"
       transform="scale(1.0139977,0.98619551)"><tspan
         sodipodi:role="line"
         id="tspan2964">ga</tspan></text>
    <text
       xml:space="preserve"
       style="font-style:italic;font-variant:normal;font-weight:normal;font-stretch:normal;font-size:3.64433556px;line-height:1.25;font-family:'Adobe Hebrew';-inkscape-font-specification:'Adobe Hebrew, Italic';font-variant-ligatures:normal;font-variant-caps:normal;font-variant-numeric:normal;font-feature-settings:normal;text-align:start;letter-spacing:0px;word-spacing:0px;writing-mode:lr;text-anchor:start;fill:#ff0000;fill-opacity:1;stroke:none;stroke-width:0.09111031;"
       x="104.54154"
       y="154.3602"
       id="text8823-5-0-7-1-0-5"
       transform="scale(1.0139977,0.98619551)"><tspan
         sodipodi:role="line"
         id="tspan3073">gh</tspan></text>
    <text
       xml:space="preserve"
       style="font-style:normal;font-weight:normal;font-size:2.39296651px;line-height:1.25;font-family:sans-serif;letter-spacing:0px;word-spacing:0px;fill:#000000;fill-opacity:1;stroke:none;stroke-width:0.05982416"
       x="59.124187"
       y="155.74785"
       id="text8947"
       transform="scale(0.88663895,1.1278548)"><tspan
         sodipodi:role="line"
         x="59.124187"
         y="155.74785"
         style="font-style:normal;font-variant:normal;font-weight:normal;font-stretch:normal;font-size:3.52777791px;font-family:'Yu Gothic UI';-inkscape-font-specification:'Yu Gothic UI, Normal';font-variant-ligatures:normal;font-variant-caps:normal;font-variant-numeric:normal;font-feature-settings:normal;text-align:start;writing-mode:lr-tb;text-anchor:start;stroke-width:0.05982416"
         id="tspan8949">由g给出的一个左平移，把e的一个邻域映射到g的一个</tspan><tspan
         sodipodi:role="line"
         x="59.124187"
         y="160.20558"
         style="font-style:normal;font-variant:normal;font-weight:normal;font-stretch:normal;font-size:3.52777791px;font-family:'Yu Gothic UI';-inkscape-font-specification:'Yu Gothic UI, Normal';font-variant-ligatures:normal;font-variant-caps:normal;font-variant-numeric:normal;font-feature-settings:normal;text-align:start;writing-mode:lr-tb;text-anchor:start;stroke-width:0.05982416"
         id="tspan8953">邻域上，e的一个矢量自然地映射到g点的一个矢量。</tspan></text>
    <g
       id="g274"
       transform="matrix(0.13856082,0,0,0.15312689,44.165713,95.817504)">
      <g
         word-spacing="normal"
         letter-spacing="normal"
         font-size-adjust="none"
         font-stretch="normal"
         font-weight="normal"
         font-variant="normal"
         font-style="normal"
         stroke-miterlimit="10.433"
         xml:space="preserve"
         transform="matrix(0.54039863,0,0,-0.54039863,-94.569761,368.59209)"
         id="content"
         style="font-style:normal;font-variant:normal;font-weight:normal;font-stretch:normal;letter-spacing:normal;word-spacing:normal;text-anchor:start;fill:none;fill-opacity:1;fill-rule:evenodd;stroke:#000000;stroke-linecap:butt;stroke-linejoin:miter;stroke-miterlimit:10.43299961;stroke-dasharray:none;stroke-dashoffset:0;stroke-opacity:1"><path
           id="path269"
           d="m 464.44,411.93 -0.19,-0.3 -0.18,-0.29 -0.19,-0.28 -0.19,-0.26 -0.18,-0.25 -0.19,-0.23 -0.19,-0.22 -0.18,-0.21 -0.19,-0.2 -0.19,-0.18 -0.18,-0.17 -0.19,-0.16 -0.19,-0.15 -0.18,-0.14 -0.19,-0.13 -0.19,-0.12 -0.19,-0.11 -0.19,-0.1 -0.19,-0.09 -0.19,-0.09 -0.19,-0.07 -0.2,-0.07 -0.19,-0.07 -0.2,-0.05 -0.19,-0.05 -0.2,-0.04 -0.2,-0.04 -0.19,-0.03 -0.41,-0.05 -0.4,-0.03 c -0.61,-0.05 -1.05,-0.05 -1.05,-1 0,-0.3 0.25,-0.55 0.64,-0.55 1.34,0 2.89,0.16 4.28,0.16 1.64,0 3.39,-0.16 4.99,-0.16 0.29,0 0.95,0 0.95,0.95 0,0.55 -0.45,0.6 -0.8,0.6 -1.15,0.09 -2.34,0.5 -2.34,1.73 0,0.61 0.3,1.16 0.69,1.84 l 3.79,6.39 h 12.5 l -0.14,1.54 h -11.42 l 9.83,16.45 1.59,-16.45 0.14,-1.54 c 0.11,-1.04 0.8,-7.82 0.8,-8.32 0,-1.5 -2.59,-1.64 -3.58,-1.64 -0.7,0 -1.2,0 -1.2,-1 0,-0.55 0.59,-0.55 0.7,-0.55 2.03,0 4.19,0.16 6.22,0.16 1.25,0 4.39,-0.16 5.64,-0.16 0.3,0 0.89,0 0.89,1 0,0.55 -0.5,0.55 -1.14,0.55 -3.09,0 -3.09,0.34 -3.25,1.79 l -3.03,31.13 c -0.11,1 -0.11,1.2 -0.95,1.2 -0.8,0 -0.99,-0.34 -1.3,-0.84 z"
           inkscape:connector-curvature="0"
           style="fill:#000000;stroke-width:0" /><path
           id="path271"
           d="m 500.65,406.7 h 0.1 0.1 0.12 0.12 l 0.14,0.01 h 0.14 l 0.15,0.01 h 0.15 l 0.16,0.01 0.17,0.01 0.18,0.01 0.17,0.01 0.19,0.01 0.19,0.02 0.38,0.03 0.4,0.04 0.4,0.05 0.41,0.06 0.4,0.07 0.41,0.08 0.19,0.05 0.2,0.04 0.19,0.05 0.19,0.06 0.18,0.05 0.18,0.06 c 2.58,0.91 3.06,2.58 3.06,3.63 0,1.92 -1.92,3.06 -4.32,3.06 v -0.97 c 1.53,0 2.82,-0.76 2.82,-2.09 0,-3.38 -5.89,-3.38 -7.39,-3.38 h -1.7 c 1.42,5.05 5.3,5.47 6.27,5.47 v 0.97 c -4.18,0 -9.83,-3.2 -9.83,-9.16 0,-3.51 2.2,-6.54 6.28,-6.54 5.89,0 8.64,3.44 8.64,3.94 0,0.2 -0.31,0.59 -0.59,0.59 -0.21,0 -0.29,-0.08 -0.57,-0.36 -2.72,-3.2 -6.79,-3.2 -7.42,-3.2 -2.09,0 -3.48,1.39 -3.48,4.22 0,0.48 0,1.18 0.42,3.09 z"
           inkscape:connector-curvature="0"
           style="fill:#000000;stroke-width:0" /></g>    </g>
    <g
       id="g383"
       transform="matrix(0.13922925,0,0,0.15699093,87.682143,105.79289)">
      <g
         word-spacing="normal"
         letter-spacing="normal"
         font-size-adjust="none"
         font-stretch="normal"
         font-weight="normal"
         font-variant="normal"
         font-style="normal"
         stroke-miterlimit="10.433"
         xml:space="preserve"
         transform="matrix(0.54039863,0,0,-0.54039863,-94.569761,368.59209)"
         id="g381"
         style="font-style:normal;font-variant:normal;font-weight:normal;font-stretch:normal;letter-spacing:normal;word-spacing:normal;text-anchor:start;fill:none;fill-opacity:1;fill-rule:evenodd;stroke:#000000;stroke-linecap:butt;stroke-linejoin:miter;stroke-miterlimit:10.43299961;stroke-dasharray:none;stroke-dashoffset:0;stroke-opacity:1"><path
           id="path377"
           d="m 464.44,411.93 -0.19,-0.3 -0.18,-0.29 -0.19,-0.28 -0.19,-0.26 -0.18,-0.25 -0.19,-0.23 -0.19,-0.22 -0.18,-0.21 -0.19,-0.2 -0.19,-0.18 -0.18,-0.17 -0.19,-0.16 -0.19,-0.15 -0.18,-0.14 -0.19,-0.13 -0.19,-0.12 -0.19,-0.11 -0.19,-0.1 -0.19,-0.09 -0.19,-0.09 -0.19,-0.07 -0.2,-0.07 -0.19,-0.07 -0.2,-0.05 -0.19,-0.05 -0.2,-0.04 -0.2,-0.04 -0.19,-0.03 -0.41,-0.05 -0.4,-0.03 c -0.61,-0.05 -1.05,-0.05 -1.05,-1 0,-0.3 0.25,-0.55 0.64,-0.55 1.34,0 2.89,0.16 4.28,0.16 1.64,0 3.39,-0.16 4.99,-0.16 0.29,0 0.95,0 0.95,0.95 0,0.55 -0.45,0.6 -0.8,0.6 -1.15,0.09 -2.34,0.5 -2.34,1.73 0,0.61 0.3,1.16 0.69,1.84 l 3.79,6.39 h 12.5 l -0.14,1.54 h -11.42 l 9.83,16.45 1.59,-16.45 0.14,-1.54 c 0.11,-1.04 0.8,-7.82 0.8,-8.32 0,-1.5 -2.59,-1.64 -3.58,-1.64 -0.7,0 -1.2,0 -1.2,-1 0,-0.55 0.59,-0.55 0.7,-0.55 2.03,0 4.19,0.16 6.22,0.16 1.25,0 4.39,-0.16 5.64,-0.16 0.3,0 0.89,0 0.89,1 0,0.55 -0.5,0.55 -1.14,0.55 -3.09,0 -3.09,0.34 -3.25,1.79 l -3.03,31.13 c -0.11,1 -0.11,1.2 -0.95,1.2 -0.8,0 -0.99,-0.34 -1.3,-0.84 z"
           inkscape:connector-curvature="0"
           style="fill:#000000;stroke-width:0" /><path
           id="path379"
           d="m 511.37,411.62 0.01,0.05 0.02,0.04 0.01,0.05 0.01,0.04 0.01,0.04 0.01,0.04 v 0.03 l 0.01,0.04 0.01,0.03 0.01,0.03 v 0.03 l 0.01,0.03 v 0.02 l 0.01,0.03 v 0.02 0.02 l 0.01,0.02 v 0.02 0.02 0.02 l 0.01,0.01 v 0.02 0.01 0.01 0.01 0.01 0.01 0.01 0.01 0 0.01 0.01 c 0,0.76 -0.62,1.1 -1.19,1.1 -0.79,0 -1.45,-0.65 -1.59,-1.32 -0.59,0.95 -1.78,1.98 -3.59,1.98 v -0.97 c 2.43,0 3.11,-2.61 3.11,-2.97 0,-0.06 0,-0.12 -0.11,-0.51 l -1.57,-6.27 c -0.14,-0.53 -0.14,-0.59 -0.73,-1.29 -1.22,-1.47 -2.89,-2.38 -4.22,-2.38 -1.78,0 -2.61,1.5 -2.61,3.31 0,1.53 0.94,5.44 1.85,6.97 1.46,2.44 3.09,3.14 4.28,3.14 v 0.97 c -4.36,0 -8.93,-4.66 -8.93,-9.64 0,-3.59 2.44,-5.72 5.3,-5.72 1.61,0 3.14,0.8 4.36,1.88 l -0.76,-3.13 c -0.4,-1.47 -0.63,-2.4 -1.96,-3.59 -1.53,-1.28 -3.03,-1.28 -3.9,-1.28 -1.6,0 -2.05,0.09 -2.68,0.23 0.86,0.42 1.11,1.25 1.11,1.75 0,0.83 -0.65,1.28 -1.36,1.28 -0.96,0 -1.98,-0.79 -1.98,-2.12 0,-2.1 3,-2.13 4.95,-2.13 5.47,0 7.8,2.78 8.28,4.78 z"
           inkscape:connector-curvature="0"
           style="fill:#000000;stroke-width:0" /></g>    </g>
    <g
       id="g3045"
       transform="matrix(0.11407134,0,0,0.14074884,73.43632,108.1282)">
      <g
         word-spacing="normal"
         letter-spacing="normal"
         font-size-adjust="none"
         font-stretch="normal"
         font-weight="normal"
         font-variant="normal"
         font-style="normal"
         stroke-miterlimit="10.433"
         xml:space="preserve"
         transform="matrix(0.54039863,0,0,-0.54039863,-94.569761,368.59209)"
         id="g3043"
         style="font-style:normal;font-variant:normal;font-weight:normal;font-stretch:normal;letter-spacing:normal;word-spacing:normal;text-anchor:start;fill:none;fill-opacity:1;fill-rule:evenodd;stroke:#000000;stroke-linecap:butt;stroke-linejoin:miter;stroke-miterlimit:10.43299961;stroke-dasharray:none;stroke-dashoffset:0;stroke-opacity:1"><path
           id="path3039"
           d="m 474.16,436.34 0.04,0.16 0.04,0.16 0.04,0.15 0.04,0.15 0.04,0.13 0.05,0.13 0.05,0.13 0.05,0.11 0.06,0.12 0.06,0.1 0.08,0.1 0.08,0.09 0.09,0.09 0.1,0.08 0.11,0.08 0.12,0.07 0.13,0.06 0.15,0.06 0.16,0.06 0.18,0.05 0.09,0.02 0.1,0.02 0.1,0.02 0.11,0.02 0.11,0.02 0.11,0.02 0.12,0.02 0.13,0.01 0.13,0.01 0.14,0.02 0.14,0.01 0.14,0.01 0.15,0.01 0.16,0.01 0.16,0.01 0.17,0.01 h 0.17 l 0.18,0.01 h 0.18 l 0.19,0.01 h 0.2 0.2 0.21 0.22 c 1.49,0 1.89,0 1.89,0.96 0,0.59 -0.54,0.59 -0.79,0.59 -1.66,0 -5.74,-0.16 -7.38,-0.16 -1.5,0 -5.14,0.16 -6.62,0.16 -0.36,0 -0.96,0 -0.96,-1 0,-0.55 0.46,-0.55 1.39,-0.55 0.11,0 1.05,0 1.91,-0.09 0.89,-0.11 1.34,-0.16 1.34,-0.8 0,-0.2 -0.06,-0.36 -0.2,-0.95 l -6.67,-26.75 c -0.5,-1.95 -0.61,-2.34 -4.55,-2.34 -0.84,0 -1.34,0 -1.34,-1 0,-0.55 0.45,-0.55 1.34,-0.55 h 23.08 c 1.19,0 1.23,0 1.55,0.84 l 3.92,10.77 c 0.2,0.55 0.2,0.64 0.2,0.7 0,0.19 -0.14,0.55 -0.59,0.55 -0.46,0 -0.5,-0.25 -0.85,-1.05 -1.7,-4.59 -3.89,-10.26 -12.51,-10.26 h -4.67 c -0.71,0 -0.8,0 -1.1,0.04 -0.5,0.05 -0.65,0.1 -0.65,0.5 0,0.14 0,0.25 0.25,1.14 z"
           inkscape:connector-curvature="0"
           style="fill:#000000;stroke-width:0" /><path
           id="path3041"
           d="m 508.01,411.62 0.01,0.05 0.02,0.04 0.01,0.05 0.01,0.04 0.01,0.04 0.01,0.04 0.01,0.03 v 0.04 l 0.01,0.03 0.01,0.03 v 0.03 l 0.01,0.03 v 0.02 l 0.01,0.03 v 0.02 0.02 l 0.01,0.02 v 0.02 0.02 0.02 l 0.01,0.01 v 0.02 0.01 0.01 0.01 0.01 0.01 0.01 0.01 0 0.01 0.01 c 0,0.76 -0.62,1.1 -1.19,1.1 -0.79,0 -1.45,-0.65 -1.59,-1.32 -0.59,0.95 -1.78,1.98 -3.59,1.98 v -0.97 c 2.43,0 3.11,-2.61 3.11,-2.97 0,-0.06 0,-0.12 -0.11,-0.51 l -1.57,-6.27 c -0.14,-0.53 -0.14,-0.59 -0.73,-1.29 -1.22,-1.47 -2.89,-2.38 -4.22,-2.38 -1.78,0 -2.61,1.5 -2.61,3.31 0,1.53 0.94,5.44 1.85,6.97 1.46,2.44 3.09,3.14 4.28,3.14 v 0.97 c -4.36,0 -8.92,-4.66 -8.92,-9.64 0,-3.59 2.43,-5.72 5.29,-5.72 1.61,0 3.14,0.8 4.36,1.88 l -0.76,-3.13 c -0.39,-1.47 -0.63,-2.4 -1.96,-3.59 -1.53,-1.28 -3.03,-1.28 -3.9,-1.28 -1.6,0 -2.05,0.09 -2.68,0.23 0.86,0.42 1.11,1.25 1.11,1.75 0,0.83 -0.65,1.28 -1.36,1.28 -0.96,0 -1.98,-0.79 -1.98,-2.12 0,-2.1 3,-2.13 4.95,-2.13 5.47,0 7.8,2.78 8.28,4.78 z"
           inkscape:connector-curvature="0"
           style="fill:#000000;stroke-width:0" /></g>    </g>
    <text
       xml:space="preserve"
       style="font-style:italic;font-variant:normal;font-weight:normal;font-stretch:normal;font-size:3.64433552px;line-height:1.25;font-family:'Adobe Hebrew';-inkscape-font-specification:'Adobe Hebrew, Italic';font-variant-ligatures:normal;font-variant-caps:normal;font-variant-numeric:normal;font-feature-settings:normal;text-align:start;letter-spacing:0px;word-spacing:0px;writing-mode:lr;text-anchor:start;fill:#ff0000;fill-opacity:1;stroke:none;stroke-width:0.09111031;"
       x="56.613667"
       y="139.99049"
       id="text8823-5-0-7-1-3"
       transform="scale(1.0139977,0.98619553)"><tspan
         sodipodi:role="line"
         id="tspan3071">h</tspan></text>
    <path
       style="fill:none;stroke:#ff0000;stroke-width:0.42112902;stroke-linecap:butt;stroke-linejoin:miter;stroke-miterlimit:4;stroke-dasharray:none;stroke-opacity:1;marker-end:url(#Arrow2Mend-4)"
       d="M 59.642438,138.31703 70.45021,130.11727"
       id="path42-4"
       inkscape:connector-curvature="0" />
    <path
       style="fill:none;stroke:#ff0000;stroke-width:0.40706271;stroke-linecap:butt;stroke-linejoin:miter;stroke-miterlimit:4;stroke-dasharray:none;stroke-opacity:1;marker-end:url(#Arrow2Mend-4-2)"
       d="m 105.6092,150.08372 9.97306,-8.09608"
       id="path42-4-8"
       inkscape:connector-curvature="0" />
    <g
       id="g4192"
       transform="matrix(0.16272833,0,0,0.19410462,45.93154,101.61675)">
      <g
         word-spacing="normal"
         letter-spacing="normal"
         font-size-adjust="none"
         font-stretch="normal"
         font-weight="normal"
         font-variant="normal"
         font-style="normal"
         stroke-miterlimit="10.433"
         xml:space="preserve"
         transform="matrix(0.54039863,0,0,-0.54039863,-94.569761,368.59209)"
         id="g4190"
         style="font-style:normal;font-variant:normal;font-weight:normal;font-stretch:normal;letter-spacing:normal;word-spacing:normal;text-anchor:start;fill:none;fill-opacity:1;fill-rule:evenodd;stroke:#000000;stroke-linecap:butt;stroke-linejoin:miter;stroke-miterlimit:10.43299961;stroke-dasharray:none;stroke-dashoffset:0;stroke-opacity:1"><path
           id="path4186"
           d="m 464.44,411.93 -0.19,-0.3 -0.18,-0.29 -0.19,-0.28 -0.19,-0.26 -0.18,-0.25 -0.19,-0.23 -0.19,-0.22 -0.18,-0.21 -0.19,-0.2 -0.19,-0.18 -0.18,-0.17 -0.19,-0.16 -0.19,-0.15 -0.18,-0.14 -0.19,-0.13 -0.19,-0.12 -0.19,-0.11 -0.19,-0.1 -0.19,-0.09 -0.19,-0.09 -0.19,-0.07 -0.2,-0.07 -0.19,-0.07 -0.2,-0.05 -0.19,-0.05 -0.2,-0.04 -0.2,-0.04 -0.19,-0.03 -0.41,-0.05 -0.4,-0.03 c -0.61,-0.05 -1.05,-0.05 -1.05,-1 0,-0.3 0.25,-0.55 0.64,-0.55 1.34,0 2.89,0.16 4.28,0.16 1.64,0 3.39,-0.16 4.99,-0.16 0.29,0 0.95,0 0.95,0.95 0,0.55 -0.45,0.6 -0.8,0.6 -1.15,0.09 -2.34,0.5 -2.34,1.73 0,0.61 0.3,1.16 0.69,1.84 l 3.79,6.39 h 12.5 l -0.14,1.54 h -11.42 l 9.83,16.45 1.59,-16.45 0.14,-1.54 c 0.11,-1.04 0.8,-7.82 0.8,-8.32 0,-1.5 -2.59,-1.64 -3.58,-1.64 -0.7,0 -1.2,0 -1.2,-1 0,-0.55 0.59,-0.55 0.7,-0.55 2.03,0 4.19,0.16 6.22,0.16 1.25,0 4.39,-0.16 5.64,-0.16 0.3,0 0.89,0 0.89,1 0,0.55 -0.5,0.55 -1.14,0.55 -3.09,0 -3.09,0.34 -3.25,1.79 l -3.03,31.13 c -0.11,1 -0.11,1.2 -0.95,1.2 -0.8,0 -0.99,-0.34 -1.3,-0.84 z"
           inkscape:connector-curvature="0"
           style="fill:#ff0000;stroke-width:0;fill-opacity:1" /><path
           id="path4188"
           d="m 503.75,421.9 v 0.01 0 0 0.01 0 l 0.01,0.01 v 0.01 0 0.01 l 0.01,0.01 v 0.01 l 0.01,0.02 v 0.02 l 0.01,0.02 v 0.02 l 0.01,0.02 v 0.02 l 0.01,0.03 0.01,0.02 0.01,0.05 0.01,0.04 0.01,0.03 v 0.02 l 0.01,0.02 v 0.02 l 0.01,0.02 v 0.02 0.02 l 0.01,0.01 v 0.01 0.01 0 0.01 0 0.01 h 0.01 v 0.01 0 0 0.01 0 c 0,0.19 -0.14,0.5 -0.57,0.5 -0.68,0 -3.57,-0.28 -4.45,-0.36 -0.28,-0.03 -0.76,-0.06 -0.76,-0.8 0,-0.48 0.48,-0.48 0.9,-0.48 1.67,0 1.67,-0.25 1.67,-0.53 0,-0.24 -0.07,-0.46 -0.14,-0.77 l -4.92,-19.72 c -0.17,-0.62 -0.17,-0.68 -0.17,-0.76 0,-0.52 0.42,-1.11 1.19,-1.11 0.39,0 1.04,0.17 1.43,0.9 0.1,0.21 0.41,1.46 0.58,2.19 l 0.81,3.11 c 0.1,0.52 0.46,1.84 0.55,2.36 0.36,1.33 0.36,1.36 1.05,2.48 1.12,1.71 2.86,3.69 5.58,3.69 1.95,0 2.06,-1.61 2.06,-2.44 0,-2.09 -1.5,-5.95 -2.06,-7.42 -0.38,-0.98 -0.52,-1.29 -0.52,-1.89 0,-1.84 1.53,-2.98 3.3,-2.98 3.5,0 5.03,4.79 5.03,5.33 0,0.45 -0.45,0.45 -0.56,0.45 -0.49,0 -0.54,-0.2 -0.66,-0.59 -0.81,-2.79 -2.34,-4.22 -3.7,-4.22 -0.74,0 -0.88,0.48 -0.88,1.22 0,0.79 0.19,1.25 0.81,2.82 0.41,1.08 1.85,4.77 1.85,6.72 0,0.56 0,2.03 -1.3,3.03 -0.59,0.46 -1.59,0.94 -3.23,0.94 -2.55,0 -4.39,-1.39 -5.67,-2.89 z"
           inkscape:connector-curvature="0"
           style="fill:#ff0000;stroke-width:0;fill-opacity:1" /></g>    </g>
    <path
       transform="matrix(0.75252464,0,0,0.74260709,9.0823577,32.487824)"
       style="fill:none;stroke:#ff0000;stroke-width:0.58858985;stroke-linecap:butt;stroke-linejoin:miter;stroke-miterlimit:4;stroke-dasharray:3.53153904, 3.53153904;stroke-dashoffset:0;stroke-opacity:1;marker-end:url(#Arrow1Mend)"
       d="m 76.305451,135.5692 c 4.410214,-0.0891 8.820164,-0.17819 13.140884,0.0223 4.320721,0.20046 8.552722,0.69048 13.051575,1.9377 4.49885,1.24721 9.26542,3.25185 14.09855,5.36773 4.83313,2.11589 9.73311,4.34315 12.83155,5.74802 3.09845,1.40488 4.39546,1.9874 5.69233,2.56987"
       id="path7191-8-6-8"
       inkscape:connector-curvature="0"
       inkscape:path-effect="#path-effect7193-0-9-4"
       inkscape:original-d="m 76.305451,135.5692 c 4.41021,-0.0893 8.820159,-0.17844 13.229839,-0.26727 4.231799,0.48971 8.463801,0.97973 12.6953,1.46999 4.76631,2.00414 9.53289,4.00875 14.29892,6.01356 4.90023,2.22697 9.80021,4.45423 14.69983,6.68174 1.29727,0.58223 2.59428,1.16476 3.891,1.74757"
       sodipodi:nodetypes="cccccc" />
    <g
       id="g5132"
       transform="matrix(0.12559152,0,0,0.15703795,67.508463,115.62103)">
      <g
         word-spacing="normal"
         letter-spacing="normal"
         font-size-adjust="none"
         font-stretch="normal"
         font-weight="normal"
         font-variant="normal"
         font-style="normal"
         stroke-miterlimit="10.433"
         xml:space="preserve"
         transform="matrix(0.54039863,0,0,-0.54039863,-94.569761,368.59209)"
         id="g5130"
         style="font-style:normal;font-variant:normal;font-weight:normal;font-stretch:normal;letter-spacing:normal;word-spacing:normal;text-anchor:start;fill:none;fill-opacity:1;fill-rule:evenodd;stroke:#000000;stroke-linecap:butt;stroke-linejoin:miter;stroke-miterlimit:10.43299961;stroke-dasharray:none;stroke-dashoffset:0;stroke-opacity:1"><path
           id="path5124"
           d="m 474.16,436.34 0.04,0.16 0.04,0.16 0.04,0.15 0.04,0.15 0.04,0.13 0.05,0.13 0.05,0.13 0.05,0.11 0.06,0.12 0.06,0.1 0.08,0.1 0.08,0.09 0.09,0.09 0.1,0.08 0.11,0.08 0.12,0.07 0.13,0.06 0.15,0.06 0.16,0.06 0.18,0.05 0.09,0.02 0.1,0.02 0.1,0.02 0.11,0.02 0.11,0.02 0.11,0.02 0.12,0.02 0.13,0.01 0.13,0.01 0.14,0.02 0.14,0.01 0.14,0.01 0.15,0.01 0.16,0.01 0.16,0.01 0.17,0.01 h 0.17 l 0.18,0.01 h 0.18 l 0.19,0.01 h 0.2 0.2 0.21 0.22 c 1.49,0 1.89,0 1.89,0.96 0,0.59 -0.54,0.59 -0.79,0.59 -1.66,0 -5.74,-0.16 -7.38,-0.16 -1.5,0 -5.14,0.16 -6.62,0.16 -0.36,0 -0.96,0 -0.96,-1 0,-0.55 0.46,-0.55 1.39,-0.55 0.11,0 1.05,0 1.91,-0.09 0.89,-0.11 1.34,-0.16 1.34,-0.8 0,-0.2 -0.06,-0.36 -0.2,-0.95 l -6.67,-26.75 c -0.5,-1.95 -0.61,-2.34 -4.55,-2.34 -0.84,0 -1.34,0 -1.34,-1 0,-0.55 0.45,-0.55 1.34,-0.55 h 23.08 c 1.19,0 1.23,0 1.55,0.84 l 3.92,10.77 c 0.2,0.55 0.2,0.64 0.2,0.7 0,0.19 -0.14,0.55 -0.59,0.55 -0.46,0 -0.5,-0.25 -0.85,-1.05 -1.7,-4.59 -3.89,-10.26 -12.51,-10.26 h -4.67 c -0.71,0 -0.8,0 -1.1,0.04 -0.5,0.05 -0.65,0.1 -0.65,0.5 0,0.14 0,0.25 0.25,1.14 z"
           inkscape:connector-curvature="0"
           style="fill:#ff0000;fill-opacity:1;stroke-width:0" /><path
           id="path5126"
           d="m 508.01,411.62 0.01,0.05 0.02,0.04 0.01,0.05 0.01,0.04 0.01,0.04 0.01,0.04 0.01,0.03 v 0.04 l 0.01,0.03 0.01,0.03 v 0.03 l 0.01,0.03 v 0.02 l 0.01,0.03 v 0.02 0.02 l 0.01,0.02 v 0.02 0.02 0.02 l 0.01,0.01 v 0.02 0.01 0.01 0.01 0.01 0.01 0.01 0.01 0 0.01 0.01 c 0,0.76 -0.62,1.1 -1.19,1.1 -0.79,0 -1.45,-0.65 -1.59,-1.32 -0.59,0.95 -1.78,1.98 -3.59,1.98 v -0.97 c 2.43,0 3.11,-2.61 3.11,-2.97 0,-0.06 0,-0.12 -0.11,-0.51 l -1.57,-6.27 c -0.14,-0.53 -0.14,-0.59 -0.73,-1.29 -1.22,-1.47 -2.89,-2.38 -4.22,-2.38 -1.78,0 -2.61,1.5 -2.61,3.31 0,1.53 0.94,5.44 1.85,6.97 1.46,2.44 3.09,3.14 4.28,3.14 v 0.97 c -4.36,0 -8.92,-4.66 -8.92,-9.64 0,-3.59 2.43,-5.72 5.29,-5.72 1.61,0 3.14,0.8 4.36,1.88 l -0.76,-3.13 c -0.39,-1.47 -0.63,-2.4 -1.96,-3.59 -1.53,-1.28 -3.03,-1.28 -3.9,-1.28 -1.6,0 -2.05,0.09 -2.68,0.23 0.86,0.42 1.11,1.25 1.11,1.75 0,0.83 -0.65,1.28 -1.36,1.28 -0.96,0 -1.98,-0.79 -1.98,-2.12 0,-2.1 3,-2.13 4.95,-2.13 5.47,0 7.8,2.78 8.28,4.78 z"
           inkscape:connector-curvature="0"
           style="fill:#ff0000;fill-opacity:1;stroke-width:0" /><path
           id="path5128"
           d="m 521.37,407.43 0.26,0.12 0.26,0.11 0.24,0.11 0.24,0.1 0.23,0.1 0.22,0.1 0.21,0.09 0.21,0.09 0.19,0.08 0.19,0.08 0.19,0.08 0.17,0.08 0.17,0.07 0.17,0.07 0.15,0.06 0.16,0.07 0.14,0.06 0.14,0.06 0.13,0.05 0.13,0.06 0.13,0.05 0.11,0.05 0.12,0.05 0.11,0.05 0.1,0.04 0.11,0.05 0.19,0.08 0.18,0.09 0.16,0.08 c 0.67,0.26 0.99,0.4 0.99,1.07 0,0.6 -0.46,1.11 -1.08,1.11 -0.25,0 -0.31,0 -0.74,-0.31 l -4.73,-3.17 0.52,5.15 c 0.07,0.63 0,1.5 -1.05,1.5 -0.42,0 -1.08,-0.28 -1.08,-1.04 0,-0.31 0.14,-1.36 0.17,-1.71 0.08,-0.59 0.32,-3.1 0.39,-3.9 l -4.7,3.17 c -0.36,0.2 -0.45,0.31 -0.77,0.31 -0.64,0 -1.09,-0.51 -1.09,-1.11 0,-0.7 0.42,-0.87 0.74,-1.01 l 5.26,-2.19 c -2.86,-1.27 -4.14,-1.75 -5.01,-2.17 -0.66,-0.28 -0.99,-0.42 -0.99,-1.08 0,-0.59 0.45,-1.11 1.09,-1.11 0.24,0 0.32,0 0.72,0.31 l 4.75,3.18 -0.56,-5.61 c 0,-0.77 0.66,-1.05 1.08,-1.05 0.42,0 1.08,0.28 1.08,1.05 0,0.31 -0.14,1.36 -0.17,1.7 -0.07,0.59 -0.32,3.09 -0.38,3.91 l 4.17,-2.8 c 0.91,-0.69 0.99,-0.69 1.3,-0.69 0.62,0 1.08,0.52 1.08,1.11 0,0.7 -0.42,0.88 -0.74,1.02 z"
           inkscape:connector-curvature="0"
           style="fill:#ff0000;fill-opacity:1;stroke-width:0" /></g>    </g>
    <g
       id="g437"
       transform="matrix(0.60056705,0,0,0.6423511,30.669655,65.628511)">
      <g
         word-spacing="normal"
         letter-spacing="normal"
         font-size-adjust="none"
         font-stretch="normal"
         font-weight="normal"
         font-variant="normal"
         font-style="normal"
         stroke-miterlimit="10.433"
         xml:space="preserve"
         transform="matrix(0.54039863,0,0,-0.54039863,-94.569761,368.59209)"
         id="g435"
         style="font-style:normal;font-variant:normal;font-weight:normal;font-stretch:normal;letter-spacing:normal;word-spacing:normal;text-anchor:start;fill:none;fill-opacity:1;fill-rule:evenodd;stroke:#000000;stroke-linecap:butt;stroke-linejoin:miter;stroke-miterlimit:10.43299961;stroke-dasharray:none;stroke-dashoffset:0;stroke-opacity:1"><path
           id="path395"
           d="m 434.34851,465.71144 -0.0407,-0.0718 -0.0429,-0.0672 -0.0429,-0.0649 -0.0406,-0.0602 -0.0429,-0.058 -0.0429,-0.0533 -0.0407,-0.051 -0.0429,-0.0486 -0.0429,-0.0463 -0.0406,-0.0417 -0.0429,-0.0394 -0.0429,-0.037 -0.0406,-0.0347 -0.0429,-0.0324 -0.0429,-0.0302 -0.0429,-0.0278 -0.0429,-0.0255 -0.0429,-0.0231 -0.0429,-0.0208 -0.0429,-0.0208 -0.0429,-0.0162 -0.0429,-0.0163 -0.0452,-0.0139 -0.0429,-0.0139 -0.0452,-0.0117 -0.0452,-0.009 -0.0429,-0.009 -0.0452,-0.008 -0.0904,-0.0117 -0.0926,-0.008 c -0.13775,-0.0117 -0.23711,-0.0117 -0.23711,-0.23167 0,-0.0694 0.0565,-0.1274 0.14452,-0.1274 0.30487,0 0.65261,0.0371 0.96651,0.0371 0.37034,0 0.76552,-0.0371 1.12684,-0.0371 0.0677,0 0.21452,0 0.21452,0.22008 0,0.12741 -0.10167,0.139 -0.18066,0.139 -0.25969,0.0208 -0.52841,0.11583 -0.52841,0.40081 0,0.14132 0.0678,0.26875 0.15581,0.4286 l 0.85811,1.48038 h 2.82273 l -0.0338,0.35446 h -2.57884 l 2.21979,3.81102 0.35905,-3.81102 0.0338,-0.35446 c 0.0225,-0.24326 0.1784,-1.814 0.1784,-1.92984 0,-0.3475 -0.58486,-0.37995 -0.80842,-0.37995 -0.15808,0 -0.27099,0 -0.27099,-0.23166 0,-0.12741 0.13324,-0.12741 0.15808,-0.12741 0.46067,0 0.94617,0.037 1.40458,0.037 0.28228,0 0.99135,-0.037 1.27362,-0.037 0.0678,0 0.20097,0 0.20097,0.23168 0,0.1274 -0.11287,0.1274 -0.25742,0.1274 -0.69777,0 -0.69777,0.0788 -0.73391,0.41471 l -0.68424,7.21199 c -0.0248,0.23166 -0.0248,0.278 -0.21452,0.278 -0.18065,0 -0.22356,-0.0788 -0.29356,-0.1946 z"
           inkscape:connector-curvature="0"
           style="fill:#ff0000;fill-opacity:1;stroke-width:0" /><path
           id="path397"
           d="m 444.74512,465.87099 0.002,0.0113 0.002,0.009 0.005,0.0113 0.002,0.009 0.002,0.009 v 0.008 l 0.002,0.009 0.002,0.008 0.002,0.009 v 0.008 l 0.002,0.008 0.002,0.008 v 0.005 l 0.002,0.008 v 0.005 0.005 l 0.002,0.005 v 0.005 0.005 0.005 0.003 l 0.002,0.005 v 0.003 0.003 0.003 0.003 0.003 0.003 0.003 0 0.003 0 c 0,0.17277 -0.13483,0.24905 -0.25468,0.24905 -0.16909,0 -0.31034,-0.14584 -0.3403,-0.29842 -0.12841,0.2154 -0.38096,0.44652 -0.77049,0.44652 v -0.21765 c 0.52221,0 0.66775,-0.58563 0.66775,-0.66642 0,-0.0135 0,-0.0269 -0.0257,-0.11445 l -0.33387,-1.40687 c -0.0299,-0.11886 -0.0299,-0.13239 -0.15624,-0.2917 -0.26111,-0.32984 -0.61851,-0.53179 -0.90317,-0.53179 -0.38095,0 -0.5586,0.33657 -0.5586,0.7427 0,0.34331 0.20119,1.22064 0.3938,1.56395 0.31462,0.54749 0.66347,0.70455 0.91602,0.70455 v 0.21766 c -0.931,0 -1.90907,-1.04562 -1.90907,-2.16305 0,-0.80777 0.5222,-1.28346 1.1343,-1.28346 0.34458,0 0.67204,0.17951 0.93315,0.4196 l -0.16481,-0.70007 c -0.0835,-0.32985 -0.13269,-0.54076 -0.41734,-0.80553 -0.32745,-0.28945 -0.64848,-0.28945 -0.83682,-0.28945 -0.34029,0 -0.4366,0.0224 -0.57144,0.0539 0.18406,0.0941 0.23757,0.28046 0.23757,0.39266 0,0.18624 -0.13912,0.2872 -0.29107,0.2872 -0.20761,0 -0.42377,-0.17949 -0.42377,-0.47569 0,-0.4712 0.64208,-0.47792 1.05941,-0.47792 1.1707,0 1.66938,0.62376 1.77209,1.07254 z"
           inkscape:connector-curvature="0"
           style="fill:#ff0000;fill-opacity:1;stroke-width:0" /><path
           id="path399"
           d="m 447.52955,468.17764 h 0.002 v 0.003 0 0.003 0 l 0.002,0.003 v 0 0.003 0.003 0.003 l 0.002,0.003 v 0.005 l 0.002,0.005 0.002,0.005 v 0.005 l 0.002,0.005 v 0.005 l 0.002,0.008 0.002,0.005 0.002,0.0113 0.002,0.009 v 0.005 l 0.002,0.008 v 0.005 l 0.002,0.005 v 0.005 l 0.002,0.005 v 0.003 l 0.002,0.005 v 0.003 0 0.003 0.003 0 0.003 0 0.003 h 0.002 v 0 0.003 0 c 0,0.0404 -0.032,0.11219 -0.122,0.11219 -0.14553,0 -0.76619,-0.0629 -0.9524,-0.0809 -0.0599,-0.008 -0.16263,-0.0135 -0.16263,-0.17949 0,-0.10767 0.10268,-0.10767 0.1926,-0.10767 0.35742,0 0.35742,-0.0561 0.35742,-0.11885 0,-0.0539 -0.0149,-0.10325 -0.0301,-0.17278 l -1.05297,-4.4248 c -0.0364,-0.13911 -0.0364,-0.15481 -0.0364,-0.17053 0,-0.11672 0.0899,-0.24906 0.25469,-0.24906 0.0835,0 0.22257,0.0382 0.30606,0.20195 0.0213,0.0471 0.0878,0.3276 0.12413,0.49138 l 0.17335,0.69784 c 0.0213,0.11446 0.0985,0.41286 0.11771,0.52955 0.077,0.29842 0.077,0.30514 0.22473,0.55645 0.2397,0.3837 0.61211,0.82797 1.19424,0.82797 0.41735,0 0.44089,-0.36126 0.44089,-0.54749 0,-0.46896 -0.32103,-1.33506 -0.44089,-1.66492 -0.0813,-0.21989 -0.11127,-0.29169 -0.11127,-0.42407 0,-0.41286 0.32746,-0.66866 0.70626,-0.66866 0.74909,0 1.07654,1.07479 1.07654,1.19371 0,0.10325 -0.0985,0.10325 -0.11986,0.10325 -0.10483,0 -0.11342,-0.0471 -0.14124,-0.13462 -0.17337,-0.6238 -0.50082,-0.9469 -0.79188,-0.9469 -0.15838,0 -0.18835,0.10993 -0.18835,0.27375 0,0.1795 0.0407,0.28048 0.17336,0.63499 0.0878,0.24235 0.39595,1.07032 0.39595,1.50784 0,0.12567 0,0.4555 -0.27824,0.67989 -0.12628,0.10098 -0.34029,0.21092 -0.69128,0.21092 -0.54576,0 -0.93956,-0.3119 -1.2135,-0.64846 z"
           inkscape:connector-curvature="0"
           style="fill:#ff0000;fill-opacity:1;stroke-width:0" /><path
           id="path401"
           d="m 461.02574,468.31226 h 0.03 0.0299 0.03 l 0.0172,0.003 h 0.0151 l 0.0149,0.003 0.0149,0.003 0.0149,0.003 0.0149,0.003 0.0151,0.003 0.0149,0.005 0.0129,0.005 0.0129,0.005 0.0149,0.008 0.0101,0.005 0.0129,0.008 0.0101,0.009 0.0113,0.009 0.0113,0.009 0.009,0.009 0.009,0.0113 0.005,0.008 0.005,0.008 0.002,0.008 0.005,0.008 0.002,0.008 0.005,0.008 0.002,0.008 0.002,0.009 0.002,0.008 0.002,0.009 0.002,0.009 v 0.009 l 0.002,0.009 v 0.009 0.0113 0.009 c 0,0.22439 -0.20331,0.22439 -0.351,0.22439 h -6.38639 c -0.14982,0 -0.351,0 -0.351,-0.22439 0,-0.21989 0.20118,-0.21989 0.36169,-0.21989 z"
           inkscape:connector-curvature="0"
           style="fill:#000000;stroke-width:0" /><path
           id="path403"
           d="m 461.0343,466.1425 h 0.0149 0.0129 0.03 0.0301 l 0.0149,0.003 h 0.0149 l 0.0149,0.003 0.0149,0.003 0.0151,0.003 0.0129,0.003 0.0149,0.003 0.0149,0.005 0.0129,0.005 0.0129,0.005 0.0129,0.008 0.0129,0.005 0.0113,0.009 0.0129,0.008 0.009,0.009 0.0113,0.009 0.009,0.0113 0.005,0.005 0.005,0.008 0.005,0.005 0.005,0.008 0.005,0.008 0.002,0.008 0.002,0.008 0.005,0.009 0.002,0.008 0.002,0.009 0.002,0.008 0.002,0.009 0.002,0.009 v 0.009 l 0.002,0.009 v 0.0113 0.009 0.0113 c 0,0.22438 -0.20333,0.22438 -0.35957,0.22438 h -6.36714 c -0.16052,0 -0.36169,0 -0.36169,-0.22438 0,-0.22439 0.20117,-0.22439 0.35099,-0.22439 z"
           inkscape:connector-curvature="0"
           style="fill:#000000;stroke-width:0" /><path
           id="path405"
           d="m 468.47368,461.97349 v 0.005 0.008 0.003 0.005 l -0.002,0.003 v 0.005 l -0.002,0.005 v 0.003 l -0.002,0.005 -0.002,0.005 -0.005,0.008 -0.002,0.005 -0.005,0.005 -0.002,0.008 -0.006,0.008 -0.005,0.008 -0.006,0.009 -0.006,0.008 -0.002,0.005 -0.005,0.005 -0.002,0.005 -0.005,0.005 -0.005,0.005 -0.005,0.008 -0.005,0.005 -0.006,0.005 -0.005,0.008 -0.005,0.008 -0.006,0.005 -0.005,0.008 -0.006,0.008 -0.006,0.008 -0.005,0.008 -0.006,0.008 -0.009,0.008 -0.006,0.008 -0.006,0.009 -0.006,0.008 -0.009,0.009 -0.009,0.008 -0.006,0.009 -0.009,0.009 c -1.33123,1.40912 -1.67365,3.52054 -1.67365,5.23034 0,1.94763 0.40663,3.89302 1.71644,5.28868 0.13697,0.13686 0.13697,0.15705 0.13697,0.19296 0,0.0763 -0.0407,0.10765 -0.10268,0.10765 -0.10698,0 -1.06798,-0.75616 -1.6972,-2.17649 -0.54362,-1.23186 -0.67202,-2.47269 -0.67202,-3.41285 0,-0.87284 0.11771,-2.22137 0.70412,-3.48689 0.63779,-1.37545 1.55808,-2.10021 1.6651,-2.10021 0.062,0 0.10268,0.0314 0.10268,0.11218 z"
           inkscape:connector-curvature="0"
           style="fill:#c91fdc;fill-opacity:1;stroke-width:0" /><path
           id="path407"
           d="m 473.06874,471.4177 0.009,0.0382 0.009,0.0336 0.009,0.0336 0.009,0.0336 0.0113,0.0314 0.009,0.0292 0.0113,0.0269 0.0113,0.0269 0.0129,0.0247 0.0151,0.0224 0.0149,0.0224 0.0171,0.0202 0.0193,0.0201 0.0213,0.018 0.0235,0.018 0.0257,0.0158 0.0278,0.0135 0.0321,0.0135 0.0342,0.0135 0.0385,0.0113 0.0192,0.005 0.0213,0.005 0.0213,0.005 0.0235,0.005 0.0235,0.005 0.0257,0.005 0.0257,0.005 0.0257,0.003 0.0278,0.005 0.0299,0.003 0.0301,0.003 0.03,0.003 0.032,0.003 0.0342,0.003 0.0342,0.003 0.0364,0.003 h 0.0364 l 0.0385,0.003 h 0.0407 l 0.0407,0.003 h 0.0428 0.0428 0.0449 l 0.0471,0.003 c 0.31675,0 0.40237,0 0.40237,0.21317 0,0.13238 -0.11557,0.13238 -0.16908,0.13238 -0.35528,0 -1.22848,-0.0336 -1.57948,-0.0336 -0.32103,0 -1.10007,0.0336 -1.41683,0.0336 -0.077,0 -0.20544,0 -0.20544,-0.22438 0,-0.12113 0.0984,-0.12113 0.29963,-0.12113 0.0213,0 0.22257,0 0.40662,-0.0224 0.19049,-0.0247 0.28894,-0.0336 0.28894,-0.17951 0,-0.0448 -0.0149,-0.0786 -0.0449,-0.21316 l -1.42752,-6.00221 c -0.10699,-0.43754 -0.13056,-0.52505 -0.9738,-0.52505 -0.17978,0 -0.28678,0 -0.28678,-0.22439 0,-0.12339 0.0964,-0.12339 0.28678,-0.12339 h 4.93962 c 0.25469,0 0.26539,0 0.33173,0.18847 l 0.83896,2.4166 c 0.0428,0.12339 0.0428,0.1436 0.0428,0.15707 0,0.0427 -0.0299,0.1234 -0.12628,0.1234 -0.0962,0 -0.10697,-0.0562 -0.17977,-0.23561 -0.36597,-1.02991 -0.83254,-2.30215 -2.67955,-2.30215 h -0.99947 c -0.14983,0 -0.17123,0 -0.23544,0.009 -0.10697,0.0113 -0.13912,0.0224 -0.13912,0.1122 0,0.0336 0,0.0562 0.0535,0.25803 z"
           inkscape:connector-curvature="0"
           style="fill:#c91fdc;fill-opacity:1;stroke-width:0" /><path
           id="path409"
           d="m 480.3155,465.87099 0.005,0.0113 0.002,0.009 0.002,0.0113 0.002,0.009 0.002,0.009 0.002,0.008 0.002,0.009 v 0.008 l 0.002,0.009 0.002,0.008 v 0.008 l 0.002,0.008 v 0.005 l 0.002,0.008 v 0.005 l 0.002,0.005 v 0.005 0.005 0.005 l 0.002,0.005 v 0.003 0.005 0.003 0.003 0.003 0.003 0.003 0.003 0.003 0 0.003 0 c 0,0.17277 -0.13269,0.24905 -0.25254,0.24905 -0.17122,0 -0.31248,-0.14584 -0.34243,-0.29842 -0.12627,0.2154 -0.38096,0.44652 -0.76833,0.44652 v -0.21765 c 0.5222,0 0.6656,-0.58563 0.6656,-0.66642 0,-0.0135 0,-0.0269 -0.0235,-0.11445 l -0.33386,-1.40687 c -0.0321,-0.11886 -0.0321,-0.13239 -0.15838,-0.2917 -0.26111,-0.32984 -0.61852,-0.53179 -0.90317,-0.53179 -0.38096,0 -0.5586,0.33657 -0.5586,0.7427 0,0.34331 0.20118,1.22064 0.39594,1.56395 0.31462,0.54749 0.66133,0.70455 0.91602,0.70455 v 0.21766 c -0.93313,0 -1.90906,-1.04562 -1.90906,-2.16305 0,-0.80777 0.52006,-1.28346 1.13216,-1.28346 0.34458,0 0.67202,0.17951 0.93313,0.4196 l -0.16266,-0.70007 c -0.0835,-0.32985 -0.13483,-0.54076 -0.41948,-0.80553 -0.32745,-0.28945 -0.64849,-0.28945 -0.83468,-0.28945 -0.34243,0 -0.43875,0.0224 -0.57143,0.0539 0.18191,0.0941 0.23542,0.28046 0.23542,0.39266 0,0.18624 -0.13912,0.2872 -0.28893,0.2872 -0.20761,0 -0.42591,-0.17949 -0.42591,-0.47569 0,-0.4712 0.64206,-0.47792 1.06155,-0.47792 1.16857,0 1.66723,0.62376 1.7721,1.07254 z"
           inkscape:connector-curvature="0"
           style="fill:#c91fdc;fill-opacity:1;stroke-width:0" /><path
           id="path411"
           d="m 483.17483,464.93083 0.0555,0.0269 0.0556,0.0247 0.0514,0.0247 0.0514,0.0224 0.0492,0.0224 0.0471,0.0224 0.0449,0.0202 0.0449,0.0201 0.0428,0.018 0.0407,0.018 0.0386,0.018 0.0385,0.0157 0.0342,0.018 0.0364,0.0135 0.0342,0.0158 0.032,0.0135 0.0299,0.0157 0.03,0.0113 0.0278,0.0135 0.0278,0.0113 0.0278,0.0135 0.0257,0.0113 0.0235,0.0113 0.0235,0.009 0.0236,0.0113 0.0213,0.009 0.0407,0.0201 0.0386,0.018 0.0342,0.018 c 0.14554,0.0605 0.21189,0.092 0.21189,0.24233 0,0.13462 -0.0964,0.24907 -0.23114,0.24907 -0.0535,0 -0.0663,0 -0.15625,-0.0695 l -1.01445,-0.71129 0.11127,1.15556 c 0.0172,0.14136 0,0.33657 -0.22473,0.33657 -0.0899,0 -0.23114,-0.0629 -0.23114,-0.23335 0,-0.0718 0.03,-0.30516 0.0364,-0.3837 0.0172,-0.13239 0.0684,-0.69782 0.0835,-0.87508 l -1.0059,0.71129 c -0.0771,0.0448 -0.0964,0.0695 -0.16265,0.0695 -0.13698,0 -0.23543,-0.11446 -0.23543,-0.24907 0,-0.15707 0.0899,-0.19522 0.15837,-0.22662 l 1.12576,-0.49141 c -0.6121,-0.28496 -0.88605,-0.39266 -1.07225,-0.48691 -0.14125,-0.0628 -0.21188,-0.0965 -0.21188,-0.24232 0,-0.13463 0.0984,-0.24906 0.23543,-0.24906 0.0493,0 0.0663,0 0.15195,0.0695 l 1.0166,0.7113 -0.11985,-1.25879 c 0,-0.17052 0.14125,-0.23334 0.23115,-0.23334 0.0899,0 0.23114,0.0629 0.23114,0.23334 0,0.0718 -0.03,0.30517 -0.0364,0.3837 -0.0151,0.13238 -0.0684,0.69334 -0.0813,0.87509 l 0.89247,-0.62603 c 0.19476,-0.15482 0.21188,-0.15482 0.27823,-0.15482 0.13483,0 0.23114,0.11445 0.23114,0.24907 0,0.15706 -0.0899,0.19521 -0.15838,0.22661 z"
           inkscape:connector-curvature="0"
           style="fill:#c91fdc;fill-opacity:1;stroke-width:0" /><path
           id="path413"
           d="m 487.58152,465.9428 -0.0407,-0.0695 -0.0385,-0.0651 -0.0407,-0.0629 -0.0407,-0.0583 -0.0386,-0.0562 -0.0407,-0.0516 -0.0385,-0.0494 -0.0407,-0.0471 -0.0407,-0.0448 -0.0386,-0.0404 -0.0407,-0.0382 -0.0407,-0.0358 -0.0407,-0.0336 -0.0385,-0.0314 -0.0407,-0.0292 -0.0407,-0.0269 -0.0407,-0.0247 -0.0407,-0.0224 -0.0406,-0.0202 -0.0407,-0.0201 -0.0407,-0.0157 -0.0428,-0.0158 -0.0407,-0.0135 -0.0407,-0.0135 -0.0428,-0.0113 -0.0428,-0.009 -0.0407,-0.009 -0.0428,-0.008 -0.0878,-0.0113 -0.0857,-0.008 c -0.13056,-0.0113 -0.22473,-0.0113 -0.22473,-0.22438 0,-0.0672 0.0536,-0.12339 0.13697,-0.12339 0.2868,0 0.61853,0.0359 0.91602,0.0359 0.351,0 0.72553,-0.0359 1.06796,-0.0359 0.062,0 0.20333,0 0.20333,0.21316 0,0.1234 -0.0962,0.13462 -0.17122,0.13462 -0.24612,0.0202 -0.50081,0.11219 -0.50081,0.3882 0,0.13687 0.0643,0.26029 0.14768,0.41511 l 0.81114,1.43378 h 2.67526 l -0.03,0.34331 h -2.44412 l 2.10383,3.69107 0.34029,-3.69107 0.03,-0.34331 c 0.0235,-0.2356 0.17123,-1.7569 0.17123,-1.8691 0,-0.33656 -0.55432,-0.36799 -0.7662,-0.36799 -0.14982,0 -0.25683,0 -0.25683,-0.22437 0,-0.1234 0.12628,-0.1234 0.14981,-0.1234 0.43447,0 0.89676,0.0358 1.33123,0.0358 0.26751,0 0.93955,-0.0358 1.20707,-0.0358 0.0643,0 0.19048,0 0.19048,0.22439 0,0.12339 -0.10698,0.12339 -0.24398,0.12339 -0.66133,0 -0.66133,0.0763 -0.69557,0.40166 l -0.64849,6.985 c -0.0235,0.22437 -0.0235,0.26925 -0.20332,0.26925 -0.17121,0 -0.21187,-0.0763 -0.27824,-0.18847 z"
           inkscape:connector-curvature="0"
           style="fill:#c91fdc;fill-opacity:1;stroke-width:0" /><path
           id="path415"
           d="m 496.73951,467.4484 v 0.083 l -0.002,0.0876 -0.002,0.0875 -0.002,0.092 -0.009,0.18849 -0.0129,0.19746 -0.0171,0.20642 -0.0235,0.21317 -0.0278,0.21989 -0.0364,0.22439 -0.0407,0.22886 -0.0491,0.23336 -0.0578,0.2356 -0.0663,0.23785 -0.0749,0.23785 -0.0835,0.24007 -0.0449,0.11899 -0.0491,0.11886 -0.0493,0.11886 -0.0536,0.11886 c -0.63991,1.37545 -1.55592,2.10021 -1.66294,2.10021 -0.0643,0 -0.10698,-0.0427 -0.10698,-0.10765 0,-0.0359 0,-0.0562 0.20118,-0.26028 1.04657,-1.10396 1.65438,-2.88106 1.65438,-5.22136 0,-1.90949 -0.3938,-3.87732 -1.71859,-5.28643 -0.13697,-0.13238 -0.13697,-0.15706 -0.13697,-0.18848 0,-0.0673 0.0428,-0.11218 0.10698,-0.11218 0.10698,0 1.0637,0.76065 1.69505,2.18099 0.54149,1.22736 0.6699,2.4682 0.6699,3.40611 z"
           inkscape:connector-curvature="0"
           style="fill:#c91fdc;fill-opacity:1;stroke-width:0" /><path
           id="path417"
           d="m 501.76044,465.87099 0.002,0.0113 0.005,0.009 0.002,0.0113 0.002,0.009 0.002,0.009 0.002,0.008 0.002,0.009 v 0.008 l 0.002,0.009 0.002,0.008 v 0.008 l 0.002,0.008 v 0.005 l 0.002,0.008 v 0.005 l 0.002,0.005 v 0.005 0.005 0.005 l 0.002,0.005 v 0.003 0.005 0.003 0.003 0.003 0.003 0.003 0.003 0.003 0 0.003 0 c 0,0.17277 -0.1327,0.24905 -0.25255,0.24905 -0.17121,0 -0.31247,-0.14584 -0.34243,-0.29842 -0.12627,0.2154 -0.38096,0.44652 -0.76834,0.44652 v -0.21765 c 0.52222,0 0.66561,-0.58563 0.66561,-0.66642 0,-0.0135 0,-0.0269 -0.0236,-0.11445 l -0.33387,-1.40687 c -0.0321,-0.11886 -0.0321,-0.13239 -0.15838,-0.2917 -0.2611,-0.32984 -0.61851,-0.53179 -0.90316,-0.53179 -0.38097,0 -0.5586,0.33657 -0.5586,0.7427 0,0.34331 0.20119,1.22064 0.39594,1.56395 0.31462,0.54749 0.66133,0.70455 0.91601,0.70455 v 0.21766 c -0.93313,0 -1.90907,-1.04562 -1.90907,-2.16305 0,-0.80777 0.52007,-1.28346 1.13217,-1.28346 0.34457,0 0.67203,0.17951 0.93315,0.4196 l -0.16267,-0.70007 c -0.0835,-0.32985 -0.13483,-0.54076 -0.41947,-0.80553 -0.32746,-0.28945 -0.6485,-0.28945 -0.83469,-0.28945 -0.34244,0 -0.43874,0.0224 -0.57145,0.0539 0.18193,0.0941 0.23543,0.28046 0.23543,0.39266 0,0.18624 -0.13912,0.2872 -0.28893,0.2872 -0.2076,0 -0.42589,-0.17949 -0.42589,-0.47569 0,-0.4712 0.64206,-0.47792 1.05939,-0.47792 1.1707,0 1.66938,0.62376 1.77424,1.07254 z"
           inkscape:connector-curvature="0"
           style="fill:#c91fdc;fill-opacity:1;stroke-width:0" /><path
           id="path419"
           d="m 504.54486,468.17764 h 0.002 v 0.003 0 0.003 0 0.003 h 0.002 v 0.003 0.003 0.003 l 0.002,0.003 v 0.005 l 0.002,0.005 v 0.005 l 0.002,0.005 0.002,0.005 v 0.005 l 0.002,0.008 v 0.005 l 0.005,0.0113 0.002,0.009 v 0.005 l 0.002,0.008 v 0.005 l 0.002,0.005 v 0.005 l 0.002,0.005 v 0.003 0.005 l 0.002,0.003 v 0 0.003 0.003 0 0.003 0 0.003 0 0 0.003 0 c 0,0.0404 -0.03,0.11219 -0.11985,0.11219 -0.14768,0 -0.7662,-0.0629 -0.9524,-0.0809 -0.0599,-0.008 -0.16479,-0.0135 -0.16479,-0.17949 0,-0.10767 0.10483,-0.10767 0.19475,-0.10767 0.35743,0 0.35743,-0.0561 0.35743,-0.11885 0,-0.0539 -0.0172,-0.10325 -0.0301,-0.17278 l -1.05298,-4.4248 c -0.0364,-0.13911 -0.0364,-0.15481 -0.0364,-0.17053 0,-0.11672 0.0899,-0.24906 0.25254,-0.24906 0.0857,0 0.22474,0.0382 0.30819,0.20195 0.0193,0.0471 0.0878,0.3276 0.12415,0.49138 l 0.17335,0.69784 c 0.0213,0.11446 0.0964,0.41286 0.11771,0.52955 0.077,0.29842 0.077,0.30514 0.22472,0.55645 0.23971,0.3837 0.60996,0.82797 1.19211,0.82797 0.41948,0 0.44301,-0.36126 0.44301,-0.54749 0,-0.46896 -0.32102,-1.33506 -0.44301,-1.66492 -0.0791,-0.21989 -0.10912,-0.29169 -0.10912,-0.42407 0,-0.41286 0.32744,-0.66866 0.70413,-0.66866 0.74907,0 1.07867,1.07479 1.07867,1.19371 0,0.10325 -0.0985,0.10325 -0.122,0.10325 -0.10268,0 -0.11343,-0.0471 -0.13911,-0.13462 -0.1755,-0.6238 -0.50295,-0.9469 -0.79188,-0.9469 -0.15838,0 -0.18834,0.10993 -0.18834,0.27375 0,0.1795 0.0407,0.28048 0.17335,0.63499 0.0878,0.24235 0.39595,1.07032 0.39595,1.50784 0,0.12567 0,0.4555 -0.27823,0.67989 -0.12841,0.10098 -0.34244,0.21092 -0.69129,0.21092 -0.54576,0 -0.94169,-0.3119 -1.21564,-0.64846 z"
           inkscape:connector-curvature="0"
           style="fill:#c91fdc;fill-opacity:1;stroke-width:0" /><path
           id="path421"
           d="m 461.02574,451.56442 h 0.03 0.0299 0.03 l 0.0172,0.003 h 0.0151 l 0.0149,0.003 0.0149,0.003 0.0149,0.003 0.0149,0.003 0.0151,0.003 0.0149,0.005 0.0129,0.005 0.0129,0.005 0.0149,0.005 0.0101,0.008 0.0129,0.008 0.0101,0.009 0.0113,0.009 0.0113,0.009 0.009,0.009 0.009,0.0113 0.005,0.008 0.005,0.008 0.002,0.008 0.005,0.008 0.002,0.008 0.005,0.008 0.002,0.008 0.002,0.009 0.002,0.008 0.002,0.009 0.002,0.009 v 0.009 l 0.002,0.009 v 0.009 0.0113 0.009 c 0,0.22439 -0.20331,0.22439 -0.351,0.22439 h -6.38639 c -0.14982,0 -0.351,0 -0.351,-0.22439 0,-0.2199 0.20118,-0.2199 0.36169,-0.2199 z"
           inkscape:connector-curvature="0"
           style="fill:#000000;stroke-width:0" /><path
           id="path423"
           d="m 461.0343,449.39466 h 0.0149 0.0129 0.03 0.0301 l 0.0149,0.003 h 0.0149 l 0.0149,0.003 0.0149,0.003 0.0151,0.003 0.0129,0.003 0.0149,0.003 0.0149,0.005 0.0129,0.005 0.0129,0.005 0.0129,0.005 0.0129,0.008 0.0113,0.008 0.0129,0.009 0.009,0.009 0.0113,0.009 0.009,0.0113 0.005,0.005 0.005,0.008 0.005,0.005 0.005,0.008 0.005,0.008 0.002,0.008 0.002,0.008 0.005,0.009 0.002,0.008 0.002,0.008 0.002,0.009 0.002,0.009 0.002,0.009 v 0.009 l 0.002,0.009 v 0.009 0.0113 0.0113 c 0,0.22439 -0.20333,0.22439 -0.35957,0.22439 h -6.36714 c -0.16052,0 -0.36169,0 -0.36169,-0.22439 0,-0.22437 0.20117,-0.22437 0.35099,-0.22437 z"
           inkscape:connector-curvature="0"
           style="fill:#000000;stroke-width:0" /><path
           id="path425"
           d="m 468.93598,454.66987 0.009,0.0382 0.009,0.0336 0.009,0.0336 0.009,0.0336 0.009,0.0292 0.009,0.0292 0.0113,0.0292 0.0129,0.0269 0.0129,0.0247 0.0129,0.0224 0.0149,0.0224 0.0172,0.0202 0.0192,0.0201 0.0213,0.018 0.0235,0.018 0.0257,0.0158 0.0299,0.0135 0.03,0.0135 0.0364,0.0135 0.0364,0.0113 0.0213,0.005 0.0213,0.005 0.0213,0.005 0.0213,0.005 0.0257,0.005 0.0235,0.005 0.0257,0.005 0.0278,0.003 0.0278,0.005 0.0278,0.003 0.0299,0.003 0.032,0.003 0.0321,0.003 0.032,0.003 0.0364,0.003 0.0342,0.003 h 0.0385 l 0.0386,0.003 h 0.0385 l 0.0407,0.003 h 0.0428 0.0428 0.0449 0.0471 c 0.31674,0 0.40449,0 0.40449,0.21541 0,0.13239 -0.11771,0.13239 -0.17122,0.13239 -0.35313,0 -1.22633,-0.0336 -1.57734,-0.0336 -0.32103,0 -1.10006,0.0336 -1.41895,0.0336 -0.077,0 -0.20332,0 -0.20332,-0.22438 0,-0.12339 0.0962,-0.12339 0.29749,-0.12339 0.0235,0 0.22472,0 0.40878,-0.0201 0.19048,-0.0247 0.28678,-0.0359 0.28678,-0.1795 0,-0.0448 -0.0129,-0.0809 -0.0428,-0.21317 l -1.42967,-6.00222 c -0.10697,-0.43754 -0.1284,-0.52504 -0.97164,-0.52504 -0.18193,0 -0.28893,0 -0.28893,-0.22438 0,-0.12339 0.0984,-0.12339 0.28893,-0.12339 h 4.93961 c 0.25254,0 0.26324,0 0.3296,0.18849 l 0.83896,2.41658 c 0.0449,0.12339 0.0449,0.1436 0.0449,0.15707 0,0.0425 -0.03,0.1234 -0.12842,0.1234 -0.0963,0 -0.10698,-0.056 -0.17979,-0.2356 -0.36383,-1.02992 -0.83253,-2.30216 -2.67954,-2.30216 h -0.99925 c -0.14982,0 -0.16908,0 -0.23329,0.009 -0.10698,0.0113 -0.14125,0.0224 -0.14125,0.1122 0,0.0314 0,0.0562 0.0536,0.2558 z"
           inkscape:connector-curvature="0"
           style="fill:#0000ff;fill-opacity:1;stroke-width:0" /><path
           id="path427"
           d="m 476.18061,449.09622 0.002,0.0113 0.005,0.009 0.002,0.0113 0.002,0.009 0.002,0.009 0.002,0.009 0.002,0.008 v 0.009 l 0.002,0.008 0.002,0.008 v 0.008 l 0.002,0.008 v 0.005 l 0.002,0.008 v 0.005 l 0.002,0.005 v 0.005 0.005 0.005 l 0.002,0.005 v 0.003 0.005 0.003 0.003 0.003 0.003 0.003 0.003 0.003 0.003 0 0.003 c 0,0.17053 -0.13269,0.24907 -0.25468,0.24907 -0.16908,0 -0.31033,-0.14809 -0.34029,-0.29842 -0.12627,0.21316 -0.38096,0.44427 -0.76835,0.44427 v -0.21765 c 0.52008,0 0.66562,-0.58564 0.66562,-0.66641 0,-0.0135 0,-0.0269 -0.0235,-0.11445 l -0.33601,-1.40687 c -0.0278,-0.11886 -0.0278,-0.13239 -0.15623,-0.28945 -0.26111,-0.32985 -0.61853,-0.53402 -0.90318,-0.53402 -0.38095,0 -0.55859,0.33657 -0.55859,0.74269 0,0.34331 0.20117,1.22064 0.39593,1.56394 0.31248,0.54749 0.66133,0.70456 0.91602,0.70456 v 0.21765 c -0.93314,0 -1.90906,-1.04337 -1.90906,-2.16305 0,-0.80551 0.52007,-1.28346 1.13216,-1.28346 0.34459,0 0.67203,0.17952 0.93314,0.42184 l -0.16266,-0.70231 c -0.0835,-0.32984 -0.13484,-0.53851 -0.41948,-0.80553 -0.32746,-0.28721 -0.64849,-0.28721 -0.83469,-0.28721 -0.34242,0 -0.43874,0.0202 -0.57358,0.0516 0.1862,0.0941 0.23971,0.28047 0.23971,0.39267 0,0.18623 -0.14126,0.2872 -0.2932,0.2872 -0.20547,0 -0.42378,-0.17726 -0.42378,-0.47569 0,-0.4712 0.64206,-0.47792 1.05942,-0.47792 1.17069,0 1.66936,0.62377 1.7721,1.07254 z"
           inkscape:connector-curvature="0"
           style="fill:#0000ff;fill-opacity:1;stroke-width:0" /><path
           id="path429"
           d="m 479.03993,448.15607 0.0555,0.0269 0.0557,0.0247 0.0514,0.0247 0.0514,0.0224 0.0491,0.0224 0.0471,0.0224 0.0449,0.0202 0.0449,0.0201 0.0407,0.018 0.0407,0.018 0.0407,0.018 0.0364,0.018 0.0364,0.0157 0.0364,0.0158 0.0321,0.0135 0.0342,0.0158 0.03,0.0135 0.0299,0.0135 0.0278,0.0113 0.0278,0.0135 0.0278,0.0113 0.0257,0.0113 0.0235,0.0113 0.0235,0.0113 0.0213,0.009 0.0235,0.0113 0.0407,0.018 0.0385,0.0201 0.0342,0.018 c 0.14554,0.0583 0.21188,0.0898 0.21188,0.24008 0,0.13463 -0.0985,0.24907 -0.23114,0.24907 -0.0536,0 -0.0663,0 -0.15624,-0.0695 l -1.01446,-0.71129 0.11127,1.15782 c 0.0151,0.13911 0,0.33656 -0.22471,0.33656 -0.0899,0 -0.23114,-0.0651 -0.23114,-0.23559 0,-0.0695 0.03,-0.30517 0.0364,-0.38147 0.0172,-0.13462 0.0684,-0.69782 0.0835,-0.87732 l -1.0059,0.71129 c -0.0771,0.0448 -0.0964,0.0695 -0.16266,0.0695 -0.13911,0 -0.23542,-0.11446 -0.23542,-0.24907 0,-0.15707 0.0899,-0.19521 0.15838,-0.22662 l 1.12575,-0.49141 c -0.6121,-0.28272 -0.88605,-0.39265 -1.07224,-0.4869 -0.14126,-0.0629 -0.21189,-0.0941 -0.21189,-0.24234 0,-0.13238 0.0964,-0.24906 0.23542,-0.24906 0.0493,0 0.0663,0 0.15196,0.0695 l 1.0166,0.71353 -0.11985,-1.25878 c 0,-0.17277 0.14126,-0.2356 0.23113,-0.2356 0.0899,0 0.23116,0.0629 0.23116,0.2356 0,0.0695 -0.03,0.30516 -0.0364,0.38145 -0.0151,0.13238 -0.0684,0.69334 -0.0813,0.87733 l 0.89248,-0.62827 c 0.19475,-0.15483 0.21188,-0.15483 0.27822,-0.15483 0.13271,0 0.23114,0.11672 0.23114,0.24907 0,0.15707 -0.0899,0.19745 -0.15837,0.22888 z"
           inkscape:connector-curvature="0"
           style="fill:#0000ff;fill-opacity:1;stroke-width:0" /><path
           id="path431"
           d="m 483.44662,449.19271 -0.0406,-0.0672 -0.0385,-0.0651 -0.0407,-0.0629 -0.0407,-0.0583 -0.0385,-0.0562 -0.0407,-0.0516 -0.0385,-0.0494 -0.0407,-0.0471 -0.0407,-0.0448 -0.0386,-0.0404 -0.0407,-0.0382 -0.0407,-0.0358 -0.0407,-0.0336 -0.0385,-0.0315 -0.0406,-0.0292 -0.0407,-0.0269 -0.0407,-0.0247 -0.0407,-0.0224 -0.0407,-0.0201 -0.0407,-0.0202 -0.0407,-0.0157 -0.0428,-0.0158 -0.0406,-0.0135 -0.0407,-0.0135 -0.0428,-0.0113 -0.0428,-0.009 -0.0407,-0.009 -0.0427,-0.008 -0.0878,-0.0113 -0.0857,-0.008 c -0.13057,-0.0113 -0.22474,-0.0113 -0.22474,-0.22437 0,-0.0674 0.0536,-0.1234 0.13698,-0.1234 0.2868,0 0.61852,0.0359 0.91602,0.0359 0.35099,0 0.72553,-0.0359 1.06795,-0.0359 0.062,0 0.20334,0 0.20334,0.21316 0,0.12339 -0.0964,0.13462 -0.17123,0.13462 -0.24612,0.0201 -0.50081,0.11219 -0.50081,0.38818 0,0.13688 0.0643,0.26029 0.14767,0.41511 l 0.81114,1.4338 h 2.67528 l -0.03,0.3433 h -2.44413 l 2.10384,3.69108 0.34029,-3.69108 0.03,-0.3433 c 0.0235,-0.2356 0.17121,-1.75692 0.17121,-1.8691 0,-0.33657 -0.55431,-0.36799 -0.7662,-0.36799 -0.1498,0 -0.25682,0 -0.25682,-0.22437 0,-0.12339 0.12628,-0.12339 0.14981,-0.12339 0.43447,0 0.89675,0.0359 1.33121,0.0359 0.26754,0 0.93956,-0.0359 1.2071,-0.0359 0.0643,0 0.19047,0 0.19047,0.22437 0,0.12339 -0.10699,0.12339 -0.24399,0.12339 -0.66132,0 -0.66132,0.0763 -0.69556,0.40165 l -0.64849,6.985 c -0.0235,0.22437 -0.0235,0.26926 -0.20332,0.26926 -0.17122,0 -0.21188,-0.0763 -0.27823,-0.18849 z"
           inkscape:connector-curvature="0"
           style="fill:#0000ff;fill-opacity:1;stroke-width:0" /><path
           id="path433"
           d="m 491.85981,451.40287 v 0.003 0 0 0.003 0 l 0.002,0.003 v 0.003 0 0.003 l 0.002,0.003 v 0.003 l 0.002,0.005 v 0.005 l 0.002,0.005 v 0.005 l 0.002,0.005 v 0.005 l 0.002,0.008 0.002,0.005 0.002,0.0113 0.002,0.009 0.002,0.008 v 0.005 l 0.002,0.005 v 0.005 l 0.002,0.005 v 0.005 0.005 l 0.002,0.003 v 0.003 0.003 0 0.003 0 0.003 h 0.002 v 0.003 0 0 0.003 0 c 0,0.0425 -0.0301,0.11219 -0.122,0.11219 -0.14553,0 -0.76406,-0.0629 -0.95239,-0.0809 -0.0599,-0.008 -0.16266,-0.0135 -0.16266,-0.17949 0,-0.10765 0.10268,-0.10765 0.19262,-0.10765 0.35742,0 0.35742,-0.0561 0.35742,-0.11887 0,-0.0539 -0.0149,-0.10325 -0.0301,-0.17278 l -1.05299,-4.42479 c -0.0364,-0.13912 -0.0364,-0.15258 -0.0364,-0.17053 0,-0.11673 0.0899,-0.24907 0.25468,-0.24907 0.0835,0 0.22258,0.0382 0.30605,0.20195 0.0213,0.0471 0.0878,0.3276 0.12413,0.49139 l 0.1755,0.69784 c 0.0193,0.11671 0.0964,0.4151 0.11557,0.52953 0.077,0.29843 0.077,0.30515 0.22473,0.55871 0.2397,0.38146 0.6121,0.82573 1.19423,0.82573 0.41735,0 0.44089,-0.36126 0.44089,-0.54526 0,-0.4712 -0.32104,-1.33731 -0.44089,-1.66714 -0.0813,-0.21991 -0.11128,-0.28946 -0.11128,-0.42408 0,-0.41287 0.32745,-0.66867 0.70627,-0.66867 0.74907,0 1.07652,1.07704 1.07652,1.19596 0,0.10098 -0.0962,0.10098 -0.11984,0.10098 -0.10483,0 -0.11344,-0.0448 -0.14125,-0.13238 -0.17336,-0.62603 -0.50083,-0.9469 -0.79188,-0.9469 -0.15838,0 -0.18834,0.10766 -0.18834,0.27375 0,0.17727 0.0407,0.28048 0.17549,0.63275 0.0856,0.24235 0.39381,1.07031 0.39381,1.50785 0,0.1279 0,0.45549 -0.27823,0.67988 -0.12628,0.10325 -0.3403,0.21091 -0.69129,0.21091 -0.54576,0 -0.93956,-0.31188 -1.2135,-0.64845 z"
           inkscape:connector-curvature="0"
           style="fill:#0000ff;fill-opacity:1;stroke-width:0" /></g>    </g>
  </g>
</svg>
