<?xml version="1.0" encoding="UTF-8" standalone="no"?>
<!-- Created with Inkscape (http://www.inkscape.org/) -->

<svg
   xmlns:dc="http://purl.org/dc/elements/1.1/"
   xmlns:cc="http://creativecommons.org/ns#"
   xmlns:rdf="http://www.w3.org/1999/02/22-rdf-syntax-ns#"
   xmlns:svg="http://www.w3.org/2000/svg"
   xmlns="http://www.w3.org/2000/svg"
   xmlns:sodipodi="http://sodipodi.sourceforge.net/DTD/sodipodi-0.dtd"
   xmlns:inkscape="http://www.inkscape.org/namespaces/inkscape"
   width="104.8134mm"
   height="60.995346mm"
   viewBox="0 0 104.8134 60.995342"
   version="1.1"
   id="svg8"
   inkscape:version="0.92.4 (5da689c313, 2019-01-14)"
   sodipodi:docname="0105.svg">
  <defs
     id="defs2">
    <inkscape:path-effect
       effect="bspline"
       id="path-effect962"
       is_visible="true"
       weight="33.333333"
       steps="2"
       helper_size="0"
       apply_no_weight="true"
       apply_with_weight="true"
       only_selected="false" />
    <inkscape:path-effect
       effect="bspline"
       id="path-effect998"
       is_visible="true"
       weight="33.333333"
       steps="2"
       helper_size="0"
       apply_no_weight="true"
       apply_with_weight="true"
       only_selected="false" />
    <inkscape:path-effect
       effect="bspline"
       id="path-effect994"
       is_visible="true"
       weight="33.333333"
       steps="2"
       helper_size="0"
       apply_no_weight="true"
       apply_with_weight="true"
       only_selected="false" />
    <inkscape:path-effect
       effect="bspline"
       id="path-effect988"
       is_visible="true"
       weight="33.333333"
       steps="2"
       helper_size="0"
       apply_no_weight="true"
       apply_with_weight="true"
       only_selected="false" />
    <inkscape:path-effect
       effect="bspline"
       id="path-effect984"
       is_visible="true"
       weight="33.333333"
       steps="2"
       helper_size="0"
       apply_no_weight="true"
       apply_with_weight="true"
       only_selected="false" />
    <inkscape:path-effect
       effect="bspline"
       id="path-effect980"
       is_visible="true"
       weight="33.333333"
       steps="2"
       helper_size="0"
       apply_no_weight="true"
       apply_with_weight="true"
       only_selected="false" />
    <inkscape:path-effect
       effect="bspline"
       id="path-effect976"
       is_visible="true"
       weight="33.333333"
       steps="2"
       helper_size="0"
       apply_no_weight="true"
       apply_with_weight="true"
       only_selected="false" />
    <inkscape:path-effect
       effect="bspline"
       id="path-effect972"
       is_visible="true"
       weight="33.333333"
       steps="2"
       helper_size="0"
       apply_no_weight="true"
       apply_with_weight="true"
       only_selected="false" />
    <inkscape:path-effect
       effect="bspline"
       id="path-effect968"
       is_visible="true"
       weight="33.333333"
       steps="2"
       helper_size="0"
       apply_no_weight="true"
       apply_with_weight="true"
       only_selected="false" />
    <inkscape:path-effect
       effect="bspline"
       id="path-effect964"
       is_visible="true"
       weight="33.333333"
       steps="2"
       helper_size="0"
       apply_no_weight="true"
       apply_with_weight="true"
       only_selected="false" />
    <inkscape:path-effect
       effect="bspline"
       id="path-effect960"
       is_visible="true"
       weight="33.333333"
       steps="2"
       helper_size="0"
       apply_no_weight="true"
       apply_with_weight="true"
       only_selected="false" />
    <inkscape:path-effect
       effect="bspline"
       id="path-effect956"
       is_visible="true"
       weight="33.333333"
       steps="2"
       helper_size="0"
       apply_no_weight="true"
       apply_with_weight="true"
       only_selected="false" />
    <inkscape:path-effect
       effect="bspline"
       id="path-effect878"
       is_visible="true"
       weight="33.333333"
       steps="2"
       helper_size="0"
       apply_no_weight="true"
       apply_with_weight="true"
       only_selected="false" />
    <inkscape:path-effect
       effect="bspline"
       id="path-effect62"
       is_visible="true"
       weight="33.333333"
       steps="2"
       helper_size="0"
       apply_no_weight="true"
       apply_with_weight="true"
       only_selected="false" />
    <inkscape:path-effect
       effect="bspline"
       id="path-effect58"
       is_visible="true"
       weight="33.333333"
       steps="2"
       helper_size="0"
       apply_no_weight="true"
       apply_with_weight="true"
       only_selected="false" />
    <inkscape:path-effect
       effect="bspline"
       id="path-effect28"
       is_visible="true"
       weight="33.333333"
       steps="2"
       helper_size="0"
       apply_no_weight="true"
       apply_with_weight="true"
       only_selected="false" />
    <inkscape:path-effect
       effect="bspline"
       id="path-effect24"
       is_visible="true"
       weight="33.333333"
       steps="2"
       helper_size="0"
       apply_no_weight="true"
       apply_with_weight="true"
       only_selected="false" />
    <inkscape:path-effect
       effect="bspline"
       id="path-effect20"
       is_visible="true"
       weight="33.333333"
       steps="2"
       helper_size="0"
       apply_no_weight="true"
       apply_with_weight="true"
       only_selected="false" />
    <inkscape:path-effect
       effect="bspline"
       id="path-effect16"
       is_visible="true"
       weight="33.333333"
       steps="2"
       helper_size="0"
       apply_no_weight="true"
       apply_with_weight="true"
       only_selected="false" />
    <inkscape:path-effect
       effect="bspline"
       id="path-effect12"
       is_visible="true"
       weight="33.333333"
       steps="2"
       helper_size="0"
       apply_no_weight="true"
       apply_with_weight="true"
       only_selected="false" />
    <inkscape:path-effect
       effect="bspline"
       id="path-effect878-1"
       is_visible="true"
       weight="33.333333"
       steps="2"
       helper_size="0"
       apply_no_weight="true"
       apply_with_weight="true"
       only_selected="false" />
    <inkscape:path-effect
       effect="bspline"
       id="path-effect878-7"
       is_visible="true"
       weight="33.333333"
       steps="2"
       helper_size="0"
       apply_no_weight="true"
       apply_with_weight="true"
       only_selected="false" />
    <inkscape:path-effect
       effect="bspline"
       id="path-effect878-1-4"
       is_visible="true"
       weight="33.333333"
       steps="2"
       helper_size="0"
       apply_no_weight="true"
       apply_with_weight="true"
       only_selected="false" />
    <inkscape:path-effect
       effect="bspline"
       id="path-effect878-1-3"
       is_visible="true"
       weight="33.333333"
       steps="2"
       helper_size="0"
       apply_no_weight="true"
       apply_with_weight="true"
       only_selected="false" />
    <inkscape:path-effect
       effect="bspline"
       id="path-effect962-9"
       is_visible="true"
       weight="33.333333"
       steps="2"
       helper_size="0"
       apply_no_weight="true"
       apply_with_weight="true"
       only_selected="false" />
  </defs>
  <sodipodi:namedview
     id="base"
     pagecolor="#ffffff"
     bordercolor="#666666"
     borderopacity="1.0"
     inkscape:pageopacity="0.0"
     inkscape:pageshadow="2"
     inkscape:zoom="1.61"
     inkscape:cx="170.58478"
     inkscape:cy="96.148661"
     inkscape:document-units="mm"
     inkscape:current-layer="layer1"
     showgrid="false"
     inkscape:window-width="1366"
     inkscape:window-height="705"
     inkscape:window-x="-8"
     inkscape:window-y="-8"
     inkscape:window-maximized="1"
     fit-margin-top="0"
     fit-margin-left="0"
     fit-margin-right="0"
     fit-margin-bottom="0" />
  <metadata
     id="metadata5">
    <rdf:RDF>
      <cc:Work
         rdf:about="">
        <dc:format>image/svg+xml</dc:format>
        <dc:type
           rdf:resource="http://purl.org/dc/dcmitype/StillImage" />
        <dc:title />
      </cc:Work>
    </rdf:RDF>
  </metadata>
  <g
     inkscape:label="Layer 1"
     inkscape:groupmode="layer"
     id="layer1"
     transform="translate(-60.699444,-100.95277)">
    <path
       style="fill:none;stroke:#000000;stroke-width:0.26458332px;stroke-linecap:butt;stroke-linejoin:miter;stroke-opacity:1"
       d="m 51.226891,178.89356 c 12.162095,-1.06427 24.323905,-2.12852 36.359881,-2.18778 12.035976,-0.0593 23.945958,0.88639 35.855798,1.83203"
       id="path14"
       inkscape:connector-curvature="0"
       inkscape:path-effect="#path-effect16"
       inkscape:original-d="m 51.226891,178.89356 c 12.162067,-1.06459 24.323877,-2.12884 36.485428,-3.19274 11.910458,0.94532 23.820441,1.89097 35.730251,2.83699"
       sodipodi:nodetypes="ccc"
       transform="matrix(0.8355909,0,0,0.75935091,18.000787,20.665583)" />
    <path
       style="fill:none;stroke:#000000;stroke-width:0.26458332px;stroke-linecap:butt;stroke-linejoin:miter;stroke-opacity:1"
       d="m 125.57703,151.78107 c 7.57739,-13.38653 15.1546,-26.77272 23.98898,-37.96595 8.83438,-11.19323 18.92559,-20.193341 29.01661,-29.193277"
       id="path18"
       inkscape:connector-curvature="0"
       inkscape:path-effect="#path-effect20"
       inkscape:original-d="m 125.57703,151.78107 c 7.57748,-13.38648 15.15469,-26.77267 22.73162,-40.1586 10.09171,-9.00062 20.18292,-18.000727 30.27397,-27.000627"
       transform="matrix(0.8355909,0,0,0.75935091,16.217252,40.983338)"
       sodipodi:nodetypes="ccc" />
    <path
       style="fill:none;stroke:#000000;stroke-width:0.26458332px;stroke-linecap:butt;stroke-linejoin:miter;stroke-opacity:1"
       d="m 45.890756,153.91552 c 3.412411,-11.6257 6.824734,-23.2511 11.307784,-32.38945 4.48305,-9.13834 10.036236,-15.78914 15.589765,-22.44035"
       id="path22"
       inkscape:connector-curvature="0"
       inkscape:path-effect="#path-effect24"
       inkscape:original-d="m 45.890756,153.91552 c 3.412608,-11.62564 6.824932,-23.25104 10.236961,-34.87617 5.553888,-6.65161 16.660588,-19.95363 16.660588,-19.95363"
       transform="matrix(0.8355909,0,0,0.75935091,22.459613,39.63268)"
       sodipodi:nodetypes="ccc" />
    <path
       style="fill:none;stroke:#000000;stroke-width:0.26458332px;stroke-linecap:butt;stroke-linejoin:miter;stroke-opacity:1"
       d="m 63.677869,97.784312 c 9.961102,-5.099136 19.921885,-10.198107 36.345291,-12.39177 16.42341,-2.193662 39.30948,-1.482184 62.19531,-0.770713"
       id="path26"
       inkscape:connector-curvature="0"
       inkscape:path-effect="#path-effect28"
       inkscape:original-d="m 63.677869,97.784312 c 9.96105,-5.099238 19.921832,-10.19821 29.882354,-15.296919 22.886357,0.711214 45.772427,1.422693 68.658247,2.134436"
       transform="matrix(0.8355909,0,0,0.75935091,29.890989,40.983348)"
       sodipodi:nodetypes="ccc" />
    <path
       style="fill:none;stroke:#ff0000;stroke-width:0.30000001;stroke-linecap:butt;stroke-linejoin:miter;stroke-miterlimit:4;stroke-dasharray:none;stroke-opacity:1"
       d="M 70.055628,161.80533 104.02482,102.79906"
       id="path30"
       inkscape:connector-curvature="0"
       sodipodi:nodetypes="cc" />
    <path
       style="fill:none;stroke:#ff0000;stroke-width:0.30000001;stroke-linecap:butt;stroke-linejoin:miter;stroke-miterlimit:4;stroke-dasharray:none;stroke-opacity:1"
       d="m 109.73917,161.5352 33.9692,-58.98997"
       id="path30-0"
       inkscape:connector-curvature="0"
       sodipodi:nodetypes="cc" />
    <path
       style="fill:none;stroke:#ff0000;stroke-width:0.38852826;stroke-linecap:butt;stroke-linejoin:miter;stroke-miterlimit:4;stroke-dasharray:none;stroke-opacity:1"
       d="m 97.473393,76.084032 c 8.063787,-1.067266 16.127277,-2.134494 24.042507,-2.19375 7.91522,-0.05926 15.68227,0.889391 23.44909,1.83801"
       id="path56"
       inkscape:connector-curvature="0"
       inkscape:path-effect="#path-effect58"
       inkscape:original-d="m 97.473393,76.084032 c 8.063757,-1.067492 16.127247,-2.134719 24.190467,-3.201681 7.7673,0.948382 15.53435,1.897029 23.30113,2.845941"
       sodipodi:nodetypes="ccc"
       transform="matrix(0.8355909,0,0,0.71351582,22.57694,48.5119)" />
    <path
       style="fill:none;stroke:#ff0000;stroke-width:0.37661979;stroke-linecap:butt;stroke-linejoin:miter;stroke-miterlimit:4;stroke-dasharray:none;stroke-opacity:1"
       d="m 55.495798,204.507 c 8.775256,-0.47434 17.55023,-0.94866 25.465372,-1.00794 7.915141,-0.0593 14.970921,0.29647 22.02622,0.6522"
       id="path60"
       inkscape:connector-curvature="0"
       inkscape:path-effect="#path-effect62"
       inkscape:original-d="m 55.495798,204.507 c 8.775242,-0.47459 17.550217,-0.94891 26.32493,-1.42297 7.055597,0.35547 14.111377,0.71122 21.166662,1.06723"
       transform="matrix(0.8355909,0,0,0.75935091,23.683844,6.5127549)"
       sodipodi:nodetypes="ccc" />
    <ellipse
       style="fill:#000000;fill-opacity:1;stroke:#ff0000;stroke-width:0.2110882;stroke-miterlimit:4;stroke-dasharray:none;stroke-dashoffset:0;stroke-opacity:1"
       id="path874"
       cx="107.95316"
       cy="129.8511"
       rx="0.74313754"
       ry="0.67533308" />
    <path
       transform="matrix(0.63413833,0,0,0.42357091,33.894196,83.278751)"
       style="fill:none;stroke:#ff0000;stroke-width:0.30000001;stroke-linecap:butt;stroke-linejoin:miter;stroke-miterlimit:4;stroke-dasharray:none;stroke-opacity:1"
       d="m 66.366143,162.15464 c 2.542701,5.22379 5.085449,10.44768 7.601972,14.00835 2.516522,3.56066 5.006717,5.45795 7.49687,7.35521"
       id="path876-7"
       inkscape:connector-curvature="0"
       inkscape:path-effect="#path-effect878-1"
       inkscape:original-d="m 66.366143,162.15464 c 2.543285,5.22351 5.086031,10.4474 7.628254,15.67169 2.490464,1.89703 4.980658,3.79432 7.470588,5.69187"
       sodipodi:nodetypes="ccc" />
    <path
       transform="matrix(0.8355909,0,0,0.75935091,14.485872,26.484765)"
       style="fill:none;stroke:#ff0000;stroke-width:0.30000001;stroke-linecap:butt;stroke-linejoin:miter;stroke-miterlimit:4;stroke-dasharray:none;stroke-opacity:1"
       d="m 70.08123,170.71148 c 1.541551,2.01587 3.083069,4.0317 4.624652,6.04762"
       id="path876-7-8"
       inkscape:connector-curvature="0"
       inkscape:path-effect="#path-effect878-1-4"
       inkscape:original-d="m 70.08123,170.71148 c 0,0 3.083363,4.03148 4.624652,6.04762"
       sodipodi:nodetypes="cc" />
    <path
       style="fill:none;stroke:#ff0000;stroke-width:0.26458332px;stroke-linecap:butt;stroke-linejoin:miter;stroke-opacity:1"
       d="m 59.053221,182.45098 c 1.422946,1.77868 2.845915,3.55739 4.268907,5.33613"
       id="path954"
       inkscape:connector-curvature="0"
       inkscape:path-effect="#path-effect956"
       inkscape:original-d="m 59.053221,182.45098 c 1.423234,1.77845 2.846203,3.55716 4.268907,5.33613"
       transform="matrix(0.8355909,0,0,0.75935091,23.981099,18.128485)" />
    <path
       style="fill:none;stroke:#ff0000;stroke-width:0.26458332px;stroke-linecap:butt;stroke-linejoin:miter;stroke-opacity:1"
       d="m 63.718712,165.1367 c 5.638231,6.70751 11.276629,13.41522 16.915181,20.12311"
       id="path958"
       inkscape:connector-curvature="0"
       inkscape:path-effect="#path-effect960"
       inkscape:original-d="m 63.718712,165.1367 c 5.638648,6.70716 11.277044,13.41487 16.915181,20.12311"
       transform="matrix(0.72357982,0,0,0.64535083,31.823458,41.182359)"
       sodipodi:nodetypes="cc" />
    <path
       style="fill:none;stroke:#ff0000;stroke-width:0.26458332px;stroke-linecap:butt;stroke-linejoin:miter;stroke-opacity:1"
       d="m 145.14286,77.862744 c 3.43889,2.490229 6.87773,4.98043 10.31652,7.47059"
       id="path962"
       inkscape:connector-curvature="0"
       inkscape:path-effect="#path-effect964"
       inkscape:original-d="m 145.14286,77.862744 c 3.4391,2.489933 6.87795,4.980128 10.31652,7.47059"
       transform="matrix(0.8355909,0,0,0.71351582,10.389487,46.227448)" />
    <path
       style="fill:none;stroke:#ff0000;stroke-width:0.26458332px;stroke-linecap:butt;stroke-linejoin:miter;stroke-opacity:1"
       d="m 134.94803,76.796343 c 5.65131,5.0987 11.30262,10.197397 16.95393,15.296092"
       id="path966"
       inkscape:connector-curvature="0"
       inkscape:path-effect="#path-effect968"
       inkscape:original-d="m 134.94803,76.796343 c 5.65164,5.098337 11.30295,10.197033 16.95393,15.296092"
       transform="matrix(0.8355909,0,0,0.71351582,10.389487,46.227448)"
       sodipodi:nodetypes="cc" />
    <path
       style="fill:none;stroke:#ff0000;stroke-width:0.26458332px;stroke-linecap:butt;stroke-linejoin:miter;stroke-opacity:1"
       d="m 127.54609,78.015794 c 7.39259,6.352631 14.78516,12.705247 22.17773,19.057858"
       id="path970"
       inkscape:connector-curvature="0"
       inkscape:path-effect="#path-effect972"
       inkscape:original-d="m 127.54609,78.015794 c 7.39291,6.352258 14.78548,12.704878 22.17773,19.057858"
       transform="matrix(0.8355909,0,0,0.71351582,10.389487,46.227448)"
       sodipodi:nodetypes="cc" />
    <path
       style="fill:none;stroke:#000000;stroke-width:0.26458332px;stroke-linecap:butt;stroke-linejoin:miter;stroke-opacity:1"
       d="m 114.54902,177.11485 c 4.34723,-2.5309 8.69415,-5.06162 13.04077,-7.59216"
       id="path978"
       inkscape:connector-curvature="0"
       inkscape:path-effect="#path-effect980"
       inkscape:original-d="m 114.54902,177.11485 c 4.34716,-2.53102 8.69408,-5.06174 13.04077,-7.59216"
       sodipodi:nodetypes="cc"
       transform="matrix(1.0282674,0,0,0.92140057,-1.7020044,-13.129135)" />
    <path
       style="fill:none;stroke:#000000;stroke-width:0.26458332px;stroke-linecap:butt;stroke-linejoin:miter;stroke-opacity:1"
       d="m 119.94445,168.45099 c 4.92298,-3.56212 9.84563,-7.12402 14.76799,-10.68569"
       id="path986"
       inkscape:connector-curvature="0"
       inkscape:path-effect="#path-effect988"
       inkscape:original-d="m 119.94445,168.45099 c 4.92292,-3.5622 9.84558,-7.12409 14.76799,-10.68569"
       sodipodi:nodetypes="cc"
       transform="matrix(0.80055644,0,0,0.52484253,17.29686,66.527112)" />
    <path
       style="fill:none;stroke:#000000;stroke-width:0.26458332px;stroke-linecap:butt;stroke-linejoin:miter;stroke-opacity:1"
       d="m 135.45825,190.50254 c 5.6719,-3.52157 11.3435,-7.04295 17.01477,-10.56413"
       id="path992"
       inkscape:connector-curvature="0"
       inkscape:path-effect="#path-effect994"
       inkscape:original-d="m 135.45825,190.50254 c 5.67183,-3.52168 11.34343,-7.04306 17.01477,-10.56413"
       transform="matrix(0.79388005,0,0,0.62416752,10.73875,27.19141)"
       sodipodi:nodetypes="cc" />
    <text
       xml:space="preserve"
       style="font-style:italic;font-variant:normal;font-weight:normal;font-stretch:normal;font-size:8.43025208px;line-height:1.25;font-family:'Times New Roman';-inkscape-font-specification:'Times New Roman, Italic';font-variant-ligatures:normal;font-variant-caps:normal;font-variant-numeric:normal;font-feature-settings:normal;text-align:start;letter-spacing:0px;word-spacing:0px;writing-mode:lr-tb;text-anchor:start;fill:#000000;fill-opacity:1;stroke:none;stroke-width:0.2107563"
       x="139.85907"
       y="118.33223"
       id="text1002"
       transform="scale(1.0490003,0.9532886)"><tspan
         sodipodi:role="line"
         id="tspan1000"
         x="139.85907"
         y="118.33223"
         style="stroke-width:0.2107563">G</tspan></text>
    <text
       xml:space="preserve"
       style="font-style:italic;font-variant:normal;font-weight:normal;font-stretch:normal;font-size:8.43025208px;line-height:1.25;font-family:'Times New Roman';-inkscape-font-specification:'Times New Roman, Italic';font-variant-ligatures:normal;font-variant-caps:normal;font-variant-numeric:normal;font-feature-settings:normal;text-align:start;letter-spacing:0px;word-spacing:0px;writing-mode:lr-tb;text-anchor:start;fill:#000000;fill-opacity:1;stroke:none;stroke-width:0.2107563"
       x="99.368408"
       y="142.03441"
       id="text1010"
       transform="scale(1.0490003,0.95328859)"><tspan
         sodipodi:role="line"
         id="tspan1008"
         x="99.368408"
         y="142.03441"
         style="stroke-width:0.2107563">e</tspan></text>
    <g
       id="g1067"
       transform="matrix(0.8355909,0,0,0.75935091,25.524739,80.70312)"
       style="stroke:#ff0000;stroke-opacity:1">
      <g
         word-spacing="normal"
         letter-spacing="normal"
         font-size-adjust="none"
         font-stretch="normal"
         font-weight="normal"
         font-variant="normal"
         font-style="normal"
         stroke-miterlimit="10.433"
         xml:space="preserve"
         transform="matrix(0.3,0,0,-0.3,-52.5,222.75)"
         id="content"
         style="font-style:normal;font-variant:normal;font-weight:normal;font-stretch:normal;letter-spacing:normal;word-spacing:normal;text-anchor:start;fill:none;fill-opacity:1;fill-rule:evenodd;stroke:#ff0000;stroke-linecap:butt;stroke-linejoin:miter;stroke-miterlimit:10.43299961;stroke-dasharray:none;stroke-dashoffset:0;stroke-opacity:1"><path
           id="path1064"
           d="m 470.36,438.93 0.02,0.04 0.03,0.04 0.02,0.03 0.02,0.04 0.02,0.03 0.02,0.03 0.02,0.03 0.02,0.04 0.02,0.03 0.01,0.02 v 0.01 l 0.01,0.02 0.01,0.01 v 0.02 l 0.01,0.02 v 0.01 l 0.01,0.02 v 0.02 l 0.01,0.02 v 0.01 0.02 0.02 0.02 c 0,0.2 -0.14,0.39 -0.39,0.39 -1.84,0 -4.14,-0.8 -6.28,-2.14 -2.3,-1.39 -4.23,-3.23 -5.58,-5.12 -1.54,-2.19 -2.29,-4.24 -2.29,-6.04 0,-1 0.25,-1.93 0.7,-2.73 1.39,-2.59 4.53,-3.69 8.36,-3.69 0.86,0 1.8,0.1 2.75,0.25 0,-0.29 0.05,-0.61 0.09,-0.84 0.55,-2.25 2.5,-3.44 5.33,-3.44 2.09,0 3.94,1.03 5.74,2.53 -1.55,-2.69 -2.3,-5.33 -4.19,-8.01 -1.69,-2.39 -4.88,-4.44 -7.08,-4.44 -4.33,0 -7.77,0.84 -7.77,3.14 0,0.45 0.16,1 0.46,1.59 0.29,-0.5 0.84,-0.75 1.43,-0.75 1.3,0 2.8,1 2.8,1.94 0,1.25 -0.75,1.7 -1.65,1.7 -1.04,0 -2.24,-0.59 -2.83,-1.45 -0.91,-1.3 -1.3,-2.33 -1.3,-3.23 0,-2.99 4.33,-4.03 8.72,-4.03 3.89,0 9.01,1.5 11.5,5.03 2.5,3.57 1.5,6.37 3.89,9.76 1.59,2.24 2.14,5.03 4.98,6.67 0.1,0.05 0.16,0.25 0.16,0.35 l -0.06,0.4 c 0,0 -0.05,0.05 -0.05,0.1 -0.05,0.2 -0.2,0.29 -0.39,0.29 -0.06,0 -0.16,0 -0.2,-0.04 -2.25,-1.3 -4.03,-3.03 -5.53,-4.88 -2.74,-2.79 -5.44,-5.58 -8.43,-5.58 -1.68,0 -2.48,0.94 -2.48,2.29 v 0.25 c 0.05,0.45 0.19,0.95 0.34,1.45 2.49,0.8 5.08,1.98 7.58,3.48 4.88,2.94 9.22,6.83 12.1,10.91 0.79,1.09 1.2,2.2 1.2,3.19 0,0.45 -0.1,0.86 -0.25,1.25 -0.55,1.29 -2.05,1.89 -3.78,1.89 L 488,440.78 c 1.19,0 1.85,-0.46 1.94,-1.14 v -0.25 c 0,-0.86 -0.59,-2.05 -1.48,-3.3 -2.75,-3.83 -6.44,-7.63 -10.97,-10.56 -1.8,-1.14 -3.69,-2.1 -5.49,-2.78 0.71,1.29 1.66,2.68 2.64,4.12 v 0 c 2.4,3.39 5.29,7.49 7.74,9.97 1.98,2.05 4.03,3.94 5.62,3.94 l 0.21,1.14 c -2.55,0 -5.78,-2.14 -8.42,-4.33 -3.85,-3.14 -6.88,-6.67 -9.38,-10.22 -1.44,-2.05 -2.33,-4.08 -2.53,-5.87 -0.91,-0.16 -1.75,-0.25 -2.55,-0.25 -3.33,0 -5.73,1.04 -6.58,3.09 -0.18,0.44 -0.29,0.98 -0.29,1.53 0,1.75 0.9,3.89 2.5,6.24 1.18,1.68 2.58,3.39 4.48,4.78 1.6,1.14 3.28,1.89 4.58,1.89 0.14,0 0.25,0.06 0.34,0.15 z"
           inkscape:connector-curvature="0"
           style="fill:#ff0000;fill-opacity:1;stroke:#ff0000;stroke-width:0;stroke-opacity:1" /></g>    </g>
    <g
       id="g929"
       transform="matrix(0.64665161,0,0,0.51434424,78.193862,102.48743)">
      <g
         word-spacing="normal"
         letter-spacing="normal"
         font-size-adjust="none"
         font-stretch="normal"
         font-weight="normal"
         font-variant="normal"
         font-style="normal"
         stroke-miterlimit="10.433"
         xml:space="preserve"
         transform="matrix(0.16055021,0,0,-0.16055021,-28.096287,94.080765)"
         id="g927"
         style="font-style:normal;font-variant:normal;font-weight:normal;font-stretch:normal;letter-spacing:normal;word-spacing:normal;text-anchor:start;fill:none;fill-opacity:1;fill-rule:evenodd;stroke:#000000;stroke-linecap:butt;stroke-linejoin:miter;stroke-miterlimit:10.43299961;stroke-dasharray:none;stroke-dashoffset:0;stroke-opacity:1"><path
           id="path919"
           d="m 469.86,415.17 -0.15,-0.22 -0.14,-0.22 -0.14,-0.22 -0.13,-0.21 -0.13,-0.22 -0.12,-0.21 -0.12,-0.21 -0.11,-0.21 -0.1,-0.21 -0.1,-0.21 -0.1,-0.21 -0.08,-0.2 -0.09,-0.21 -0.08,-0.2 -0.07,-0.2 -0.07,-0.21 -0.12,-0.39 -0.11,-0.4 -0.08,-0.39 -0.07,-0.38 -0.06,-0.38 -0.03,-0.38 -0.02,-0.37 -0.01,-0.36 v -0.25 c 0.09,-1.6 0.8,-3.14 2.89,-3.14 1.69,0 3.83,1 5.72,2.28 1,0.65 1.9,1.4 2.75,2.2 -0.05,-0.41 -0.11,-0.8 -0.11,-1.16 l 0.06,-0.73 c 0.14,-1.34 0.85,-2.59 2.64,-2.59 1.69,0 3.78,0.84 5.67,2.09 2.1,1.3 3.94,2.98 5.19,4.78 0.05,0.09 0.1,0.14 0.1,0.25 0,0.25 -0.25,0.39 -0.46,0.39 h -0.54 c -0.15,0 -0.25,-0.05 -0.35,-0.14 -1.09,-1.59 -2.73,-3.19 -4.64,-4.44 -1.69,-1.09 -3.44,-1.79 -4.78,-1.79 -0.09,0 -0.19,0.04 -0.19,0.2 0,0.2 0.1,0.59 0.39,1.3 0.6,1.59 1.6,3.23 2.8,4.92 5.53,7.83 11.7,15.65 18.42,23.37 0.06,0.05 0.11,0.14 0.11,0.25 0,0.14 -0.05,0.25 -0.16,0.3 -0.04,0.09 -0.14,0.09 -0.25,0.09 h -3.57 c -0.16,0 -0.25,-0.04 -0.36,-0.14 -6.72,-7.72 -12.89,-15.54 -18.42,-23.37 -1.25,-1.74 -2.94,-3.49 -4.99,-4.92 -1.7,-1.21 -3.48,-2 -4.83,-2 -0.31,0 -0.4,0.15 -0.4,0.45 0,0.3 0.09,0.8 0.4,1.59 0.64,1.94 1.94,4.03 3.44,6.13 l 8.61,12.2 c 2.25,3.14 3.48,6.28 3.48,8.92 0,0.55 -0.04,1.1 -0.14,1.6 -0.65,2.84 -3.18,4.53 -6.92,4.53 -2.95,0 -6.53,-1.19 -9.97,-3.24 -3.54,-2.09 -6.62,-4.89 -8.72,-7.82 -1.39,-2.04 -2.29,-4.13 -2.29,-5.88 0,-0.3 0,-0.55 0.04,-0.8 0.32,-1.84 1.8,-2.98 4.1,-2.98 1.79,0 3.89,0.55 5.92,1.64 1.89,1.05 3.64,2.44 4.84,4.03 1.78,2.39 2.19,3.09 2.19,9.22 v 0.05 c 0,0.2 -0.16,0.36 -0.34,0.4 -0.16,0 -0.32,-0.04 -0.46,-0.15 l -0.45,-0.14 c -0.09,-0.05 -0.2,-0.21 -0.25,-0.36 -0.34,-2.64 -1.19,-5.47 -3.33,-8.52 -0.9,-1.34 -2.09,-2.64 -3.64,-3.64 -1.5,-0.94 -3.04,-1.44 -4.28,-1.44 -1.84,0 -2.84,0.85 -3.05,2.19 l -0.04,0.45 c 0,1.5 0.84,3.39 2.29,5.43 1.94,2.75 4.79,5.43 8.07,7.43 3.23,1.94 6.57,2.99 9.17,2.99 2.94,0 4.44,-1.46 4.53,-3.69 v -0.3 c 0,-2.59 -1.84,-6.37 -4.19,-9.42 z"
           inkscape:connector-curvature="0"
           style="fill:#ff0000;fill-opacity:1;stroke-width:0" /></g>    </g>
    <path
       style="fill:none;stroke:#ff0000;stroke-width:0.26458332px;stroke-linecap:butt;stroke-linejoin:miter;stroke-opacity:1"
       d="m 98.928235,124.88035 c 1.837485,-2.66416 4.287325,-4.37904 6.828875,-5.48137 2.54156,-1.10233 5.17547,-1.59236 7.5639,-1.65358 2.38843,-0.0612 4.53229,0.30631 6.24701,1.16366 1.71472,0.85736 3.00102,2.20491 3.55549,3.70565 0.55448,1.50074 0.36426,3.27618 -0.40135,5.23623 -0.76562,1.96005 -2.1128,4.16454 -3.58279,6.12455 -1.46999,1.96002 -3.06217,3.67467 -5.14471,5.20599 -2.08254,1.53131 -4.65447,2.87851 -7.38014,3.36855 -2.72568,0.49005 -5.6039,0.12261 -7.625204,-1.31684 -2.021307,-1.43945 -3.184895,-3.95035 -3.154219,-7.01267 0.03068,-3.06232 1.255656,-6.67601 3.093138,-9.34017 z"
       id="path960"
       inkscape:connector-curvature="0"
       inkscape:path-effect="#path-effect962"
       inkscape:original-d="m 98.315568,123.9313 c 2.450112,-1.71516 4.899952,-3.43005 7.349542,-5.14468 2.63352,-0.49017 5.26743,-0.9802 7.90075,-1.46991 2.14363,0.36717 4.28749,0.73469 6.43084,1.10244 1.28631,1.34701 2.57261,2.69456 3.85851,4.04224 -0.18348,1.65339 -0.36721,3.42952 -0.55121,5.14468 -1.34738,2.20497 -2.69457,4.40945 -4.04225,6.61458 -1.59236,1.71487 -3.18454,3.42952 -4.7772,5.14468 -2.57248,1.34736 -5.14441,2.69456 -7.71701,4.04224 -2.87866,-0.36778 -5.75688,-0.73522 -8.635709,-1.10243 -1.163505,-2.51155 -2.32709,-5.02245 -3.491031,-7.53327 1.225131,-3.61362 2.45011,-7.22731 3.674768,-10.84057 z"
       transform="matrix(1,0,0,1.0703204,0,-8.2794468)" />
    <path
       transform="matrix(1.2331681,0,0,0.91866285,-26.861862,11.779653)"
       style="fill:none;stroke:#000000;stroke-width:0.26458332px;stroke-linecap:butt;stroke-linejoin:miter;stroke-opacity:1"
       d="m 98.928235,124.88035 c 1.837485,-2.66416 4.287325,-4.37904 6.828875,-5.48137 2.54156,-1.10233 5.17547,-1.59236 7.5639,-1.65358 2.38843,-0.0612 4.53229,0.30631 6.24701,1.16366 1.71472,0.85736 3.00102,2.20491 3.55549,3.70565 0.55448,1.50074 0.36426,3.27618 -0.40135,5.23623 -0.76562,1.96005 -2.1128,4.16454 -3.58279,6.12455 -1.46999,1.96002 -3.06217,3.67467 -5.14471,5.20599 -2.08254,1.53131 -4.65447,2.87851 -7.38014,3.36855 -2.72568,0.49005 -5.6039,0.12261 -7.625204,-1.31684 -2.021307,-1.43945 -3.184895,-3.95035 -3.154219,-7.01267 0.03068,-3.06232 1.255656,-6.67601 3.093138,-9.34017 z"
       id="path960-9"
       inkscape:connector-curvature="0"
       inkscape:path-effect="#path-effect962-9"
       inkscape:original-d="m 98.315568,123.9313 c 2.450112,-1.71516 4.899952,-3.43005 7.349542,-5.14468 2.63352,-0.49017 5.26743,-0.9802 7.90075,-1.46991 2.14363,0.36717 4.28749,0.73469 6.43084,1.10244 1.28631,1.34701 2.57261,2.69456 3.85851,4.04224 -0.18348,1.65339 -0.36721,3.42952 -0.55121,5.14468 -1.34738,2.20497 -2.69457,4.40945 -4.04225,6.61458 -1.59236,1.71487 -3.18454,3.42952 -4.7772,5.14468 -2.57248,1.34736 -5.14441,2.69456 -7.71701,4.04224 -2.87866,-0.36778 -5.75688,-0.73522 -8.635709,-1.10243 -1.163505,-2.51155 -2.32709,-5.02245 -3.491031,-7.53327 1.225131,-3.61362 2.45011,-7.22731 3.674768,-10.84057 z" />
    <text
       xml:space="preserve"
       style="font-style:italic;font-variant:normal;font-weight:normal;font-stretch:normal;font-size:4.65208054px;line-height:1.25;font-family:'Times New Roman';-inkscape-font-specification:'Times New Roman, Italic';font-variant-ligatures:normal;font-variant-caps:normal;font-variant-numeric:normal;font-feature-settings:normal;text-align:start;letter-spacing:0px;word-spacing:0px;writing-mode:lr-tb;text-anchor:start;fill:#000000;fill-opacity:1;stroke:none;stroke-width:0.11630003"
       x="111.12219"
       y="141.42384"
       id="text984"
       transform="scale(1.132034,0.8833657)"><tspan
         sodipodi:role="line"
         id="tspan68"
         x="111.12219"
         y="141.42384">U</tspan></text>
  </g>
</svg>
