<?xml version="1.0" encoding="UTF-8" standalone="no"?>
<!-- Created with Inkscape (http://www.inkscape.org/) -->

<svg
   xmlns:dc="http://purl.org/dc/elements/1.1/"
   xmlns:cc="http://creativecommons.org/ns#"
   xmlns:rdf="http://www.w3.org/1999/02/22-rdf-syntax-ns#"
   xmlns:svg="http://www.w3.org/2000/svg"
   xmlns="http://www.w3.org/2000/svg"
   xmlns:sodipodi="http://sodipodi.sourceforge.net/DTD/sodipodi-0.dtd"
   xmlns:inkscape="http://www.inkscape.org/namespaces/inkscape"
   width="201.18643mm"
   height="77.425156mm"
   viewBox="0 0 201.18643 77.425156"
   version="1.1"
   id="svg8"
   inkscape:version="0.92.5 (2060ec1f9f, 2020-04-08)"
   sodipodi:docname="0144.svg">
  <defs
     id="defs2">
    <marker
       inkscape:stockid="Arrow1Mend"
       orient="auto"
       refY="0"
       refX="0"
       id="Arrow1Mend-8"
       style="overflow:visible"
       inkscape:isstock="true">
      <path
         inkscape:connector-curvature="0"
         id="path5573-5"
         d="M 0,0 5,-5 -12.5,0 5,5 Z"
         style="fill:#ff0000;fill-opacity:1;fill-rule:evenodd;stroke:#ff0000;stroke-width:1.00000003pt;stroke-opacity:1"
         transform="matrix(-0.4,0,0,-0.4,-4,0)" />
    </marker>
    <marker
       inkscape:stockid="Arrow1Mend"
       orient="auto"
       refY="0"
       refX="0"
       id="Arrow1Mend"
       style="overflow:visible"
       inkscape:isstock="true">
      <path
         inkscape:connector-curvature="0"
         id="path5573"
         d="M 0,0 5,-5 -12.5,0 5,5 Z"
         style="fill:#ff0000;fill-opacity:1;fill-rule:evenodd;stroke:#ff0000;stroke-width:1.00000003pt;stroke-opacity:1"
         transform="matrix(-0.4,0,0,-0.4,-4,0)" />
    </marker>
    <inkscape:path-effect
       effect="bspline"
       id="path-effect1285-7-1-4-9-6-2-7-3"
       is_visible="true"
       weight="33.333333"
       steps="2"
       helper_size="0"
       apply_no_weight="true"
       apply_with_weight="true"
       only_selected="false" />
    <inkscape:path-effect
       effect="bspline"
       id="path-effect1285-7-1-4-9-9-4-7-0-9"
       is_visible="true"
       weight="33.333333"
       steps="2"
       helper_size="0"
       apply_no_weight="true"
       apply_with_weight="true"
       only_selected="false" />
    <inkscape:path-effect
       effect="bspline"
       id="path-effect1285-7-1-4-9-9-5-4-0"
       is_visible="true"
       weight="33.333333"
       steps="2"
       helper_size="0"
       apply_no_weight="true"
       apply_with_weight="true"
       only_selected="false" />
    <inkscape:path-effect
       effect="bspline"
       id="path-effect1285-7-1-4-9-6-9-0"
       is_visible="true"
       weight="33.333333"
       steps="2"
       helper_size="0"
       apply_no_weight="true"
       apply_with_weight="true"
       only_selected="false" />
    <inkscape:path-effect
       effect="bspline"
       id="path-effect1285-7-1-4-9-6-9-7-6"
       is_visible="true"
       weight="33.333333"
       steps="2"
       helper_size="0"
       apply_no_weight="true"
       apply_with_weight="true"
       only_selected="false" />
    <inkscape:path-effect
       effect="bspline"
       id="path-effect1285-7-1-4-9-6-9-7"
       is_visible="true"
       weight="33.333333"
       steps="2"
       helper_size="0"
       apply_no_weight="true"
       apply_with_weight="true"
       only_selected="false" />
    <inkscape:path-effect
       effect="bspline"
       id="path-effect1285-7-1-4-9-6-5-1"
       is_visible="true"
       weight="33.333333"
       steps="2"
       helper_size="0"
       apply_no_weight="true"
       apply_with_weight="true"
       only_selected="false" />
    <inkscape:path-effect
       effect="bspline"
       id="path-effect1285-7-1-4-9-6-99"
       is_visible="true"
       weight="33.333333"
       steps="2"
       helper_size="0"
       apply_no_weight="true"
       apply_with_weight="true"
       only_selected="false" />
    <inkscape:path-effect
       effect="bspline"
       id="path-effect1285-7-1-4-9-3"
       is_visible="true"
       weight="33.333333"
       steps="2"
       helper_size="0"
       apply_no_weight="true"
       apply_with_weight="true"
       only_selected="false" />
    <inkscape:path-effect
       effect="bspline"
       id="path-effect1285-7-1-7"
       is_visible="true"
       weight="33.333333"
       steps="2"
       helper_size="0"
       apply_no_weight="true"
       apply_with_weight="true"
       only_selected="false" />
    <inkscape:path-effect
       effect="bspline"
       id="path-effect1285-7-1-4"
       is_visible="true"
       weight="33.333333"
       steps="2"
       helper_size="0"
       apply_no_weight="true"
       apply_with_weight="true"
       only_selected="false" />
    <inkscape:path-effect
       effect="bspline"
       id="path-effect1285-7-1"
       is_visible="true"
       weight="33.333333"
       steps="2"
       helper_size="0"
       apply_no_weight="true"
       apply_with_weight="true"
       only_selected="false" />
    <inkscape:path-effect
       effect="bspline"
       id="path-effect1285-7-1-4-9-3-2"
       is_visible="true"
       weight="33.333333"
       steps="2"
       helper_size="0"
       apply_no_weight="true"
       apply_with_weight="true"
       only_selected="false" />
  </defs>
  <sodipodi:namedview
     id="base"
     pagecolor="#ffffff"
     bordercolor="#666666"
     borderopacity="1.0"
     inkscape:pageopacity="0.0"
     inkscape:pageshadow="2"
     inkscape:zoom="1.08"
     inkscape:cx="358.12309"
     inkscape:cy="148.02808"
     inkscape:document-units="mm"
     inkscape:current-layer="layer1"
     showgrid="false"
     inkscape:window-width="1366"
     inkscape:window-height="705"
     inkscape:window-x="-8"
     inkscape:window-y="-8"
     inkscape:window-maximized="1"
     fit-margin-top="0"
     fit-margin-left="0"
     fit-margin-right="0"
     fit-margin-bottom="0" />
  <metadata
     id="metadata5">
    <rdf:RDF>
      <cc:Work
         rdf:about="">
        <dc:format>image/svg+xml</dc:format>
        <dc:type
           rdf:resource="http://purl.org/dc/dcmitype/StillImage" />
        <dc:title></dc:title>
      </cc:Work>
    </rdf:RDF>
  </metadata>
  <g
     inkscape:label="Layer 1"
     inkscape:groupmode="layer"
     id="layer1"
     transform="translate(-11.07993,-15.6383)">
    <ellipse
       style="fill:none;fill-opacity:1;stroke:#0000ff;stroke-width:0.74400002;stroke-miterlimit:4;stroke-dasharray:none;stroke-dashoffset:0;stroke-opacity:1"
       id="path4745-6-16-2-1-1-3-6-1"
       cx="53.053799"
       cy="29.829639"
       rx="2.5576429"
       ry="2.6329067" />
    <g
       id="g237"
       transform="matrix(2,0,0,2,-16.6154,-95.076447)">
      <g
         word-spacing="normal"
         letter-spacing="normal"
         font-size-adjust="none"
         font-stretch="normal"
         font-weight="normal"
         font-variant="normal"
         font-style="normal"
         stroke-miterlimit="10.433"
         xml:space="preserve"
         transform="matrix(0.06614892,0,0,-0.06614892,-11.576061,90.677047)"
         id="g235"
         style="font-style:normal;font-variant:normal;font-weight:normal;font-stretch:normal;letter-spacing:normal;word-spacing:normal;text-anchor:start;fill:none;fill-opacity:1;fill-rule:evenodd;stroke:#000000;stroke-linecap:butt;stroke-linejoin:miter;stroke-miterlimit:10.43299961;stroke-dasharray:none;stroke-dashoffset:0;stroke-opacity:1"><path
           id="path225"
           d="m 472.91,425.53 -6.37,1.54 c -3.1,0.75 -5.04,3.44 -5.04,6.33 0,3.49 2.69,6.53 6.58,6.53 8.31,0 9.41,-8.17 9.71,-10.42 0.04,-0.3 0.04,-0.59 0.6,-0.59 0.65,0 0.65,0.25 0.65,1.2 v 10 c 0,0.86 0,1.2 -0.55,1.2 -0.35,0 -0.41,-0.04 -0.75,-0.65 L 476,437.84 c -1.5,1.44 -3.54,3.48 -7.98,3.48 -5.53,0 -9.7,-4.39 -9.7,-9.67 0,-4.12 2.64,-7.76 6.51,-9.11 0.55,-0.2 3.1,-0.79 6.58,-1.64 1.34,-0.36 2.84,-0.7 4.23,-2.54 1.05,-1.3 1.55,-2.94 1.55,-4.58 0,-3.55 -2.48,-7.13 -6.67,-7.13 -1.45,0 -5.23,0.25 -7.88,2.69 -2.89,2.69 -3.04,5.87 -3.09,7.67 -0.05,0.5 -0.44,0.5 -0.59,0.5 -0.64,0 -0.64,-0.36 -0.64,-1.25 v -9.97 c 0,-0.84 0,-1.18 0.54,-1.18 0.35,0 0.39,0.09 0.74,0.64 0,0.04 0.15,0.2 1.79,2.84 1.55,-1.69 4.74,-3.48 9.18,-3.48 5.82,0 9.81,4.87 9.81,10.35 0,4.99 -3.28,9.07 -7.47,10.07 z"
           inkscape:connector-curvature="0"
           style="fill:#000000;stroke-width:0" /><path
           id="path227"
           d="m 512.24,417.71 -0.02,-0.65 -0.04,-0.64 -0.07,-0.61 -0.09,-0.6 -0.12,-0.58 -0.14,-0.56 -0.17,-0.55 -0.18,-0.52 -0.21,-0.5 -0.23,-0.49 -0.25,-0.46 -0.26,-0.45 -0.29,-0.42 -0.3,-0.4 -0.31,-0.39 -0.33,-0.36 -0.35,-0.34 -0.36,-0.32 -0.36,-0.3 -0.38,-0.28 -0.4,-0.26 -0.4,-0.24 -0.4,-0.21 -0.42,-0.19 -0.42,-0.18 -0.43,-0.14 -0.43,-0.13 -0.44,-0.1 -0.44,-0.08 -0.44,-0.06 -0.44,-0.04 -0.44,-0.01 c -2.35,0 -8.24,1.24 -8.24,10.71 v 18.98 c 0,1.8 0.11,2.34 3.94,2.34 h 1.2 v 1.55 c -1.75,-0.16 -5.44,-0.16 -7.33,-0.16 -1.89,0 -5.62,0 -7.37,0.16 v -1.55 h 1.2 c 3.83,0 3.94,-0.54 3.94,-2.34 v -18.78 c 0,-7.03 5.78,-12.45 12.55,-12.45 5.73,0 10.21,4.62 11.06,10.31 0.15,1 0.15,1.44 0.15,3.44 v 15.93 c 0,1.64 0,3.89 5.13,3.89 v 1.55 c -1.8,-0.05 -4.19,-0.16 -5.88,-0.16 -1.74,0 -4.14,0.11 -5.93,0.16 v -1.55 c 5.14,0 5.14,-2.34 5.14,-3.68 z"
           inkscape:connector-curvature="0"
           style="fill:#000000;stroke-width:0" /><path
           id="path229"
           d="m 537.04,394.25 v 0.02 0.03 0.01 l -0.01,0.02 v 0.01 0.02 l -0.01,0.01 -0.01,0.02 -0.01,0.02 -0.01,0.02 -0.01,0.02 -0.01,0.03 -0.02,0.02 -0.02,0.03 -0.02,0.03 -0.02,0.03 -0.03,0.03 -0.03,0.04 -0.01,0.02 -0.02,0.02 -0.02,0.02 -0.02,0.02 -0.01,0.02 -0.02,0.03 -0.03,0.02 -0.02,0.02 -0.02,0.03 -0.02,0.02 -0.03,0.03 -0.02,0.03 -0.03,0.03 -0.03,0.03 -0.03,0.03 -0.03,0.03 -0.03,0.03 -0.03,0.03 -0.03,0.04 -0.04,0.03 -0.03,0.04 -0.04,0.03 -0.04,0.04 -0.03,0.04 c -6.22,6.28 -7.82,15.69 -7.82,23.31 0,8.67 1.89,17.35 8.02,23.56 0.64,0.61 0.64,0.71 0.64,0.86 0,0.35 -0.19,0.49 -0.49,0.49 -0.5,0 -4.98,-3.38 -7.92,-9.7 -2.54,-5.49 -3.14,-11.02 -3.14,-15.21 0,-3.89 0.55,-9.9 3.28,-15.54 2.99,-6.13 7.28,-9.36 7.78,-9.36 0.3,0 0.49,0.14 0.49,0.5 z"
           inkscape:connector-curvature="0"
           style="fill:#000000;stroke-width:0" /><path
           id="path231"
           d="m 546.2,410.04 5.28,5.13 c 7.77,6.87 10.77,9.56 10.77,14.54 0,5.69 -4.49,9.68 -10.57,9.68 -5.64,0 -9.33,-4.6 -9.33,-9.03 0,-2.79 2.5,-2.79 2.65,-2.79 0.85,0 2.59,0.6 2.59,2.64 0,1.3 -0.89,2.6 -2.64,2.6 -0.39,0 -0.5,0 -0.64,-0.05 1.14,3.24 3.83,5.08 6.72,5.08 4.53,0 6.69,-4.05 6.69,-8.13 0,-3.98 -2.5,-7.92 -5.24,-11.01 l -9.56,-10.66 c -0.57,-0.54 -0.57,-0.64 -0.57,-1.84 h 18.49 l 1.41,8.67 H 561 c -0.25,-1.5 -0.6,-3.69 -1.1,-4.44 -0.36,-0.39 -3.64,-0.39 -4.73,-0.39 z"
           inkscape:connector-curvature="0"
           style="fill:#000000;stroke-width:0" /><path
           id="path233"
           d="m 579.22,418.65 v 0.37 l -0.01,0.39 -0.01,0.39 -0.01,0.41 -0.04,0.84 -0.06,0.88 -0.08,0.92 -0.11,0.95 -0.13,0.97 -0.17,1.01 -0.19,1.02 -0.23,1.03 -0.27,1.05 -0.31,1.06 -0.34,1.07 -0.4,1.07 -0.21,0.53 -0.22,0.53 -0.24,0.53 -0.25,0.53 c -2.99,6.12 -7.27,9.36 -7.77,9.36 -0.29,0 -0.5,-0.19 -0.5,-0.49 0,-0.15 0,-0.25 0.94,-1.15 4.89,-4.92 7.73,-12.85 7.73,-23.27 0,-8.51 -1.84,-17.28 -8.03,-23.56 -0.64,-0.59 -0.64,-0.7 -0.64,-0.84 0,-0.3 0.21,-0.5 0.5,-0.5 0.5,0 4.97,3.39 7.92,9.71 2.54,5.47 3.13,11 3.13,15.19 z"
           inkscape:connector-curvature="0"
           style="fill:#000000;stroke-width:0" /></g>    </g>
    <g
       id="g390"
       transform="matrix(2,0,0,2,13.450025,-89.798209)">
      <g
         word-spacing="normal"
         letter-spacing="normal"
         font-size-adjust="none"
         font-stretch="normal"
         font-weight="normal"
         font-variant="normal"
         font-style="normal"
         stroke-miterlimit="10.433"
         xml:space="preserve"
         transform="matrix(0.06614892,0,0,-0.06614892,-11.576061,90.677047)"
         id="g388"
         style="font-style:normal;font-variant:normal;font-weight:normal;font-stretch:normal;letter-spacing:normal;word-spacing:normal;text-anchor:start;fill:none;fill-opacity:1;fill-rule:evenodd;stroke:#000000;stroke-linecap:butt;stroke-linejoin:miter;stroke-miterlimit:10.43299961;stroke-dasharray:none;stroke-dashoffset:0;stroke-opacity:1"><path
           id="path386"
           d="m 479.29,417.96 -0.01,0.37 -0.01,0.35 -0.02,0.35 -0.02,0.34 -0.06,0.65 -0.09,0.63 -0.11,0.59 -0.14,0.57 -0.15,0.54 -0.18,0.51 -0.19,0.49 -0.21,0.45 -0.23,0.44 -0.25,0.4 -0.26,0.38 -0.27,0.36 -0.29,0.33 -0.3,0.31 -0.31,0.29 -0.31,0.26 -0.33,0.24 -0.34,0.22 -0.34,0.2 -0.35,0.18 -0.35,0.16 -0.36,0.14 -0.35,0.12 -0.36,0.11 -0.37,0.09 -0.36,0.06 -0.36,0.06 -0.35,0.04 -0.35,0.02 h -0.35 l -0.05,-1.09 c 4.94,0 4.94,-6.53 4.94,-10.41 0,-1.84 0,-4.73 0.09,-5.57 v 0 c -4.37,-3.85 -8.22,-4.39 -10.2,-4.39 -3,0 -4.49,2.25 -4.49,5.43 0,2.44 1.3,7.82 2.89,10.36 2.33,3.64 5.04,4.58 6.77,4.58 l 0.05,1.09 c -6.82,0 -13.39,-7.12 -13.39,-14.14 0,-4.64 2.98,-8.42 8.06,-8.42 3.14,0 6.73,1.14 10.51,4.19 0.66,-2.64 2.3,-4.19 4.54,-4.19 2.64,0 4.18,2.74 4.18,3.53 0,0.36 -0.29,0.5 -0.59,0.5 -0.36,0 -0.5,-0.14 -0.66,-0.5 -0.89,-2.43 -2.68,-2.43 -2.78,-2.43 -1.54,0 -1.54,3.89 -1.54,5.07 0,1.05 0,1.16 0.5,1.75 4.68,5.88 5.73,11.66 5.73,11.71 0,0.11 -0.06,0.5 -0.61,0.5 -0.5,0 -0.5,-0.14 -0.75,-1.05 -0.89,-3.14 -2.53,-6.92 -4.87,-9.86 z"
           inkscape:connector-curvature="0"
           style="fill:#000000;stroke-width:0" /></g>    </g>
    <g
       id="g443"
       transform="matrix(2,0,0,2,52.439079,-96.920838)">
      <g
         word-spacing="normal"
         letter-spacing="normal"
         font-size-adjust="none"
         font-stretch="normal"
         font-weight="normal"
         font-variant="normal"
         font-style="normal"
         stroke-miterlimit="10.433"
         xml:space="preserve"
         transform="matrix(0.06614892,0,0,-0.06614892,-11.576061,90.677047)"
         id="content"
         style="font-style:normal;font-variant:normal;font-weight:normal;font-stretch:normal;letter-spacing:normal;word-spacing:normal;text-anchor:start;fill:none;fill-opacity:1;fill-rule:evenodd;stroke:#000000;stroke-linecap:butt;stroke-linejoin:miter;stroke-miterlimit:10.43299961;stroke-dasharray:none;stroke-dashoffset:0;stroke-opacity:1"><path
           id="path432"
           d="m 510.32,437.84 0.1,0.02 0.11,0.01 0.11,0.02 0.12,0.01 0.23,0.03 0.25,0.02 0.24,0.02 0.25,0.01 0.25,0.01 0.24,0.01 0.24,0.01 h 0.11 l 0.12,0.01 h 0.11 0.1 0.1 0.1 l 0.1,0.01 h 0.09 0.08 0.08 0.07 0.07 0.06 0.06 c 1.75,0 2.39,0 2.39,1.45 0,0.89 -0.8,0.89 -1.69,0.89 h -8.87 c -1.55,0 -1.79,-0.14 -2.54,-1.23 l -18.68,-26.52 -5.33,26.36 c -0.3,1.39 -0.75,1.39 -2,1.39 h -9.36 c -1,0 -1.84,0 -1.84,-1.44 0,-0.9 0.64,-0.9 2.09,-0.9 1.05,0 1.98,-0.05 3.03,-0.1 l -6.97,-27.79 c -0.25,-1 -0.25,-1.05 -1.5,-1.3 -1.19,-0.3 -2.69,-0.3 -2.84,-0.3 -0.94,0 -1.78,0 -1.78,-1.45 0,-0.3 0.25,-0.89 0.98,-0.89 1.8,0 3.69,0.16 5.53,0.16 1.25,0 4.44,-0.16 5.69,-0.16 0.39,0 1.34,0 1.34,1.44 0,0.9 -0.84,0.9 -1.5,0.9 -0.54,0 -2.28,0 -3.48,0.5 l 7.03,28.25 h 0.05 l 6.03,-29.59 c 0.14,-0.75 0.3,-1.5 1.34,-1.5 1,0 1.39,0.59 1.8,1.14 l 21.51,30.64 0.05,-0.05 -7.08,-28.39 c -0.18,-0.79 -0.23,-0.86 -1.14,-0.95 -0.84,-0.05 -1.84,-0.05 -2.64,-0.05 -1.29,0 -1.39,0 -1.59,-0.11 -0.6,-0.34 -0.6,-1.14 -0.6,-1.34 0,-0.09 0.05,-0.89 1.1,-0.89 1.2,0 2.44,0.09 3.64,0.09 1.14,0 2.34,0.07 3.48,0.07 1.3,0 2.55,-0.07 3.83,-0.07 1.2,0 2.41,-0.09 3.55,-0.09 0.39,0 0.8,0 1.05,0.34 0.29,0.3 0.34,1.05 0.34,1.1 0,0.9 -0.64,0.9 -2.05,0.9 -1.04,0 -1.98,0.05 -3.03,0.1 z"
           inkscape:connector-curvature="0"
           style="fill:#000000;stroke-width:0" /><path
           id="path434"
           d="m 566.19,422.5 h 0.14 0.14 0.15 l 0.07,0.01 h 0.07 l 0.08,0.01 0.07,0.01 0.07,0.01 0.07,0.01 0.07,0.01 0.06,0.02 0.07,0.02 0.06,0.02 0.06,0.02 0.06,0.03 0.06,0.03 0.05,0.04 0.05,0.03 0.05,0.05 0.04,0.04 0.04,0.05 0.02,0.03 0.01,0.03 0.02,0.02 0.02,0.03 0.01,0.03 0.01,0.04 0.02,0.03 0.01,0.04 0.01,0.03 v 0.04 l 0.01,0.04 0.01,0.04 v 0.04 l 0.01,0.04 v 0.04 0.05 c 0,1 -0.95,1 -1.64,1 H 536.4 c -0.71,0 -1.65,0 -1.65,-1 0,-0.98 0.94,-0.98 1.69,-0.98 z"
           inkscape:connector-curvature="0"
           style="fill:#000000;stroke-width:0" /><path
           id="path436"
           d="m 566.24,412.82 h 0.06 0.07 l 0.14,0.01 h 0.13 0.07 l 0.07,0.01 0.07,0.01 h 0.07 l 0.07,0.01 0.07,0.02 0.07,0.01 0.06,0.02 0.06,0.02 0.07,0.02 0.06,0.02 0.05,0.03 0.06,0.03 0.05,0.04 0.05,0.04 0.05,0.04 0.04,0.05 0.02,0.02 0.02,0.03 0.02,0.02 0.01,0.03 0.02,0.03 0.02,0.03 0.01,0.03 0.01,0.03 0.02,0.04 0.01,0.03 0.01,0.04 v 0.04 l 0.01,0.04 0.01,0.04 v 0.04 l 0.01,0.04 v 0.05 0.04 c 0,1 -0.95,1 -1.69,1 h -29.75 c -0.75,0 -1.69,0 -1.69,-1 0,-1 0.94,-1 1.65,-1 z"
           inkscape:connector-curvature="0"
           style="fill:#000000;stroke-width:0" /><path
           id="path438"
           d="m 598.81,440.23 v 0 0.01 0 0.01 0.02 0.01 0.02 0.02 l -0.01,0.02 v 0.02 l -0.01,0.02 v 0.02 l -0.01,0.02 -0.01,0.03 -0.01,0.02 -0.01,0.03 -0.02,0.02 -0.01,0.03 -0.02,0.02 -0.02,0.02 -0.02,0.03 -0.02,0.01 -0.01,0.01 -0.01,0.01 -0.02,0.01 -0.01,0.01 -0.02,0.01 -0.01,0.01 -0.02,0.01 -0.01,0.01 -0.02,0.01 h -0.02 l -0.02,0.01 -0.02,0.01 h -0.02 l -0.02,0.01 -0.03,0.01 h -0.02 -0.02 l -0.03,0.01 h -0.03 -0.02 l -0.03,0.01 h -0.03 -0.03 c -1.15,0 -4.78,-0.41 -6.08,-0.5 -0.4,-0.05 -0.95,-0.1 -0.95,-1 0,-0.6 0.45,-0.6 1.2,-0.6 2.39,0 2.49,-0.34 2.49,-0.84 l -0.16,-1 -7.22,-28.7 c -0.2,-0.69 -0.2,-0.8 -0.2,-1.1 0,-1.14 1,-1.39 1.45,-1.39 0.64,0 1.39,0.46 1.69,1.05 0.25,0.45 2.5,9.66 2.8,10.91 1.69,-0.15 5.78,-0.94 5.78,-4.24 0,-0.34 0,-0.55 -0.16,-1.05 -0.09,-0.59 -0.2,-1.18 -0.2,-1.73 0,-2.95 2,-4.94 4.59,-4.94 1.49,0 2.83,0.8 3.94,2.64 1.24,2.19 1.78,4.94 1.78,5.03 0,0.5 -0.44,0.5 -0.59,0.5 -0.5,0 -0.55,-0.2 -0.7,-0.9 -0.99,-3.63 -2.15,-6.17 -4.33,-6.17 -0.94,0 -1.6,0.54 -1.6,2.34 0,0.84 0.21,1.98 0.41,2.78 0.19,0.86 0.19,1.05 0.19,1.55 0,3.25 -3.14,4.69 -7.38,5.23 1.55,0.91 3.14,2.5 4.3,3.69 2.39,2.64 4.67,4.78 7.12,4.78 0.3,0 0.35,0 0.44,-0.05 0.61,-0.09 0.66,-0.09 1.05,-0.39 0.11,-0.06 0.11,-0.11 0.2,-0.2 -2.39,-0.16 -2.84,-2.09 -2.84,-2.69 0,-0.79 0.54,-1.75 1.89,-1.75 1.3,0 2.75,1.1 2.75,3.03 0,1.5 -1.16,3.14 -3.39,3.14 -1.39,0 -3.69,-0.39 -7.28,-4.37 -1.69,-1.89 -3.63,-3.89 -5.52,-4.64 z"
           inkscape:connector-curvature="0"
           style="fill:#000000;stroke-width:0" /><path
           id="path440"
           d="m 641.09,414.37 0.43,0.51 0.41,0.5 0.39,0.5 0.36,0.51 0.35,0.5 0.33,0.49 0.32,0.5 0.29,0.48 0.28,0.48 0.26,0.47 0.24,0.46 0.23,0.46 0.21,0.44 0.2,0.43 0.18,0.41 0.17,0.4 0.15,0.39 0.14,0.37 0.13,0.35 0.12,0.33 0.1,0.32 0.09,0.29 0.09,0.27 0.07,0.25 0.06,0.23 0.05,0.2 0.04,0.17 0.03,0.15 0.03,0.12 0.02,0.09 0.01,0.06 v 0.03 c 0,0.7 -0.75,0.7 -1.2,0.7 -0.94,0 -0.99,-0.11 -1.24,-1.05 -0.95,-3.34 -2.43,-6.07 -3.54,-7.62 -0.05,2.39 -0.1,5.33 -2.79,8.01 -2.59,2.64 -5.82,3.14 -8.17,3.14 l -0.04,-1.79 c 4.62,0 5.17,-5.47 5.37,-10.36 0.05,-1.24 0.25,-3.44 0.25,-4.63 0,-0.61 -3.03,-2.34 -4.28,-2.89 -3,-1.29 -5.19,-1.45 -6.38,-1.45 v 0 c -2.79,0 -4.84,1.34 -4.84,4.64 0,1.64 1.16,7.17 2.64,10.06 1.6,3.19 4.69,4.63 7.24,4.63 l 0.04,1.79 c -10.17,0 -15.64,-7.87 -15.64,-14.29 0,-5.49 4.08,-8.63 10.31,-8.63 4.79,0 8.87,2.05 11.5,3.94 0.91,-2.09 2.94,-3.94 5.99,-3.94 3.28,0 4.98,2.3 4.98,3.35 0,0.7 -0.7,0.7 -1.15,0.7 -0.64,0 -0.89,0 -1.14,-0.66 -0.6,-1.43 -2.24,-1.59 -2.35,-1.59 -1.23,0 -1.34,5.78 -1.34,6.78 z"
           inkscape:connector-curvature="0"
           style="fill:#000000;stroke-width:0" /></g>    </g>
    <g
       id="g1454"
       transform="matrix(2,0,0,2,13.486532,-104.76034)">
      <g
         word-spacing="normal"
         letter-spacing="normal"
         font-size-adjust="none"
         font-stretch="normal"
         font-weight="normal"
         font-variant="normal"
         font-style="normal"
         stroke-miterlimit="10.433"
         xml:space="preserve"
         transform="matrix(0.06614892,0,0,-0.06614892,-11.576061,90.677047)"
         id="g1452"
         style="font-style:normal;font-variant:normal;font-weight:normal;font-stretch:normal;letter-spacing:normal;word-spacing:normal;text-anchor:start;fill:none;fill-opacity:1;fill-rule:evenodd;stroke:#000000;stroke-linecap:butt;stroke-linejoin:miter;stroke-miterlimit:10.43299961;stroke-dasharray:none;stroke-dashoffset:0;stroke-opacity:1"><path
           id="path1446"
           d="m 461.85,410.04 5.28,5.13 c 7.76,6.87 10.76,9.56 10.76,14.54 0,5.69 -4.48,9.68 -10.56,9.68 -5.64,0 -9.33,-4.6 -9.33,-9.03 0,-2.79 2.5,-2.79 2.64,-2.79 0.86,0 2.6,0.6 2.6,2.64 0,1.3 -0.89,2.6 -2.64,2.6 -0.39,0 -0.5,0 -0.64,-0.05 1.14,3.24 3.83,5.08 6.72,5.08 4.53,0 6.68,-4.05 6.68,-8.13 0,-3.98 -2.5,-7.92 -5.23,-11.01 l -9.56,-10.66 C 458,407.5 458,407.4 458,406.2 h 18.49 l 1.4,8.67 h -1.25 c -0.25,-1.5 -0.59,-3.69 -1.09,-4.44 -0.36,-0.39 -3.64,-0.39 -4.73,-0.39 z"
           inkscape:connector-curvature="0"
           style="fill:#000000;stroke-width:0" /><path
           id="path1448"
           d="m 500.26,437.34 v 0.09 l -0.01,0.08 -0.01,0.09 -0.01,0.09 -0.02,0.08 -0.02,0.08 -0.03,0.09 -0.03,0.08 -0.03,0.07 -0.04,0.08 -0.04,0.08 -0.05,0.07 -0.05,0.07 -0.05,0.07 -0.05,0.07 -0.06,0.06 -0.06,0.06 -0.07,0.06 -0.07,0.05 -0.07,0.06 -0.08,0.04 -0.08,0.05 -0.08,0.04 -0.09,0.04 -0.09,0.03 -0.09,0.03 -0.09,0.03 -0.1,0.02 -0.1,0.01 -0.11,0.02 h -0.1 l -0.11,0.01 c -1.16,0 -2.64,-1.16 -2.64,-2.64 0,-1 0.68,-1.8 1.84,-1.8 1.34,0 2.69,1.3 2.69,2.64 z"
           inkscape:connector-curvature="0"
           style="fill:#000000;stroke-width:0" /><path
           id="path1450"
           d="m 490.24,403.71 -0.09,-0.35 -0.1,-0.35 -0.11,-0.34 -0.12,-0.33 -0.13,-0.33 -0.13,-0.32 -0.14,-0.31 -0.15,-0.3 -0.15,-0.3 -0.16,-0.29 -0.17,-0.28 -0.17,-0.26 -0.18,-0.26 -0.19,-0.25 -0.19,-0.24 -0.19,-0.23 -0.21,-0.22 -0.2,-0.2 -0.22,-0.19 -0.21,-0.19 -0.23,-0.16 -0.22,-0.16 -0.23,-0.14 -0.24,-0.13 -0.23,-0.12 -0.25,-0.1 -0.24,-0.08 -0.25,-0.08 -0.25,-0.05 -0.26,-0.04 -0.25,-0.03 -0.26,-0.01 c -0.3,0 -1.05,0 -1.96,0.46 1.5,0.36 2.25,1.64 2.25,2.64 0,0.79 -0.54,1.75 -1.89,1.75 -1.25,0 -2.68,-1.05 -2.68,-2.85 0,-2 1.98,-3.09 4.37,-3.09 3.49,0 8.13,2.64 9.38,7.58 l 4.57,18.23 c 0.25,1 0.25,1.69 0.25,1.85 0,2.84 -2.09,4.57 -4.57,4.57 -5.1,0 -7.93,-7.21 -7.93,-7.67 0,-0.5 0.49,-0.5 0.6,-0.5 0.45,0 0.5,0.07 0.89,1 1.25,3.05 3.55,6.08 6.28,6.08 0.7,0 1.59,-0.2 1.59,-2.28 0,-1.16 -0.15,-1.7 -0.34,-2.55 z"
           inkscape:connector-curvature="0"
           style="fill:#000000;stroke-width:0" /></g>    </g>
    <g
       id="g1687"
       transform="matrix(2,0,0,2,4.9120728,-74.13727)">
      <g
         word-spacing="normal"
         letter-spacing="normal"
         font-size-adjust="none"
         font-stretch="normal"
         font-weight="normal"
         font-variant="normal"
         font-style="normal"
         stroke-miterlimit="10.433"
         xml:space="preserve"
         transform="matrix(0.06614892,0,0,-0.06614892,-11.576061,90.677047)"
         id="g1685"
         style="font-style:normal;font-variant:normal;font-weight:normal;font-stretch:normal;letter-spacing:normal;word-spacing:normal;text-anchor:start;fill:none;fill-opacity:1;fill-rule:evenodd;stroke:#000000;stroke-linecap:butt;stroke-linejoin:miter;stroke-miterlimit:10.43299961;stroke-dasharray:none;stroke-dashoffset:0;stroke-opacity:1"><path
           id="path1651"
           d="m 461.85,391.92 5.28,5.13 c 7.76,6.87 10.76,9.56 10.76,14.54 0,5.69 -4.48,9.68 -10.56,9.68 -5.64,0 -9.33,-4.6 -9.33,-9.04 0,-2.78 2.5,-2.78 2.64,-2.78 0.86,0 2.6,0.6 2.6,2.64 0,1.3 -0.89,2.6 -2.64,2.6 -0.39,0 -0.5,0 -0.64,-0.05 1.14,3.24 3.83,5.08 6.72,5.08 4.53,0 6.68,-4.05 6.68,-8.13 0,-3.98 -2.5,-7.92 -5.23,-11.01 l -9.56,-10.66 C 458,389.38 458,389.28 458,388.08 h 18.49 l 1.4,8.67 h -1.25 c -0.25,-1.5 -0.59,-3.69 -1.09,-4.44 -0.36,-0.39 -3.64,-0.39 -4.73,-0.39 z"
           inkscape:connector-curvature="0"
           style="fill:#000000;stroke-width:0" /><path
           id="path1653"
           d="m 500.26,419.22 v 0.09 l -0.01,0.08 -0.01,0.09 -0.01,0.09 -0.02,0.08 -0.02,0.08 -0.03,0.08 -0.03,0.09 -0.03,0.07 -0.04,0.08 -0.04,0.08 -0.05,0.07 -0.05,0.07 -0.05,0.07 -0.05,0.07 -0.06,0.06 -0.06,0.06 -0.07,0.06 -0.07,0.05 -0.07,0.05 -0.08,0.05 -0.08,0.05 -0.08,0.04 -0.09,0.04 -0.09,0.03 -0.09,0.03 -0.09,0.03 -0.1,0.02 -0.1,0.01 -0.11,0.02 h -0.1 l -0.11,0.01 c -1.16,0 -2.64,-1.16 -2.64,-2.64 0,-1 0.68,-1.8 1.84,-1.8 1.34,0 2.69,1.3 2.69,2.64 z"
           inkscape:connector-curvature="0"
           style="fill:#000000;stroke-width:0" /><path
           id="path1655"
           d="m 490.24,385.59 -0.09,-0.35 -0.1,-0.35 -0.11,-0.34 -0.12,-0.33 -0.13,-0.33 -0.13,-0.32 -0.14,-0.31 -0.15,-0.31 -0.15,-0.29 -0.16,-0.29 -0.17,-0.28 -0.17,-0.27 -0.18,-0.25 -0.19,-0.25 -0.19,-0.24 -0.19,-0.23 -0.21,-0.22 -0.2,-0.2 -0.22,-0.2 -0.21,-0.18 -0.23,-0.17 -0.22,-0.15 -0.23,-0.14 -0.24,-0.13 -0.23,-0.12 -0.25,-0.1 -0.24,-0.09 -0.25,-0.07 -0.25,-0.05 -0.26,-0.04 -0.25,-0.03 -0.26,-0.01 c -0.3,0 -1.05,0 -1.96,0.46 1.5,0.36 2.25,1.64 2.25,2.64 0,0.79 -0.54,1.75 -1.89,1.75 -1.25,0 -2.68,-1.05 -2.68,-2.85 0,-2 1.98,-3.09 4.37,-3.09 3.49,0 8.13,2.64 9.38,7.58 l 4.57,18.23 c 0.25,1 0.25,1.69 0.25,1.85 0,2.84 -2.09,4.57 -4.57,4.57 -5.1,0 -7.93,-7.21 -7.93,-7.67 0,-0.5 0.49,-0.5 0.6,-0.5 0.45,0 0.5,0.06 0.89,1 1.25,3.05 3.55,6.08 6.28,6.08 0.7,0 1.59,-0.2 1.59,-2.28 0,-1.16 -0.15,-1.7 -0.34,-2.55 z"
           inkscape:connector-curvature="0"
           style="fill:#000000;stroke-width:0" /><path
           id="path1657"
           d="m 551.91,404.38 h 0.14 0.14 0.15 l 0.07,0.01 h 0.07 l 0.08,0.01 0.07,0.01 h 0.07 l 0.07,0.02 0.07,0.01 0.06,0.02 0.07,0.02 0.06,0.02 0.06,0.02 0.06,0.03 0.05,0.03 0.06,0.04 0.05,0.03 0.04,0.04 0.05,0.05 0.04,0.05 0.02,0.03 0.01,0.02 0.02,0.03 0.02,0.03 0.01,0.03 0.01,0.04 0.01,0.03 0.02,0.03 0.01,0.04 v 0.04 l 0.01,0.04 0.01,0.04 v 0.04 l 0.01,0.04 v 0.04 0.05 c 0,1 -0.95,1 -1.64,1 h -29.85 c -0.7,0 -1.64,0 -1.64,-1 0,-0.98 0.94,-0.98 1.69,-0.98 z"
           inkscape:connector-curvature="0"
           style="fill:#000000;stroke-width:0" /><path
           id="path1659"
           d="m 551.96,394.7 h 0.06 0.07 0.14 l 0.13,0.01 h 0.07 l 0.07,0.01 0.07,0.01 h 0.07 l 0.07,0.01 0.07,0.02 0.07,0.01 0.06,0.02 0.06,0.02 0.07,0.02 0.06,0.02 0.05,0.03 0.06,0.03 0.05,0.04 0.05,0.04 0.05,0.04 0.04,0.04 0.02,0.03 0.02,0.02 0.02,0.03 0.01,0.03 0.02,0.03 0.02,0.03 0.01,0.03 0.01,0.03 0.01,0.04 0.02,0.03 0.01,0.04 v 0.04 l 0.01,0.04 0.01,0.04 v 0.04 l 0.01,0.04 v 0.05 0.04 c 0,1 -0.95,1 -1.69,1 h -29.75 c -0.75,0 -1.69,0 -1.69,-1 0,-1 0.94,-1 1.64,-1 z"
           inkscape:connector-curvature="0"
           style="fill:#000000;stroke-width:0" /><path
           id="path1661"
           d="m 582.57,425.64 5.28,5.13 c 7.76,6.87 10.76,9.56 10.76,14.55 0,5.68 -4.48,9.67 -10.56,9.67 -5.64,0 -9.33,-4.6 -9.33,-9.03 0,-2.78 2.5,-2.78 2.64,-2.78 0.86,0 2.6,0.59 2.6,2.64 0,1.29 -0.89,2.59 -2.64,2.59 -0.39,0 -0.5,0 -0.64,-0.05 1.14,3.24 3.82,5.08 6.72,5.08 4.53,0 6.68,-4.05 6.68,-8.12 0,-3.99 -2.5,-7.93 -5.23,-11.02 l -9.57,-10.66 c -0.56,-0.54 -0.56,-0.64 -0.56,-1.84 h 18.49 l 1.4,8.67 h -1.25 c -0.25,-1.5 -0.59,-3.68 -1.09,-4.43 -0.36,-0.4 -3.64,-0.4 -4.74,-0.4 z"
           inkscape:connector-curvature="0"
           style="fill:#000000;stroke-width:0" /><path
           id="path1663"
           d="m 655.99,453.44 0.11,0.02 0.11,0.01 0.11,0.02 0.11,0.01 0.24,0.03 0.24,0.02 0.25,0.02 0.25,0.01 0.25,0.02 0.24,0.01 h 0.24 l 0.11,0.01 h 0.11 0.11 0.11 0.1 l 0.1,0.01 h 0.09 0.09 0.09 0.08 0.07 0.07 0.06 0.05 c 1.75,0 2.39,0 2.39,1.45 0,0.89 -0.79,0.89 -1.68,0.89 h -8.88 c -1.55,0 -1.78,-0.14 -2.53,-1.23 l -18.69,-26.52 -5.33,26.36 c -0.29,1.39 -0.75,1.39 -2,1.39 h -9.36 c -1,0 -1.84,0 -1.84,-1.43 0,-0.91 0.64,-0.91 2.09,-0.91 1.05,0 1.99,-0.05 3.04,-0.09 l -6.97,-27.8 c -0.25,-1 -0.25,-1.05 -1.5,-1.3 -1.19,-0.3 -2.69,-0.3 -2.85,-0.3 -0.93,0 -1.78,0 -1.78,-1.45 0,-0.3 0.25,-0.89 0.99,-0.89 1.79,0 3.68,0.16 5.53,0.16 1.25,0 4.44,-0.16 5.69,-0.16 0.39,0 1.34,0 1.34,1.44 0,0.9 -0.84,0.9 -1.5,0.9 -0.55,0 -2.28,0 -3.49,0.5 l 7.04,28.25 h 0.04 l 6.03,-29.59 c 0.14,-0.75 0.3,-1.5 1.35,-1.5 1,0 1.39,0.59 1.79,1.14 l 21.52,30.64 0.05,-0.04 -7.08,-28.4 c -0.19,-0.79 -0.24,-0.85 -1.14,-0.95 -0.85,-0.05 -1.85,-0.05 -2.64,-0.05 -1.3,0 -1.39,0 -1.6,-0.1 -0.59,-0.35 -0.59,-1.15 -0.59,-1.35 0,-0.09 0.05,-0.89 1.09,-0.89 1.21,0 2.44,0.09 3.64,0.09 1.15,0 2.35,0.07 3.49,0.07 1.3,0 2.55,-0.07 3.83,-0.07 1.2,0 2.4,-0.09 3.54,-0.09 0.39,0 0.8,0 1.05,0.34 0.3,0.3 0.34,1.05 0.34,1.1 0,0.9 -0.64,0.9 -2.04,0.9 -1.05,0 -1.99,0.05 -3.03,0.1 z"
           inkscape:connector-curvature="0"
           style="fill:#000000;stroke-width:0" /><path
           id="path1665"
           d="m 684.32,434.25 v 0.14 l -0.01,0.13 -0.02,0.13 -0.02,0.13 -0.03,0.13 -0.04,0.13 -0.04,0.12 -0.05,0.12 -0.05,0.12 -0.06,0.11 -0.06,0.11 -0.07,0.11 -0.08,0.1 -0.07,0.1 -0.09,0.1 -0.09,0.09 -0.09,0.09 -0.09,0.08 -0.1,0.08 -0.11,0.07 -0.1,0.07 -0.11,0.07 -0.12,0.05 -0.11,0.06 -0.12,0.04 -0.13,0.05 -0.12,0.03 -0.13,0.03 -0.13,0.02 -0.13,0.02 -0.13,0.01 h -0.14 c -1.44,0 -2.64,-1.18 -2.64,-2.64 0,-1.43 1.2,-2.64 2.64,-2.64 1.45,0 2.64,1.21 2.64,2.64 z"
           inkscape:connector-curvature="0"
           style="fill:#000000;stroke-width:0" /><path
           id="path1667"
           d="m 728.8,429.97 0.43,0.51 0.41,0.5 0.39,0.51 0.37,0.5 0.35,0.5 0.33,0.5 0.31,0.49 0.3,0.48 0.27,0.48 0.26,0.47 0.25,0.47 0.22,0.45 0.22,0.44 0.19,0.43 0.19,0.41 0.16,0.4 0.16,0.39 0.14,0.37 0.13,0.35 0.11,0.33 0.11,0.32 0.09,0.29 0.08,0.27 0.07,0.25 0.06,0.23 0.05,0.2 0.05,0.17 0.03,0.15 0.03,0.12 0.01,0.09 0.01,0.06 0.01,0.03 c 0,0.7 -0.75,0.7 -1.21,0.7 -0.93,0 -0.98,-0.11 -1.23,-1.04 -0.95,-3.35 -2.44,-6.08 -3.55,-7.63 -0.05,2.39 -0.09,5.33 -2.78,8.02 -2.59,2.64 -5.83,3.14 -8.17,3.14 l -0.05,-1.8 c 4.63,0 5.17,-5.47 5.38,-10.36 0.04,-1.23 0.25,-3.44 0.25,-4.62 0,-0.61 -3.03,-2.35 -4.28,-2.9 -3,-1.29 -5.19,-1.45 -6.38,-1.45 v 0 c -2.8,0 -4.84,1.35 -4.84,4.64 0,1.64 1.15,7.17 2.64,10.06 1.59,3.19 4.68,4.63 7.23,4.63 l 0.05,1.8 c -10.17,0 -15.64,-7.88 -15.64,-14.3 0,-5.48 4.08,-8.63 10.31,-8.63 4.78,0 8.86,2.05 11.5,3.94 0.91,-2.09 2.94,-3.94 5.98,-3.94 3.29,0 4.99,2.3 4.99,3.35 0,0.7 -0.7,0.7 -1.16,0.7 -0.64,0 -0.89,0 -1.14,-0.65 -0.59,-1.44 -2.23,-1.6 -2.34,-1.6 -1.24,0 -1.35,5.78 -1.35,6.78 z"
           inkscape:connector-curvature="0"
           style="fill:#000000;stroke-width:0" /><polyline
           id="polyline1669"
           points="576,400 737.4,400 737.4,402.04 576,402.04 "
           style="fill:#000000;fill-rule:nonzero;stroke-width:0" /><path
           id="path1671"
           d="m 630.17,362.17 0.43,0.51 0.41,0.5 0.39,0.51 0.37,0.5 0.35,0.5 0.33,0.5 0.31,0.49 0.29,0.48 0.28,0.48 0.26,0.47 0.24,0.47 0.23,0.45 0.21,0.44 0.2,0.43 0.18,0.41 0.17,0.4 0.15,0.39 0.15,0.37 0.12,0.35 0.12,0.33 0.1,0.32 0.1,0.29 0.08,0.27 0.07,0.25 0.06,0.23 0.05,0.2 0.04,0.17 0.04,0.15 0.02,0.12 0.02,0.09 0.01,0.06 v 0.03 c 0,0.7 -0.75,0.7 -1.2,0.7 -0.94,0 -0.98,-0.11 -1.23,-1.05 -0.96,-3.34 -2.44,-6.07 -3.55,-7.62 -0.05,2.39 -0.09,5.33 -2.78,8.02 -2.6,2.64 -5.83,3.14 -8.17,3.14 l -0.05,-1.8 c 4.62,0 5.17,-5.47 5.37,-10.36 0.05,-1.23 0.25,-3.44 0.25,-4.63 0,-0.6 -3.03,-2.34 -4.28,-2.89 -3,-1.29 -5.18,-1.45 -6.37,-1.45 v 0 c -2.8,0 -4.85,1.34 -4.85,4.64 0,1.64 1.16,7.17 2.64,10.06 1.6,3.19 4.69,4.63 7.24,4.63 l 0.05,1.8 c -10.18,0 -15.64,-7.88 -15.64,-14.3 0,-5.49 4.07,-8.63 10.31,-8.63 4.78,0 8.86,2.05 11.5,3.94 0.9,-2.09 2.94,-3.94 5.98,-3.94 3.28,0 4.99,2.3 4.99,3.35 0,0.7 -0.71,0.7 -1.16,0.7 -0.64,0 -0.89,0 -1.14,-0.66 -0.59,-1.43 -2.23,-1.59 -2.34,-1.59 -1.24,0 -1.35,5.78 -1.35,6.78 z"
           inkscape:connector-curvature="0"
           style="fill:#000000;stroke-width:0" /><path
           id="path1673"
           d="m 659.6,366.45 v 0.14 l -0.01,0.13 -0.02,0.13 -0.02,0.13 -0.03,0.13 -0.04,0.13 -0.04,0.12 -0.05,0.12 -0.05,0.12 -0.06,0.11 -0.06,0.11 -0.07,0.11 -0.07,0.1 -0.08,0.1 -0.09,0.1 -0.08,0.09 -0.1,0.09 -0.09,0.08 -0.1,0.08 -0.1,0.07 -0.11,0.07 -0.11,0.06 -0.12,0.06 -0.11,0.06 -0.12,0.04 -0.13,0.04 -0.12,0.04 -0.13,0.03 -0.13,0.02 -0.13,0.02 -0.13,0.01 h -0.14 c -1.44,0 -2.64,-1.18 -2.64,-2.64 0,-1.43 1.2,-2.64 2.64,-2.64 1.45,0 2.64,1.21 2.64,2.64 z"
           inkscape:connector-curvature="0"
           style="fill:#000000;stroke-width:0" /><path
           id="path1675"
           d="m 703.97,362.17 0.43,0.51 0.41,0.5 0.38,0.51 0.37,0.5 0.35,0.5 0.33,0.5 0.32,0.49 0.29,0.48 0.28,0.48 0.26,0.47 0.24,0.47 0.23,0.45 0.21,0.44 0.2,0.43 0.18,0.41 0.17,0.4 0.15,0.39 0.14,0.37 0.13,0.35 0.12,0.33 0.1,0.32 0.09,0.29 0.08,0.27 0.08,0.25 0.06,0.23 0.05,0.2 0.04,0.17 0.03,0.15 0.03,0.12 0.02,0.09 0.01,0.06 v 0.03 c 0,0.7 -0.75,0.7 -1.2,0.7 -0.94,0 -0.99,-0.11 -1.24,-1.05 -0.95,-3.34 -2.43,-6.07 -3.54,-7.62 -0.05,2.39 -0.1,5.33 -2.79,8.02 -2.59,2.64 -5.82,3.14 -8.17,3.14 l -0.04,-1.8 c 4.62,0 5.17,-5.47 5.37,-10.36 0.05,-1.23 0.25,-3.44 0.25,-4.63 0,-0.6 -3.03,-2.34 -4.28,-2.89 -3,-1.29 -5.19,-1.45 -6.38,-1.45 v 0 c -2.79,0 -4.84,1.34 -4.84,4.64 0,1.64 1.16,7.17 2.64,10.06 1.6,3.19 4.69,4.63 7.24,4.63 l 0.04,1.8 c -10.17,0 -15.64,-7.88 -15.64,-14.3 0,-5.49 4.08,-8.63 10.31,-8.63 4.79,0 8.86,2.05 11.5,3.94 0.91,-2.09 2.94,-3.94 5.99,-3.94 3.28,0 4.98,2.3 4.98,3.35 0,0.7 -0.7,0.7 -1.15,0.7 -0.64,0 -0.89,0 -1.14,-0.66 -0.6,-1.43 -2.24,-1.59 -2.35,-1.59 -1.23,0 -1.34,5.78 -1.34,6.78 z"
           inkscape:connector-curvature="0"
           style="fill:#000000;stroke-width:0" /><path
           id="path1677"
           d="m 791.68,404.38 h 0.14 0.14 0.14 l 0.08,0.01 h 0.07 l 0.07,0.01 0.07,0.01 h 0.07 l 0.07,0.02 0.07,0.01 0.07,0.02 0.06,0.02 0.06,0.02 0.07,0.02 0.05,0.03 0.06,0.03 0.05,0.04 0.05,0.03 0.05,0.04 0.04,0.05 0.04,0.05 0.02,0.03 0.02,0.02 0.01,0.03 0.02,0.03 0.01,0.03 0.02,0.04 0.01,0.03 0.01,0.03 0.01,0.04 0.01,0.04 0.01,0.04 v 0.04 l 0.01,0.04 v 0.04 0.04 0.05 c 0,1 -0.95,1 -1.64,1 h -29.84 c -0.7,0 -1.64,0 -1.64,-1 0,-0.98 0.94,-0.98 1.69,-0.98 z"
           inkscape:connector-curvature="0"
           style="fill:#000000;stroke-width:0" /><path
           id="path1679"
           d="m 791.72,394.7 h 0.07 0.06 0.14 l 0.14,0.01 h 0.07 l 0.07,0.01 0.07,0.01 h 0.07 l 0.07,0.01 0.06,0.02 0.07,0.01 0.07,0.02 0.06,0.02 0.06,0.02 0.06,0.02 0.06,0.03 0.05,0.03 0.06,0.04 0.04,0.04 0.05,0.04 0.04,0.04 0.02,0.03 0.02,0.02 0.02,0.03 0.02,0.03 0.02,0.03 0.01,0.03 0.01,0.03 0.02,0.03 0.01,0.04 0.01,0.03 0.01,0.04 0.01,0.04 0.01,0.04 v 0.04 l 0.01,0.04 v 0.04 0.05 0.04 c 0,1 -0.95,1 -1.68,1 h -29.75 c -0.75,0 -1.69,0 -1.69,-1 0,-1 0.94,-1 1.64,-1 z"
           inkscape:connector-curvature="0"
           style="fill:#000000;stroke-width:0" /><path
           id="path1681"
           d="m 816.32,391.92 5.28,5.13 c 7.77,6.87 10.77,9.56 10.77,14.54 0,5.69 -4.48,9.68 -10.56,9.68 -5.64,0 -9.33,-4.6 -9.33,-9.04 0,-2.78 2.5,-2.78 2.64,-2.78 0.86,0 2.6,0.6 2.6,2.64 0,1.3 -0.9,2.6 -2.65,2.6 -0.39,0 -0.5,0 -0.64,-0.05 1.14,3.24 3.83,5.08 6.72,5.08 4.53,0 6.69,-4.05 6.69,-8.13 0,-3.98 -2.5,-7.92 -5.24,-11.01 l -9.56,-10.66 c -0.56,-0.54 -0.56,-0.64 -0.56,-1.84 h 18.49 l 1.4,8.67 h -1.25 c -0.25,-1.5 -0.59,-3.69 -1.09,-4.44 -0.36,-0.39 -3.64,-0.39 -4.74,-0.39 z"
           inkscape:connector-curvature="0"
           style="fill:#000000;stroke-width:0" /><path
           id="path1683"
           d="m 849.25,422.11 v 0 0 0.01 0.01 0.02 0.01 0.02 l -0.01,0.01 v 0.02 0.02 l -0.01,0.03 -0.01,0.02 v 0.02 l -0.01,0.03 -0.01,0.02 -0.02,0.03 -0.01,0.02 -0.02,0.02 -0.01,0.03 -0.02,0.02 -0.03,0.03 -0.01,0.01 -0.01,0.01 -0.01,0.01 -0.02,0.01 -0.01,0.01 -0.02,0.01 -0.01,0.01 -0.02,0.01 -0.02,0.01 h -0.02 l -0.01,0.01 -0.02,0.01 -0.02,0.01 h -0.03 l -0.02,0.01 h -0.02 l -0.02,0.01 h -0.03 l -0.02,0.01 h -0.03 -0.03 -0.02 l -0.03,0.01 h -0.03 c -1.16,0 -4.78,-0.41 -6.08,-0.5 -0.4,-0.05 -0.95,-0.1 -0.95,-1 0,-0.6 0.45,-0.6 1.2,-0.6 2.39,0 2.49,-0.34 2.49,-0.84 l -0.16,-1 -7.22,-28.7 c -0.2,-0.69 -0.2,-0.8 -0.2,-1.1 0,-1.14 1,-1.39 1.45,-1.39 0.64,0 1.39,0.45 1.69,1.05 0.25,0.45 2.5,9.65 2.8,10.9 1.68,-0.14 5.78,-0.93 5.78,-4.23 0,-0.34 0,-0.55 -0.16,-1.05 -0.09,-0.59 -0.2,-1.18 -0.2,-1.73 0,-2.95 2,-4.94 4.59,-4.94 1.49,0 2.83,0.8 3.94,2.64 1.23,2.19 1.78,4.94 1.78,5.03 0,0.5 -0.44,0.5 -0.59,0.5 -0.5,0 -0.55,-0.2 -0.71,-0.9 -0.98,-3.63 -2.14,-6.17 -4.33,-6.17 -0.93,0 -1.59,0.54 -1.59,2.34 0,0.84 0.2,1.98 0.41,2.78 0.18,0.86 0.18,1.05 0.18,1.55 0,3.25 -3.14,4.68 -7.37,5.23 1.55,0.91 3.14,2.5 4.3,3.69 2.39,2.64 4.67,4.78 7.12,4.78 0.3,0 0.35,0 0.44,-0.05 0.61,-0.09 0.66,-0.09 1.05,-0.39 0.11,-0.06 0.11,-0.11 0.2,-0.2 -2.39,-0.16 -2.84,-2.09 -2.84,-2.69 0,-0.79 0.54,-1.75 1.89,-1.75 1.29,0 2.75,1.1 2.75,3.03 0,1.5 -1.16,3.14 -3.39,3.14 -1.4,0 -3.69,-0.39 -7.29,-4.37 -1.68,-1.89 -3.62,-3.89 -5.51,-4.64 z"
           inkscape:connector-curvature="0"
           style="fill:#000000;stroke-width:0" /></g>    </g>
    <g
       id="g1920"
       transform="matrix(2,0,0,2,82.327198,-71.932408)">
      <g
         word-spacing="normal"
         letter-spacing="normal"
         font-size-adjust="none"
         font-stretch="normal"
         font-weight="normal"
         font-variant="normal"
         font-style="normal"
         stroke-miterlimit="10.433"
         xml:space="preserve"
         transform="matrix(0.06614892,0,0,-0.06614892,-11.576061,90.677047)"
         id="g1918"
         style="font-style:normal;font-variant:normal;font-weight:normal;font-stretch:normal;letter-spacing:normal;word-spacing:normal;text-anchor:start;fill:none;fill-opacity:1;fill-rule:evenodd;stroke:#000000;stroke-linecap:butt;stroke-linejoin:miter;stroke-miterlimit:10.43299961;stroke-dasharray:none;stroke-dashoffset:0;stroke-opacity:1"><path
           id="path1906"
           d="m 510.32,437.84 0.1,0.02 0.11,0.01 0.11,0.02 0.12,0.01 0.23,0.03 0.25,0.02 0.24,0.02 0.25,0.01 0.25,0.01 0.24,0.01 0.24,0.01 h 0.11 l 0.12,0.01 h 0.11 0.1 0.1 0.1 l 0.1,0.01 h 0.09 0.08 0.08 0.07 0.07 0.06 0.06 c 1.75,0 2.39,0 2.39,1.45 0,0.89 -0.8,0.89 -1.69,0.89 h -8.87 c -1.55,0 -1.79,-0.14 -2.54,-1.23 l -18.68,-26.52 -5.33,26.36 c -0.3,1.39 -0.75,1.39 -2,1.39 h -9.36 c -1,0 -1.84,0 -1.84,-1.44 0,-0.9 0.64,-0.9 2.09,-0.9 1.05,0 1.98,-0.05 3.03,-0.1 l -6.97,-27.79 c -0.25,-1 -0.25,-1.05 -1.5,-1.3 -1.19,-0.3 -2.69,-0.3 -2.84,-0.3 -0.94,0 -1.78,0 -1.78,-1.45 0,-0.3 0.25,-0.89 0.98,-0.89 1.8,0 3.69,0.16 5.53,0.16 1.25,0 4.44,-0.16 5.69,-0.16 0.39,0 1.34,0 1.34,1.44 0,0.9 -0.84,0.9 -1.5,0.9 -0.54,0 -2.28,0 -3.48,0.5 l 7.03,28.25 h 0.05 l 6.03,-29.59 c 0.14,-0.75 0.3,-1.5 1.34,-1.5 1,0 1.39,0.59 1.8,1.14 l 21.51,30.64 0.05,-0.05 -7.08,-28.39 c -0.18,-0.79 -0.23,-0.86 -1.14,-0.95 -0.84,-0.05 -1.84,-0.05 -2.64,-0.05 -1.29,0 -1.39,0 -1.59,-0.11 -0.6,-0.34 -0.6,-1.14 -0.6,-1.34 0,-0.09 0.05,-0.89 1.1,-0.89 1.2,0 2.44,0.09 3.64,0.09 1.14,0 2.34,0.07 3.48,0.07 1.3,0 2.55,-0.07 3.83,-0.07 1.2,0 2.41,-0.09 3.55,-0.09 0.39,0 0.8,0 1.05,0.34 0.29,0.3 0.34,1.05 0.34,1.1 0,0.9 -0.64,0.9 -2.05,0.9 -1.04,0 -1.98,0.05 -3.03,0.1 z"
           inkscape:connector-curvature="0"
           style="fill:#000000;stroke-width:0" /><path
           id="path1908"
           d="m 566.19,422.5 h 0.14 0.14 0.15 l 0.07,0.01 h 0.07 l 0.08,0.01 0.07,0.01 0.07,0.01 0.07,0.01 0.07,0.01 0.06,0.02 0.07,0.02 0.06,0.02 0.06,0.02 0.06,0.03 0.06,0.03 0.05,0.04 0.05,0.03 0.05,0.05 0.04,0.04 0.04,0.05 0.02,0.03 0.01,0.03 0.02,0.02 0.02,0.03 0.01,0.03 0.01,0.04 0.02,0.03 0.01,0.04 0.01,0.03 v 0.04 l 0.01,0.04 0.01,0.04 v 0.04 l 0.01,0.04 v 0.04 0.05 c 0,1 -0.95,1 -1.64,1 H 536.4 c -0.71,0 -1.65,0 -1.65,-1 0,-0.98 0.94,-0.98 1.69,-0.98 z"
           inkscape:connector-curvature="0"
           style="fill:#000000;stroke-width:0" /><path
           id="path1910"
           d="m 566.24,412.82 h 0.06 0.07 l 0.14,0.01 h 0.13 0.07 l 0.07,0.01 0.07,0.01 h 0.07 l 0.07,0.01 0.07,0.02 0.07,0.01 0.06,0.02 0.06,0.02 0.07,0.02 0.06,0.02 0.05,0.03 0.06,0.03 0.05,0.04 0.05,0.04 0.05,0.04 0.04,0.05 0.02,0.02 0.02,0.03 0.02,0.02 0.01,0.03 0.02,0.03 0.02,0.03 0.01,0.03 0.01,0.03 0.02,0.04 0.01,0.03 0.01,0.04 v 0.04 l 0.01,0.04 0.01,0.04 v 0.04 l 0.01,0.04 v 0.05 0.04 c 0,1 -0.95,1 -1.69,1 h -29.75 c -0.75,0 -1.69,0 -1.69,-1 0,-1 0.94,-1 1.65,-1 z"
           inkscape:connector-curvature="0"
           style="fill:#000000;stroke-width:0" /><path
           id="path1912"
           d="m 604.3,437.34 -0.01,0.09 v 0.08 l -0.01,0.09 -0.02,0.09 -0.01,0.08 -0.03,0.08 -0.02,0.09 -0.03,0.08 -0.03,0.07 -0.04,0.08 -0.04,0.08 -0.05,0.07 -0.05,0.07 -0.05,0.07 -0.05,0.07 -0.06,0.06 -0.07,0.06 -0.06,0.06 -0.07,0.05 -0.07,0.06 -0.08,0.04 -0.08,0.05 -0.08,0.04 -0.09,0.04 -0.09,0.03 -0.09,0.03 -0.09,0.03 -0.1,0.02 -0.1,0.01 -0.11,0.02 h -0.1 l -0.11,0.01 c -1.16,0 -2.64,-1.16 -2.64,-2.64 0,-1 0.68,-1.8 1.84,-1.8 1.34,0 2.69,1.3 2.69,2.64 z"
           inkscape:connector-curvature="0"
           style="fill:#000000;stroke-width:0" /><path
           id="path1914"
           d="m 594.28,403.71 -0.09,-0.35 -0.1,-0.35 -0.11,-0.34 -0.12,-0.33 -0.13,-0.33 -0.13,-0.32 -0.14,-0.31 -0.15,-0.3 -0.15,-0.3 -0.16,-0.29 -0.17,-0.28 -0.17,-0.26 -0.18,-0.26 -0.19,-0.25 -0.19,-0.24 -0.2,-0.23 -0.2,-0.22 -0.21,-0.2 -0.21,-0.19 -0.21,-0.19 -0.23,-0.16 -0.22,-0.16 -0.23,-0.14 -0.24,-0.13 -0.24,-0.12 -0.24,-0.1 -0.24,-0.08 -0.25,-0.08 -0.25,-0.05 -0.26,-0.04 -0.25,-0.03 -0.26,-0.01 c -0.3,0 -1.05,0 -1.96,0.46 1.5,0.36 2.25,1.64 2.25,2.64 0,0.79 -0.54,1.75 -1.89,1.75 -1.25,0 -2.68,-1.05 -2.68,-2.85 0,-2 1.98,-3.09 4.37,-3.09 3.48,0 8.13,2.64 9.38,7.58 l 4.57,18.23 c 0.25,1 0.25,1.69 0.25,1.85 0,2.84 -2.09,4.57 -4.57,4.57 -5.1,0 -7.93,-7.21 -7.93,-7.67 0,-0.5 0.49,-0.5 0.6,-0.5 0.45,0 0.5,0.07 0.89,1 1.25,3.05 3.54,6.08 6.28,6.08 0.7,0 1.59,-0.2 1.59,-2.28 0,-1.16 -0.15,-1.7 -0.34,-2.55 z"
           inkscape:connector-curvature="0"
           style="fill:#000000;stroke-width:0" /><path
           id="path1916"
           d="m 637.01,414.37 0.43,0.51 0.41,0.5 0.39,0.5 0.37,0.51 0.35,0.5 0.33,0.49 0.31,0.5 0.29,0.48 0.28,0.48 0.26,0.47 0.24,0.46 0.23,0.46 0.21,0.44 0.2,0.43 0.18,0.41 0.17,0.4 0.15,0.39 0.15,0.37 0.12,0.35 0.12,0.33 0.1,0.32 0.1,0.29 0.08,0.27 0.07,0.25 0.06,0.23 0.05,0.2 0.04,0.17 0.04,0.15 0.02,0.12 0.02,0.09 0.01,0.06 v 0.03 c 0,0.7 -0.75,0.7 -1.2,0.7 -0.94,0 -0.99,-0.11 -1.24,-1.05 -0.95,-3.34 -2.43,-6.07 -3.54,-7.62 -0.05,2.39 -0.09,5.33 -2.78,8.01 -2.6,2.64 -5.83,3.14 -8.18,3.14 l -0.04,-1.79 c 4.62,0 5.17,-5.47 5.37,-10.36 0.05,-1.24 0.25,-3.44 0.25,-4.63 0,-0.61 -3.03,-2.34 -4.28,-2.89 -3,-1.29 -5.18,-1.45 -6.37,-1.45 v 0 c -2.8,0 -4.85,1.34 -4.85,4.64 0,1.64 1.16,7.17 2.64,10.06 1.6,3.19 4.69,4.63 7.24,4.63 l 0.04,1.79 c -10.17,0 -15.63,-7.87 -15.63,-14.29 0,-5.49 4.07,-8.63 10.31,-8.63 4.78,0 8.86,2.05 11.5,3.94 0.9,-2.09 2.94,-3.94 5.98,-3.94 3.28,0 4.99,2.3 4.99,3.35 0,0.7 -0.71,0.7 -1.16,0.7 -0.64,0 -0.89,0 -1.14,-0.66 -0.6,-1.43 -2.23,-1.59 -2.35,-1.59 -1.23,0 -1.34,5.78 -1.34,6.78 z"
           inkscape:connector-curvature="0"
           style="fill:#000000;stroke-width:0" /></g>    </g>
    <g
       id="g2134"
       transform="matrix(2,0,0,2,-25.710998,-56.253395)">
      <g
         word-spacing="normal"
         letter-spacing="normal"
         font-size-adjust="none"
         font-stretch="normal"
         font-weight="normal"
         font-variant="normal"
         font-style="normal"
         stroke-miterlimit="10.433"
         xml:space="preserve"
         transform="matrix(0.06614892,0,0,-0.06614892,-11.576061,90.677047)"
         id="g2132"
         style="font-style:normal;font-variant:normal;font-weight:normal;font-stretch:normal;letter-spacing:normal;word-spacing:normal;text-anchor:start;fill:none;fill-opacity:1;fill-rule:evenodd;stroke:#000000;stroke-linecap:butt;stroke-linejoin:miter;stroke-miterlimit:10.43299961;stroke-dasharray:none;stroke-dashoffset:0;stroke-opacity:1"><path
           id="path2002"
           d="m 474.46,339.34 v -3.29 l 7.31,0.55 v 1.55 c -3.48,0 -3.88,0.34 -3.88,2.78 v 30.25 l -7.17,-0.55 v -1.54 c 3.49,0 3.88,-0.35 3.88,-2.8 v -10.75 c -1.44,1.78 -3.58,3.08 -6.28,3.08 l 0.2,-1.1 c 1.75,0 3.84,-0.75 5.39,-2.98 0.55,-0.84 0.55,-0.95 0.55,-1.84 v 0 -10.22 c 0,-0.89 0,-1 -0.55,-1.85 -1.5,-2.39 -3.75,-3.48 -5.89,-3.48 -2.23,0 -4.03,1.3 -5.22,3.19 -1.3,2.04 -1.45,4.89 -1.45,6.92 0,1.84 0.09,4.84 1.54,7.08 1.05,1.54 2.94,3.18 5.63,3.18 l -0.2,1.1 c -5.88,0 -11.11,-4.88 -11.11,-11.3 0,-6.33 4.89,-11.27 10.56,-11.27 3.19,0 5.44,1.69 6.69,3.29 z"
           inkscape:connector-curvature="0"
           style="fill:#000000;stroke-width:0" /><path
           id="path2004"
           d="m 492.05,358.62 -6.97,-0.55 v -1.55 c 3.24,0 3.69,-0.29 3.69,-2.73 v -13.41 c 0,-2.23 -0.55,-2.23 -3.89,-2.23 v -1.55 c 1.59,0.05 4.28,0.16 5.48,0.16 1.75,0 3.49,-0.11 5.19,-0.16 v 1.55 c -3.3,0 -3.5,0.25 -3.5,2.19 z"
           inkscape:connector-curvature="0"
           style="fill:#000000;stroke-width:0" /><path
           id="path2006"
           d="m 492.25,367.29 v 0.15 l -0.01,0.14 -0.02,0.14 -0.02,0.14 -0.03,0.13 -0.04,0.13 -0.04,0.13 -0.05,0.12 -0.06,0.12 -0.06,0.12 -0.06,0.11 -0.07,0.11 -0.08,0.1 -0.08,0.1 -0.09,0.09 -0.08,0.09 -0.1,0.08 -0.1,0.08 -0.1,0.08 -0.1,0.06 -0.11,0.07 -0.11,0.06 -0.11,0.05 -0.12,0.05 -0.12,0.04 -0.12,0.04 -0.12,0.04 -0.12,0.02 -0.13,0.02 -0.13,0.02 -0.13,0.01 h -0.13 c -1.54,0 -2.64,-1.34 -2.64,-2.64 0,-1.34 1.1,-2.64 2.64,-2.64 1.39,0 2.64,1.05 2.64,2.64 z"
           inkscape:connector-curvature="0"
           style="fill:#000000;stroke-width:0" /><path
           id="path2008"
           d="m 502.52,353.74 v -13.36 c 0,-2.23 -0.55,-2.23 -3.89,-2.23 v -1.55 c 1.75,0.05 4.28,0.16 5.62,0.16 1.3,0 3.89,-0.11 5.58,-0.16 v 1.55 c -3.33,0 -3.87,0 -3.87,2.23 v 9.17 c 0,5.19 3.53,7.97 6.72,7.97 3.14,0 3.68,-2.68 3.68,-5.53 v -11.61 c 0,-2.23 -0.54,-2.23 -3.89,-2.23 v -1.55 c 1.75,0.05 4.3,0.16 5.64,0.16 1.3,0 3.88,-0.11 5.58,-0.16 v 1.55 c -3.34,0 -3.89,0 -3.89,2.23 v 9.17 c 0,5.19 3.55,7.97 6.73,7.97 3.15,0 3.69,-2.68 3.69,-5.53 v -11.61 c 0,-2.23 -0.54,-2.23 -3.89,-2.23 v -1.55 c 1.74,0.05 4.28,0.16 5.63,0.16 1.29,0 3.89,-0.11 5.57,-0.16 v 1.55 c -2.57,0 -3.82,0 -3.87,1.5 v 9.51 c 0,4.29 0,5.83 -1.55,7.61 -0.7,0.86 -2.34,1.85 -5.23,1.85 -4.19,0 -6.38,-2.99 -7.22,-4.88 -0.7,4.33 -4.39,4.88 -6.63,4.88 -3.64,0 -5.98,-2.14 -7.37,-5.22 v 5.22 l -7.03,-0.55 v -1.55 c 3.48,0 3.89,-0.34 3.89,-2.78 z"
           inkscape:connector-curvature="0"
           style="fill:#000000;stroke-width:0" /><polygon
           id="polygon2010"
           points="565.17,381.18 570.91,376.11 571.8,377 565.17,383.78 558.5,377 559.39,376.11 "
           style="fill:#000000;stroke-width:0" /><path
           id="path2012"
           d="m 565.48,366.74 0.04,0.17 0.04,0.15 0.04,0.16 0.04,0.14 0.04,0.14 0.05,0.13 0.05,0.12 0.05,0.12 0.06,0.11 0.06,0.1 0.08,0.1 0.08,0.09 0.09,0.09 0.1,0.08 0.11,0.08 0.12,0.07 0.13,0.06 0.15,0.06 0.16,0.06 0.18,0.05 0.09,0.02 0.1,0.02 0.1,0.02 0.11,0.02 0.11,0.02 0.11,0.02 0.13,0.02 0.12,0.01 0.13,0.02 0.14,0.01 0.14,0.01 0.14,0.01 0.15,0.01 0.16,0.01 0.16,0.01 0.17,0.01 0.17,0.01 h 0.18 l 0.18,0.01 h 0.19 0.2 0.21 l 0.21,0.01 h 0.21 c 1.49,0 1.89,0 1.89,0.95 0,0.59 -0.55,0.59 -0.8,0.59 -1.65,0 -5.73,-0.15 -7.37,-0.15 -1.5,0 -5.14,0.15 -6.63,0.15 -0.35,0 -0.95,0 -0.95,-1 0,-0.54 0.45,-0.54 1.39,-0.54 0.11,0 1.05,0 1.91,-0.1 0.89,-0.11 1.34,-0.15 1.34,-0.79 0,-0.21 -0.06,-0.36 -0.2,-0.96 l -6.67,-26.75 c -0.5,-1.95 -0.61,-2.34 -4.55,-2.34 -0.84,0 -1.34,0 -1.34,-1 0,-0.55 0.45,-0.55 1.34,-0.55 h 23.08 c 1.19,0 1.23,0 1.55,0.85 l 3.92,10.76 c 0.2,0.55 0.2,0.64 0.2,0.7 0,0.19 -0.14,0.55 -0.59,0.55 -0.46,0 -0.5,-0.25 -0.85,-1.05 -1.7,-4.59 -3.89,-10.26 -12.51,-10.26 h -4.67 c -0.71,0 -0.8,0 -1.1,0.05 -0.5,0.04 -0.65,0.09 -0.65,0.5 0,0.14 0,0.25 0.25,1.14 z"
           inkscape:connector-curvature="0"
           style="fill:#000000;stroke-width:0" /><path
           id="path2014"
           d="m 628.83,352.9 h 0.14 0.15 0.14 l 0.07,0.01 h 0.08 l 0.07,0.01 0.07,0.01 0.07,0.01 0.07,0.01 0.07,0.01 0.06,0.02 0.07,0.02 0.06,0.02 0.06,0.03 0.06,0.02 0.06,0.03 0.05,0.04 0.05,0.04 0.05,0.04 0.04,0.04 0.04,0.05 0.02,0.03 0.02,0.03 0.01,0.03 0.02,0.03 0.01,0.03 0.01,0.03 0.02,0.03 0.01,0.04 0.01,0.03 0.01,0.04 v 0.04 l 0.01,0.04 v 0.04 l 0.01,0.04 v 0.05 0.04 c 0,1 -0.95,1 -1.64,1 h -29.85 c -0.7,0 -1.63,0 -1.63,-1 0,-0.98 0.93,-0.98 1.68,-0.98 z"
           inkscape:connector-curvature="0"
           style="fill:#000000;stroke-width:0" /><path
           id="path2016"
           d="m 628.88,343.23 h 0.06 0.07 0.14 0.14 l 0.07,0.01 h 0.07 l 0.06,0.01 0.07,0.01 0.07,0.01 0.07,0.01 0.07,0.01 0.06,0.02 0.07,0.02 0.06,0.02 0.06,0.03 0.05,0.02 0.06,0.04 0.05,0.03 0.05,0.04 0.05,0.04 0.04,0.05 0.02,0.02 0.02,0.03 0.02,0.03 0.02,0.02 0.01,0.03 0.02,0.03 0.01,0.03 0.01,0.04 0.02,0.03 0.01,0.04 0.01,0.03 0.01,0.04 v 0.04 l 0.01,0.04 v 0.04 l 0.01,0.05 v 0.04 0.05 c 0,1 -0.95,1 -1.69,1 h -29.75 c -0.75,0 -1.68,0 -1.68,-1 0,-1 0.93,-1 1.63,-1 z"
           inkscape:connector-curvature="0"
           style="fill:#000000;stroke-width:0" /><path
           id="path2018"
           d="m 698.29,324.09 v 2 c -5.14,0 -5.14,2.44 -5.14,3.94 v 41.89 h 21.48 v -41.89 c 0,-1.5 0,-3.94 -5.14,-3.94 v -2 h 15.1 v 2 c -5.13,0 -5.13,2.44 -5.13,3.94 V 368 c 0,1.48 0,3.92 5.13,3.92 v 2 H 683.2 v -2 c 5.12,0 5.12,-2.44 5.12,-3.92 v -37.97 c 0,-1.5 0,-3.94 -5.12,-3.94 v -2 z"
           inkscape:connector-curvature="0"
           style="fill:#000000;stroke-width:0" /><path
           id="path2020"
           d="m 669.74,297.82 -0.03,0.3 -0.03,0.29 -0.04,0.28 -0.05,0.28 -0.05,0.27 -0.06,0.26 -0.07,0.25 -0.07,0.24 -0.09,0.24 -0.08,0.23 -0.09,0.22 -0.1,0.22 -0.11,0.21 -0.1,0.2 -0.24,0.38 -0.25,0.35 -0.27,0.34 -0.28,0.3 -0.3,0.28 -0.31,0.26 -0.32,0.24 -0.33,0.22 -0.33,0.2 -0.35,0.18 -0.34,0.16 -0.36,0.14 -0.35,0.13 -0.35,0.11 -0.35,0.09 -0.35,0.09 -0.34,0.07 -0.33,0.06 -0.33,0.05 -0.32,0.04 -0.3,0.02 -0.3,0.03 -0.27,0.01 -0.27,0.01 h -0.24 l -0.06,-1.61 c 1.95,0 3.34,-1.22 4.04,-4.03 0.38,-1.58 0.38,-3.03 0.72,-5.86 v 0 c -2.78,-2.06 -5.75,-2.92 -8.19,-2.92 -1.98,0 -3.85,0.69 -3.85,3.26 0,1.41 0.82,5.07 1.81,6.6 1.73,2.69 4.31,2.95 5.47,2.95 l 0.06,1.61 c -7.83,0 -11.77,-5.44 -11.77,-9.75 0,-3.87 2.99,-6.28 8.11,-6.28 2.83,0 6,0.87 8.89,2.8 1.11,-2.04 2.93,-2.8 4.74,-2.8 3.03,0 3.94,1.61 3.94,2.26 0,0.66 -0.63,0.66 -1.08,0.66 -0.57,0 -0.88,0 -1.08,-0.45 -0.34,-0.86 -1.5,-0.86 -1.53,-0.86 -0.56,0 -0.77,1.25 -0.88,1.73 -0.17,1.02 -0.31,2.41 -0.31,2.44 0,0.14 0,0.22 0.34,0.53 2.86,3.24 3.85,7 3.85,7.31 0,0.63 -0.64,0.63 -1.13,0.63 -0.9,0 -0.93,-0.06 -1.14,-0.83 -0.22,-0.7 -0.73,-2.51 -2.2,-4.64 z"
           inkscape:connector-curvature="0"
           style="fill:#000000;stroke-width:0" /><path
           id="path2022"
           d="m 698.92,297.2 h 0.05 0.06 0.11 0.12 0.05 l 0.06,0.01 h 0.06 l 0.06,0.01 0.06,0.01 0.06,0.01 0.05,0.01 0.06,0.02 0.05,0.01 0.05,0.02 0.06,0.02 0.04,0.03 0.05,0.02 0.05,0.03 0.04,0.03 0.04,0.04 0.04,0.04 0.01,0.02 0.02,0.02 0.02,0.02 0.01,0.03 0.02,0.02 0.01,0.03 0.01,0.02 0.01,0.03 0.01,0.03 0.01,0.03 0.01,0.03 0.01,0.03 v 0.04 l 0.01,0.03 v 0.04 l 0.01,0.03 v 0.04 0.04 c 0,0.86 -0.8,0.86 -1.39,0.86 h -16.14 c 0.53,5.06 4.75,8.81 10.19,8.81 h 5.95 c 0.56,0 1.39,0 1.39,0.84 0,0.88 -0.8,0.88 -1.39,0.88 h -6.1 c -6.48,0 -11.78,-5.09 -11.78,-11.36 0,-6.42 5.36,-11.39 11.78,-11.39 h 6.1 c 0.56,0 1.39,0 1.39,0.83 0,0.87 -0.8,0.87 -1.39,0.87 h -5.95 c -5.44,0 -9.66,3.77 -10.19,8.82 z"
           inkscape:connector-curvature="0"
           style="fill:#000000;stroke-width:0" /><path
           id="path2024"
           d="m 718.66,300.62 0.01,0.01 0.02,0.02 0.02,0.02 0.02,0.01 0.01,0.02 0.02,0.01 0.02,0.02 0.01,0.01 0.01,0.02 0.02,0.01 0.01,0.02 0.01,0.01 0.02,0.01 0.01,0.01 0.02,0.03 0.02,0.02 0.02,0.02 0.02,0.02 0.01,0.02 0.02,0.02 0.01,0.02 0.01,0.02 0.01,0.02 0.01,0.01 0.01,0.02 0.01,0.01 v 0.02 l 0.01,0.01 v 0.02 0.01 l 0.01,0.01 v 0.02 0.01 0.03 0.03 0.03 c 0,0.17 -0.2,0.41 -0.23,0.49 l -7.81,10.14 h 8.78 c 5.75,0 8.29,-0.85 9.09,-6.77 h 1.19 l -1.05,8.02 h -21.42 c -0.88,0 -1.02,-0.03 -1.02,-0.91 l 9.52,-12.41 -9.06,-9.32 c -0.38,-0.43 -0.46,-0.46 -0.46,-0.68 0,-0.48 0.46,-0.48 1.02,-0.48 h 21.42 l 1.05,8.44 h -1.19 c -0.73,-6.06 -3.8,-6.38 -6.26,-6.63 -1.22,-0.11 -1.44,-0.14 -2.9,-0.14 h -10.42 z"
           inkscape:connector-curvature="0"
           style="fill:#000000;stroke-width:0" /><path
           id="path2026"
           d="m 746.1,304.81 h 8.67 c 0.33,0 1,0 1,0.71 0,0.68 -0.67,0.68 -1,0.68 h -8.67 v 8.68 c 0,0.34 0,1.01 -0.7,1.01 -0.69,0 -0.69,-0.67 -0.69,-1.01 v -8.68 h -8.7 c -0.31,0 -0.99,0 -0.99,-0.68 0,-0.71 0.68,-0.71 0.99,-0.71 h 8.7 v -8.67 c 0,-0.34 0,-1.01 0.69,-1.01 0.7,0 0.7,0.67 0.7,1.01 z"
           inkscape:connector-curvature="0"
           style="fill:#000000;stroke-width:0" /><path
           id="path2028"
           d="m 791.45,358.37 -0.01,0.02 v 0.03 0.01 0.02 0.01 l -0.01,0.02 v 0.02 l -0.01,0.01 -0.01,0.02 -0.01,0.02 -0.01,0.02 -0.02,0.03 -0.01,0.02 -0.02,0.03 -0.02,0.03 -0.03,0.03 -0.02,0.03 -0.03,0.04 -0.02,0.02 -0.01,0.02 -0.02,0.02 -0.02,0.02 -0.02,0.02 -0.02,0.03 -0.02,0.02 -0.02,0.02 -0.02,0.03 -0.03,0.02 -0.02,0.03 -0.03,0.03 -0.02,0.03 -0.03,0.03 -0.03,0.03 -0.03,0.03 -0.03,0.03 -0.03,0.03 -0.04,0.04 -0.03,0.03 -0.03,0.04 -0.04,0.03 -0.04,0.04 -0.04,0.04 c -6.22,6.28 -7.81,15.69 -7.81,23.31 0,8.68 1.89,17.35 8.01,23.57 0.65,0.61 0.65,0.7 0.65,0.86 0,0.34 -0.19,0.48 -0.49,0.48 -0.5,0 -4.98,-3.38 -7.92,-9.7 -2.55,-5.49 -3.14,-11.02 -3.14,-15.21 0,-3.89 0.55,-9.9 3.28,-15.54 2.98,-6.13 7.28,-9.36 7.78,-9.36 0.3,0 0.49,0.14 0.49,0.5 z"
           inkscape:connector-curvature="0"
           style="fill:#000000;stroke-width:0" /><path
           id="path2030"
           d="m 849.07,401.96 0.11,0.02 0.11,0.01 0.11,0.02 0.12,0.01 0.23,0.03 0.25,0.02 0.24,0.02 0.25,0.01 0.25,0.01 0.24,0.01 0.24,0.01 0.11,0.01 h 0.11 0.11 0.11 0.1 l 0.1,0.01 h 0.09 0.09 0.09 0.08 0.07 0.07 0.06 0.06 c 1.75,0 2.38,0 2.38,1.45 0,0.89 -0.79,0.89 -1.68,0.89 h -8.88 c -1.54,0 -1.78,-0.14 -2.53,-1.23 l -18.69,-26.52 -5.32,26.36 c -0.3,1.39 -0.75,1.39 -2,1.39 h -9.36 c -1,0 -1.85,0 -1.85,-1.44 0,-0.9 0.64,-0.9 2.1,-0.9 1.04,0 1.98,-0.05 3.03,-0.1 l -6.97,-27.79 c -0.25,-1 -0.25,-1.05 -1.5,-1.3 -1.19,-0.3 -2.69,-0.3 -2.85,-0.3 -0.93,0 -1.78,0 -1.78,-1.45 0,-0.3 0.25,-0.89 0.99,-0.89 1.79,0 3.69,0.16 5.53,0.16 1.25,0 4.44,-0.16 5.69,-0.16 0.39,0 1.34,0 1.34,1.44 0,0.9 -0.84,0.9 -1.5,0.9 -0.55,0 -2.28,0 -3.48,0.5 l 7.03,28.25 h 0.05 l 6.03,-29.59 c 0.14,-0.75 0.29,-1.5 1.34,-1.5 1,0 1.39,0.59 1.8,1.14 l 21.51,30.64 0.05,-0.05 -7.08,-28.39 c -0.19,-0.79 -0.23,-0.86 -1.14,-0.95 -0.84,-0.05 -1.84,-0.05 -2.64,-0.05 -1.3,0 -1.39,0 -1.59,-0.11 -0.6,-0.34 -0.6,-1.14 -0.6,-1.34 0,-0.09 0.05,-0.89 1.1,-0.89 1.2,0 2.43,0.09 3.64,0.09 1.14,0 2.34,0.07 3.48,0.07 1.3,0 2.55,-0.07 3.83,-0.07 1.2,0 2.4,-0.09 3.55,-0.09 0.39,0 0.79,0 1.04,0.34 0.3,0.3 0.35,1.05 0.35,1.1 0,0.9 -0.64,0.9 -2.05,0.9 -1.05,0 -1.99,0.05 -3.03,0.1 z"
           inkscape:connector-curvature="0"
           style="fill:#000000;stroke-width:0" /><path
           id="path2032"
           d="m 888.33,381.77 h 13.91 c 0.69,0 1.64,0 1.64,1 0,1 -0.95,1 -1.64,1 h -13.91 v 13.96 c 0,0.68 0,1.64 -1,1.64 -0.98,0 -0.98,-0.96 -0.98,-1.64 V 383.77 H 872.4 c -0.71,0 -1.65,0 -1.65,-1 0,-1 0.94,-1 1.65,-1 h 13.95 v -13.93 c 0,-0.71 0,-1.66 0.98,-1.66 1,0 1,0.95 1,1.66 z"
           inkscape:connector-curvature="0"
           style="fill:#000000;stroke-width:0" /><path
           id="path2034"
           d="m 944.16,388.51 0.02,0.07 0.02,0.07 0.01,0.07 0.02,0.06 0.01,0.07 0.01,0.06 0.02,0.05 0.01,0.06 0.01,0.05 0.01,0.05 0.01,0.05 v 0.05 l 0.01,0.04 0.01,0.04 v 0.04 l 0.01,0.04 v 0.04 l 0.01,0.03 v 0.03 0.04 0.03 l 0.01,0.02 v 0.03 0.03 0.02 0.03 0.02 0.02 0.05 0.03 c 0,1.6 -1.29,2.19 -2.34,2.19 -1,0 -1.89,-0.45 -2.55,-1.19 -0.69,0.74 -2.34,2.04 -5.28,2.04 l 0.11,-1.8 c 3.08,0 4.17,-2.44 4.17,-2.78 0,-0.1 0,-0.21 -0.14,-0.75 l -2.89,-11.56 c -0.2,-0.69 -0.2,-0.9 -0.79,-1.44 -2.65,-2.39 -4.99,-2.39 -5.44,-2.39 -1.94,0 -3.38,1.09 -3.38,3.73 0,2.39 1.64,8.38 2.39,10.22 1.74,4.28 4.58,4.97 6.08,4.97 l -0.11,1.8 c -8.81,0 -14,-7.88 -14,-14.39 0,-5.9 4.44,-8.13 8.72,-8.13 2.59,0 4.59,1 5.49,1.55 -0.3,-1.25 -0.6,-2.5 -0.96,-3.74 -0.34,-1.45 -0.69,-2.93 -2.44,-4.34 -2.09,-1.74 -3.73,-1.74 -5.07,-1.74 -1.21,0 -2.1,0 -3.4,0.19 1.46,1.05 1.55,2.71 1.55,2.89 0,1.11 -0.84,2.3 -2.48,2.3 -1.66,0 -3.55,-1.39 -3.55,-3.69 0,-3.28 4.39,-3.48 7.92,-3.48 4.49,0 11.36,1.04 12.86,7.01 z"
           inkscape:connector-curvature="0"
           style="fill:#000000;stroke-width:0" /><path
           id="path2036"
           d="m 961.18,382.77 v 0.37 l -0.01,0.39 -0.01,0.39 -0.01,0.41 -0.04,0.84 -0.06,0.88 -0.08,0.92 -0.11,0.95 -0.13,0.98 -0.17,1 -0.19,1.02 -0.23,1.03 -0.27,1.06 -0.31,1.05 -0.34,1.07 -0.4,1.07 -0.21,0.53 -0.22,0.53 -0.24,0.53 -0.25,0.53 c -2.99,6.13 -7.27,9.36 -7.77,9.36 -0.29,0 -0.5,-0.19 -0.5,-0.48 0,-0.16 0,-0.25 0.94,-1.16 4.89,-4.92 7.73,-12.84 7.73,-23.27 0,-8.51 -1.84,-17.28 -8.03,-23.56 -0.64,-0.59 -0.64,-0.7 -0.64,-0.84 0,-0.3 0.21,-0.5 0.5,-0.5 0.5,0 4.97,3.39 7.92,9.72 2.54,5.46 3.13,11 3.13,15.18 z"
           inkscape:connector-curvature="0"
           style="fill:#000000;stroke-width:0" /><path
           id="path2038"
           d="m 986.83,382.77 -0.01,0.14 -0.01,0.13 -0.01,0.13 -0.03,0.13 -0.03,0.13 -0.03,0.13 -0.04,0.12 -0.05,0.12 -0.05,0.12 -0.06,0.11 -0.07,0.11 -0.06,0.11 -0.08,0.1 -0.08,0.1 -0.08,0.1 -0.09,0.09 -0.09,0.09 -0.09,0.08 -0.1,0.08 -0.11,0.07 -0.11,0.07 -0.11,0.06 -0.11,0.06 -0.12,0.06 -0.12,0.04 -0.12,0.04 -0.12,0.04 -0.13,0.03 -0.13,0.02 -0.13,0.02 -0.14,0.01 h -0.13 c -1.44,0 -2.64,-1.18 -2.64,-2.64 0,-1.43 1.2,-2.64 2.64,-2.64 1.45,0 2.64,1.21 2.64,2.64 z"
           inkscape:connector-curvature="0"
           style="fill:#000000;stroke-width:0" /><path
           id="path2040"
           d="m 1031.2,378.49 0.4,0.51 0.4,0.5 0.4,0.51 0.4,0.5 0.3,0.5 0.4,0.5 0.3,0.49 0.3,0.48 0.3,0.48 0.2,0.47 0.3,0.47 0.2,0.45 0.2,0.44 0.2,0.43 0.2,0.41 0.1,0.4 0.2,0.39 0.1,0.37 0.2,0.35 0.1,0.33 0.1,0.32 0.1,0.29 0.1,0.27 v 0.25 l 0.1,0.23 v 0.2 l 0.1,0.17 v 0.15 0.12 l 0.1,0.09 v 0.06 0.03 c 0,0.7 -0.8,0.7 -1.2,0.7 -1,0 -1,-0.11 -1.3,-1.05 -0.9,-3.34 -2.4,-6.07 -3.5,-7.62 -0.1,2.39 -0.1,5.33 -2.8,8.02 -2.6,2.64 -5.8,3.14 -8.2,3.14 v -1.8 c 4.6,0 5.2,-5.47 5.4,-10.36 0,-1.23 0.2,-3.44 0.2,-4.63 0,-0.6 -3,-2.34 -4.3,-2.89 -3,-1.29 -5.1,-1.45 -6.3,-1.45 v 0 c -2.8,0 -4.9,1.34 -4.9,4.64 0,1.64 1.2,7.17 2.7,10.06 1.6,3.19 4.7,4.63 7.2,4.63 v 1.8 c -10.1,0 -15.6,-7.88 -15.6,-14.3 0,-5.49 4.1,-8.63 10.3,-8.63 4.8,0 8.9,2.05 11.5,3.94 0.9,-2.09 3,-3.94 6,-3.94 3.3,0 5,2.3 5,3.35 0,0.7 -0.7,0.7 -1.2,0.7 -0.6,0 -0.9,0 -1.1,-0.66 -0.6,-1.43 -2.2,-1.59 -2.4,-1.59 -1.2,0 -1.3,5.78 -1.3,6.78 z"
           inkscape:connector-curvature="0"
           style="fill:#000000;stroke-width:0" /><polyline
           id="polyline2042"
           points="775,348 1040.1,348 1040.1,350.04 775,350.04 "
           style="fill:#000000;fill-rule:nonzero;stroke-width:0" /><path
           id="path2044"
           d="m 882.48,320.59 0.02,0.07 0.02,0.07 0.02,0.07 0.01,0.06 0.02,0.06 0.01,0.06 0.01,0.06 0.01,0.06 0.01,0.05 0.01,0.05 0.01,0.05 0.01,0.04 0.01,0.05 v 0.04 l 0.01,0.04 v 0.04 l 0.01,0.03 v 0.04 0.03 l 0.01,0.03 v 0.03 0.03 0.03 0.03 l 0.01,0.02 v 0.03 0.02 0.02 0.04 0.04 c 0,1.6 -1.3,2.19 -2.35,2.19 -1,0 -1.89,-0.45 -2.54,-1.19 -0.69,0.74 -2.35,2.03 -5.28,2.03 l 0.11,-1.79 c 3.07,0 4.17,-2.44 4.17,-2.78 0,-0.1 0,-0.21 -0.14,-0.75 l -2.89,-11.57 c -0.21,-0.68 -0.21,-0.89 -0.8,-1.43 -2.64,-2.39 -4.99,-2.39 -5.44,-2.39 -1.94,0 -3.37,1.09 -3.37,3.73 0,2.39 1.64,8.37 2.39,10.22 1.73,4.28 4.58,4.97 6.08,4.97 l -0.11,1.79 c -8.82,0 -14,-7.87 -14,-14.39 0,-5.89 4.43,-8.12 8.71,-8.12 2.6,0 4.6,1 5.49,1.55 -0.3,-1.25 -0.59,-2.5 -0.95,-3.74 -0.35,-1.45 -0.69,-2.94 -2.44,-4.34 -2.1,-1.74 -3.74,-1.74 -5.08,-1.74 -1.2,0 -2.09,0 -3.39,0.19 1.45,1.05 1.55,2.7 1.55,2.89 0,1.11 -0.85,2.3 -2.49,2.3 -1.65,0 -3.54,-1.39 -3.54,-3.69 0,-3.28 4.39,-3.48 7.92,-3.48 4.48,0 11.36,1.04 12.86,7.01 z"
           inkscape:connector-curvature="0"
           style="fill:#000000;stroke-width:0" /><path
           id="path2046"
           d="m 905.72,314.85 v 0.14 l -0.01,0.13 -0.02,0.13 -0.02,0.13 -0.03,0.13 -0.04,0.13 -0.04,0.12 -0.05,0.12 -0.05,0.11 -0.06,0.12 -0.06,0.11 -0.07,0.11 -0.08,0.1 -0.08,0.1 -0.08,0.1 -0.09,0.09 -0.09,0.08 -0.09,0.09 -0.1,0.08 -0.11,0.07 -0.11,0.07 -0.11,0.06 -0.11,0.06 -0.12,0.05 -0.12,0.05 -0.12,0.04 -0.12,0.04 -0.13,0.03 -0.13,0.02 -0.13,0.02 -0.14,0.01 h -0.13 c -1.44,0 -2.64,-1.19 -2.64,-2.64 0,-1.44 1.2,-2.64 2.64,-2.64 1.45,0 2.64,1.2 2.64,2.64 z"
           inkscape:connector-curvature="0"
           style="fill:#000000;stroke-width:0" /><path
           id="path2048"
           d="m 950.09,310.57 0.42,0.5 0.41,0.51 0.39,0.5 0.37,0.51 0.35,0.5 0.33,0.49 0.31,0.5 0.3,0.48 0.27,0.48 0.26,0.47 0.25,0.46 0.22,0.46 0.22,0.44 0.19,0.42 0.19,0.42 0.16,0.4 0.16,0.39 0.14,0.37 0.13,0.35 0.11,0.33 0.11,0.32 0.09,0.29 0.08,0.27 0.07,0.25 0.06,0.23 0.06,0.2 0.04,0.17 0.03,0.15 0.03,0.12 0.01,0.09 0.01,0.06 0.01,0.03 c 0,0.7 -0.75,0.7 -1.21,0.7 -0.93,0 -0.98,-0.11 -1.23,-1.05 -0.95,-3.34 -2.44,-6.08 -3.55,-7.62 -0.04,2.39 -0.09,5.33 -2.78,8.01 -2.59,2.64 -5.83,3.14 -8.17,3.14 l -0.05,-1.79 c 4.63,0 5.17,-5.47 5.38,-10.36 0.04,-1.24 0.25,-3.44 0.25,-4.63 0,-0.61 -3.03,-2.34 -4.28,-2.89 -3,-1.29 -5.19,-1.45 -6.38,-1.45 v 0 c -2.8,0 -4.84,1.34 -4.84,4.64 0,1.64 1.15,7.17 2.64,10.06 1.59,3.19 4.69,4.63 7.23,4.63 l 0.05,1.79 c -10.17,0 -15.64,-7.87 -15.64,-14.29 0,-5.49 4.08,-8.63 10.31,-8.63 4.78,0 8.86,2.05 11.5,3.94 0.91,-2.09 2.94,-3.94 5.99,-3.94 3.28,0 4.98,2.3 4.98,3.35 0,0.7 -0.7,0.7 -1.16,0.7 -0.64,0 -0.89,0 -1.14,-0.66 -0.59,-1.43 -2.23,-1.59 -2.34,-1.59 -1.23,0 -1.34,5.78 -1.34,6.78 z"
           inkscape:connector-curvature="0"
           style="fill:#000000;stroke-width:0" /><path
           id="path2050"
           d="m 1094.1,352.9 h 0.1 0.2 0.1 l 0.1,0.01 v 0 l 0.1,0.01 0.1,0.01 0.1,0.01 v 0.01 l 0.1,0.01 0.1,0.02 V 353 l 0.1,0.02 0.1,0.03 v 0.02 l 0.1,0.03 v 0.04 l 0.1,0.04 v 0.04 l 0.1,0.04 v 0.05 0.03 0.03 l 0.1,0.03 v 0.03 0.03 0.03 0.03 0.04 0.03 0.04 0.04 0.04 l 0.1,0.04 v 0.04 0.05 0.04 c 0,1 -1,1 -1.7,1 h -29.8 c -0.7,0 -1.7,0 -1.7,-1 0,-0.98 1,-0.98 1.7,-0.98 z"
           inkscape:connector-curvature="0"
           style="fill:#000000;stroke-width:0" /><path
           id="path2052"
           d="m 1094.1,343.23 h 0.1 0.1 0.1 0.1 l 0.1,0.01 h 0.1 v 0.01 l 0.1,0.01 0.1,0.01 v 0.01 l 0.1,0.01 0.1,0.02 v 0.02 l 0.1,0.02 0.1,0.03 v 0.02 l 0.1,0.04 v 0.03 l 0.1,0.04 v 0.04 l 0.1,0.05 v 0.02 0.03 0.03 0.02 l 0.1,0.03 v 0.03 0.03 0.04 0.03 0.04 0.03 0.04 0.04 0.04 l 0.1,0.04 v 0.05 0.04 0.05 c 0,1 -1,1 -1.7,1 h -29.8 c -0.7,0 -1.7,0 -1.7,-1 0,-1 1,-1 1.7,-1 z"
           inkscape:connector-curvature="0"
           style="fill:#000000;stroke-width:0" /><path
           id="path2054"
           d="m 1134.9,358.37 v 0.02 0.03 0.01 0.02 0.01 0.02 0.02 0.01 l -0.1,0.02 v 0.02 0.02 0.03 0.02 0.03 0.03 l -0.1,0.03 v 0.03 0.04 0.02 l -0.1,0.02 v 0.02 0.02 0.02 0.03 l -0.1,0.02 v 0.02 0.03 0.02 0.03 l -0.1,0.03 v 0.03 0.03 l -0.1,0.03 v 0.03 0.03 0.03 l -0.1,0.04 v 0.03 0.04 l -0.1,0.03 v 0.04 l -0.1,0.04 c -6.2,6.28 -7.8,15.69 -7.8,23.31 0,8.68 1.9,17.35 8,23.57 0.7,0.61 0.7,0.7 0.7,0.86 0,0.34 -0.2,0.48 -0.5,0.48 -0.5,0 -5,-3.38 -7.9,-9.7 -2.6,-5.49 -3.2,-11.02 -3.2,-15.21 0,-3.89 0.6,-9.9 3.3,-15.54 3,-6.13 7.3,-9.36 7.8,-9.36 0.3,0 0.5,0.14 0.5,0.5 z"
           inkscape:connector-curvature="0"
           style="fill:#000000;stroke-width:0" /><path
           id="path2056"
           d="m 1192.5,401.96 0.1,0.02 0.1,0.01 0.1,0.02 0.2,0.01 0.2,0.03 0.2,0.02 0.3,0.02 0.2,0.01 0.3,0.01 0.2,0.01 0.3,0.01 0.1,0.01 h 0.1 0.1 0.1 0.1 l 0.1,0.01 h 0.1 0.1 0.1 v 0 h 0.1 0.1 v 0 h 0.1 c 1.8,0 2.4,0 2.4,1.45 0,0.89 -0.8,0.89 -1.7,0.89 h -8.9 c -1.5,0 -1.8,-0.14 -2.5,-1.23 l -18.7,-26.52 -5.3,26.36 c -0.3,1.39 -0.8,1.39 -2,1.39 h -9.4 c -1,0 -1.8,0 -1.8,-1.44 0,-0.9 0.6,-0.9 2.1,-0.9 1,0 2,-0.05 3,-0.1 l -7,-27.79 c -0.2,-1 -0.2,-1.05 -1.5,-1.3 -1.2,-0.3 -2.7,-0.3 -2.8,-0.3 -0.9,0 -1.8,0 -1.8,-1.45 0,-0.3 0.3,-0.89 1,-0.89 1.8,0 3.7,0.16 5.5,0.16 1.3,0 4.5,-0.16 5.7,-0.16 0.4,0 1.4,0 1.4,1.44 0,0.9 -0.9,0.9 -1.5,0.9 -0.6,0 -2.3,0 -3.5,0.5 l 7,28.25 h 0.1 l 6,-29.59 c 0.1,-0.75 0.3,-1.5 1.3,-1.5 1,0 1.4,0.59 1.8,1.14 l 21.5,30.64 0.1,-0.05 -7.1,-28.39 c -0.2,-0.79 -0.2,-0.86 -1.1,-0.95 -0.9,-0.05 -1.9,-0.05 -2.7,-0.05 -1.3,0 -1.4,0 -1.6,-0.11 -0.6,-0.34 -0.6,-1.14 -0.6,-1.34 0,-0.09 0.1,-0.89 1.1,-0.89 1.2,0 2.5,0.09 3.7,0.09 1.1,0 2.3,0.07 3.5,0.07 1.3,0 2.5,-0.07 3.8,-0.07 1.2,0 2.4,-0.09 3.5,-0.09 0.4,0 0.8,0 1.1,0.34 0.3,0.3 0.3,1.05 0.3,1.1 0,0.9 -0.6,0.9 -2,0.9 -1.1,0 -2,0.05 -3,0.1 z"
           inkscape:connector-curvature="0"
           style="fill:#000000;stroke-width:0" /><path
           id="path2058"
           d="m 1231.8,381.77 h 13.9 c 0.7,0 1.6,0 1.6,1 0,1 -0.9,1 -1.6,1 h -13.9 v 13.96 c 0,0.68 0,1.64 -1,1.64 -1,0 -1,-0.96 -1,-1.64 v -13.96 h -14 c -0.7,0 -1.6,0 -1.6,-1 0,-1 0.9,-1 1.6,-1 h 14 v -13.93 c 0,-0.71 0,-1.66 1,-1.66 1,0 1,0.95 1,1.66 z"
           inkscape:connector-curvature="0"
           style="fill:#000000;stroke-width:0" /><path
           id="path2060"
           d="m 1287.6,388.51 v 0.07 0.07 l 0.1,0.07 v 0.06 0.07 0.06 0.05 0.06 0.05 0.05 0.05 l 0.1,0.05 v 0.04 0.04 0.04 0.04 0.04 0.03 0.03 0.04 0.03 0.02 0.03 0.03 0.02 0.03 0.02 0.02 0.05 0.03 c 0,1.6 -1.3,2.19 -2.3,2.19 -1,0 -1.9,-0.45 -2.6,-1.19 -0.7,0.74 -2.3,2.04 -5.3,2.04 l 0.1,-1.8 c 3.1,0 4.2,-2.44 4.2,-2.78 0,-0.1 0,-0.21 -0.1,-0.75 l -2.9,-11.56 c -0.2,-0.69 -0.2,-0.9 -0.8,-1.44 -2.7,-2.39 -5,-2.39 -5.5,-2.39 -1.9,0 -3.3,1.09 -3.3,3.73 0,2.39 1.6,8.38 2.4,10.22 1.7,4.28 4.5,4.97 6,4.97 l -0.1,1.8 c -8.8,0 -14,-7.88 -14,-14.39 0,-5.9 4.5,-8.13 8.7,-8.13 2.6,0 4.6,1 5.5,1.55 -0.3,-1.25 -0.6,-2.5 -0.9,-3.74 -0.4,-1.45 -0.7,-2.93 -2.5,-4.34 -2.1,-1.74 -3.7,-1.74 -5,-1.74 -1.2,0 -2.1,0 -3.4,0.19 1.4,1.05 1.5,2.71 1.5,2.89 0,1.11 -0.8,2.3 -2.5,2.3 -1.6,0 -3.5,-1.39 -3.5,-3.69 0,-3.28 4.4,-3.48 7.9,-3.48 4.5,0 11.4,1.04 12.9,7.01 z"
           inkscape:connector-curvature="0"
           style="fill:#000000;stroke-width:0" /><path
           id="path2062"
           d="m 1304.6,382.77 v 0.37 0.39 0.39 0.41 0.84 l -0.1,0.88 -0.1,0.92 -0.1,0.95 -0.1,0.98 -0.2,1 -0.2,1.02 -0.2,1.03 -0.3,1.06 -0.3,1.05 -0.3,1.07 -0.4,1.07 -0.2,0.53 -0.3,0.53 -0.2,0.53 -0.3,0.53 c -2.9,6.13 -7.2,9.36 -7.7,9.36 -0.3,0 -0.5,-0.19 -0.5,-0.48 0,-0.16 0,-0.25 0.9,-1.16 4.9,-4.92 7.8,-12.84 7.8,-23.27 0,-8.51 -1.9,-17.28 -8.1,-23.56 -0.6,-0.59 -0.6,-0.7 -0.6,-0.84 0,-0.3 0.2,-0.5 0.5,-0.5 0.5,0 4.9,3.39 7.9,9.72 2.5,5.46 3.1,11 3.1,15.18 z"
           inkscape:connector-curvature="0"
           style="fill:#000000;stroke-width:0" /><path
           id="path2064"
           d="m 1330.3,382.77 v 0.14 0.13 l -0.1,0.13 v 0.13 0.13 0.13 l -0.1,0.12 v 0.12 l -0.1,0.12 -0.1,0.11 v 0.11 l -0.1,0.11 -0.1,0.1 v 0.1 l -0.1,0.1 -0.1,0.09 -0.1,0.09 -0.1,0.08 -0.1,0.08 -0.1,0.07 -0.1,0.07 -0.1,0.06 -0.1,0.06 -0.1,0.06 -0.2,0.04 -0.1,0.04 -0.1,0.04 -0.1,0.03 -0.2,0.02 -0.1,0.02 -0.1,0.01 h -0.2 c -1.4,0 -2.6,-1.18 -2.6,-2.64 0,-1.43 1.2,-2.64 2.6,-2.64 1.5,0 2.7,1.21 2.7,2.64 z"
           inkscape:connector-curvature="0"
           style="fill:#000000;stroke-width:0" /><path
           id="path2066"
           d="m 1374.6,378.49 0.5,0.51 0.4,0.5 0.4,0.51 0.3,0.5 0.4,0.5 0.3,0.5 0.3,0.49 0.3,0.48 0.3,0.48 0.3,0.47 0.2,0.47 0.2,0.45 0.2,0.44 0.2,0.43 0.2,0.41 0.2,0.4 0.1,0.39 0.2,0.37 0.1,0.35 0.1,0.33 0.1,0.32 0.1,0.29 0.1,0.27 0.1,0.25 v 0.23 l 0.1,0.2 v 0.17 l 0.1,0.15 v 0.12 0.09 0.06 0.03 c 0,0.7 -0.7,0.7 -1.2,0.7 -0.9,0 -1,-0.11 -1.2,-1.05 -1,-3.34 -2.5,-6.07 -3.6,-7.62 0,2.39 -0.1,5.33 -2.7,8.02 -2.6,2.64 -5.9,3.14 -8.2,3.14 l -0.1,-1.8 c 4.7,0 5.2,-5.47 5.4,-10.36 0.1,-1.23 0.3,-3.44 0.3,-4.63 0,-0.6 -3.1,-2.34 -4.3,-2.89 -3,-1.29 -5.2,-1.45 -6.4,-1.45 v 0 c -2.8,0 -4.8,1.34 -4.8,4.64 0,1.64 1.1,7.17 2.6,10.06 1.6,3.19 4.7,4.63 7.2,4.63 l 0.1,1.8 c -10.2,0 -15.7,-7.88 -15.7,-14.3 0,-5.49 4.1,-8.63 10.4,-8.63 4.7,0 8.8,2.05 11.5,3.94 0.9,-2.09 2.9,-3.94 5.9,-3.94 3.3,0 5,2.3 5,3.35 0,0.7 -0.7,0.7 -1.1,0.7 -0.7,0 -0.9,0 -1.2,-0.66 -0.6,-1.43 -2.2,-1.59 -2.3,-1.59 -1.2,0 -1.4,5.78 -1.4,6.78 z"
           inkscape:connector-curvature="0"
           style="fill:#000000;stroke-width:0" /><polyline
           id="polyline2068"
           points="1118,348 1383.1,348 1383.1,350.04 1118,350.04 "
           style="fill:#000000;fill-rule:nonzero;stroke-width:0" /><path
           id="path2070"
           d="m 1225.9,320.59 v 0.07 l 0.1,0.07 v 0.07 0.06 0.06 0.06 0.06 0.06 l 0.1,0.05 v 0.05 0.05 0.04 0.05 0.04 0.04 0.04 0.03 0.04 0.03 0.03 0.03 0.03 0.03 0.03 0.02 0.03 0.02 0.02 0.04 0.04 c 0,1.6 -1.3,2.19 -2.3,2.19 -1,0 -1.9,-0.45 -2.6,-1.19 -0.6,0.74 -2.3,2.03 -5.2,2.03 l 0.1,-1.79 c 3,0 4.1,-2.44 4.1,-2.78 0,-0.1 0,-0.21 -0.1,-0.75 l -2.9,-11.57 c -0.2,-0.68 -0.2,-0.89 -0.8,-1.43 -2.6,-2.39 -5,-2.39 -5.4,-2.39 -2,0 -3.4,1.09 -3.4,3.73 0,2.39 1.6,8.37 2.4,10.22 1.7,4.28 4.6,4.97 6.1,4.97 l -0.1,1.79 c -8.9,0 -14,-7.87 -14,-14.39 0,-5.89 4.4,-8.12 8.7,-8.12 2.6,0 4.6,1 5.5,1.55 -0.3,-1.25 -0.6,-2.5 -1,-3.74 -0.3,-1.45 -0.7,-2.94 -2.4,-4.34 -2.1,-1.74 -3.8,-1.74 -5.1,-1.74 -1.2,0 -2.1,0 -3.4,0.19 1.5,1.05 1.5,2.7 1.5,2.89 0,1.11 -0.8,2.3 -2.4,2.3 -1.7,0 -3.6,-1.39 -3.6,-3.69 0,-3.28 4.4,-3.48 7.9,-3.48 4.5,0 11.4,1.04 12.9,7.01 z"
           inkscape:connector-curvature="0"
           style="fill:#000000;stroke-width:0" /><path
           id="path2072"
           d="m 1249.2,314.85 v 0.14 l -0.1,0.13 v 0.13 0.13 0.13 l -0.1,0.13 v 0.12 0.12 l -0.1,0.11 -0.1,0.12 v 0.11 l -0.1,0.11 -0.1,0.1 v 0.1 l -0.1,0.1 -0.1,0.09 -0.1,0.08 -0.1,0.09 -0.1,0.08 -0.1,0.07 -0.1,0.07 -0.1,0.06 -0.1,0.06 -0.2,0.05 -0.1,0.05 -0.1,0.04 -0.1,0.04 -0.2,0.03 -0.1,0.02 -0.1,0.02 -0.1,0.01 h -0.2 c -1.4,0 -2.6,-1.19 -2.6,-2.64 0,-1.44 1.2,-2.64 2.6,-2.64 1.5,0 2.7,1.2 2.7,2.64 z"
           inkscape:connector-curvature="0"
           style="fill:#000000;stroke-width:0" /><path
           id="path2074"
           d="m 1293.5,310.57 0.5,0.5 0.4,0.51 0.4,0.5 0.3,0.51 0.4,0.5 0.3,0.49 0.3,0.5 0.3,0.48 0.3,0.48 0.2,0.47 0.3,0.46 0.2,0.46 0.2,0.44 0.2,0.42 0.2,0.42 0.2,0.4 0.1,0.39 0.2,0.37 0.1,0.35 0.1,0.33 0.1,0.32 0.1,0.29 0.1,0.27 0.1,0.25 v 0.23 l 0.1,0.2 v 0.17 l 0.1,0.15 v 0.12 0.09 0.06 0.03 c 0,0.7 -0.7,0.7 -1.2,0.7 -0.9,0 -1,-0.11 -1.2,-1.05 -1,-3.34 -2.5,-6.08 -3.6,-7.62 0,2.39 -0.1,5.33 -2.8,8.01 -2.6,2.64 -5.8,3.14 -8.1,3.14 l -0.1,-1.79 c 4.6,0 5.2,-5.47 5.4,-10.36 0.1,-1.24 0.2,-3.44 0.2,-4.63 0,-0.61 -3,-2.34 -4.2,-2.89 -3,-1.29 -5.2,-1.45 -6.4,-1.45 v 0 c -2.8,0 -4.9,1.34 -4.9,4.64 0,1.64 1.2,7.17 2.7,10.06 1.6,3.19 4.7,4.63 7.2,4.63 l 0.1,1.79 c -10.2,0 -15.7,-7.87 -15.7,-14.29 0,-5.49 4.1,-8.63 10.3,-8.63 4.8,0 8.9,2.05 11.5,3.94 0.9,-2.09 3,-3.94 6,-3.94 3.3,0 5,2.3 5,3.35 0,0.7 -0.7,0.7 -1.1,0.7 -0.7,0 -0.9,0 -1.2,-0.66 -0.6,-1.43 -2.2,-1.59 -2.3,-1.59 -1.3,0 -1.4,5.78 -1.4,6.78 z"
           inkscape:connector-curvature="0"
           style="fill:#000000;stroke-width:0" /><path
           id="path2076"
           d="m 1437.5,352.9 h 0.2 0.1 0.1 l 0.1,0.01 h 0.1 l 0.1,0.01 v 0.01 l 0.1,0.01 0.1,0.01 v 0.01 l 0.1,0.02 0.1,0.02 v 0.02 l 0.1,0.03 0.1,0.02 v 0.03 l 0.1,0.04 v 0.04 l 0.1,0.04 v 0.04 0.05 l 0.1,0.03 v 0.03 0.03 0.03 0.03 0.03 0.03 l 0.1,0.04 v 0.03 0.04 0.04 0.04 0.04 0.04 0.05 0.04 c 0,1 -0.9,1 -1.6,1 h -29.9 c -0.7,0 -1.6,0 -1.6,-1 0,-0.98 0.9,-0.98 1.7,-0.98 z"
           inkscape:connector-curvature="0"
           style="fill:#000000;stroke-width:0" /><path
           id="path2078"
           d="m 1437.6,343.23 v 0 h 0.1 0.1 0.2 v 0.01 h 0.1 l 0.1,0.01 v 0.01 l 0.1,0.01 0.1,0.01 v 0.01 l 0.1,0.02 0.1,0.02 v 0.02 l 0.1,0.03 0.1,0.02 v 0.04 l 0.1,0.03 v 0.04 l 0.1,0.04 v 0.05 0.02 0.03 l 0.1,0.03 v 0.02 0.03 0.03 0.03 0.04 0.03 l 0.1,0.04 v 0.03 0.04 0.04 0.04 0.04 0.05 0.04 0.05 c 0,1 -0.9,1 -1.7,1 h -29.7 c -0.8,0 -1.7,0 -1.7,-1 0,-1 0.9,-1 1.6,-1 z"
           inkscape:connector-curvature="0"
           style="fill:#000000;stroke-width:0" /><path
           id="path2080"
           d="m 1478.3,378.29 v 0.02 0.03 0.01 0.02 0.01 0.02 0.01 0.02 0.02 0.02 0.02 l -0.1,0.03 v 0.02 0.03 0.03 0.03 l -0.1,0.03 v 0.04 0.02 0.02 0.02 l -0.1,0.02 v 0.02 0.02 0.03 0.02 l -0.1,0.03 v 0.02 0.03 0.03 l -0.1,0.03 v 0.02 0.03 0.04 l -0.1,0.03 v 0.03 0.03 l -0.1,0.04 v 0.04 0.03 l -0.1,0.04 v 0.04 c -6.2,6.28 -7.8,15.69 -7.8,23.31 0,8.67 1.9,17.35 8,23.56 0.6,0.61 0.6,0.71 0.6,0.86 0,0.35 -0.2,0.49 -0.5,0.49 -0.5,0 -4.9,-3.38 -7.9,-9.71 -2.5,-5.48 -3.1,-11.01 -3.1,-15.2 0,-3.89 0.5,-9.9 3.3,-15.55 2.9,-6.12 7.2,-9.35 7.7,-9.35 0.3,0 0.5,0.14 0.5,0.5 z"
           inkscape:connector-curvature="0"
           style="fill:#000000;stroke-width:0" /><path
           id="path2082"
           d="m 1500.9,421.38 v 0.09 0.08 0.09 0.09 0.08 0.08 l -0.1,0.08 v 0.09 0.07 l -0.1,0.08 v 0.08 0.07 l -0.1,0.07 v 0.07 l -0.1,0.07 -0.1,0.06 v 0.06 l -0.1,0.06 -0.1,0.05 v 0.05 l -0.1,0.05 -0.1,0.05 -0.1,0.04 -0.1,0.04 v 0.03 l -0.1,0.03 -0.1,0.03 -0.1,0.02 -0.1,0.01 -0.1,0.02 h -0.1 l -0.1,0.01 c -1.2,0 -2.7,-1.16 -2.7,-2.64 0,-1 0.7,-1.8 1.9,-1.8 1.3,0 2.6,1.3 2.6,2.64 z"
           inkscape:connector-curvature="0"
           style="fill:#000000;stroke-width:0" /><path
           id="path2084"
           d="m 1490.9,387.75 -0.1,-0.35 -0.1,-0.35 -0.1,-0.34 -0.1,-0.33 -0.1,-0.33 -0.2,-0.32 -0.1,-0.31 -0.1,-0.31 -0.2,-0.29 -0.2,-0.29 -0.1,-0.28 -0.2,-0.27 -0.2,-0.25 -0.2,-0.25 -0.2,-0.24 -0.2,-0.23 -0.2,-0.22 -0.2,-0.2 -0.2,-0.2 -0.2,-0.18 -0.2,-0.17 -0.2,-0.15 -0.3,-0.14 -0.2,-0.13 -0.2,-0.12 -0.3,-0.1 -0.2,-0.09 -0.3,-0.07 -0.2,-0.05 -0.3,-0.04 -0.2,-0.03 -0.3,-0.01 c -0.3,0 -1,0 -2,0.46 1.5,0.36 2.3,1.64 2.3,2.64 0,0.79 -0.5,1.75 -1.9,1.75 -1.3,0 -2.7,-1.05 -2.7,-2.85 0,-2 2,-3.09 4.4,-3.09 3.5,0 8.1,2.64 9.4,7.58 l 4.5,18.23 c 0.3,1 0.3,1.69 0.3,1.85 0,2.84 -2.1,4.57 -4.6,4.57 -5.1,0 -7.9,-7.21 -7.9,-7.67 0,-0.5 0.5,-0.5 0.6,-0.5 0.4,0 0.5,0.06 0.9,1 1.2,3.05 3.5,6.08 6.3,6.08 0.7,0 1.5,-0.2 1.5,-2.28 0,-1.16 -0.1,-1.7 -0.3,-2.55 z"
           inkscape:connector-curvature="0"
           style="fill:#000000;stroke-width:0" /><path
           id="path2086"
           d="m 1533.7,398.41 0.4,0.5 0.4,0.51 0.4,0.5 0.3,0.51 0.4,0.5 0.3,0.49 0.3,0.5 0.3,0.48 0.3,0.48 0.3,0.47 0.2,0.46 0.2,0.45 0.3,0.45 0.1,0.42 0.2,0.42 0.2,0.4 0.2,0.39 0.1,0.37 0.1,0.35 0.1,0.33 0.1,0.32 0.1,0.29 0.1,0.27 0.1,0.25 v 0.22 l 0.1,0.21 v 0.17 l 0.1,0.15 v 0.12 0.09 0.06 0.03 c 0,0.7 -0.7,0.7 -1.2,0.7 -0.9,0 -1,-0.11 -1.2,-1.05 -1,-3.34 -2.4,-6.08 -3.6,-7.62 0,2.39 -0.1,5.33 -2.7,8.01 -2.6,2.64 -5.9,3.14 -8.2,3.14 l -0.1,-1.79 c 4.7,0 5.2,-5.47 5.4,-10.36 0.1,-1.24 0.3,-3.44 0.3,-4.63 0,-0.61 -3.1,-2.34 -4.3,-2.89 -3,-1.29 -5.2,-1.45 -6.4,-1.45 v 0 c -2.8,0 -4.8,1.34 -4.8,4.64 0,1.64 1.1,7.17 2.6,10.06 1.6,3.19 4.7,4.63 7.2,4.63 l 0.1,1.79 c -10.2,0 -15.7,-7.87 -15.7,-14.29 0,-5.49 4.1,-8.63 10.4,-8.63 4.7,0 8.8,2.05 11.5,3.94 0.9,-2.09 2.9,-3.94 6,-3.94 3.2,0 4.9,2.3 4.9,3.35 0,0.7 -0.7,0.7 -1.1,0.7 -0.7,0 -0.9,0 -1.2,-0.66 -0.6,-1.43 -2.2,-1.59 -2.3,-1.59 -1.2,0 -1.3,5.78 -1.3,6.78 z"
           inkscape:connector-curvature="0"
           style="fill:#000000;stroke-width:0" /><path
           id="path2088"
           d="m 1573.9,401.69 h 13.9 c 0.7,0 1.6,0 1.6,1 0,1 -0.9,1 -1.6,1 h -13.9 v 13.95 c 0,0.69 0,1.65 -1,1.65 -1,0 -1,-0.96 -1,-1.65 v -13.95 h -14 c -0.6,0 -1.6,0 -1.6,-1 0,-1 1,-1 1.6,-1 h 14 v -13.94 c 0,-0.7 0,-1.65 1,-1.65 1,0 1,0.95 1,1.65 z"
           inkscape:connector-curvature="0"
           style="fill:#000000;stroke-width:0" /><path
           id="path2090"
           d="m 1624,455.73 v 0.05 0.06 0.05 0.05 0.05 0.05 0.04 0.05 0.04 0.04 0.04 0.04 0.04 l -0.1,0.03 v 0.04 0.03 0.07 0.06 0.05 0.05 0.05 0.04 l -0.1,0.04 v 0.03 0.04 0.02 l -0.1,0.03 v 0.02 l -0.1,0.02 v 0.01 0.01 0 l -0.1,0.01 v 0.01 0 l -0.1,0.01 v 0 0.01 h -0.1 v 0 0.01 h -0.1 v 0 0 h -0.1 v 0 l -0.1,0.01 v 0 h -0.1 v 0 h -0.1 c -3.1,-3.19 -7.5,-3.19 -9,-3.19 v -1.55 c 1,0 3.9,0 6.5,1.3 v -25.81 c 0,-1.8 -0.2,-2.39 -4.6,-2.39 h -1.6 v -1.55 c 1.7,0.16 6,0.16 8,0.16 2,0 6.3,0 8.1,-0.16 v 1.55 h -1.6 c -4.5,0 -4.6,0.54 -4.6,2.39 z"
           inkscape:connector-curvature="0"
           style="fill:#000000;stroke-width:0" /><polyline
           id="polyline2092"
           points="1609,402 1634,402 1634,404.04 1609,404.04 "
           style="fill:#000000;fill-rule:nonzero;stroke-width:0" /><path
           id="path2094"
           d="m 1615.7,359.88 5.2,5.13 c 7.8,6.87 10.8,9.56 10.8,14.54 0,5.69 -4.5,9.68 -10.6,9.68 -5.6,0 -9.3,-4.6 -9.3,-9.03 0,-2.79 2.5,-2.79 2.6,-2.79 0.9,0 2.6,0.6 2.6,2.64 0,1.3 -0.8,2.6 -2.6,2.6 -0.4,0 -0.5,0 -0.6,-0.05 1.1,3.24 3.8,5.08 6.7,5.08 4.5,0 6.7,-4.05 6.7,-8.13 0,-3.98 -2.5,-7.92 -5.3,-11.01 l -9.5,-10.66 c -0.6,-0.54 -0.6,-0.64 -0.6,-1.84 h 18.5 l 1.4,8.67 h -1.3 c -0.2,-1.5 -0.6,-3.69 -1.1,-4.44 -0.3,-0.39 -3.6,-0.39 -4.7,-0.39 z"
           inkscape:connector-curvature="0"
           style="fill:#000000;stroke-width:0" /><path
           id="path2096"
           d="m 1669.3,398.41 0.4,0.5 0.4,0.51 0.4,0.5 0.3,0.51 0.4,0.5 0.3,0.49 0.3,0.5 0.3,0.48 0.3,0.48 0.3,0.47 0.2,0.46 0.2,0.45 0.3,0.45 0.2,0.42 0.1,0.42 0.2,0.4 0.2,0.39 0.1,0.37 0.1,0.35 0.1,0.33 0.1,0.32 0.1,0.29 0.1,0.27 0.1,0.25 0.1,0.22 v 0.21 0.17 l 0.1,0.15 v 0.12 0.09 0.06 0.03 c 0,0.7 -0.7,0.7 -1.2,0.7 -0.9,0 -1,-0.11 -1.2,-1.05 -1,-3.34 -2.4,-6.08 -3.5,-7.62 -0.1,2.39 -0.1,5.33 -2.8,8.01 -2.6,2.64 -5.9,3.14 -8.2,3.14 v -1.79 c 4.6,0 5.1,-5.47 5.3,-10.36 0.1,-1.24 0.3,-3.44 0.3,-4.63 0,-0.61 -3.1,-2.34 -4.3,-2.89 -3,-1.29 -5.2,-1.45 -6.4,-1.45 v 0 c -2.8,0 -4.8,1.34 -4.8,4.64 0,1.64 1.1,7.17 2.6,10.06 1.6,3.19 4.7,4.63 7.3,4.63 v 1.79 c -10.2,0 -15.6,-7.87 -15.6,-14.29 0,-5.49 4,-8.63 10.3,-8.63 4.8,0 8.8,2.05 11.5,3.94 0.9,-2.09 2.9,-3.94 6,-3.94 3.2,0 4.9,2.3 4.9,3.35 0,0.7 -0.7,0.7 -1.1,0.7 -0.7,0 -0.9,0 -1.2,-0.66 -0.6,-1.43 -2.2,-1.59 -2.3,-1.59 -1.2,0 -1.3,5.78 -1.3,6.78 z"
           inkscape:connector-curvature="0"
           style="fill:#000000;stroke-width:0" /><path
           id="path2098"
           d="m 1692.5,402.69 v 0.37 0.39 0.39 l -0.1,0.41 v 0.84 l -0.1,0.88 v 0.92 l -0.1,0.95 -0.2,0.97 -0.1,1 -0.2,1.03 -0.3,1.03 -0.2,1.05 -0.3,1.06 -0.4,1.07 -0.4,1.06 -0.2,0.54 -0.2,0.53 -0.3,0.53 -0.2,0.53 c -3,6.12 -7.3,9.36 -7.8,9.36 -0.3,0 -0.5,-0.19 -0.5,-0.49 0,-0.15 0,-0.25 1,-1.15 4.9,-4.92 7.7,-12.85 7.7,-23.27 0,-8.51 -1.8,-17.28 -8,-23.56 -0.7,-0.59 -0.7,-0.7 -0.7,-0.84 0,-0.3 0.2,-0.5 0.5,-0.5 0.5,0 5,3.39 7.9,9.71 2.6,5.47 3.2,11 3.2,15.19 z"
           inkscape:connector-curvature="0"
           style="fill:#000000;stroke-width:0" /><path
           id="path2100"
           d="m 1718.1,402.69 v 0.14 0.13 0.13 0.13 l -0.1,0.13 v 0.12 0.13 l -0.1,0.12 v 0.11 l -0.1,0.12 -0.1,0.11 v 0.11 l -0.1,0.1 -0.1,0.1 -0.1,0.09 -0.1,0.1 v 0.08 l -0.1,0.09 -0.1,0.08 -0.1,0.07 -0.2,0.07 -0.1,0.06 -0.1,0.06 -0.1,0.05 -0.1,0.05 -0.1,0.04 -0.2,0.04 -0.1,0.03 -0.1,0.02 -0.2,0.02 -0.1,0.01 h -0.1 c -1.5,0 -2.7,-1.19 -2.7,-2.64 0,-1.44 1.2,-2.64 2.7,-2.64 1.4,0 2.6,1.2 2.6,2.64 z"
           inkscape:connector-curvature="0"
           style="fill:#000000;stroke-width:0" /><path
           id="path2102"
           d="m 1762.5,398.41 0.4,0.5 0.4,0.51 0.4,0.5 0.4,0.51 0.3,0.5 0.4,0.49 0.3,0.5 0.3,0.48 0.2,0.48 0.3,0.47 0.2,0.46 0.3,0.45 0.2,0.45 0.2,0.42 0.2,0.42 0.1,0.4 0.2,0.39 0.1,0.37 0.2,0.35 0.1,0.33 0.1,0.32 0.1,0.29 0.1,0.27 v 0.25 l 0.1,0.22 v 0.21 l 0.1,0.17 v 0.15 0.12 l 0.1,0.09 v 0.06 0.03 c 0,0.7 -0.8,0.7 -1.2,0.7 -1,0 -1,-0.11 -1.3,-1.05 -0.9,-3.34 -2.4,-6.08 -3.5,-7.62 -0.1,2.39 -0.1,5.33 -2.8,8.01 -2.6,2.64 -5.8,3.14 -8.2,3.14 v -1.79 c 4.6,0 5.1,-5.47 5.4,-10.36 0,-1.24 0.2,-3.44 0.2,-4.63 0,-0.61 -3,-2.34 -4.3,-2.89 -3,-1.29 -5.2,-1.45 -6.3,-1.45 v 0 c -2.9,0 -4.9,1.34 -4.9,4.64 0,1.64 1.2,7.17 2.7,10.06 1.5,3.19 4.6,4.63 7.2,4.63 v 1.79 c -10.1,0 -15.6,-7.87 -15.6,-14.29 0,-5.49 4.1,-8.63 10.3,-8.63 4.8,0 8.9,2.05 11.5,3.94 0.9,-2.09 2.9,-3.94 6,-3.94 3.3,0 5,2.3 5,3.35 0,0.7 -0.7,0.7 -1.2,0.7 -0.6,0 -0.9,0 -1.1,-0.66 -0.6,-1.43 -2.3,-1.59 -2.4,-1.59 -1.2,0 -1.3,5.78 -1.3,6.78 z"
           inkscape:connector-curvature="0"
           style="fill:#000000;stroke-width:0" /><polyline
           id="polyline2104"
           points="1462,348 1771.6,348 1771.6,350.04 1462,350.04 "
           style="fill:#000000;fill-rule:nonzero;stroke-width:0" /><path
           id="path2106"
           d="m 1562.9,341.85 v 0.06 0.05 0.05 0.05 0.05 0.05 0.04 0.05 0.04 0.04 0.04 0.04 0.04 0.04 0.03 0.04 0.06 l -0.1,0.06 v 0.05 0.05 0.05 0.04 0.04 l -0.1,0.04 v 0.03 0.02 l -0.1,0.03 v 0.02 0.02 l -0.1,0.01 v 0.01 0 0.01 l -0.1,0.01 v 0 0.01 h -0.1 v 0.01 0 h -0.1 v 0.01 0 h -0.1 v 0 h -0.1 v 0.01 h -0.1 v 0 h -0.1 v 0 h -0.1 c -3.1,-3.19 -7.4,-3.19 -9,-3.19 v -1.55 c 1,0 3.9,0 6.5,1.3 V 313.9 c 0,-1.8 -0.1,-2.39 -4.6,-2.39 h -1.6 v -1.55 c 1.7,0.16 6.1,0.16 8,0.16 2,0 6.4,0 8.1,-0.16 v 1.55 h -1.6 c -4.5,0 -4.6,0.54 -4.6,2.39 z"
           inkscape:connector-curvature="0"
           style="fill:#000000;stroke-width:0" /><polyline
           id="polyline2108"
           points="1548,288 1573,288 1573,290.04 1548,290.04 "
           style="fill:#000000;fill-rule:nonzero;stroke-width:0" /><path
           id="path2110"
           d="m 1554.6,246 5.2,5.13 c 7.8,6.87 10.8,9.56 10.8,14.55 0,5.68 -4.5,9.67 -10.5,9.67 -5.7,0 -9.4,-4.6 -9.4,-9.03 0,-2.78 2.5,-2.78 2.7,-2.78 0.8,0 2.6,0.59 2.6,2.64 0,1.29 -0.9,2.59 -2.7,2.59 -0.4,0 -0.5,0 -0.6,-0.05 1.1,3.24 3.8,5.08 6.7,5.08 4.5,0 6.7,-4.05 6.7,-8.12 0,-3.99 -2.5,-7.93 -5.3,-11.02 L 1551.3,244 c -0.6,-0.54 -0.6,-0.64 -0.6,-1.84 h 18.5 l 1.4,8.67 h -1.2 c -0.3,-1.5 -0.6,-3.68 -1.1,-4.43 -0.4,-0.4 -3.7,-0.4 -4.8,-0.4 z"
           inkscape:connector-curvature="0"
           style="fill:#000000;stroke-width:0" /><path
           id="path2112"
           d="m 1608.3,284.41 0.4,0.5 0.4,0.51 0.4,0.5 0.4,0.51 0.3,0.5 0.4,0.49 0.3,0.5 0.3,0.48 0.2,0.48 0.3,0.47 0.3,0.46 0.2,0.45 0.2,0.45 0.2,0.42 0.2,0.42 0.1,0.4 0.2,0.39 0.1,0.37 0.2,0.35 0.1,0.33 0.1,0.32 0.1,0.29 0.1,0.27 v 0.25 l 0.1,0.22 v 0.21 l 0.1,0.17 v 0.15 0.12 l 0.1,0.09 v 0.06 0.03 c 0,0.7 -0.8,0.7 -1.2,0.7 -1,0 -1,-0.11 -1.3,-1.05 -0.9,-3.34 -2.4,-6.08 -3.5,-7.62 -0.1,2.39 -0.1,5.33 -2.8,8.01 -2.6,2.64 -5.8,3.14 -8.2,3.14 v -1.79 c 4.6,0 5.2,-5.47 5.4,-10.36 0,-1.24 0.2,-3.44 0.2,-4.63 0,-0.61 -3,-2.34 -4.3,-2.89 -3,-1.29 -5.1,-1.45 -6.3,-1.45 v 0 c -2.8,0 -4.9,1.34 -4.9,4.64 0,1.64 1.2,7.17 2.7,10.06 1.5,3.19 4.6,4.63 7.2,4.63 v 1.79 c -10.1,0 -15.6,-7.87 -15.6,-14.29 0,-5.49 4.1,-8.63 10.3,-8.63 4.8,0 8.9,2.05 11.5,3.94 0.9,-2.09 3,-3.94 6,-3.94 3.3,0 5,2.3 5,3.35 0,0.7 -0.7,0.7 -1.2,0.7 -0.6,0 -0.9,0 -1.1,-0.66 -0.6,-1.43 -2.2,-1.59 -2.4,-1.59 -1.2,0 -1.3,5.78 -1.3,6.78 z"
           inkscape:connector-curvature="0"
           style="fill:#000000;stroke-width:0" /><path
           id="path2114"
           d="m 1637.7,288.69 v 0.14 0.13 0.13 0.13 l -0.1,0.13 v 0.12 0.13 l -0.1,0.12 v 0.11 l -0.1,0.12 -0.1,0.11 v 0.11 l -0.1,0.1 -0.1,0.1 -0.1,0.09 -0.1,0.1 v 0.08 l -0.1,0.09 -0.1,0.08 -0.1,0.07 -0.2,0.07 -0.1,0.06 -0.1,0.06 -0.1,0.05 -0.1,0.05 -0.1,0.04 -0.2,0.04 -0.1,0.03 -0.1,0.02 -0.2,0.02 -0.1,0.01 h -0.1 c -1.5,0 -2.7,-1.19 -2.7,-2.64 0,-1.44 1.2,-2.64 2.7,-2.64 1.4,0 2.6,1.2 2.6,2.64 z"
           inkscape:connector-curvature="0"
           style="fill:#000000;stroke-width:0" /><path
           id="path2116"
           d="m 1682.1,284.41 0.4,0.5 0.4,0.51 0.4,0.5 0.4,0.51 0.3,0.5 0.4,0.49 0.3,0.5 0.3,0.48 0.2,0.48 0.3,0.47 0.3,0.46 0.2,0.45 0.2,0.45 0.2,0.42 0.2,0.42 0.1,0.4 0.2,0.39 0.1,0.37 0.2,0.35 0.1,0.33 0.1,0.32 0.1,0.29 0.1,0.27 v 0.25 l 0.1,0.22 v 0.21 l 0.1,0.17 v 0.15 0.12 l 0.1,0.09 v 0.06 0.03 c 0,0.7 -0.8,0.7 -1.2,0.7 -1,0 -1,-0.11 -1.3,-1.05 -0.9,-3.34 -2.4,-6.08 -3.5,-7.62 -0.1,2.39 -0.1,5.33 -2.8,8.01 -2.6,2.64 -5.8,3.14 -8.2,3.14 v -1.79 c 4.6,0 5.2,-5.47 5.4,-10.36 0,-1.24 0.2,-3.44 0.2,-4.63 0,-0.61 -3,-2.34 -4.3,-2.89 -3,-1.29 -5.2,-1.45 -6.3,-1.45 v 0 c -2.8,0 -4.9,1.34 -4.9,4.64 0,1.64 1.2,7.17 2.7,10.06 1.6,3.19 4.6,4.63 7.2,4.63 v 1.79 c -10.1,0 -15.6,-7.87 -15.6,-14.29 0,-5.49 4.1,-8.63 10.3,-8.63 4.8,0 8.9,2.05 11.5,3.94 0.9,-2.09 2.9,-3.94 6,-3.94 3.3,0 5,2.3 5,3.35 0,0.7 -0.7,0.7 -1.2,0.7 -0.6,0 -0.9,0 -1.1,-0.66 -0.6,-1.43 -2.3,-1.59 -2.4,-1.59 -1.2,0 -1.3,5.78 -1.3,6.78 z"
           inkscape:connector-curvature="0"
           style="fill:#000000;stroke-width:0" /><path
           id="path2118"
           d="m 1825.4,352.9 h 0.1 0.1 0.2 l 0.1,0.01 v 0 l 0.1,0.01 0.1,0.01 v 0.01 l 0.1,0.01 0.1,0.01 v 0.02 l 0.1,0.02 0.1,0.02 v 0.03 l 0.1,0.02 v 0.03 l 0.1,0.04 0.1,0.04 v 0.04 0.04 l 0.1,0.05 v 0.03 0.03 0.03 0.03 l 0.1,0.03 v 0.03 0.03 0.04 0.03 0.04 0.04 0.04 0.04 0.04 0.05 0.04 c 0,1 -0.9,1 -1.6,1 h -29.8 c -0.7,0 -1.7,0 -1.7,-1 0,-0.98 1,-0.98 1.7,-0.98 z"
           inkscape:connector-curvature="0"
           style="fill:#000000;stroke-width:0" /><path
           id="path2120"
           d="m 1825.4,343.23 h 0.1 v 0 h 0.2 0.1 l 0.1,0.01 v 0 l 0.1,0.01 0.1,0.01 0.1,0.01 v 0.01 l 0.1,0.01 0.1,0.02 v 0.02 l 0.1,0.02 v 0.03 l 0.1,0.02 0.1,0.04 v 0.03 l 0.1,0.04 v 0.04 0.05 l 0.1,0.02 v 0.03 0.03 0.02 0.03 0.03 l 0.1,0.03 v 0.04 0.03 0.04 0.03 0.04 0.04 0.04 0.04 0.05 0.04 0.05 c 0,1 -0.9,1 -1.6,1 h -29.8 c -0.7,0 -1.7,0 -1.7,-1 0,-1 1,-1 1.7,-1 z"
           inkscape:connector-curvature="0"
           style="fill:#000000;stroke-width:0" /><path
           id="path2122"
           d="m 1850,340.45 5.3,5.12 c 7.8,6.88 10.8,9.56 10.8,14.55 0,5.68 -4.5,9.67 -10.6,9.67 -5.7,0 -9.3,-4.59 -9.3,-9.03 0,-2.78 2.5,-2.78 2.6,-2.78 0.9,0 2.6,0.59 2.6,2.64 0,1.29 -0.9,2.59 -2.6,2.59 -0.4,0 -0.5,0 -0.7,-0.05 1.2,3.24 3.8,5.08 6.7,5.08 4.6,0 6.7,-4.04 6.7,-8.12 0,-3.99 -2.5,-7.92 -5.2,-11.02 l -9.6,-10.65 c -0.5,-0.55 -0.5,-0.65 -0.5,-1.85 h 18.5 l 1.4,8.67 h -1.3 c -0.2,-1.5 -0.6,-3.68 -1.1,-4.43 -0.4,-0.39 -3.6,-0.39 -4.7,-0.39 z"
           inkscape:connector-curvature="0"
           style="fill:#000000;stroke-width:0" /><path
           id="path2124"
           d="m 1888.4,367.74 v 0.09 0.09 0.08 0.09 0.08 l -0.1,0.09 v 0.08 0.08 0.08 l -0.1,0.07 v 0.08 l -0.1,0.07 v 0.07 l -0.1,0.07 v 0.07 l -0.1,0.06 v 0.06 l -0.1,0.06 -0.1,0.06 -0.1,0.05 v 0.05 l -0.1,0.04 -0.1,0.04 -0.1,0.04 -0.1,0.03 -0.1,0.03 -0.1,0.03 v 0.02 l -0.2,0.02 -0.1,0.01 -0.1,0.01 h -0.1 c -1.1,0 -2.6,-1.16 -2.6,-2.64 0,-1 0.7,-1.8 1.8,-1.8 1.4,0 2.7,1.3 2.7,2.64 z"
           inkscape:connector-curvature="0"
           style="fill:#000000;stroke-width:0" /><path
           id="path2126"
           d="m 1878.4,334.12 -0.1,-0.36 -0.1,-0.34 -0.1,-0.34 -0.1,-0.34 -0.1,-0.33 -0.2,-0.32 -0.1,-0.31 -0.2,-0.3 -0.1,-0.3 -0.2,-0.29 -0.1,-0.27 -0.2,-0.27 -0.2,-0.26 -0.2,-0.25 -0.2,-0.24 -0.2,-0.23 -0.2,-0.21 -0.2,-0.21 -0.2,-0.19 -0.2,-0.18 -0.2,-0.17 -0.3,-0.16 -0.2,-0.14 -0.2,-0.13 -0.3,-0.11 -0.2,-0.11 -0.2,-0.08 -0.3,-0.07 -0.2,-0.06 -0.3,-0.04 -0.3,-0.02 -0.2,-0.01 c -0.3,0 -1.1,0 -2,0.45 1.5,0.36 2.3,1.64 2.3,2.64 0,0.8 -0.6,1.75 -1.9,1.75 -1.3,0 -2.7,-1.05 -2.7,-2.84 0,-2 2,-3.1 4.4,-3.1 3.5,0 8.1,2.64 9.4,7.58 l 4.5,18.24 c 0.3,1 0.3,1.68 0.3,1.84 0,2.84 -2.1,4.58 -4.6,4.58 -5.1,0 -7.9,-7.22 -7.9,-7.67 0,-0.5 0.5,-0.5 0.6,-0.5 0.4,0 0.5,0.06 0.9,1 1.2,3.04 3.5,6.07 6.2,6.07 0.7,0 1.6,-0.2 1.6,-2.28 0,-1.15 -0.1,-1.7 -0.3,-2.54 z"
           inkscape:connector-curvature="0"
           style="fill:#000000;stroke-width:0" /><path
           id="path2128"
           d="m 1923.4,348.05 h 14 c 0.6,0 1.6,0 1.6,1 0,1 -1,1 -1.6,1 h -14 v 13.96 c 0,0.69 0,1.64 -1,1.64 -0.9,0 -0.9,-0.95 -0.9,-1.64 v -13.96 h -14 c -0.7,0 -1.6,0 -1.6,-1 0,-1 0.9,-1 1.6,-1 h 14 v -13.93 c 0,-0.71 0,-1.66 0.9,-1.66 1,0 1,0.95 1,1.66 z"
           inkscape:connector-curvature="0"
           style="fill:#000000;stroke-width:0" /><path
           id="path2130"
           d="m 1967.5,368.49 v 0.06 0.05 0.05 0.05 0.05 0.05 0.04 0.05 0.04 0.04 0.04 0.04 0.04 0.04 0.03 0.04 0.06 0.06 0.05 l -0.1,0.05 v 0.05 0.04 0.04 0.04 l -0.1,0.03 v 0.03 0.02 l -0.1,0.02 v 0.02 0.01 l -0.1,0.01 v 0 0.01 0.01 h -0.1 v 0.01 0 l -0.1,0.01 v 0 0 l -0.1,0.01 v 0 h -0.1 v 0 0.01 h -0.1 v 0 h -0.1 v 0 h -0.1 v 0 c -3.1,-3.19 -7.5,-3.19 -9.1,-3.19 v -1.55 c 1,0 4,0 6.5,1.3 v -25.81 c 0,-1.8 -0.1,-2.39 -4.6,-2.39 h -1.6 v -1.55 c 1.8,0.16 6.1,0.16 8.1,0.16 2,0 6.3,0 8.1,-0.16 v 1.55 h -1.6 c -4.5,0 -4.7,0.55 -4.7,2.39 z"
           inkscape:connector-curvature="0"
           style="fill:#000000;stroke-width:0" /></g>    </g>
    <text
       xml:space="preserve"
       style="font-style:italic;font-variant:normal;font-weight:normal;font-stretch:normal;font-size:7.53496599px;line-height:1.25;font-family:Georgia;-inkscape-font-specification:'Georgia, Italic';font-variant-ligatures:normal;font-variant-caps:normal;font-variant-numeric:normal;font-feature-settings:normal;text-align:start;letter-spacing:0px;word-spacing:0px;writing-mode:lr-tb;text-anchor:start;fill:#000000;fill-opacity:1;stroke:none;stroke-width:0.18837415"
       x="78.206497"
       y="27.712383"
       id="text2207"
       transform="scale(0.94800854,1.0548428)"><tspan
         sodipodi:role="line"
         id="tspan2205"
         x="78.206497"
         y="27.712383"
         style="stroke-width:0.18837415"></tspan></text>
    <text
       xml:space="preserve"
       style="font-style:italic;font-variant:normal;font-weight:normal;font-stretch:normal;font-size:7.67627096px;line-height:1.25;font-family:Georgia;-inkscape-font-specification:'Georgia, Italic';font-variant-ligatures:normal;font-variant-caps:normal;font-variant-numeric:normal;font-feature-settings:normal;text-align:start;letter-spacing:0px;word-spacing:0px;writing-mode:lr-tb;text-anchor:start;fill:#000000;fill-opacity:1;stroke:none;stroke-width:0.19190677"
       x="9.809866"
       y="57.882488"
       id="text2211"
       transform="scale(1.0175023,0.98279874)"><tspan
         sodipodi:role="line"
         id="tspan2209"
         x="9.809866"
         y="57.882488"
         style="stroke-width:0.19190677"></tspan></text>
    <rect
       style="fill:none;fill-opacity:1;stroke:#000000;stroke-width:0.90008146;stroke-miterlimit:4;stroke-dasharray:none;stroke-dashoffset:0;stroke-opacity:1"
       id="rect2223"
       width="49.5868"
       height="24.598375"
       x="17.454445"
       y="16.088341" />
    <g
       id="g3193"
       transform="translate(66.880787,-44.832175)">
      <g
         word-spacing="normal"
         letter-spacing="normal"
         font-size-adjust="none"
         font-stretch="normal"
         font-weight="normal"
         font-variant="normal"
         font-style="normal"
         stroke-miterlimit="10.433"
         xml:space="preserve"
         transform="matrix(0.12267048,0,0,-0.12267048,-21.467335,150.48119)"
         id="g3191"
         style="font-style:normal;font-variant:normal;font-weight:normal;font-stretch:normal;letter-spacing:normal;word-spacing:normal;text-anchor:start;fill:none;fill-opacity:1;fill-rule:evenodd;stroke:#000000;stroke-linecap:butt;stroke-linejoin:miter;stroke-miterlimit:10.43299961;stroke-dasharray:none;stroke-dashoffset:0;stroke-opacity:1"><path
           id="path3185"
           d="m 489.75,422.5 h 0.14 0.15 0.14 l 0.07,0.01 h 0.08 l 0.07,0.01 0.07,0.01 0.07,0.01 0.07,0.01 0.07,0.01 0.06,0.02 0.07,0.02 0.06,0.02 0.06,0.02 0.06,0.03 0.06,0.03 0.05,0.04 0.05,0.03 0.05,0.05 0.04,0.04 0.04,0.05 0.02,0.03 0.02,0.03 0.01,0.02 0.02,0.03 0.01,0.03 0.02,0.04 0.01,0.03 0.01,0.04 0.01,0.03 0.01,0.04 v 0.04 l 0.01,0.04 v 0.04 l 0.01,0.04 v 0.04 0.05 c 0,1 -0.95,1 -1.64,1 h -29.84 c -0.71,0 -1.64,0 -1.64,-1 0,-0.98 0.93,-0.98 1.68,-0.98 z"
           inkscape:connector-curvature="0"
           style="fill:#000000;stroke-width:0" /><path
           id="path3187"
           d="m 489.8,412.82 h 0.07 0.06 l 0.14,0.01 h 0.14 0.07 l 0.07,0.01 0.07,0.01 h 0.07 l 0.06,0.01 0.07,0.02 0.07,0.01 0.06,0.02 0.07,0.02 0.06,0.02 0.06,0.02 0.06,0.03 0.05,0.03 0.05,0.04 0.05,0.04 0.05,0.04 0.04,0.05 0.02,0.02 0.02,0.03 0.02,0.02 0.02,0.03 0.01,0.03 0.02,0.03 0.01,0.03 0.02,0.03 0.01,0.04 0.01,0.03 0.01,0.04 0.01,0.04 v 0.04 l 0.01,0.04 v 0.04 l 0.01,0.04 v 0.05 0.04 c 0,1 -0.95,1 -1.69,1 H 460 c -0.75,0 -1.68,0 -1.68,-1 0,-1 0.93,-1 1.64,-1 z"
           inkscape:connector-curvature="0"
           style="fill:#000000;stroke-width:0" /><path
           id="path3189"
           d="m 522.17,422.5 0.4,-0.34 0.4,-0.31 0.41,-0.31 0.42,-0.3 0.42,-0.28 0.42,-0.27 0.42,-0.26 0.41,-0.25 0.41,-0.23 0.41,-0.23 0.39,-0.21 0.38,-0.19 0.37,-0.19 0.36,-0.17 0.17,-0.08 0.17,-0.08 0.16,-0.08 0.16,-0.07 c -1.8,-0.79 -4.23,-2.09 -6.28,-3.83 h -31.64 c -0.85,0 -1.8,0 -1.8,-1 0,-1 0.91,-1 1.75,-1 h 29.44 c -2.39,-2.29 -4.97,-6.67 -4.97,-7.32 0,-0.55 0.64,-0.55 0.94,-0.55 0.4,0 0.75,0 0.95,0.41 1.05,1.89 2.44,4.53 5.67,7.42 3.44,3.03 6.78,4.37 9.38,5.12 0.84,0.3 0.89,0.36 0.98,0.46 0.11,0.04 0.11,0.2 0.11,0.29 0,0.11 0,0.21 -0.05,0.3 l -0.15,0.11 c -0.1,0.05 -0.16,0.09 -1.1,0.39 -6.73,2 -11.7,6.53 -14.5,11.86 -0.54,1 -0.59,1.05 -1.29,1.05 -0.3,0 -0.94,0 -0.94,-0.55 0,-0.66 2.53,-4.99 4.97,-7.33 h -29.44 c -0.84,0 -1.75,0 -1.75,-1 0,-0.98 0.95,-0.98 1.8,-0.98 z"
           inkscape:connector-curvature="0"
           style="fill:#000000;stroke-width:0" /></g>    </g>
  </g>
</svg>
