<?xml version="1.0" encoding="utf-8"?>
<svg xmlns="http://www.w3.org/2000/svg" xmlns:xlink="http://www.w3.org/1999/xlink" width="600" height="400" viewBox="0 0 2400 1600">
<defs>
  <clipPath id="clip910">
    <rect x="0" y="0" width="2400" height="1600"/>
  </clipPath>
</defs>
<path clip-path="url(#clip910)" d="
M0 1600 L2400 1600 L2400 0 L0 0  Z
  " fill="#ffffff" fill-rule="evenodd" fill-opacity="1"/>
<defs>
  <clipPath id="clip911">
    <rect x="480" y="0" width="1681" height="1600"/>
  </clipPath>
</defs>
<path clip-path="url(#clip910)" d="
M238.616 1423.18 L2352.76 1423.18 L2352.76 47.2441 L238.616 47.2441  Z
  " fill="#ffffff" fill-rule="evenodd" fill-opacity="1"/>
<defs>
  <clipPath id="clip912">
    <rect x="238" y="47" width="2115" height="1377"/>
  </clipPath>
</defs>
<polyline clip-path="url(#clip912)" style="stroke:#000000; stroke-width:2; stroke-opacity:0.1; fill:none" points="
  238.616,1423.18 238.616,47.2441 
  "/>
<polyline clip-path="url(#clip912)" style="stroke:#000000; stroke-width:2; stroke-opacity:0.1; fill:none" points="
  661.444,1423.18 661.444,47.2441 
  "/>
<polyline clip-path="url(#clip912)" style="stroke:#000000; stroke-width:2; stroke-opacity:0.1; fill:none" points="
  1084.27,1423.18 1084.27,47.2441 
  "/>
<polyline clip-path="url(#clip912)" style="stroke:#000000; stroke-width:2; stroke-opacity:0.1; fill:none" points="
  1507.1,1423.18 1507.1,47.2441 
  "/>
<polyline clip-path="url(#clip912)" style="stroke:#000000; stroke-width:2; stroke-opacity:0.1; fill:none" points="
  1929.93,1423.18 1929.93,47.2441 
  "/>
<polyline clip-path="url(#clip912)" style="stroke:#000000; stroke-width:2; stroke-opacity:0.1; fill:none" points="
  2352.76,1423.18 2352.76,47.2441 
  "/>
<polyline clip-path="url(#clip910)" style="stroke:#000000; stroke-width:4; stroke-opacity:1; fill:none" points="
  238.616,1423.18 2352.76,1423.18 
  "/>
<polyline clip-path="url(#clip910)" style="stroke:#000000; stroke-width:4; stroke-opacity:1; fill:none" points="
  238.616,1423.18 238.616,1406.67 
  "/>
<polyline clip-path="url(#clip910)" style="stroke:#000000; stroke-width:4; stroke-opacity:1; fill:none" points="
  661.444,1423.18 661.444,1406.67 
  "/>
<polyline clip-path="url(#clip910)" style="stroke:#000000; stroke-width:4; stroke-opacity:1; fill:none" points="
  1084.27,1423.18 1084.27,1406.67 
  "/>
<polyline clip-path="url(#clip910)" style="stroke:#000000; stroke-width:4; stroke-opacity:1; fill:none" points="
  1507.1,1423.18 1507.1,1406.67 
  "/>
<polyline clip-path="url(#clip910)" style="stroke:#000000; stroke-width:4; stroke-opacity:1; fill:none" points="
  1929.93,1423.18 1929.93,1406.67 
  "/>
<polyline clip-path="url(#clip910)" style="stroke:#000000; stroke-width:4; stroke-opacity:1; fill:none" points="
  2352.76,1423.18 2352.76,1406.67 
  "/>
<path clip-path="url(#clip910)" d="M 0 0 M220.132 1452.37 Q216.521 1452.37 214.693 1455.94 Q212.887 1459.48 212.887 1466.61 Q212.887 1473.71 214.693 1477.28 Q216.521 1480.82 220.132 1480.82 Q223.767 1480.82 225.572 1477.28 Q227.401 1473.71 227.401 1466.61 Q227.401 1459.48 225.572 1455.94 Q223.767 1452.37 220.132 1452.37 M220.132 1448.67 Q225.943 1448.67 228.998 1453.27 Q232.077 1457.86 232.077 1466.61 Q232.077 1475.33 228.998 1479.94 Q225.943 1484.52 220.132 1484.52 Q214.322 1484.52 211.244 1479.94 Q208.188 1475.33 208.188 1466.61 Q208.188 1457.86 211.244 1453.27 Q214.322 1448.67 220.132 1448.67 Z" fill="#000000" fill-rule="evenodd" fill-opacity="1" /><path clip-path="url(#clip910)" d="M 0 0 M237.146 1477.97 L242.03 1477.97 L242.03 1483.85 L237.146 1483.85 L237.146 1477.97 Z" fill="#000000" fill-rule="evenodd" fill-opacity="1" /><path clip-path="url(#clip910)" d="M 0 0 M257.1 1452.37 Q253.489 1452.37 251.66 1455.94 Q249.855 1459.48 249.855 1466.61 Q249.855 1473.71 251.66 1477.28 Q253.489 1480.82 257.1 1480.82 Q260.734 1480.82 262.54 1477.28 Q264.368 1473.71 264.368 1466.61 Q264.368 1459.48 262.54 1455.94 Q260.734 1452.37 257.1 1452.37 M257.1 1448.67 Q262.91 1448.67 265.966 1453.27 Q269.044 1457.86 269.044 1466.61 Q269.044 1475.33 265.966 1479.94 Q262.91 1484.52 257.1 1484.52 Q251.29 1484.52 248.211 1479.94 Q245.155 1475.33 245.155 1466.61 Q245.155 1457.86 248.211 1453.27 Q251.29 1448.67 257.1 1448.67 Z" fill="#000000" fill-rule="evenodd" fill-opacity="1" /><path clip-path="url(#clip910)" d="M 0 0 M643.759 1452.37 Q640.148 1452.37 638.319 1455.94 Q636.514 1459.48 636.514 1466.61 Q636.514 1473.71 638.319 1477.28 Q640.148 1480.82 643.759 1480.82 Q647.393 1480.82 649.199 1477.28 Q651.028 1473.71 651.028 1466.61 Q651.028 1459.48 649.199 1455.94 Q647.393 1452.37 643.759 1452.37 M643.759 1448.67 Q649.569 1448.67 652.625 1453.27 Q655.703 1457.86 655.703 1466.61 Q655.703 1475.33 652.625 1479.94 Q649.569 1484.52 643.759 1484.52 Q637.949 1484.52 634.87 1479.94 Q631.815 1475.33 631.815 1466.61 Q631.815 1457.86 634.87 1453.27 Q637.949 1448.67 643.759 1448.67 Z" fill="#000000" fill-rule="evenodd" fill-opacity="1" /><path clip-path="url(#clip910)" d="M 0 0 M660.773 1477.97 L665.657 1477.97 L665.657 1483.85 L660.773 1483.85 L660.773 1477.97 Z" fill="#000000" fill-rule="evenodd" fill-opacity="1" /><path clip-path="url(#clip910)" d="M 0 0 M674.754 1479.92 L691.074 1479.92 L691.074 1483.85 L669.129 1483.85 L669.129 1479.92 Q671.791 1477.16 676.375 1472.53 Q680.981 1467.88 682.162 1466.54 Q684.407 1464.01 685.287 1462.28 Q686.189 1460.52 686.189 1458.83 Q686.189 1456.07 684.245 1454.34 Q682.324 1452.6 679.222 1452.6 Q677.023 1452.6 674.569 1453.37 Q672.139 1454.13 669.361 1455.68 L669.361 1450.96 Q672.185 1449.82 674.638 1449.25 Q677.092 1448.67 679.129 1448.67 Q684.5 1448.67 687.694 1451.35 Q690.888 1454.04 690.888 1458.53 Q690.888 1460.66 690.078 1462.58 Q689.291 1464.48 687.185 1467.07 Q686.606 1467.74 683.504 1470.96 Q680.402 1474.15 674.754 1479.92 Z" fill="#000000" fill-rule="evenodd" fill-opacity="1" /><path clip-path="url(#clip910)" d="M 0 0 M1065.55 1452.37 Q1061.93 1452.37 1060.11 1455.94 Q1058.3 1459.48 1058.3 1466.61 Q1058.3 1473.71 1060.11 1477.28 Q1061.93 1480.82 1065.55 1480.82 Q1069.18 1480.82 1070.99 1477.28 Q1072.81 1473.71 1072.81 1466.61 Q1072.81 1459.48 1070.99 1455.94 Q1069.18 1452.37 1065.55 1452.37 M1065.55 1448.67 Q1071.36 1448.67 1074.41 1453.27 Q1077.49 1457.86 1077.49 1466.61 Q1077.49 1475.33 1074.41 1479.94 Q1071.36 1484.52 1065.55 1484.52 Q1059.74 1484.52 1056.66 1479.94 Q1053.6 1475.33 1053.6 1466.61 Q1053.6 1457.86 1056.66 1453.27 Q1059.74 1448.67 1065.55 1448.67 Z" fill="#000000" fill-rule="evenodd" fill-opacity="1" /><path clip-path="url(#clip910)" d="M 0 0 M1082.56 1477.97 L1087.44 1477.97 L1087.44 1483.85 L1082.56 1483.85 L1082.56 1477.97 Z" fill="#000000" fill-rule="evenodd" fill-opacity="1" /><path clip-path="url(#clip910)" d="M 0 0 M1105.36 1453.37 L1093.55 1471.81 L1105.36 1471.81 L1105.36 1453.37 M1104.13 1449.29 L1110.01 1449.29 L1110.01 1471.81 L1114.94 1471.81 L1114.94 1475.7 L1110.01 1475.7 L1110.01 1483.85 L1105.36 1483.85 L1105.36 1475.7 L1089.76 1475.7 L1089.76 1471.19 L1104.13 1449.29 Z" fill="#000000" fill-rule="evenodd" fill-opacity="1" /><path clip-path="url(#clip910)" d="M 0 0 M1488.54 1452.37 Q1484.92 1452.37 1483.1 1455.94 Q1481.29 1459.48 1481.29 1466.61 Q1481.29 1473.71 1483.1 1477.28 Q1484.92 1480.82 1488.54 1480.82 Q1492.17 1480.82 1493.98 1477.28 Q1495.8 1473.71 1495.8 1466.61 Q1495.8 1459.48 1493.98 1455.94 Q1492.17 1452.37 1488.54 1452.37 M1488.54 1448.67 Q1494.35 1448.67 1497.4 1453.27 Q1500.48 1457.86 1500.48 1466.61 Q1500.48 1475.33 1497.4 1479.94 Q1494.35 1484.52 1488.54 1484.52 Q1482.73 1484.52 1479.65 1479.94 Q1476.59 1475.33 1476.59 1466.61 Q1476.59 1457.86 1479.65 1453.27 Q1482.73 1448.67 1488.54 1448.67 Z" fill="#000000" fill-rule="evenodd" fill-opacity="1" /><path clip-path="url(#clip910)" d="M 0 0 M1505.55 1477.97 L1510.43 1477.97 L1510.43 1483.85 L1505.55 1483.85 L1505.55 1477.97 Z" fill="#000000" fill-rule="evenodd" fill-opacity="1" /><path clip-path="url(#clip910)" d="M 0 0 M1526.08 1464.71 Q1522.93 1464.71 1521.08 1466.86 Q1519.25 1469.01 1519.25 1472.76 Q1519.25 1476.49 1521.08 1478.67 Q1522.93 1480.82 1526.08 1480.82 Q1529.23 1480.82 1531.06 1478.67 Q1532.91 1476.49 1532.91 1472.76 Q1532.91 1469.01 1531.06 1466.86 Q1529.23 1464.71 1526.08 1464.71 M1535.36 1450.06 L1535.36 1454.31 Q1533.6 1453.48 1531.8 1453.04 Q1530.02 1452.6 1528.26 1452.6 Q1523.63 1452.6 1521.17 1455.73 Q1518.74 1458.85 1518.4 1465.17 Q1519.76 1463.16 1521.82 1462.09 Q1523.88 1461 1526.36 1461 Q1531.57 1461 1534.58 1464.18 Q1537.61 1467.32 1537.61 1472.76 Q1537.61 1478.09 1534.46 1481.31 Q1531.31 1484.52 1526.08 1484.52 Q1520.09 1484.52 1516.91 1479.94 Q1513.74 1475.33 1513.74 1466.61 Q1513.74 1458.41 1517.63 1453.55 Q1521.52 1448.67 1528.07 1448.67 Q1529.83 1448.67 1531.61 1449.01 Q1533.42 1449.36 1535.36 1450.06 Z" fill="#000000" fill-rule="evenodd" fill-opacity="1" /><path clip-path="url(#clip910)" d="M 0 0 M1911.49 1452.37 Q1907.88 1452.37 1906.05 1455.94 Q1904.25 1459.48 1904.25 1466.61 Q1904.25 1473.71 1906.05 1477.28 Q1907.88 1480.82 1911.49 1480.82 Q1915.12 1480.82 1916.93 1477.28 Q1918.76 1473.71 1918.76 1466.61 Q1918.76 1459.48 1916.93 1455.94 Q1915.12 1452.37 1911.49 1452.37 M1911.49 1448.67 Q1917.3 1448.67 1920.36 1453.27 Q1923.43 1457.86 1923.43 1466.61 Q1923.43 1475.33 1920.36 1479.94 Q1917.3 1484.52 1911.49 1484.52 Q1905.68 1484.52 1902.6 1479.94 Q1899.55 1475.33 1899.55 1466.61 Q1899.55 1457.86 1902.6 1453.27 Q1905.68 1448.67 1911.49 1448.67 Z" fill="#000000" fill-rule="evenodd" fill-opacity="1" /><path clip-path="url(#clip910)" d="M 0 0 M1928.5 1477.97 L1933.39 1477.97 L1933.39 1483.85 L1928.5 1483.85 L1928.5 1477.97 Z" fill="#000000" fill-rule="evenodd" fill-opacity="1" /><path clip-path="url(#clip910)" d="M 0 0 M1948.46 1467.44 Q1945.12 1467.44 1943.2 1469.22 Q1941.31 1471 1941.31 1474.13 Q1941.31 1477.25 1943.2 1479.04 Q1945.12 1480.82 1948.46 1480.82 Q1951.79 1480.82 1953.71 1479.04 Q1955.63 1477.23 1955.63 1474.13 Q1955.63 1471 1953.71 1469.22 Q1951.81 1467.44 1948.46 1467.44 M1943.78 1465.45 Q1940.77 1464.71 1939.08 1462.65 Q1937.42 1460.59 1937.42 1457.63 Q1937.42 1453.48 1940.36 1451.07 Q1943.32 1448.67 1948.46 1448.67 Q1953.62 1448.67 1956.56 1451.07 Q1959.5 1453.48 1959.5 1457.63 Q1959.5 1460.59 1957.81 1462.65 Q1956.14 1464.71 1953.16 1465.45 Q1956.54 1466.24 1958.41 1468.53 Q1960.31 1470.82 1960.31 1474.13 Q1960.31 1479.15 1957.23 1481.84 Q1954.18 1484.52 1948.46 1484.52 Q1942.74 1484.52 1939.66 1481.84 Q1936.61 1479.15 1936.61 1474.13 Q1936.61 1470.82 1938.5 1468.53 Q1940.4 1466.24 1943.78 1465.45 M1942.07 1458.06 Q1942.07 1460.75 1943.74 1462.25 Q1945.43 1463.76 1948.46 1463.76 Q1951.47 1463.76 1953.16 1462.25 Q1954.87 1460.75 1954.87 1458.06 Q1954.87 1455.38 1953.16 1453.88 Q1951.47 1452.37 1948.46 1452.37 Q1945.43 1452.37 1943.74 1453.88 Q1942.07 1455.38 1942.07 1458.06 Z" fill="#000000" fill-rule="evenodd" fill-opacity="1" /><path clip-path="url(#clip910)" d="M 0 0 M2324.65 1479.92 L2332.29 1479.92 L2332.29 1453.55 L2323.98 1455.22 L2323.98 1450.96 L2332.25 1449.29 L2336.92 1449.29 L2336.92 1479.92 L2344.56 1479.92 L2344.56 1483.85 L2324.65 1483.85 L2324.65 1479.92 Z" fill="#000000" fill-rule="evenodd" fill-opacity="1" /><path clip-path="url(#clip910)" d="M 0 0 M2349.63 1477.97 L2354.52 1477.97 L2354.52 1483.85 L2349.63 1483.85 L2349.63 1477.97 Z" fill="#000000" fill-rule="evenodd" fill-opacity="1" /><path clip-path="url(#clip910)" d="M 0 0 M2369.58 1452.37 Q2365.97 1452.37 2364.14 1455.94 Q2362.34 1459.48 2362.34 1466.61 Q2362.34 1473.71 2364.14 1477.28 Q2365.97 1480.82 2369.58 1480.82 Q2373.22 1480.82 2375.02 1477.28 Q2376.85 1473.71 2376.85 1466.61 Q2376.85 1459.48 2375.02 1455.94 Q2373.22 1452.37 2369.58 1452.37 M2369.58 1448.67 Q2375.39 1448.67 2378.45 1453.27 Q2381.53 1457.86 2381.53 1466.61 Q2381.53 1475.33 2378.45 1479.94 Q2375.39 1484.52 2369.58 1484.52 Q2363.77 1484.52 2360.7 1479.94 Q2357.64 1475.33 2357.64 1466.61 Q2357.64 1457.86 2360.7 1453.27 Q2363.77 1448.67 2369.58 1448.67 Z" fill="#000000" fill-rule="evenodd" fill-opacity="1" /><path clip-path="url(#clip910)" d="M 0 0 M1312.3 1520.4 L1299.41 1537.74 L1312.97 1556.04 L1306.06 1556.04 L1295.69 1542.04 L1285.31 1556.04 L1278.4 1556.04 L1292.25 1537.39 L1279.58 1520.4 L1286.49 1520.4 L1295.94 1533.1 L1305.39 1520.4 L1312.3 1520.4 Z" fill="#000000" fill-rule="evenodd" fill-opacity="1" /><polyline clip-path="url(#clip912)" style="stroke:#000000; stroke-width:2; stroke-opacity:0.1; fill:none" points="
  238.616,1423.18 2352.76,1423.18 
  "/>
<polyline clip-path="url(#clip912)" style="stroke:#000000; stroke-width:2; stroke-opacity:0.1; fill:none" points="
  238.616,1079.2 2352.76,1079.2 
  "/>
<polyline clip-path="url(#clip912)" style="stroke:#000000; stroke-width:2; stroke-opacity:0.1; fill:none" points="
  238.616,735.212 2352.76,735.212 
  "/>
<polyline clip-path="url(#clip912)" style="stroke:#000000; stroke-width:2; stroke-opacity:0.1; fill:none" points="
  238.616,391.228 2352.76,391.228 
  "/>
<polyline clip-path="url(#clip912)" style="stroke:#000000; stroke-width:2; stroke-opacity:0.1; fill:none" points="
  238.616,47.2441 2352.76,47.2441 
  "/>
<polyline clip-path="url(#clip910)" style="stroke:#000000; stroke-width:4; stroke-opacity:1; fill:none" points="
  238.616,1423.18 238.616,47.2441 
  "/>
<polyline clip-path="url(#clip910)" style="stroke:#000000; stroke-width:4; stroke-opacity:1; fill:none" points="
  238.616,1423.18 263.986,1423.18 
  "/>
<polyline clip-path="url(#clip910)" style="stroke:#000000; stroke-width:4; stroke-opacity:1; fill:none" points="
  238.616,1079.2 263.986,1079.2 
  "/>
<polyline clip-path="url(#clip910)" style="stroke:#000000; stroke-width:4; stroke-opacity:1; fill:none" points="
  238.616,735.212 263.986,735.212 
  "/>
<polyline clip-path="url(#clip910)" style="stroke:#000000; stroke-width:4; stroke-opacity:1; fill:none" points="
  238.616,391.228 263.986,391.228 
  "/>
<polyline clip-path="url(#clip910)" style="stroke:#000000; stroke-width:4; stroke-opacity:1; fill:none" points="
  238.616,47.2441 263.986,47.2441 
  "/>
<path clip-path="url(#clip910)" d="M 0 0 M126.691 1408.98 Q123.08 1408.98 121.251 1412.54 Q119.445 1416.08 119.445 1423.21 Q119.445 1430.32 121.251 1433.89 Q123.08 1437.43 126.691 1437.43 Q130.325 1437.43 132.13 1433.89 Q133.959 1430.32 133.959 1423.21 Q133.959 1416.08 132.13 1412.54 Q130.325 1408.98 126.691 1408.98 M126.691 1405.27 Q132.501 1405.27 135.556 1409.88 Q138.635 1414.46 138.635 1423.21 Q138.635 1431.94 135.556 1436.55 Q132.501 1441.13 126.691 1441.13 Q120.88 1441.13 117.802 1436.55 Q114.746 1431.94 114.746 1423.21 Q114.746 1414.46 117.802 1409.88 Q120.88 1405.27 126.691 1405.27 Z" fill="#000000" fill-rule="evenodd" fill-opacity="1" /><path clip-path="url(#clip910)" d="M 0 0 M143.704 1434.58 L148.589 1434.58 L148.589 1440.46 L143.704 1440.46 L143.704 1434.58 Z" fill="#000000" fill-rule="evenodd" fill-opacity="1" /><path clip-path="url(#clip910)" d="M 0 0 M163.658 1408.98 Q160.047 1408.98 158.218 1412.54 Q156.413 1416.08 156.413 1423.21 Q156.413 1430.32 158.218 1433.89 Q160.047 1437.43 163.658 1437.43 Q167.292 1437.43 169.098 1433.89 Q170.927 1430.32 170.927 1423.21 Q170.927 1416.08 169.098 1412.54 Q167.292 1408.98 163.658 1408.98 M163.658 1405.27 Q169.468 1405.27 172.524 1409.88 Q175.602 1414.46 175.602 1423.21 Q175.602 1431.94 172.524 1436.55 Q169.468 1441.13 163.658 1441.13 Q157.848 1441.13 154.769 1436.55 Q151.714 1431.94 151.714 1423.21 Q151.714 1414.46 154.769 1409.88 Q157.848 1405.27 163.658 1405.27 Z" fill="#000000" fill-rule="evenodd" fill-opacity="1" /><path clip-path="url(#clip910)" d="M 0 0 M190.672 1408.98 Q187.061 1408.98 185.232 1412.54 Q183.426 1416.08 183.426 1423.21 Q183.426 1430.32 185.232 1433.89 Q187.061 1437.43 190.672 1437.43 Q194.306 1437.43 196.112 1433.89 Q197.94 1430.32 197.94 1423.21 Q197.94 1416.08 196.112 1412.54 Q194.306 1408.98 190.672 1408.98 M190.672 1405.27 Q196.482 1405.27 199.537 1409.88 Q202.616 1414.46 202.616 1423.21 Q202.616 1431.94 199.537 1436.55 Q196.482 1441.13 190.672 1441.13 Q184.862 1441.13 181.783 1436.55 Q178.727 1431.94 178.727 1423.21 Q178.727 1414.46 181.783 1409.88 Q184.862 1405.27 190.672 1405.27 Z" fill="#000000" fill-rule="evenodd" fill-opacity="1" /><path clip-path="url(#clip910)" d="M 0 0 M128.288 1064.99 Q124.677 1064.99 122.848 1068.56 Q121.043 1072.1 121.043 1079.23 Q121.043 1086.34 122.848 1089.9 Q124.677 1093.44 128.288 1093.44 Q131.922 1093.44 133.728 1089.9 Q135.556 1086.34 135.556 1079.23 Q135.556 1072.1 133.728 1068.56 Q131.922 1064.99 128.288 1064.99 M128.288 1061.29 Q134.098 1061.29 137.154 1065.9 Q140.232 1070.48 140.232 1079.23 Q140.232 1087.96 137.154 1092.56 Q134.098 1097.15 128.288 1097.15 Q122.478 1097.15 119.399 1092.56 Q116.343 1087.96 116.343 1079.23 Q116.343 1070.48 119.399 1065.9 Q122.478 1061.29 128.288 1061.29 Z" fill="#000000" fill-rule="evenodd" fill-opacity="1" /><path clip-path="url(#clip910)" d="M 0 0 M145.302 1090.6 L150.186 1090.6 L150.186 1096.48 L145.302 1096.48 L145.302 1090.6 Z" fill="#000000" fill-rule="evenodd" fill-opacity="1" /><path clip-path="url(#clip910)" d="M 0 0 M165.255 1064.99 Q161.644 1064.99 159.815 1068.56 Q158.01 1072.1 158.01 1079.23 Q158.01 1086.34 159.815 1089.9 Q161.644 1093.44 165.255 1093.44 Q168.889 1093.44 170.695 1089.9 Q172.524 1086.34 172.524 1079.23 Q172.524 1072.1 170.695 1068.56 Q168.889 1064.99 165.255 1064.99 M165.255 1061.29 Q171.065 1061.29 174.121 1065.9 Q177.2 1070.48 177.2 1079.23 Q177.2 1087.96 174.121 1092.56 Q171.065 1097.15 165.255 1097.15 Q159.445 1097.15 156.366 1092.56 Q153.311 1087.96 153.311 1079.23 Q153.311 1070.48 156.366 1065.9 Q159.445 1061.29 165.255 1061.29 Z" fill="#000000" fill-rule="evenodd" fill-opacity="1" /><path clip-path="url(#clip910)" d="M 0 0 M186.297 1092.54 L202.616 1092.54 L202.616 1096.48 L180.672 1096.48 L180.672 1092.54 Q183.334 1089.79 187.917 1085.16 Q192.524 1080.5 193.704 1079.16 Q195.95 1076.64 196.829 1074.9 Q197.732 1073.14 197.732 1071.45 Q197.732 1068.7 195.787 1066.96 Q193.866 1065.23 190.764 1065.23 Q188.565 1065.23 186.112 1065.99 Q183.681 1066.75 180.903 1068.3 L180.903 1063.58 Q183.727 1062.45 186.181 1061.87 Q188.635 1061.29 190.672 1061.29 Q196.042 1061.29 199.237 1063.98 Q202.431 1066.66 202.431 1071.15 Q202.431 1073.28 201.621 1075.2 Q200.834 1077.1 198.727 1079.69 Q198.149 1080.36 195.047 1083.58 Q191.945 1086.78 186.297 1092.54 Z" fill="#000000" fill-rule="evenodd" fill-opacity="1" /><path clip-path="url(#clip910)" d="M 0 0 M126.205 721.011 Q122.593 721.011 120.765 724.575 Q118.959 728.117 118.959 735.247 Q118.959 742.353 120.765 745.918 Q122.593 749.46 126.205 749.46 Q129.839 749.46 131.644 745.918 Q133.473 742.353 133.473 735.247 Q133.473 728.117 131.644 724.575 Q129.839 721.011 126.205 721.011 M126.205 717.307 Q132.015 717.307 135.07 721.913 Q138.149 726.497 138.149 735.247 Q138.149 743.973 135.07 748.58 Q132.015 753.163 126.205 753.163 Q120.394 753.163 117.316 748.58 Q114.26 743.973 114.26 735.247 Q114.26 726.497 117.316 721.913 Q120.394 717.307 126.205 717.307 Z" fill="#000000" fill-rule="evenodd" fill-opacity="1" /><path clip-path="url(#clip910)" d="M 0 0 M143.218 746.612 L148.103 746.612 L148.103 752.492 L143.218 752.492 L143.218 746.612 Z" fill="#000000" fill-rule="evenodd" fill-opacity="1" /><path clip-path="url(#clip910)" d="M 0 0 M163.172 721.011 Q159.561 721.011 157.732 724.575 Q155.927 728.117 155.927 735.247 Q155.927 742.353 157.732 745.918 Q159.561 749.46 163.172 749.46 Q166.806 749.46 168.612 745.918 Q170.44 742.353 170.44 735.247 Q170.44 728.117 168.612 724.575 Q166.806 721.011 163.172 721.011 M163.172 717.307 Q168.982 717.307 172.038 721.913 Q175.116 726.497 175.116 735.247 Q175.116 743.973 172.038 748.58 Q168.982 753.163 163.172 753.163 Q157.362 753.163 154.283 748.58 Q151.228 743.973 151.228 735.247 Q151.228 726.497 154.283 721.913 Q157.362 717.307 163.172 717.307 Z" fill="#000000" fill-rule="evenodd" fill-opacity="1" /><path clip-path="url(#clip910)" d="M 0 0 M193.033 722.006 L181.227 740.455 L193.033 740.455 L193.033 722.006 M191.806 717.932 L197.686 717.932 L197.686 740.455 L202.616 740.455 L202.616 744.344 L197.686 744.344 L197.686 752.492 L193.033 752.492 L193.033 744.344 L177.431 744.344 L177.431 739.83 L191.806 717.932 Z" fill="#000000" fill-rule="evenodd" fill-opacity="1" /><path clip-path="url(#clip910)" d="M 0 0 M126.529 377.027 Q122.918 377.027 121.089 380.592 Q119.283 384.133 119.283 391.263 Q119.283 398.369 121.089 401.934 Q122.918 405.476 126.529 405.476 Q130.163 405.476 131.968 401.934 Q133.797 398.369 133.797 391.263 Q133.797 384.133 131.968 380.592 Q130.163 377.027 126.529 377.027 M126.529 373.323 Q132.339 373.323 135.394 377.929 Q138.473 382.513 138.473 391.263 Q138.473 399.99 135.394 404.596 Q132.339 409.179 126.529 409.179 Q120.718 409.179 117.64 404.596 Q114.584 399.99 114.584 391.263 Q114.584 382.513 117.64 377.929 Q120.718 373.323 126.529 373.323 Z" fill="#000000" fill-rule="evenodd" fill-opacity="1" /><path clip-path="url(#clip910)" d="M 0 0 M143.542 402.628 L148.427 402.628 L148.427 408.508 L143.542 408.508 L143.542 402.628 Z" fill="#000000" fill-rule="evenodd" fill-opacity="1" /><path clip-path="url(#clip910)" d="M 0 0 M163.496 377.027 Q159.885 377.027 158.056 380.592 Q156.251 384.133 156.251 391.263 Q156.251 398.369 158.056 401.934 Q159.885 405.476 163.496 405.476 Q167.13 405.476 168.936 401.934 Q170.764 398.369 170.764 391.263 Q170.764 384.133 168.936 380.592 Q167.13 377.027 163.496 377.027 M163.496 373.323 Q169.306 373.323 172.362 377.929 Q175.44 382.513 175.44 391.263 Q175.44 399.99 172.362 404.596 Q169.306 409.179 163.496 409.179 Q157.686 409.179 154.607 404.596 Q151.552 399.99 151.552 391.263 Q151.552 382.513 154.607 377.929 Q157.686 373.323 163.496 373.323 Z" fill="#000000" fill-rule="evenodd" fill-opacity="1" /><path clip-path="url(#clip910)" d="M 0 0 M191.088 389.365 Q187.94 389.365 186.088 391.517 Q184.26 393.67 184.26 397.42 Q184.26 401.147 186.088 403.323 Q187.94 405.476 191.088 405.476 Q194.237 405.476 196.065 403.323 Q197.917 401.147 197.917 397.42 Q197.917 393.67 196.065 391.517 Q194.237 389.365 191.088 389.365 M200.371 374.712 L200.371 378.971 Q198.612 378.138 196.806 377.698 Q195.024 377.258 193.264 377.258 Q188.635 377.258 186.181 380.383 Q183.751 383.508 183.403 389.828 Q184.769 387.814 186.829 386.749 Q188.889 385.661 191.366 385.661 Q196.575 385.661 199.584 388.832 Q202.616 391.98 202.616 397.42 Q202.616 402.744 199.468 405.962 Q196.32 409.179 191.088 409.179 Q185.093 409.179 181.922 404.596 Q178.751 399.99 178.751 391.263 Q178.751 383.068 182.639 378.207 Q186.528 373.323 193.079 373.323 Q194.838 373.323 196.621 373.67 Q198.426 374.017 200.371 374.712 Z" fill="#000000" fill-rule="evenodd" fill-opacity="1" /><path clip-path="url(#clip910)" d="M 0 0 M126.783 33.0428 Q123.172 33.0428 121.343 36.6076 Q119.538 40.1492 119.538 47.2788 Q119.538 54.3853 121.343 57.9501 Q123.172 61.4917 126.783 61.4917 Q130.417 61.4917 132.223 57.9501 Q134.052 54.3853 134.052 47.2788 Q134.052 40.1492 132.223 36.6076 Q130.417 33.0428 126.783 33.0428 M126.783 29.3391 Q132.593 29.3391 135.649 33.9456 Q138.728 38.5289 138.728 47.2788 Q138.728 56.0056 135.649 60.6121 Q132.593 65.1954 126.783 65.1954 Q120.973 65.1954 117.894 60.6121 Q114.839 56.0056 114.839 47.2788 Q114.839 38.5289 117.894 33.9456 Q120.973 29.3391 126.783 29.3391 Z" fill="#000000" fill-rule="evenodd" fill-opacity="1" /><path clip-path="url(#clip910)" d="M 0 0 M143.797 58.6445 L148.681 58.6445 L148.681 64.5241 L143.797 64.5241 L143.797 58.6445 Z" fill="#000000" fill-rule="evenodd" fill-opacity="1" /><path clip-path="url(#clip910)" d="M 0 0 M163.751 33.0428 Q160.14 33.0428 158.311 36.6076 Q156.505 40.1492 156.505 47.2788 Q156.505 54.3853 158.311 57.9501 Q160.14 61.4917 163.751 61.4917 Q167.385 61.4917 169.19 57.9501 Q171.019 54.3853 171.019 47.2788 Q171.019 40.1492 169.19 36.6076 Q167.385 33.0428 163.751 33.0428 M163.751 29.3391 Q169.561 29.3391 172.616 33.9456 Q175.695 38.5289 175.695 47.2788 Q175.695 56.0056 172.616 60.6121 Q169.561 65.1954 163.751 65.1954 Q157.94 65.1954 154.862 60.6121 Q151.806 56.0056 151.806 47.2788 Q151.806 38.5289 154.862 33.9456 Q157.94 29.3391 163.751 29.3391 Z" fill="#000000" fill-rule="evenodd" fill-opacity="1" /><path clip-path="url(#clip910)" d="M 0 0 M190.764 48.1121 Q187.431 48.1121 185.51 49.8945 Q183.612 51.6769 183.612 54.8019 Q183.612 57.9269 185.51 59.7093 Q187.431 61.4917 190.764 61.4917 Q194.098 61.4917 196.019 59.7093 Q197.94 57.9038 197.94 54.8019 Q197.94 51.6769 196.019 49.8945 Q194.121 48.1121 190.764 48.1121 M186.088 46.1214 Q183.079 45.3807 181.389 43.3205 Q179.723 41.2603 179.723 38.2974 Q179.723 34.1539 182.663 31.7465 Q185.626 29.3391 190.764 29.3391 Q195.926 29.3391 198.866 31.7465 Q201.806 34.1539 201.806 38.2974 Q201.806 41.2603 200.116 43.3205 Q198.45 45.3807 195.463 46.1214 Q198.843 46.9084 200.718 49.2001 Q202.616 51.4918 202.616 54.8019 Q202.616 59.825 199.537 62.5102 Q196.482 65.1954 190.764 65.1954 Q185.047 65.1954 181.968 62.5102 Q178.913 59.825 178.913 54.8019 Q178.913 51.4918 180.811 49.2001 Q182.709 46.9084 186.088 46.1214 M184.376 38.7372 Q184.376 41.4224 186.042 42.927 Q187.732 44.4316 190.764 44.4316 Q193.774 44.4316 195.463 42.927 Q197.176 41.4224 197.176 38.7372 Q197.176 36.052 195.463 34.5474 Q193.774 33.0428 190.764 33.0428 Q187.732 33.0428 186.042 34.5474 Q184.376 36.052 184.376 38.7372 Z" fill="#000000" fill-rule="evenodd" fill-opacity="1" /><path clip-path="url(#clip910)" d="M 0 0 M73.9359 788.382 L52.3562 788.382 L52.3562 782.525 L73.7131 782.525 Q78.7739 782.525 81.3202 780.552 Q83.8346 778.578 83.8346 774.632 Q83.8346 769.889 80.8109 767.152 Q77.7872 764.383 72.5673 764.383 L52.3562 764.383 L52.3562 758.526 L88.0042 758.526 L88.0042 764.383 L82.5296 764.383 Q85.7762 766.515 87.3676 769.348 Q88.9272 772.149 88.9272 775.873 Q88.9272 782.016 85.1078 785.199 Q81.2883 788.382 73.9359 788.382 M51.4968 773.645 L51.4968 773.645 Z" fill="#000000" fill-rule="evenodd" fill-opacity="1" /><path clip-path="url(#clip910)" d="M 0 0 M38.5426 738.315 Q45.8632 742.58 53.0246 744.649 Q60.186 746.718 67.5384 746.718 Q74.8908 746.718 82.1159 744.649 Q89.3091 742.548 96.5979 738.315 L96.5979 743.408 Q89.1182 748.182 81.8931 750.569 Q74.668 752.925 67.5384 752.925 Q60.4406 752.925 53.2474 750.569 Q46.0542 748.214 38.5426 743.408 L38.5426 738.315 Z" fill="#000000" fill-rule="evenodd" fill-opacity="1" /><path clip-path="url(#clip910)" d="M 0 0 M52.3562 702.54 L69.7028 715.431 L88.0042 701.872 L88.0042 708.778 L73.9996 719.154 L88.0042 729.531 L88.0042 736.437 L69.3526 722.592 L52.3562 735.26 L52.3562 728.353 L65.0558 718.9 L52.3562 709.447 L52.3562 702.54 Z" fill="#000000" fill-rule="evenodd" fill-opacity="1" /><path clip-path="url(#clip910)" d="M 0 0 M38.5426 696.652 L38.5426 691.559 Q46.0542 686.785 53.2474 684.43 Q60.4406 682.042 67.5384 682.042 Q74.668 682.042 81.8931 684.43 Q89.1182 686.785 96.5979 691.559 L96.5979 696.652 Q89.3091 692.419 82.1159 690.35 Q74.8908 688.249 67.5384 688.249 Q60.186 688.249 53.0246 690.35 Q45.8632 692.419 38.5426 696.652 Z" fill="#000000" fill-rule="evenodd" fill-opacity="1" /><polyline clip-path="url(#clip912)" style="stroke:#000000; stroke-width:4; stroke-opacity:1; fill:none" points="
  238.616,1423.18 259.758,1391.61 280.899,1360.05 302.04,1328.49 323.182,1296.95 344.323,1265.42 365.465,1233.91 386.606,1202.44 407.747,1171 428.889,1139.62 
  450.03,1108.31 471.172,1077.07 492.313,1045.94 513.454,1014.94 534.596,984.076 555.737,953.39 576.879,922.905 598.02,892.651 619.161,862.663 640.303,832.973 
  661.444,803.617 682.586,774.633 703.727,746.057 724.868,717.928 746.01,690.285 767.151,663.165 788.292,636.605 809.434,610.643 830.575,585.314 851.717,560.65 
  872.858,536.684 893.999,513.446 915.141,490.962 936.282,469.257 957.424,448.352 978.565,428.266 999.706,409.016 1020.85,390.614 1041.99,373.07 1063.13,356.392 
  1084.27,340.585 1105.41,325.651 1126.55,311.591 1147.7,298.404 1168.84,286.088 1189.98,274.639 1211.12,264.052 1232.26,254.324 1253.4,245.45 1274.54,237.429 
  1295.69,230.257 1316.83,223.934 1337.97,218.463 1359.11,213.847 1380.25,210.093 1401.39,207.213 1422.53,205.219 1443.68,204.128 1464.82,203.963 1485.96,204.746 
  1507.1,206.508 1528.24,209.279 1549.38,213.097 1570.52,218 1591.67,224.032 1612.81,231.236 1633.95,239.661 1655.09,249.355 1676.23,260.369 1697.37,272.754 
  1718.51,286.561 1739.66,301.84 1760.8,318.64 1781.94,337.006 1803.08,356.981 1824.22,378.607 1845.36,401.915 1866.5,426.937 1887.65,453.695 1908.79,482.206 
  1929.93,512.479 1951.07,544.514 1972.21,578.304 1993.35,613.833 2014.49,651.075 2035.63,689.995 2056.78,730.549 2077.92,772.681 2099.06,816.329 2120.2,861.417 
  2141.34,907.864 2162.48,955.577 2183.62,1004.46 2204.77,1054.39 2225.91,1105.28 2247.05,1156.98 2268.19,1209.37 2289.33,1262.33 2310.47,1315.71 2331.61,1369.37 
  2352.76,1423.18 
  "/>
<polyline clip-path="url(#clip912)" style="stroke:#ff0000; stroke-width:4; stroke-opacity:1; fill:none" points="
  238.616,1423.18 259.262,1391.54 450.167,1102.36 564.893,935.617 661.893,801.728 767.261,666.045 864.401,552.029 916.474,495.971 968.546,443.821 1028.88,388.666 
  1089.21,339.589 1142.82,301.431 1196.44,268.725 1243.45,244.769 1290.47,225.439 1341.73,209.868 1392.99,200.286 1444.55,196.942 1496.12,200.163 1553.13,211.665 
  1610.14,231.825 1664.38,259.337 1718.63,295.252 1775.03,341.791 1831.43,397.995 1878.91,453.009 1926.39,515.243 1984.35,601.248 2042.32,698.547 2096.81,800.559 
  2151.3,913.027 2194.94,1010.81 2238.59,1115.55 2282.24,1227.35 2325.89,1346.33 2332.6,1365.28 2339.32,1384.41 2346.04,1403.71 2352.76,1423.18 
  "/>
<path clip-path="url(#clip910)" d="
M1998.17 274.549 L2282.28 274.549 L2282.28 93.1086 L1998.17 93.1086  Z
  " fill="#ffffff" fill-rule="evenodd" fill-opacity="1"/>
<polyline clip-path="url(#clip910)" style="stroke:#000000; stroke-width:4; stroke-opacity:1; fill:none" points="
  1998.17,274.549 2282.28,274.549 2282.28,93.1086 1998.17,93.1086 1998.17,274.549 
  "/>
<polyline clip-path="url(#clip910)" style="stroke:#000000; stroke-width:4; stroke-opacity:1; fill:none" points="
  2021.66,153.589 2162.6,153.589 
  "/>
<path clip-path="url(#clip910)" d="M 0 0 M2186.09 160.637 L2186.09 144.943 L2190.35 144.943 L2190.35 160.475 Q2190.35 164.156 2191.79 166.008 Q2193.22 167.836 2196.09 167.836 Q2199.54 167.836 2201.53 165.637 Q2203.54 163.438 2203.54 159.642 L2203.54 144.943 L2207.8 144.943 L2207.8 170.869 L2203.54 170.869 L2203.54 166.887 Q2201.99 169.248 2199.93 170.406 Q2197.9 171.54 2195.19 171.54 Q2190.72 171.54 2188.41 168.762 Q2186.09 165.984 2186.09 160.637 M2196.81 144.318 L2196.81 144.318 Z" fill="#000000" fill-rule="evenodd" fill-opacity="1" /><path clip-path="url(#clip910)" d="M 0 0 M2225.72 140.383 L2213.91 158.832 L2225.72 158.832 L2225.72 140.383 M2224.49 136.309 L2230.37 136.309 L2230.37 158.832 L2235.3 158.832 L2235.3 162.721 L2230.37 162.721 L2230.37 170.869 L2225.72 170.869 L2225.72 162.721 L2210.12 162.721 L2210.12 158.207 L2224.49 136.309 Z" fill="#000000" fill-rule="evenodd" fill-opacity="1" /><polyline clip-path="url(#clip910)" style="stroke:#ff0000; stroke-width:4; stroke-opacity:1; fill:none" points="
  2021.66,214.069 2162.6,214.069 
  "/>
<path clip-path="url(#clip910)" d="M 0 0 M2186.09 196.789 L2190.79 196.789 L2190.79 217.784 Q2190.79 223.339 2192.8 225.793 Q2194.82 228.224 2199.33 228.224 Q2203.82 228.224 2205.84 225.793 Q2207.85 223.339 2207.85 217.784 L2207.85 196.789 L2212.55 196.789 L2212.55 218.363 Q2212.55 225.122 2209.19 228.571 Q2205.86 232.02 2199.33 232.02 Q2192.78 232.02 2189.42 228.571 Q2186.09 225.122 2186.09 218.363 L2186.09 196.789 Z" fill="#000000" fill-rule="evenodd" fill-opacity="1" /></svg>
