<?xml version="1.0" encoding="utf-8"?>
<svg xmlns="http://www.w3.org/2000/svg" xmlns:xlink="http://www.w3.org/1999/xlink" width="600" height="400" viewBox="0 0 2400 1600">
<defs>
  <clipPath id="clip030">
    <rect x="0" y="0" width="2400" height="1600"/>
  </clipPath>
</defs>
<path clip-path="url(#clip030)" d="
M0 1600 L2400 1600 L2400 0 L0 0  Z
  " fill="#ffffff" fill-rule="evenodd" fill-opacity="1"/>
<defs>
  <clipPath id="clip031">
    <rect x="480" y="0" width="1681" height="1600"/>
  </clipPath>
</defs>
<path clip-path="url(#clip030)" d="
M207.436 1423.18 L2352.76 1423.18 L2352.76 47.2441 L207.436 47.2441  Z
  " fill="#ffffff" fill-rule="evenodd" fill-opacity="1"/>
<defs>
  <clipPath id="clip032">
    <rect x="207" y="47" width="2146" height="1377"/>
  </clipPath>
</defs>
<polyline clip-path="url(#clip032)" style="stroke:#000000; stroke-width:2; stroke-opacity:0.1; fill:none" points="
  360.673,1423.18 360.673,47.2441 
  "/>
<polyline clip-path="url(#clip032)" style="stroke:#000000; stroke-width:2; stroke-opacity:0.1; fill:none" points="
  667.147,1423.18 667.147,47.2441 
  "/>
<polyline clip-path="url(#clip032)" style="stroke:#000000; stroke-width:2; stroke-opacity:0.1; fill:none" points="
  973.622,1423.18 973.622,47.2441 
  "/>
<polyline clip-path="url(#clip032)" style="stroke:#000000; stroke-width:2; stroke-opacity:0.1; fill:none" points="
  1280.1,1423.18 1280.1,47.2441 
  "/>
<polyline clip-path="url(#clip032)" style="stroke:#000000; stroke-width:2; stroke-opacity:0.1; fill:none" points="
  1586.57,1423.18 1586.57,47.2441 
  "/>
<polyline clip-path="url(#clip032)" style="stroke:#000000; stroke-width:2; stroke-opacity:0.1; fill:none" points="
  1893.04,1423.18 1893.04,47.2441 
  "/>
<polyline clip-path="url(#clip032)" style="stroke:#000000; stroke-width:2; stroke-opacity:0.1; fill:none" points="
  2199.52,1423.18 2199.52,47.2441 
  "/>
<polyline clip-path="url(#clip030)" style="stroke:#000000; stroke-width:4; stroke-opacity:1; fill:none" points="
  207.436,1423.18 2352.76,1423.18 
  "/>
<polyline clip-path="url(#clip030)" style="stroke:#000000; stroke-width:4; stroke-opacity:1; fill:none" points="
  360.673,1423.18 360.673,1406.67 
  "/>
<polyline clip-path="url(#clip030)" style="stroke:#000000; stroke-width:4; stroke-opacity:1; fill:none" points="
  667.147,1423.18 667.147,1406.67 
  "/>
<polyline clip-path="url(#clip030)" style="stroke:#000000; stroke-width:4; stroke-opacity:1; fill:none" points="
  973.622,1423.18 973.622,1406.67 
  "/>
<polyline clip-path="url(#clip030)" style="stroke:#000000; stroke-width:4; stroke-opacity:1; fill:none" points="
  1280.1,1423.18 1280.1,1406.67 
  "/>
<polyline clip-path="url(#clip030)" style="stroke:#000000; stroke-width:4; stroke-opacity:1; fill:none" points="
  1586.57,1423.18 1586.57,1406.67 
  "/>
<polyline clip-path="url(#clip030)" style="stroke:#000000; stroke-width:4; stroke-opacity:1; fill:none" points="
  1893.04,1423.18 1893.04,1406.67 
  "/>
<polyline clip-path="url(#clip030)" style="stroke:#000000; stroke-width:4; stroke-opacity:1; fill:none" points="
  2199.52,1423.18 2199.52,1406.67 
  "/>
<path clip-path="url(#clip030)" d="M 0 0 M360.673 1452.37 Q357.062 1452.37 355.233 1455.94 Q353.428 1459.48 353.428 1466.61 Q353.428 1473.71 355.233 1477.28 Q357.062 1480.82 360.673 1480.82 Q364.307 1480.82 366.113 1477.28 Q367.941 1473.71 367.941 1466.61 Q367.941 1459.48 366.113 1455.94 Q364.307 1452.37 360.673 1452.37 M360.673 1448.67 Q366.483 1448.67 369.539 1453.27 Q372.617 1457.86 372.617 1466.61 Q372.617 1475.33 369.539 1479.94 Q366.483 1484.52 360.673 1484.52 Q354.863 1484.52 351.784 1479.94 Q348.729 1475.33 348.729 1466.61 Q348.729 1457.86 351.784 1453.27 Q354.863 1448.67 360.673 1448.67 Z" fill="#000000" fill-rule="evenodd" fill-opacity="1" /><path clip-path="url(#clip030)" d="M 0 0 M657.529 1479.92 L665.168 1479.92 L665.168 1453.55 L656.858 1455.22 L656.858 1450.96 L665.122 1449.29 L669.798 1449.29 L669.798 1479.92 L677.437 1479.92 L677.437 1483.85 L657.529 1483.85 L657.529 1479.92 Z" fill="#000000" fill-rule="evenodd" fill-opacity="1" /><path clip-path="url(#clip030)" d="M 0 0 M968.274 1479.92 L984.594 1479.92 L984.594 1483.85 L962.649 1483.85 L962.649 1479.92 Q965.311 1477.16 969.895 1472.53 Q974.501 1467.88 975.682 1466.54 Q977.927 1464.01 978.807 1462.28 Q979.709 1460.52 979.709 1458.83 Q979.709 1456.07 977.765 1454.34 Q975.844 1452.6 972.742 1452.6 Q970.543 1452.6 968.089 1453.37 Q965.659 1454.13 962.881 1455.68 L962.881 1450.96 Q965.705 1449.82 968.159 1449.25 Q970.612 1448.67 972.649 1448.67 Q978.02 1448.67 981.214 1451.35 Q984.409 1454.04 984.409 1458.53 Q984.409 1460.66 983.598 1462.58 Q982.811 1464.48 980.705 1467.07 Q980.126 1467.74 977.024 1470.96 Q973.922 1474.15 968.274 1479.92 Z" fill="#000000" fill-rule="evenodd" fill-opacity="1" /><path clip-path="url(#clip030)" d="M 0 0 M1284.34 1465.22 Q1287.7 1465.94 1289.57 1468.2 Q1291.47 1470.47 1291.47 1473.81 Q1291.47 1478.92 1287.95 1481.72 Q1284.44 1484.52 1277.95 1484.52 Q1275.78 1484.52 1273.46 1484.08 Q1271.17 1483.67 1268.72 1482.81 L1268.72 1478.3 Q1270.66 1479.43 1272.98 1480.01 Q1275.29 1480.59 1277.82 1480.59 Q1282.21 1480.59 1284.51 1478.85 Q1286.82 1477.12 1286.82 1473.81 Q1286.82 1470.75 1284.67 1469.04 Q1282.54 1467.3 1278.72 1467.3 L1274.69 1467.3 L1274.69 1463.46 L1278.9 1463.46 Q1282.35 1463.46 1284.18 1462.09 Q1286.01 1460.7 1286.01 1458.11 Q1286.01 1455.45 1284.11 1454.04 Q1282.24 1452.6 1278.72 1452.6 Q1276.8 1452.6 1274.6 1453.02 Q1272.4 1453.44 1269.76 1454.31 L1269.76 1450.15 Q1272.42 1449.41 1274.74 1449.04 Q1277.08 1448.67 1279.14 1448.67 Q1284.46 1448.67 1287.56 1451.1 Q1290.66 1453.5 1290.66 1457.63 Q1290.66 1460.5 1289.02 1462.49 Q1287.38 1464.45 1284.34 1465.22 Z" fill="#000000" fill-rule="evenodd" fill-opacity="1" /><path clip-path="url(#clip030)" d="M 0 0 M1589.58 1453.37 L1577.77 1471.81 L1589.58 1471.81 L1589.58 1453.37 M1588.35 1449.29 L1594.23 1449.29 L1594.23 1471.81 L1599.16 1471.81 L1599.16 1475.7 L1594.23 1475.7 L1594.23 1483.85 L1589.58 1483.85 L1589.58 1475.7 L1573.98 1475.7 L1573.98 1471.19 L1588.35 1449.29 Z" fill="#000000" fill-rule="evenodd" fill-opacity="1" /><path clip-path="url(#clip030)" d="M 0 0 M1883.32 1449.29 L1901.68 1449.29 L1901.68 1453.23 L1887.6 1453.23 L1887.6 1461.7 Q1888.62 1461.35 1889.64 1461.19 Q1890.66 1461 1891.68 1461 Q1897.47 1461 1900.85 1464.18 Q1904.22 1467.35 1904.22 1472.76 Q1904.22 1478.34 1900.75 1481.44 Q1897.28 1484.52 1890.96 1484.52 Q1888.79 1484.52 1886.52 1484.15 Q1884.27 1483.78 1881.86 1483.04 L1881.86 1478.34 Q1883.95 1479.48 1886.17 1480.03 Q1888.39 1480.59 1890.87 1480.59 Q1894.87 1480.59 1897.21 1478.48 Q1899.55 1476.38 1899.55 1472.76 Q1899.55 1469.15 1897.21 1467.05 Q1894.87 1464.94 1890.87 1464.94 Q1888.99 1464.94 1887.12 1465.36 Q1885.27 1465.77 1883.32 1466.65 L1883.32 1449.29 Z" fill="#000000" fill-rule="evenodd" fill-opacity="1" /><path clip-path="url(#clip030)" d="M 0 0 M2199.92 1464.71 Q2196.78 1464.71 2194.92 1466.86 Q2193.1 1469.01 2193.1 1472.76 Q2193.1 1476.49 2194.92 1478.67 Q2196.78 1480.82 2199.92 1480.82 Q2203.07 1480.82 2204.9 1478.67 Q2206.75 1476.49 2206.75 1472.76 Q2206.75 1469.01 2204.9 1466.86 Q2203.07 1464.71 2199.92 1464.71 M2209.21 1450.06 L2209.21 1454.31 Q2207.45 1453.48 2205.64 1453.04 Q2203.86 1452.6 2202.1 1452.6 Q2197.47 1452.6 2195.02 1455.73 Q2192.59 1458.85 2192.24 1465.17 Q2193.6 1463.16 2195.66 1462.09 Q2197.72 1461 2200.2 1461 Q2205.41 1461 2208.42 1464.18 Q2211.45 1467.32 2211.45 1472.76 Q2211.45 1478.09 2208.3 1481.31 Q2205.16 1484.52 2199.92 1484.52 Q2193.93 1484.52 2190.76 1479.94 Q2187.59 1475.33 2187.59 1466.61 Q2187.59 1458.41 2191.47 1453.55 Q2195.36 1448.67 2201.91 1448.67 Q2203.67 1448.67 2205.46 1449.01 Q2207.26 1449.36 2209.21 1450.06 Z" fill="#000000" fill-rule="evenodd" fill-opacity="1" /><path clip-path="url(#clip030)" d="M 0 0 M1296.71 1520.4 L1283.82 1537.74 L1297.38 1556.04 L1290.47 1556.04 L1280.1 1542.04 L1269.72 1556.04 L1262.81 1556.04 L1276.66 1537.39 L1263.99 1520.4 L1270.9 1520.4 L1280.35 1533.1 L1289.8 1520.4 L1296.71 1520.4 Z" fill="#000000" fill-rule="evenodd" fill-opacity="1" /><polyline clip-path="url(#clip032)" style="stroke:#000000; stroke-width:2; stroke-opacity:0.1; fill:none" points="
  207.436,1225.02 2352.76,1225.02 
  "/>
<polyline clip-path="url(#clip032)" style="stroke:#000000; stroke-width:2; stroke-opacity:0.1; fill:none" points="
  207.436,833.633 2352.76,833.633 
  "/>
<polyline clip-path="url(#clip032)" style="stroke:#000000; stroke-width:2; stroke-opacity:0.1; fill:none" points="
  207.436,442.249 2352.76,442.249 
  "/>
<polyline clip-path="url(#clip032)" style="stroke:#000000; stroke-width:2; stroke-opacity:0.1; fill:none" points="
  207.436,50.8652 2352.76,50.8652 
  "/>
<polyline clip-path="url(#clip030)" style="stroke:#000000; stroke-width:4; stroke-opacity:1; fill:none" points="
  207.436,1423.18 207.436,47.2441 
  "/>
<polyline clip-path="url(#clip030)" style="stroke:#000000; stroke-width:4; stroke-opacity:1; fill:none" points="
  207.436,1225.02 233.18,1225.02 
  "/>
<polyline clip-path="url(#clip030)" style="stroke:#000000; stroke-width:4; stroke-opacity:1; fill:none" points="
  207.436,833.633 233.18,833.633 
  "/>
<polyline clip-path="url(#clip030)" style="stroke:#000000; stroke-width:4; stroke-opacity:1; fill:none" points="
  207.436,442.249 233.18,442.249 
  "/>
<polyline clip-path="url(#clip030)" style="stroke:#000000; stroke-width:4; stroke-opacity:1; fill:none" points="
  207.436,50.8652 233.18,50.8652 
  "/>
<path clip-path="url(#clip030)" d="M 0 0 M114.26 1225.47 L143.936 1225.47 L143.936 1229.4 L114.26 1229.4 L114.26 1225.47 Z" fill="#000000" fill-rule="evenodd" fill-opacity="1" /><path clip-path="url(#clip030)" d="M 0 0 M161.852 1211.81 L150.047 1230.26 L161.852 1230.26 L161.852 1211.81 M160.626 1207.74 L166.505 1207.74 L166.505 1230.26 L171.436 1230.26 L171.436 1234.15 L166.505 1234.15 L166.505 1242.3 L161.852 1242.3 L161.852 1234.15 L146.251 1234.15 L146.251 1229.63 L160.626 1207.74 Z" fill="#000000" fill-rule="evenodd" fill-opacity="1" /><path clip-path="url(#clip030)" d="M 0 0 M116.343 834.084 L146.019 834.084 L146.019 838.019 L116.343 838.019 L116.343 834.084 Z" fill="#000000" fill-rule="evenodd" fill-opacity="1" /><path clip-path="url(#clip030)" d="M 0 0 M155.116 846.978 L171.436 846.978 L171.436 850.913 L149.491 850.913 L149.491 846.978 Q152.153 844.223 156.737 839.594 Q161.343 834.941 162.524 833.598 Q164.769 831.075 165.649 829.339 Q166.552 827.58 166.552 825.89 Q166.552 823.135 164.607 821.399 Q162.686 819.663 159.584 819.663 Q157.385 819.663 154.931 820.427 Q152.501 821.191 149.723 822.742 L149.723 818.02 Q152.547 816.885 155.001 816.307 Q157.454 815.728 159.491 815.728 Q164.862 815.728 168.056 818.413 Q171.251 821.098 171.251 825.589 Q171.251 827.719 170.44 829.64 Q169.653 831.538 167.547 834.131 Q166.968 834.802 163.866 838.019 Q160.765 841.214 155.116 846.978 Z" fill="#000000" fill-rule="evenodd" fill-opacity="1" /><path clip-path="url(#clip030)" d="M 0 0 M159.491 428.048 Q155.88 428.048 154.052 431.613 Q152.246 435.154 152.246 442.284 Q152.246 449.39 154.052 452.955 Q155.88 456.497 159.491 456.497 Q163.126 456.497 164.931 452.955 Q166.76 449.39 166.76 442.284 Q166.76 435.154 164.931 431.613 Q163.126 428.048 159.491 428.048 M159.491 424.344 Q165.302 424.344 168.357 428.951 Q171.436 433.534 171.436 442.284 Q171.436 451.011 168.357 455.617 Q165.302 460.2 159.491 460.2 Q153.681 460.2 150.603 455.617 Q147.547 451.011 147.547 442.284 Q147.547 433.534 150.603 428.951 Q153.681 424.344 159.491 424.344 Z" fill="#000000" fill-rule="evenodd" fill-opacity="1" /><path clip-path="url(#clip030)" d="M 0 0 M155.116 64.2101 L171.436 64.2101 L171.436 68.1452 L149.491 68.1452 L149.491 64.2101 Q152.153 61.4554 156.737 56.8258 Q161.343 52.1731 162.524 50.8305 Q164.769 48.3074 165.649 46.5713 Q166.552 44.812 166.552 43.1222 Q166.552 40.3676 164.607 38.6315 Q162.686 36.8954 159.584 36.8954 Q157.385 36.8954 154.931 37.6593 Q152.501 38.4232 149.723 39.9741 L149.723 35.2519 Q152.547 34.1176 155.001 33.5389 Q157.454 32.9602 159.491 32.9602 Q164.862 32.9602 168.056 35.6454 Q171.251 38.3306 171.251 42.8213 Q171.251 44.9509 170.44 46.8722 Q169.653 48.7703 167.547 51.3629 Q166.968 52.0342 163.866 55.2518 Q160.765 58.4462 155.116 64.2101 Z" fill="#000000" fill-rule="evenodd" fill-opacity="1" /><path clip-path="url(#clip030)" d="M 0 0 M73.9359 788.382 L52.3562 788.382 L52.3562 782.525 L73.7131 782.525 Q78.7739 782.525 81.3202 780.552 Q83.8346 778.578 83.8346 774.632 Q83.8346 769.889 80.8109 767.152 Q77.7872 764.383 72.5673 764.383 L52.3562 764.383 L52.3562 758.526 L88.0042 758.526 L88.0042 764.383 L82.5296 764.383 Q85.7762 766.515 87.3676 769.348 Q88.9272 772.149 88.9272 775.873 Q88.9272 782.016 85.1078 785.199 Q81.2883 788.382 73.9359 788.382 M51.4968 773.645 L51.4968 773.645 Z" fill="#000000" fill-rule="evenodd" fill-opacity="1" /><path clip-path="url(#clip030)" d="M 0 0 M38.5426 738.315 Q45.8632 742.58 53.0246 744.649 Q60.186 746.718 67.5384 746.718 Q74.8908 746.718 82.1159 744.649 Q89.3091 742.548 96.5979 738.315 L96.5979 743.408 Q89.1182 748.182 81.8931 750.569 Q74.668 752.925 67.5384 752.925 Q60.4406 752.925 53.2474 750.569 Q46.0542 748.214 38.5426 743.408 L38.5426 738.315 Z" fill="#000000" fill-rule="evenodd" fill-opacity="1" /><path clip-path="url(#clip030)" d="M 0 0 M52.3562 702.54 L69.7028 715.431 L88.0042 701.872 L88.0042 708.778 L73.9996 719.154 L88.0042 729.531 L88.0042 736.437 L69.3526 722.592 L52.3562 735.26 L52.3562 728.353 L65.0558 718.9 L52.3562 709.447 L52.3562 702.54 Z" fill="#000000" fill-rule="evenodd" fill-opacity="1" /><path clip-path="url(#clip030)" d="M 0 0 M38.5426 696.652 L38.5426 691.559 Q46.0542 686.785 53.2474 684.43 Q60.4406 682.042 67.5384 682.042 Q74.668 682.042 81.8931 684.43 Q89.1182 686.785 96.5979 691.559 L96.5979 696.652 Q89.3091 692.419 82.1159 690.35 Q74.8908 688.249 67.5384 688.249 Q60.186 688.249 53.0246 690.35 Q45.8632 692.419 38.5426 696.652 Z" fill="#000000" fill-rule="evenodd" fill-opacity="1" /><polyline clip-path="url(#clip032)" style="stroke:#000000; stroke-width:4; stroke-opacity:1; fill:none" points="
  207.436,395.339 212.673,398.366 217.911,401.305 223.149,404.154 228.387,406.911 276.817,427.781 325.247,439.64 373.677,441.897 422.107,434.438 480.316,413.177 
  538.525,379.984 587.74,344.389 636.955,303.897 743.877,210.018 842.45,134.622 895.291,106.013 948.131,89.3755 978.741,86.1857 1009.35,88.226 1039.96,95.8184 
  1070.57,109.209 1097.78,126.111 1124.98,147.784 1152.18,174.23 1179.38,205.398 1203.24,236.528 1227.09,271.092 1250.95,308.946 1274.8,349.909 1326.82,448.946 
  1378.83,559.01 1431.16,677.472 1483.48,799.753 1541.33,934.116 1599.19,1061.51 1626.71,1117.81 1654.23,1170.4 1681.75,1218.61 1709.27,1261.79 1737.89,1300.7 
  1766.51,1332.88 1795.12,1357.72 1823.74,1374.69 1847.83,1382.54 1871.92,1384.24 1896.01,1379.6 1920.1,1368.46 1949.51,1345.91 1978.92,1313.4 2008.33,1270.94 
  2037.74,1218.64 2065.38,1160.69 2093.03,1094.51 2120.68,1020.46 2148.32,938.981 2192.62,794.306 2236.91,634.523 2281.2,462.69 2325.49,282.286 2332.31,254.001 
  2339.12,225.618 2345.94,197.152 2352.76,168.617 
  "/>
<path clip-path="url(#clip030)" d="
M2016.42 214.069 L2281.25 214.069 L2281.25 93.1086 L2016.42 93.1086  Z
  " fill="#ffffff" fill-rule="evenodd" fill-opacity="1"/>
<polyline clip-path="url(#clip030)" style="stroke:#000000; stroke-width:4; stroke-opacity:1; fill:none" points="
  2016.42,214.069 2281.25,214.069 2281.25,93.1086 2016.42,93.1086 2016.42,214.069 
  "/>
<polyline clip-path="url(#clip030)" style="stroke:#000000; stroke-width:4; stroke-opacity:1; fill:none" points="
  2040.26,153.589 2183.28,153.589 
  "/>
<path clip-path="url(#clip030)" d="M 0 0 M2207.11 136.309 L2211.81 136.309 L2211.81 157.304 Q2211.81 162.859 2213.83 165.313 Q2215.84 167.744 2220.35 167.744 Q2224.84 167.744 2226.86 165.313 Q2228.87 162.859 2228.87 157.304 L2228.87 136.309 L2233.57 136.309 L2233.57 157.883 Q2233.57 164.642 2230.21 168.091 Q2226.88 171.54 2220.35 171.54 Q2213.8 171.54 2210.45 168.091 Q2207.11 164.642 2207.11 157.883 L2207.11 136.309 Z" fill="#000000" fill-rule="evenodd" fill-opacity="1" /></svg>
