<?xml version="1.0" encoding="utf-8"?>
<svg xmlns="http://www.w3.org/2000/svg" xmlns:xlink="http://www.w3.org/1999/xlink" width="600" height="400" viewBox="0 0 2400 1600">
<defs>
  <clipPath id="clip680">
    <rect x="0" y="0" width="2400" height="1600"/>
  </clipPath>
</defs>
<path clip-path="url(#clip680)" d="
M0 1600 L2400 1600 L2400 0 L0 0  Z
  " fill="#ffffff" fill-rule="evenodd" fill-opacity="1"/>
<defs>
  <clipPath id="clip681">
    <rect x="480" y="0" width="1681" height="1600"/>
  </clipPath>
</defs>
<path clip-path="url(#clip680)" d="
M238.13 1423.18 L2352.76 1423.18 L2352.76 47.2441 L238.13 47.2441  Z
  " fill="#ffffff" fill-rule="evenodd" fill-opacity="1"/>
<defs>
  <clipPath id="clip682">
    <rect x="238" y="47" width="2116" height="1377"/>
  </clipPath>
</defs>
<polyline clip-path="url(#clip682)" style="stroke:#000000; stroke-width:2; stroke-opacity:0.1; fill:none" points="
  414.349,1423.18 414.349,47.2441 
  "/>
<polyline clip-path="url(#clip682)" style="stroke:#000000; stroke-width:2; stroke-opacity:0.1; fill:none" points="
  854.896,1423.18 854.896,47.2441 
  "/>
<polyline clip-path="url(#clip682)" style="stroke:#000000; stroke-width:2; stroke-opacity:0.1; fill:none" points="
  1295.44,1423.18 1295.44,47.2441 
  "/>
<polyline clip-path="url(#clip682)" style="stroke:#000000; stroke-width:2; stroke-opacity:0.1; fill:none" points="
  1735.99,1423.18 1735.99,47.2441 
  "/>
<polyline clip-path="url(#clip682)" style="stroke:#000000; stroke-width:2; stroke-opacity:0.1; fill:none" points="
  2176.54,1423.18 2176.54,47.2441 
  "/>
<polyline clip-path="url(#clip680)" style="stroke:#000000; stroke-width:4; stroke-opacity:1; fill:none" points="
  238.13,1423.18 2352.76,1423.18 
  "/>
<polyline clip-path="url(#clip680)" style="stroke:#000000; stroke-width:4; stroke-opacity:1; fill:none" points="
  414.349,1423.18 414.349,1406.67 
  "/>
<polyline clip-path="url(#clip680)" style="stroke:#000000; stroke-width:4; stroke-opacity:1; fill:none" points="
  854.896,1423.18 854.896,1406.67 
  "/>
<polyline clip-path="url(#clip680)" style="stroke:#000000; stroke-width:4; stroke-opacity:1; fill:none" points="
  1295.44,1423.18 1295.44,1406.67 
  "/>
<polyline clip-path="url(#clip680)" style="stroke:#000000; stroke-width:4; stroke-opacity:1; fill:none" points="
  1735.99,1423.18 1735.99,1406.67 
  "/>
<polyline clip-path="url(#clip680)" style="stroke:#000000; stroke-width:4; stroke-opacity:1; fill:none" points="
  2176.54,1423.18 2176.54,1406.67 
  "/>
<path clip-path="url(#clip680)" d="M 0 0 M382.358 1452.37 Q378.747 1452.37 376.919 1455.94 Q375.113 1459.48 375.113 1466.61 Q375.113 1473.71 376.919 1477.28 Q378.747 1480.82 382.358 1480.82 Q385.993 1480.82 387.798 1477.28 Q389.627 1473.71 389.627 1466.61 Q389.627 1459.48 387.798 1455.94 Q385.993 1452.37 382.358 1452.37 M382.358 1448.67 Q388.168 1448.67 391.224 1453.27 Q394.303 1457.86 394.303 1466.61 Q394.303 1475.33 391.224 1479.94 Q388.168 1484.52 382.358 1484.52 Q376.548 1484.52 373.469 1479.94 Q370.414 1475.33 370.414 1466.61 Q370.414 1457.86 373.469 1453.27 Q376.548 1448.67 382.358 1448.67 Z" fill="#000000" fill-rule="evenodd" fill-opacity="1" /><path clip-path="url(#clip680)" d="M 0 0 M399.372 1477.97 L404.256 1477.97 L404.256 1483.85 L399.372 1483.85 L399.372 1477.97 Z" fill="#000000" fill-rule="evenodd" fill-opacity="1" /><path clip-path="url(#clip680)" d="M 0 0 M419.326 1452.37 Q415.715 1452.37 413.886 1455.94 Q412.08 1459.48 412.08 1466.61 Q412.08 1473.71 413.886 1477.28 Q415.715 1480.82 419.326 1480.82 Q422.96 1480.82 424.765 1477.28 Q426.594 1473.71 426.594 1466.61 Q426.594 1459.48 424.765 1455.94 Q422.96 1452.37 419.326 1452.37 M419.326 1448.67 Q425.136 1448.67 428.191 1453.27 Q431.27 1457.86 431.27 1466.61 Q431.27 1475.33 428.191 1479.94 Q425.136 1484.52 419.326 1484.52 Q413.516 1484.52 410.437 1479.94 Q407.381 1475.33 407.381 1466.61 Q407.381 1457.86 410.437 1453.27 Q413.516 1448.67 419.326 1448.67 Z" fill="#000000" fill-rule="evenodd" fill-opacity="1" /><path clip-path="url(#clip680)" d="M 0 0 M446.339 1452.37 Q442.728 1452.37 440.9 1455.94 Q439.094 1459.48 439.094 1466.61 Q439.094 1473.71 440.9 1477.28 Q442.728 1480.82 446.339 1480.82 Q449.974 1480.82 451.779 1477.28 Q453.608 1473.71 453.608 1466.61 Q453.608 1459.48 451.779 1455.94 Q449.974 1452.37 446.339 1452.37 M446.339 1448.67 Q452.15 1448.67 455.205 1453.27 Q458.284 1457.86 458.284 1466.61 Q458.284 1475.33 455.205 1479.94 Q452.15 1484.52 446.339 1484.52 Q440.529 1484.52 437.451 1479.94 Q434.395 1475.33 434.395 1466.61 Q434.395 1457.86 437.451 1453.27 Q440.529 1448.67 446.339 1448.67 Z" fill="#000000" fill-rule="evenodd" fill-opacity="1" /><path clip-path="url(#clip680)" d="M 0 0 M824.202 1452.37 Q820.591 1452.37 818.762 1455.94 Q816.956 1459.48 816.956 1466.61 Q816.956 1473.71 818.762 1477.28 Q820.591 1480.82 824.202 1480.82 Q827.836 1480.82 829.641 1477.28 Q831.47 1473.71 831.47 1466.61 Q831.47 1459.48 829.641 1455.94 Q827.836 1452.37 824.202 1452.37 M824.202 1448.67 Q830.012 1448.67 833.067 1453.27 Q836.146 1457.86 836.146 1466.61 Q836.146 1475.33 833.067 1479.94 Q830.012 1484.52 824.202 1484.52 Q818.391 1484.52 815.313 1479.94 Q812.257 1475.33 812.257 1466.61 Q812.257 1457.86 815.313 1453.27 Q818.391 1448.67 824.202 1448.67 Z" fill="#000000" fill-rule="evenodd" fill-opacity="1" /><path clip-path="url(#clip680)" d="M 0 0 M841.215 1477.97 L846.1 1477.97 L846.1 1483.85 L841.215 1483.85 L841.215 1477.97 Z" fill="#000000" fill-rule="evenodd" fill-opacity="1" /><path clip-path="url(#clip680)" d="M 0 0 M855.197 1479.92 L871.516 1479.92 L871.516 1483.85 L849.572 1483.85 L849.572 1479.92 Q852.234 1477.16 856.817 1472.53 Q861.424 1467.88 862.604 1466.54 Q864.85 1464.01 865.729 1462.28 Q866.632 1460.52 866.632 1458.83 Q866.632 1456.07 864.688 1454.34 Q862.766 1452.6 859.664 1452.6 Q857.465 1452.6 855.012 1453.37 Q852.581 1454.13 849.803 1455.68 L849.803 1450.96 Q852.627 1449.82 855.081 1449.25 Q857.535 1448.67 859.572 1448.67 Q864.942 1448.67 868.137 1451.35 Q871.331 1454.04 871.331 1458.53 Q871.331 1460.66 870.521 1462.58 Q869.734 1464.48 867.627 1467.07 Q867.049 1467.74 863.947 1470.96 Q860.845 1474.15 855.197 1479.92 Z" fill="#000000" fill-rule="evenodd" fill-opacity="1" /><path clip-path="url(#clip680)" d="M 0 0 M876.632 1449.29 L894.988 1449.29 L894.988 1453.23 L880.914 1453.23 L880.914 1461.7 Q881.933 1461.35 882.951 1461.19 Q883.97 1461 884.988 1461 Q890.775 1461 894.155 1464.18 Q897.535 1467.35 897.535 1472.76 Q897.535 1478.34 894.062 1481.44 Q890.59 1484.52 884.271 1484.52 Q882.095 1484.52 879.826 1484.15 Q877.581 1483.78 875.174 1483.04 L875.174 1478.34 Q877.257 1479.48 879.479 1480.03 Q881.701 1480.59 884.178 1480.59 Q888.183 1480.59 890.521 1478.48 Q892.859 1476.38 892.859 1472.76 Q892.859 1469.15 890.521 1467.05 Q888.183 1464.94 884.178 1464.94 Q882.303 1464.94 880.428 1465.36 Q878.576 1465.77 876.632 1466.65 L876.632 1449.29 Z" fill="#000000" fill-rule="evenodd" fill-opacity="1" /><path clip-path="url(#clip680)" d="M 0 0 M1263.95 1452.37 Q1260.34 1452.37 1258.51 1455.94 Q1256.7 1459.48 1256.7 1466.61 Q1256.7 1473.71 1258.51 1477.28 Q1260.34 1480.82 1263.95 1480.82 Q1267.58 1480.82 1269.39 1477.28 Q1271.22 1473.71 1271.22 1466.61 Q1271.22 1459.48 1269.39 1455.94 Q1267.58 1452.37 1263.95 1452.37 M1263.95 1448.67 Q1269.76 1448.67 1272.82 1453.27 Q1275.89 1457.86 1275.89 1466.61 Q1275.89 1475.33 1272.82 1479.94 Q1269.76 1484.52 1263.95 1484.52 Q1258.14 1484.52 1255.06 1479.94 Q1252.01 1475.33 1252.01 1466.61 Q1252.01 1457.86 1255.06 1453.27 Q1258.14 1448.67 1263.95 1448.67 Z" fill="#000000" fill-rule="evenodd" fill-opacity="1" /><path clip-path="url(#clip680)" d="M 0 0 M1280.96 1477.97 L1285.85 1477.97 L1285.85 1483.85 L1280.96 1483.85 L1280.96 1477.97 Z" fill="#000000" fill-rule="evenodd" fill-opacity="1" /><path clip-path="url(#clip680)" d="M 0 0 M1290.96 1449.29 L1309.32 1449.29 L1309.32 1453.23 L1295.25 1453.23 L1295.25 1461.7 Q1296.26 1461.35 1297.28 1461.19 Q1298.3 1461 1299.32 1461 Q1305.11 1461 1308.49 1464.18 Q1311.87 1467.35 1311.87 1472.76 Q1311.87 1478.34 1308.39 1481.44 Q1304.92 1484.52 1298.6 1484.52 Q1296.43 1484.52 1294.16 1484.15 Q1291.91 1483.78 1289.51 1483.04 L1289.51 1478.34 Q1291.59 1479.48 1293.81 1480.03 Q1296.03 1480.59 1298.51 1480.59 Q1302.51 1480.59 1304.85 1478.48 Q1307.19 1476.38 1307.19 1472.76 Q1307.19 1469.15 1304.85 1467.05 Q1302.51 1464.94 1298.51 1464.94 Q1296.64 1464.94 1294.76 1465.36 Q1292.91 1465.77 1290.96 1466.65 L1290.96 1449.29 Z" fill="#000000" fill-rule="evenodd" fill-opacity="1" /><path clip-path="url(#clip680)" d="M 0 0 M1326.94 1452.37 Q1323.32 1452.37 1321.5 1455.94 Q1319.69 1459.48 1319.69 1466.61 Q1319.69 1473.71 1321.5 1477.28 Q1323.32 1480.82 1326.94 1480.82 Q1330.57 1480.82 1332.38 1477.28 Q1334.2 1473.71 1334.2 1466.61 Q1334.2 1459.48 1332.38 1455.94 Q1330.57 1452.37 1326.94 1452.37 M1326.94 1448.67 Q1332.75 1448.67 1335.8 1453.27 Q1338.88 1457.86 1338.88 1466.61 Q1338.88 1475.33 1335.8 1479.94 Q1332.75 1484.52 1326.94 1484.52 Q1321.13 1484.52 1318.05 1479.94 Q1314.99 1475.33 1314.99 1466.61 Q1314.99 1457.86 1318.05 1453.27 Q1321.13 1448.67 1326.94 1448.67 Z" fill="#000000" fill-rule="evenodd" fill-opacity="1" /><path clip-path="url(#clip680)" d="M 0 0 M1704.95 1452.37 Q1701.34 1452.37 1699.51 1455.94 Q1697.7 1459.48 1697.7 1466.61 Q1697.7 1473.71 1699.51 1477.28 Q1701.34 1480.82 1704.95 1480.82 Q1708.58 1480.82 1710.39 1477.28 Q1712.22 1473.71 1712.22 1466.61 Q1712.22 1459.48 1710.39 1455.94 Q1708.58 1452.37 1704.95 1452.37 M1704.95 1448.67 Q1710.76 1448.67 1713.81 1453.27 Q1716.89 1457.86 1716.89 1466.61 Q1716.89 1475.33 1713.81 1479.94 Q1710.76 1484.52 1704.95 1484.52 Q1699.14 1484.52 1696.06 1479.94 Q1693 1475.33 1693 1466.61 Q1693 1457.86 1696.06 1453.27 Q1699.14 1448.67 1704.95 1448.67 Z" fill="#000000" fill-rule="evenodd" fill-opacity="1" /><path clip-path="url(#clip680)" d="M 0 0 M1721.96 1477.97 L1726.85 1477.97 L1726.85 1483.85 L1721.96 1483.85 L1721.96 1477.97 Z" fill="#000000" fill-rule="evenodd" fill-opacity="1" /><path clip-path="url(#clip680)" d="M 0 0 M1730.74 1449.29 L1752.96 1449.29 L1752.96 1451.28 L1740.41 1483.85 L1735.53 1483.85 L1747.33 1453.23 L1730.74 1453.23 L1730.74 1449.29 Z" fill="#000000" fill-rule="evenodd" fill-opacity="1" /><path clip-path="url(#clip680)" d="M 0 0 M1758.07 1449.29 L1776.43 1449.29 L1776.43 1453.23 L1762.36 1453.23 L1762.36 1461.7 Q1763.37 1461.35 1764.39 1461.19 Q1765.41 1461 1766.43 1461 Q1772.22 1461 1775.6 1464.18 Q1778.98 1467.35 1778.98 1472.76 Q1778.98 1478.34 1775.5 1481.44 Q1772.03 1484.52 1765.71 1484.52 Q1763.54 1484.52 1761.27 1484.15 Q1759.02 1483.78 1756.61 1483.04 L1756.61 1478.34 Q1758.7 1479.48 1760.92 1480.03 Q1763.14 1480.59 1765.62 1480.59 Q1769.62 1480.59 1771.96 1478.48 Q1774.3 1476.38 1774.3 1472.76 Q1774.3 1469.15 1771.96 1467.05 Q1769.62 1464.94 1765.62 1464.94 Q1763.74 1464.94 1761.87 1465.36 Q1760.02 1465.77 1758.07 1466.65 L1758.07 1449.29 Z" fill="#000000" fill-rule="evenodd" fill-opacity="1" /><path clip-path="url(#clip680)" d="M 0 0 M2134.93 1479.92 L2142.57 1479.92 L2142.57 1453.55 L2134.26 1455.22 L2134.26 1450.96 L2142.52 1449.29 L2147.2 1449.29 L2147.2 1479.92 L2154.84 1479.92 L2154.84 1483.85 L2134.93 1483.85 L2134.93 1479.92 Z" fill="#000000" fill-rule="evenodd" fill-opacity="1" /><path clip-path="url(#clip680)" d="M 0 0 M2159.91 1477.97 L2164.79 1477.97 L2164.79 1483.85 L2159.91 1483.85 L2159.91 1477.97 Z" fill="#000000" fill-rule="evenodd" fill-opacity="1" /><path clip-path="url(#clip680)" d="M 0 0 M2179.86 1452.37 Q2176.25 1452.37 2174.42 1455.94 Q2172.61 1459.48 2172.61 1466.61 Q2172.61 1473.71 2174.42 1477.28 Q2176.25 1480.82 2179.86 1480.82 Q2183.49 1480.82 2185.3 1477.28 Q2187.13 1473.71 2187.13 1466.61 Q2187.13 1459.48 2185.3 1455.94 Q2183.49 1452.37 2179.86 1452.37 M2179.86 1448.67 Q2185.67 1448.67 2188.72 1453.27 Q2191.8 1457.86 2191.8 1466.61 Q2191.8 1475.33 2188.72 1479.94 Q2185.67 1484.52 2179.86 1484.52 Q2174.05 1484.52 2170.97 1479.94 Q2167.91 1475.33 2167.91 1466.61 Q2167.91 1457.86 2170.97 1453.27 Q2174.05 1448.67 2179.86 1448.67 Z" fill="#000000" fill-rule="evenodd" fill-opacity="1" /><path clip-path="url(#clip680)" d="M 0 0 M2206.87 1452.37 Q2203.26 1452.37 2201.43 1455.94 Q2199.63 1459.48 2199.63 1466.61 Q2199.63 1473.71 2201.43 1477.28 Q2203.26 1480.82 2206.87 1480.82 Q2210.51 1480.82 2212.31 1477.28 Q2214.14 1473.71 2214.14 1466.61 Q2214.14 1459.48 2212.31 1455.94 Q2210.51 1452.37 2206.87 1452.37 M2206.87 1448.67 Q2212.68 1448.67 2215.74 1453.27 Q2218.82 1457.86 2218.82 1466.61 Q2218.82 1475.33 2215.74 1479.94 Q2212.68 1484.52 2206.87 1484.52 Q2201.06 1484.52 2197.98 1479.94 Q2194.93 1475.33 2194.93 1466.61 Q2194.93 1457.86 2197.98 1453.27 Q2201.06 1448.67 2206.87 1448.67 Z" fill="#000000" fill-rule="evenodd" fill-opacity="1" /><path clip-path="url(#clip680)" d="M 0 0 M1312.06 1520.4 L1299.17 1537.74 L1312.73 1556.04 L1305.82 1556.04 L1295.44 1542.04 L1285.07 1556.04 L1278.16 1556.04 L1292.01 1537.39 L1279.34 1520.4 L1286.24 1520.4 L1295.7 1533.1 L1305.15 1520.4 L1312.06 1520.4 Z" fill="#000000" fill-rule="evenodd" fill-opacity="1" /><polyline clip-path="url(#clip682)" style="stroke:#000000; stroke-width:2; stroke-opacity:0.1; fill:none" points="
  238.13,1209.5 2352.76,1209.5 
  "/>
<polyline clip-path="url(#clip682)" style="stroke:#000000; stroke-width:2; stroke-opacity:0.1; fill:none" points="
  238.13,930.253 2352.76,930.253 
  "/>
<polyline clip-path="url(#clip682)" style="stroke:#000000; stroke-width:2; stroke-opacity:0.1; fill:none" points="
  238.13,651.004 2352.76,651.004 
  "/>
<polyline clip-path="url(#clip682)" style="stroke:#000000; stroke-width:2; stroke-opacity:0.1; fill:none" points="
  238.13,371.756 2352.76,371.756 
  "/>
<polyline clip-path="url(#clip682)" style="stroke:#000000; stroke-width:2; stroke-opacity:0.1; fill:none" points="
  238.13,92.5069 2352.76,92.5069 
  "/>
<polyline clip-path="url(#clip680)" style="stroke:#000000; stroke-width:4; stroke-opacity:1; fill:none" points="
  238.13,1423.18 238.13,47.2441 
  "/>
<polyline clip-path="url(#clip680)" style="stroke:#000000; stroke-width:4; stroke-opacity:1; fill:none" points="
  238.13,1209.5 263.506,1209.5 
  "/>
<polyline clip-path="url(#clip680)" style="stroke:#000000; stroke-width:4; stroke-opacity:1; fill:none" points="
  238.13,930.253 263.506,930.253 
  "/>
<polyline clip-path="url(#clip680)" style="stroke:#000000; stroke-width:4; stroke-opacity:1; fill:none" points="
  238.13,651.004 263.506,651.004 
  "/>
<polyline clip-path="url(#clip680)" style="stroke:#000000; stroke-width:4; stroke-opacity:1; fill:none" points="
  238.13,371.756 263.506,371.756 
  "/>
<polyline clip-path="url(#clip680)" style="stroke:#000000; stroke-width:4; stroke-opacity:1; fill:none" points="
  238.13,92.5069 263.506,92.5069 
  "/>
<path clip-path="url(#clip680)" d="M 0 0 M126.205 1195.3 Q122.593 1195.3 120.765 1198.87 Q118.959 1202.41 118.959 1209.54 Q118.959 1216.64 120.765 1220.21 Q122.593 1223.75 126.205 1223.75 Q129.839 1223.75 131.644 1220.21 Q133.473 1216.64 133.473 1209.54 Q133.473 1202.41 131.644 1198.87 Q129.839 1195.3 126.205 1195.3 M126.205 1191.6 Q132.015 1191.6 135.07 1196.2 Q138.149 1200.79 138.149 1209.54 Q138.149 1218.26 135.07 1222.87 Q132.015 1227.45 126.205 1227.45 Q120.394 1227.45 117.316 1222.87 Q114.26 1218.26 114.26 1209.54 Q114.26 1200.79 117.316 1196.2 Q120.394 1191.6 126.205 1191.6 Z" fill="#000000" fill-rule="evenodd" fill-opacity="1" /><path clip-path="url(#clip680)" d="M 0 0 M143.218 1220.9 L148.103 1220.9 L148.103 1226.78 L143.218 1226.78 L143.218 1220.9 Z" fill="#000000" fill-rule="evenodd" fill-opacity="1" /><path clip-path="url(#clip680)" d="M 0 0 M163.172 1195.3 Q159.561 1195.3 157.732 1198.87 Q155.927 1202.41 155.927 1209.54 Q155.927 1216.64 157.732 1220.21 Q159.561 1223.75 163.172 1223.75 Q166.806 1223.75 168.612 1220.21 Q170.44 1216.64 170.44 1209.54 Q170.44 1202.41 168.612 1198.87 Q166.806 1195.3 163.172 1195.3 M163.172 1191.6 Q168.982 1191.6 172.038 1196.2 Q175.116 1200.79 175.116 1209.54 Q175.116 1218.26 172.038 1222.87 Q168.982 1227.45 163.172 1227.45 Q157.362 1227.45 154.283 1222.87 Q151.228 1218.26 151.228 1209.54 Q151.228 1200.79 154.283 1196.2 Q157.362 1191.6 163.172 1191.6 Z" fill="#000000" fill-rule="evenodd" fill-opacity="1" /><path clip-path="url(#clip680)" d="M 0 0 M190.186 1195.3 Q186.575 1195.3 184.746 1198.87 Q182.94 1202.41 182.94 1209.54 Q182.94 1216.64 184.746 1220.21 Q186.575 1223.75 190.186 1223.75 Q193.82 1223.75 195.625 1220.21 Q197.454 1216.64 197.454 1209.54 Q197.454 1202.41 195.625 1198.87 Q193.82 1195.3 190.186 1195.3 M190.186 1191.6 Q195.996 1191.6 199.051 1196.2 Q202.13 1200.79 202.13 1209.54 Q202.13 1218.26 199.051 1222.87 Q195.996 1227.45 190.186 1227.45 Q184.376 1227.45 181.297 1222.87 Q178.241 1218.26 178.241 1209.54 Q178.241 1200.79 181.297 1196.2 Q184.376 1191.6 190.186 1191.6 Z" fill="#000000" fill-rule="evenodd" fill-opacity="1" /><path clip-path="url(#clip680)" d="M 0 0 M128.797 916.052 Q125.186 916.052 123.357 919.617 Q121.552 923.158 121.552 930.288 Q121.552 937.394 123.357 940.959 Q125.186 944.501 128.797 944.501 Q132.431 944.501 134.237 940.959 Q136.066 937.394 136.066 930.288 Q136.066 923.158 134.237 919.617 Q132.431 916.052 128.797 916.052 M128.797 912.348 Q134.607 912.348 137.663 916.955 Q140.741 921.538 140.741 930.288 Q140.741 939.015 137.663 943.621 Q134.607 948.204 128.797 948.204 Q122.987 948.204 119.908 943.621 Q116.853 939.015 116.853 930.288 Q116.853 921.538 119.908 916.955 Q122.987 912.348 128.797 912.348 Z" fill="#000000" fill-rule="evenodd" fill-opacity="1" /><path clip-path="url(#clip680)" d="M 0 0 M145.811 941.653 L150.695 941.653 L150.695 947.533 L145.811 947.533 L145.811 941.653 Z" fill="#000000" fill-rule="evenodd" fill-opacity="1" /><path clip-path="url(#clip680)" d="M 0 0 M159.792 943.598 L176.112 943.598 L176.112 947.533 L154.167 947.533 L154.167 943.598 Q156.829 940.843 161.413 936.214 Q166.019 931.561 167.2 930.218 Q169.445 927.695 170.325 925.959 Q171.227 924.2 171.227 922.51 Q171.227 919.755 169.283 918.019 Q167.362 916.283 164.26 916.283 Q162.061 916.283 159.607 917.047 Q157.177 917.811 154.399 919.362 L154.399 914.64 Q157.223 913.505 159.677 912.927 Q162.13 912.348 164.167 912.348 Q169.538 912.348 172.732 915.033 Q175.926 917.718 175.926 922.209 Q175.926 924.339 175.116 926.26 Q174.329 928.158 172.223 930.751 Q171.644 931.422 168.542 934.64 Q165.44 937.834 159.792 943.598 Z" fill="#000000" fill-rule="evenodd" fill-opacity="1" /><path clip-path="url(#clip680)" d="M 0 0 M181.227 912.973 L199.584 912.973 L199.584 916.908 L185.51 916.908 L185.51 925.38 Q186.528 925.033 187.547 924.871 Q188.565 924.686 189.584 924.686 Q195.371 924.686 198.75 927.857 Q202.13 931.029 202.13 936.445 Q202.13 942.024 198.658 945.126 Q195.186 948.204 188.866 948.204 Q186.69 948.204 184.422 947.834 Q182.176 947.464 179.769 946.723 L179.769 942.024 Q181.852 943.158 184.075 943.714 Q186.297 944.269 188.774 944.269 Q192.778 944.269 195.116 942.163 Q197.454 940.056 197.454 936.445 Q197.454 932.834 195.116 930.728 Q192.778 928.621 188.774 928.621 Q186.899 928.621 185.024 929.038 Q183.172 929.454 181.227 930.334 L181.227 912.973 Z" fill="#000000" fill-rule="evenodd" fill-opacity="1" /><path clip-path="url(#clip680)" d="M 0 0 M127.2 636.803 Q123.589 636.803 121.76 640.368 Q119.955 643.909 119.955 651.039 Q119.955 658.146 121.76 661.71 Q123.589 665.252 127.2 665.252 Q130.834 665.252 132.64 661.71 Q134.468 658.146 134.468 651.039 Q134.468 643.909 132.64 640.368 Q130.834 636.803 127.2 636.803 M127.2 633.099 Q133.01 633.099 136.066 637.706 Q139.144 642.289 139.144 651.039 Q139.144 659.766 136.066 664.372 Q133.01 668.956 127.2 668.956 Q121.39 668.956 118.311 664.372 Q115.256 659.766 115.256 651.039 Q115.256 642.289 118.311 637.706 Q121.39 633.099 127.2 633.099 Z" fill="#000000" fill-rule="evenodd" fill-opacity="1" /><path clip-path="url(#clip680)" d="M 0 0 M144.214 662.405 L149.098 662.405 L149.098 668.284 L144.214 668.284 L144.214 662.405 Z" fill="#000000" fill-rule="evenodd" fill-opacity="1" /><path clip-path="url(#clip680)" d="M 0 0 M154.214 633.724 L172.57 633.724 L172.57 637.66 L158.496 637.66 L158.496 646.132 Q159.515 645.784 160.533 645.622 Q161.552 645.437 162.57 645.437 Q168.357 645.437 171.737 648.609 Q175.116 651.78 175.116 657.196 Q175.116 662.775 171.644 665.877 Q168.172 668.956 161.852 668.956 Q159.677 668.956 157.408 668.585 Q155.163 668.215 152.755 667.474 L152.755 662.775 Q154.839 663.909 157.061 664.465 Q159.283 665.02 161.76 665.02 Q165.765 665.02 168.102 662.914 Q170.44 660.808 170.44 657.196 Q170.44 653.585 168.102 651.479 Q165.765 649.372 161.76 649.372 Q159.885 649.372 158.01 649.789 Q156.158 650.206 154.214 651.085 L154.214 633.724 Z" fill="#000000" fill-rule="evenodd" fill-opacity="1" /><path clip-path="url(#clip680)" d="M 0 0 M190.186 636.803 Q186.575 636.803 184.746 640.368 Q182.94 643.909 182.94 651.039 Q182.94 658.146 184.746 661.71 Q186.575 665.252 190.186 665.252 Q193.82 665.252 195.625 661.71 Q197.454 658.146 197.454 651.039 Q197.454 643.909 195.625 640.368 Q193.82 636.803 190.186 636.803 M190.186 633.099 Q195.996 633.099 199.051 637.706 Q202.13 642.289 202.13 651.039 Q202.13 659.766 199.051 664.372 Q195.996 668.956 190.186 668.956 Q184.376 668.956 181.297 664.372 Q178.241 659.766 178.241 651.039 Q178.241 642.289 181.297 637.706 Q184.376 633.099 190.186 633.099 Z" fill="#000000" fill-rule="evenodd" fill-opacity="1" /><path clip-path="url(#clip680)" d="M 0 0 M128.103 357.554 Q124.492 357.554 122.663 361.119 Q120.857 364.661 120.857 371.79 Q120.857 378.897 122.663 382.462 Q124.492 386.003 128.103 386.003 Q131.737 386.003 133.542 382.462 Q135.371 378.897 135.371 371.79 Q135.371 364.661 133.542 361.119 Q131.737 357.554 128.103 357.554 M128.103 353.851 Q133.913 353.851 136.968 358.457 Q140.047 363.04 140.047 371.79 Q140.047 380.517 136.968 385.124 Q133.913 389.707 128.103 389.707 Q122.293 389.707 119.214 385.124 Q116.158 380.517 116.158 371.79 Q116.158 363.04 119.214 358.457 Q122.293 353.851 128.103 353.851 Z" fill="#000000" fill-rule="evenodd" fill-opacity="1" /><path clip-path="url(#clip680)" d="M 0 0 M145.116 383.156 L150.001 383.156 L150.001 389.036 L145.116 389.036 L145.116 383.156 Z" fill="#000000" fill-rule="evenodd" fill-opacity="1" /><path clip-path="url(#clip680)" d="M 0 0 M153.89 354.476 L176.112 354.476 L176.112 356.466 L163.565 389.036 L158.681 389.036 L170.487 358.411 L153.89 358.411 L153.89 354.476 Z" fill="#000000" fill-rule="evenodd" fill-opacity="1" /><path clip-path="url(#clip680)" d="M 0 0 M181.227 354.476 L199.584 354.476 L199.584 358.411 L185.51 358.411 L185.51 366.883 Q186.528 366.536 187.547 366.374 Q188.565 366.189 189.584 366.189 Q195.371 366.189 198.75 369.36 Q202.13 372.531 202.13 377.948 Q202.13 383.526 198.658 386.628 Q195.186 389.707 188.866 389.707 Q186.69 389.707 184.422 389.337 Q182.176 388.966 179.769 388.225 L179.769 383.526 Q181.852 384.661 184.075 385.216 Q186.297 385.772 188.774 385.772 Q192.778 385.772 195.116 383.665 Q197.454 381.559 197.454 377.948 Q197.454 374.337 195.116 372.23 Q192.778 370.124 188.774 370.124 Q186.899 370.124 185.024 370.54 Q183.172 370.957 181.227 371.837 L181.227 354.476 Z" fill="#000000" fill-rule="evenodd" fill-opacity="1" /><path clip-path="url(#clip680)" d="M 0 0 M118.242 105.852 L125.88 105.852 L125.88 79.4862 L117.57 81.1528 L117.57 76.8936 L125.834 75.2269 L130.51 75.2269 L130.51 105.852 L138.149 105.852 L138.149 109.787 L118.242 109.787 L118.242 105.852 Z" fill="#000000" fill-rule="evenodd" fill-opacity="1" /><path clip-path="url(#clip680)" d="M 0 0 M143.218 103.907 L148.103 103.907 L148.103 109.787 L143.218 109.787 L143.218 103.907 Z" fill="#000000" fill-rule="evenodd" fill-opacity="1" /><path clip-path="url(#clip680)" d="M 0 0 M163.172 78.3056 Q159.561 78.3056 157.732 81.8704 Q155.927 85.4121 155.927 92.5417 Q155.927 99.6481 157.732 103.213 Q159.561 106.755 163.172 106.755 Q166.806 106.755 168.612 103.213 Q170.44 99.6481 170.44 92.5417 Q170.44 85.4121 168.612 81.8704 Q166.806 78.3056 163.172 78.3056 M163.172 74.6019 Q168.982 74.6019 172.038 79.2084 Q175.116 83.7917 175.116 92.5417 Q175.116 101.268 172.038 105.875 Q168.982 110.458 163.172 110.458 Q157.362 110.458 154.283 105.875 Q151.228 101.268 151.228 92.5417 Q151.228 83.7917 154.283 79.2084 Q157.362 74.6019 163.172 74.6019 Z" fill="#000000" fill-rule="evenodd" fill-opacity="1" /><path clip-path="url(#clip680)" d="M 0 0 M190.186 78.3056 Q186.575 78.3056 184.746 81.8704 Q182.94 85.4121 182.94 92.5417 Q182.94 99.6481 184.746 103.213 Q186.575 106.755 190.186 106.755 Q193.82 106.755 195.625 103.213 Q197.454 99.6481 197.454 92.5417 Q197.454 85.4121 195.625 81.8704 Q193.82 78.3056 190.186 78.3056 M190.186 74.6019 Q195.996 74.6019 199.051 79.2084 Q202.13 83.7917 202.13 92.5417 Q202.13 101.268 199.051 105.875 Q195.996 110.458 190.186 110.458 Q184.376 110.458 181.297 105.875 Q178.241 101.268 178.241 92.5417 Q178.241 83.7917 181.297 79.2084 Q184.376 74.6019 190.186 74.6019 Z" fill="#000000" fill-rule="evenodd" fill-opacity="1" /><path clip-path="url(#clip680)" d="M 0 0 M73.9359 788.382 L52.3562 788.382 L52.3562 782.525 L73.7131 782.525 Q78.7739 782.525 81.3202 780.552 Q83.8346 778.578 83.8346 774.632 Q83.8346 769.889 80.8109 767.152 Q77.7872 764.383 72.5673 764.383 L52.3562 764.383 L52.3562 758.526 L88.0042 758.526 L88.0042 764.383 L82.5296 764.383 Q85.7762 766.515 87.3676 769.348 Q88.9272 772.149 88.9272 775.873 Q88.9272 782.016 85.1078 785.199 Q81.2883 788.382 73.9359 788.382 M51.4968 773.645 L51.4968 773.645 Z" fill="#000000" fill-rule="evenodd" fill-opacity="1" /><path clip-path="url(#clip680)" d="M 0 0 M38.5426 738.315 Q45.8632 742.58 53.0246 744.649 Q60.186 746.718 67.5384 746.718 Q74.8908 746.718 82.1159 744.649 Q89.3091 742.548 96.5979 738.315 L96.5979 743.408 Q89.1182 748.182 81.8931 750.569 Q74.668 752.925 67.5384 752.925 Q60.4406 752.925 53.2474 750.569 Q46.0542 748.214 38.5426 743.408 L38.5426 738.315 Z" fill="#000000" fill-rule="evenodd" fill-opacity="1" /><path clip-path="url(#clip680)" d="M 0 0 M52.3562 702.54 L69.7028 715.431 L88.0042 701.872 L88.0042 708.778 L73.9996 719.154 L88.0042 729.531 L88.0042 736.437 L69.3526 722.592 L52.3562 735.26 L52.3562 728.353 L65.0558 718.9 L52.3562 709.447 L52.3562 702.54 Z" fill="#000000" fill-rule="evenodd" fill-opacity="1" /><path clip-path="url(#clip680)" d="M 0 0 M38.5426 696.652 L38.5426 691.559 Q46.0542 686.785 53.2474 684.43 Q60.4406 682.042 67.5384 682.042 Q74.668 682.042 81.8931 684.43 Q89.1182 686.785 96.5979 691.559 L96.5979 696.652 Q89.3091 692.419 82.1159 690.35 Q74.8908 688.249 67.5384 688.249 Q60.186 688.249 53.0246 690.35 Q45.8632 692.419 38.5426 696.652 Z" fill="#000000" fill-rule="evenodd" fill-opacity="1" /><polyline clip-path="url(#clip682)" style="stroke:#000000; stroke-width:4; stroke-opacity:1; fill:none" points="
  238.13,1384.24 258.781,1363.9 449.73,1174.28 564.482,1060.46 661.504,965.401 766.896,864.227 864.059,773.632 968.228,680.151 1088.92,577.598 1196.17,492.558 
  1290.22,423.35 1392.77,354.202 1495.92,291.85 1609.97,231.955 1718.48,184.33 1831.31,144.98 1926.29,120.183 2042.25,100.5 2151.25,92.7907 2325.88,102.39 
  2352.76,106.259 
  "/>
<polyline clip-path="url(#clip682)" style="stroke:#008000; stroke-width:4; stroke-opacity:1; fill:none" points="
  414.349,1209.5 431.971,1192.61 449.593,1175.72 467.215,1158.83 484.836,1141.94 502.458,1125.05 520.08,1108.16 537.702,1091.27 555.324,1074.38 572.946,1057.49 
  590.568,1040.6 608.19,1023.71 625.811,1006.82 643.433,989.925 661.055,973.034 678.677,956.144 696.299,939.253 713.921,922.363 731.543,905.472 749.165,888.582 
  766.787,871.691 784.408,854.801 802.03,837.91 819.652,821.02 837.274,804.129 854.896,787.238 872.518,770.348 890.14,753.457 907.762,736.567 925.383,719.676 
  943.005,702.786 960.627,685.895 978.249,669.005 995.871,653.714 1013.49,640.361 1031.11,627.009 1048.74,613.656 1066.36,600.303 1083.98,586.95 1101.6,573.598 
  1119.22,560.245 1136.85,546.892 1154.47,533.54 1172.09,520.187 1189.71,506.834 1207.33,493.481 1224.96,480.129 1242.58,466.776 1260.2,453.423 1277.82,440.071 
  1295.44,426.718 1313.06,413.365 1330.69,400.012 1348.31,386.66 1365.93,373.307 1383.55,359.954 1401.17,346.602 1418.8,333.249 1436.42,323.708 1454.04,314.815 
  1471.66,305.922 1489.28,297.029 1506.91,288.136 1524.53,279.243 1542.15,270.35 1559.77,261.457 1577.39,252.564 1595.01,243.671 1612.64,234.778 1630.26,225.885 
  1647.88,216.992 1665.5,208.099 1683.12,199.206 1700.75,190.313 1718.37,181.42 1735.99,172.527 1753.61,167.291 1771.23,163.912 1788.86,160.533 1806.48,157.153 
  1824.1,153.774 1841.72,150.394 1859.34,147.015 1876.97,143.636 1894.59,140.256 1912.21,136.877 1929.83,133.497 1947.45,130.118 1965.07,126.739 1982.7,123.359 
  2000.32,119.98 2017.94,116.6 2035.56,113.221 2053.18,109.842 2070.81,106.462 2088.43,103.083 2106.05,99.7033 2123.67,96.3239 2141.29,92.9445 2158.92,89.5651 
  2176.54,86.1857 
  "/>
<polyline clip-path="url(#clip682)" style="stroke:#ff0000; stroke-width:4; stroke-opacity:1; fill:none" points="
  414.349,1209.5 431.971,1192.04 449.593,1174.58 467.215,1157.12 484.836,1139.66 502.458,1122.2 520.08,1104.74 537.702,1087.28 555.324,1069.82 572.946,1052.36 
  590.568,1034.9 608.19,1017.44 625.811,999.982 643.433,982.689 661.055,965.786 678.677,948.884 696.299,931.982 713.921,915.08 731.543,898.178 749.165,881.276 
  766.787,864.374 784.408,847.472 802.03,830.569 819.652,814.43 837.274,798.578 854.896,782.727 872.518,766.876 890.14,751.025 907.762,735.174 925.383,719.322 
  943.005,703.471 960.627,687.62 978.249,671.769 995.871,655.917 1013.49,640.066 1031.11,625.663 1048.74,611.726 1066.36,597.79 1083.98,583.853 1101.6,569.917 
  1119.22,555.98 1136.85,542.044 1154.47,528.107 1172.09,514.17 1189.71,500.234 1207.33,486.297 1224.96,472.361 1242.58,458.424 1260.2,444.488 1277.82,430.975 
  1295.44,419.523 1313.06,408.071 1330.69,396.619 1348.31,385.167 1365.93,373.715 1383.55,362.263 1401.17,350.811 1418.8,339.359 1436.42,327.907 1454.04,316.455 
  1471.66,305.003 1489.28,294.385 1506.91,285.441 1524.53,276.497 1542.15,267.553 1559.77,258.61 1577.39,249.666 1595.01,240.722 1612.64,231.778 1630.26,222.834 
  1647.88,213.89 1665.5,204.946 1683.12,198.18 1700.75,192.342 1718.37,186.504 1735.99,180.666 1753.61,174.828 1771.23,168.991 1788.86,163.153 1806.48,157.315 
  1824.1,151.477 1841.72,145.639 1859.34,139.802 1876.97,133.964 1894.59,128.126 1912.21,122.288 1929.83,118.267 1947.45,116.276 1965.07,114.286 1982.7,112.295 
  2000.32,110.304 2017.94,108.314 2035.56,106.323 2053.18,104.333 2070.81,102.342 2088.43,100.352 2106.05,98.3612 2123.67,96.3706 2141.29,94.3801 2158.92,92.3896 
  2176.54,90.399 
  "/>
<path clip-path="url(#clip680)" d="
M1998.1 335.029 L2282.27 335.029 L2282.27 93.1086 L1998.1 93.1086  Z
  " fill="#ffffff" fill-rule="evenodd" fill-opacity="1"/>
<polyline clip-path="url(#clip680)" style="stroke:#000000; stroke-width:4; stroke-opacity:1; fill:none" points="
  1998.1,335.029 2282.27,335.029 2282.27,93.1086 1998.1,93.1086 1998.1,335.029 
  "/>
<polyline clip-path="url(#clip680)" style="stroke:#000000; stroke-width:4; stroke-opacity:1; fill:none" points="
  2021.59,153.589 2162.57,153.589 
  "/>
<path clip-path="url(#clip680)" d="M 0 0 M2186.06 136.309 L2190.76 136.309 L2190.76 157.304 Q2190.76 162.859 2192.78 165.313 Q2194.79 167.744 2199.3 167.744 Q2203.8 167.744 2205.81 165.313 Q2207.82 162.859 2207.82 157.304 L2207.82 136.309 L2212.52 136.309 L2212.52 157.883 Q2212.52 164.642 2209.17 168.091 Q2205.83 171.54 2199.3 171.54 Q2192.75 171.54 2189.4 168.091 Q2186.06 164.642 2186.06 157.883 L2186.06 136.309 Z" fill="#000000" fill-rule="evenodd" fill-opacity="1" /><polyline clip-path="url(#clip680)" style="stroke:#008000; stroke-width:4; stroke-opacity:1; fill:none" points="
  2021.59,214.069 2162.57,214.069 
  "/>
<path clip-path="url(#clip680)" d="M 0 0 M2186.06 221.117 L2186.06 205.423 L2190.32 205.423 L2190.32 220.955 Q2190.32 224.636 2191.76 226.488 Q2193.19 228.316 2196.06 228.316 Q2199.51 228.316 2201.5 226.117 Q2203.52 223.918 2203.52 220.122 L2203.52 205.423 L2207.78 205.423 L2207.78 231.349 L2203.52 231.349 L2203.52 227.367 Q2201.97 229.728 2199.91 230.886 Q2197.87 232.02 2195.16 232.02 Q2190.69 232.02 2188.38 229.242 Q2186.06 226.464 2186.06 221.117 M2196.78 204.798 L2196.78 204.798 Z" fill="#000000" fill-rule="evenodd" fill-opacity="1" /><path clip-path="url(#clip680)" d="M 0 0 M2225.69 200.863 L2213.89 219.312 L2225.69 219.312 L2225.69 200.863 M2224.47 196.789 L2230.35 196.789 L2230.35 219.312 L2235.28 219.312 L2235.28 223.201 L2230.35 223.201 L2230.35 231.349 L2225.69 231.349 L2225.69 223.201 L2210.09 223.201 L2210.09 218.687 L2224.47 196.789 Z" fill="#000000" fill-rule="evenodd" fill-opacity="1" /><polyline clip-path="url(#clip680)" style="stroke:#ff0000; stroke-width:4; stroke-opacity:1; fill:none" points="
  2021.59,274.549 2162.57,274.549 
  "/>
<path clip-path="url(#clip680)" d="M 0 0 M2186.06 281.597 L2186.06 265.903 L2190.32 265.903 L2190.32 281.435 Q2190.32 285.116 2191.76 286.968 Q2193.19 288.796 2196.06 288.796 Q2199.51 288.796 2201.5 286.597 Q2203.52 284.398 2203.52 280.602 L2203.52 265.903 L2207.78 265.903 L2207.78 291.829 L2203.52 291.829 L2203.52 287.847 Q2201.97 290.208 2199.91 291.366 Q2197.87 292.5 2195.16 292.5 Q2190.69 292.5 2188.38 289.722 Q2186.06 286.944 2186.06 281.597 M2196.78 265.278 L2196.78 265.278 Z" fill="#000000" fill-rule="evenodd" fill-opacity="1" /><path clip-path="url(#clip680)" d="M 0 0 M2222.85 275.417 Q2219.51 275.417 2217.59 277.199 Q2215.69 278.981 2215.69 282.106 Q2215.69 285.231 2217.59 287.014 Q2219.51 288.796 2222.85 288.796 Q2226.18 288.796 2228.1 287.014 Q2230.02 285.208 2230.02 282.106 Q2230.02 278.981 2228.1 277.199 Q2226.2 275.417 2222.85 275.417 M2218.17 273.426 Q2215.16 272.685 2213.47 270.625 Q2211.8 268.565 2211.8 265.602 Q2211.8 261.458 2214.74 259.051 Q2217.71 256.644 2222.85 256.644 Q2228.01 256.644 2230.95 259.051 Q2233.89 261.458 2233.89 265.602 Q2233.89 268.565 2232.2 270.625 Q2230.53 272.685 2227.55 273.426 Q2230.92 274.213 2232.8 276.505 Q2234.7 278.796 2234.7 282.106 Q2234.7 287.13 2231.62 289.815 Q2228.56 292.5 2222.85 292.5 Q2217.13 292.5 2214.05 289.815 Q2210.99 287.13 2210.99 282.106 Q2210.99 278.796 2212.89 276.505 Q2214.79 274.213 2218.17 273.426 M2216.46 266.042 Q2216.46 268.727 2218.12 270.232 Q2219.81 271.736 2222.85 271.736 Q2225.86 271.736 2227.55 270.232 Q2229.26 268.727 2229.26 266.042 Q2229.26 263.357 2227.55 261.852 Q2225.86 260.347 2222.85 260.347 Q2219.81 260.347 2218.12 261.852 Q2216.46 263.357 2216.46 266.042 Z" fill="#000000" fill-rule="evenodd" fill-opacity="1" /></svg>
