<?xml version="1.0" encoding="utf-8"?>
<svg xmlns="http://www.w3.org/2000/svg" xmlns:xlink="http://www.w3.org/1999/xlink" width="600" height="400" viewBox="0 0 2400 1600">
<defs>
  <clipPath id="clip360">
    <rect x="0" y="0" width="2400" height="1600"/>
  </clipPath>
</defs>
<path clip-path="url(#clip360)" d="
M0 1600 L2400 1600 L2400 0 L0 0  Z
  " fill="#ffffff" fill-rule="evenodd" fill-opacity="1"/>
<defs>
  <clipPath id="clip361">
    <rect x="480" y="0" width="1681" height="1600"/>
  </clipPath>
</defs>
<path clip-path="url(#clip360)" d="
M148.334 1486.45 L2352.76 1486.45 L2352.76 47.2441 L148.334 47.2441  Z
  " fill="#ffffff" fill-rule="evenodd" fill-opacity="1"/>
<defs>
  <clipPath id="clip362">
    <rect x="148" y="47" width="2205" height="1440"/>
  </clipPath>
</defs>
<polyline clip-path="url(#clip362)" style="stroke:#000000; stroke-width:2; stroke-opacity:0.1; fill:none" points="
  539.623,1486.45 539.623,47.2441 
  "/>
<polyline clip-path="url(#clip362)" style="stroke:#000000; stroke-width:2; stroke-opacity:0.1; fill:none" points="
  988.79,1486.45 988.79,47.2441 
  "/>
<polyline clip-path="url(#clip362)" style="stroke:#000000; stroke-width:2; stroke-opacity:0.1; fill:none" points="
  1437.96,1486.45 1437.96,47.2441 
  "/>
<polyline clip-path="url(#clip362)" style="stroke:#000000; stroke-width:2; stroke-opacity:0.1; fill:none" points="
  1887.12,1486.45 1887.12,47.2441 
  "/>
<polyline clip-path="url(#clip362)" style="stroke:#000000; stroke-width:2; stroke-opacity:0.1; fill:none" points="
  2336.29,1486.45 2336.29,47.2441 
  "/>
<polyline clip-path="url(#clip360)" style="stroke:#000000; stroke-width:4; stroke-opacity:1; fill:none" points="
  148.334,1486.45 2352.76,1486.45 
  "/>
<polyline clip-path="url(#clip360)" style="stroke:#000000; stroke-width:4; stroke-opacity:1; fill:none" points="
  539.623,1486.45 539.623,1469.18 
  "/>
<polyline clip-path="url(#clip360)" style="stroke:#000000; stroke-width:4; stroke-opacity:1; fill:none" points="
  988.79,1486.45 988.79,1469.18 
  "/>
<polyline clip-path="url(#clip360)" style="stroke:#000000; stroke-width:4; stroke-opacity:1; fill:none" points="
  1437.96,1486.45 1437.96,1469.18 
  "/>
<polyline clip-path="url(#clip360)" style="stroke:#000000; stroke-width:4; stroke-opacity:1; fill:none" points="
  1887.12,1486.45 1887.12,1469.18 
  "/>
<polyline clip-path="url(#clip360)" style="stroke:#000000; stroke-width:4; stroke-opacity:1; fill:none" points="
  2336.29,1486.45 2336.29,1469.18 
  "/>
<path clip-path="url(#clip360)" d="M 0 0 M521.938 1515.64 Q518.327 1515.64 516.498 1519.2 Q514.693 1522.75 514.693 1529.87 Q514.693 1536.98 516.498 1540.55 Q518.327 1544.09 521.938 1544.09 Q525.572 1544.09 527.378 1540.55 Q529.206 1536.98 529.206 1529.87 Q529.206 1522.75 527.378 1519.2 Q525.572 1515.64 521.938 1515.64 M521.938 1511.93 Q527.748 1511.93 530.804 1516.54 Q533.882 1521.12 533.882 1529.87 Q533.882 1538.6 530.804 1543.21 Q527.748 1547.79 521.938 1547.79 Q516.128 1547.79 513.049 1543.21 Q509.994 1538.6 509.994 1529.87 Q509.994 1521.12 513.049 1516.54 Q516.128 1511.93 521.938 1511.93 Z" fill="#000000" fill-rule="evenodd" fill-opacity="1" /><path clip-path="url(#clip360)" d="M 0 0 M538.952 1541.24 L543.836 1541.24 L543.836 1547.12 L538.952 1547.12 L538.952 1541.24 Z" fill="#000000" fill-rule="evenodd" fill-opacity="1" /><path clip-path="url(#clip360)" d="M 0 0 M552.933 1543.18 L569.253 1543.18 L569.253 1547.12 L547.308 1547.12 L547.308 1543.18 Q549.97 1540.43 554.554 1535.8 Q559.16 1531.15 560.341 1529.81 Q562.586 1527.28 563.466 1525.55 Q564.368 1523.79 564.368 1522.1 Q564.368 1519.34 562.424 1517.61 Q560.503 1515.87 557.401 1515.87 Q555.202 1515.87 552.748 1516.63 Q550.317 1517.4 547.54 1518.95 L547.54 1514.23 Q550.364 1513.09 552.817 1512.51 Q555.271 1511.93 557.308 1511.93 Q562.678 1511.93 565.873 1514.62 Q569.067 1517.31 569.067 1521.8 Q569.067 1523.93 568.257 1525.85 Q567.47 1527.74 565.364 1530.34 Q564.785 1531.01 561.683 1534.23 Q558.581 1537.42 552.933 1543.18 Z" fill="#000000" fill-rule="evenodd" fill-opacity="1" /><path clip-path="url(#clip360)" d="M 0 0 M970.063 1515.64 Q966.452 1515.64 964.623 1519.2 Q962.818 1522.75 962.818 1529.87 Q962.818 1536.98 964.623 1540.55 Q966.452 1544.09 970.063 1544.09 Q973.697 1544.09 975.503 1540.55 Q977.331 1536.98 977.331 1529.87 Q977.331 1522.75 975.503 1519.2 Q973.697 1515.64 970.063 1515.64 M970.063 1511.93 Q975.873 1511.93 978.929 1516.54 Q982.007 1521.12 982.007 1529.87 Q982.007 1538.6 978.929 1543.21 Q975.873 1547.79 970.063 1547.79 Q964.253 1547.79 961.174 1543.21 Q958.119 1538.6 958.119 1529.87 Q958.119 1521.12 961.174 1516.54 Q964.253 1511.93 970.063 1511.93 Z" fill="#000000" fill-rule="evenodd" fill-opacity="1" /><path clip-path="url(#clip360)" d="M 0 0 M987.077 1541.24 L991.961 1541.24 L991.961 1547.12 L987.077 1547.12 L987.077 1541.24 Z" fill="#000000" fill-rule="evenodd" fill-opacity="1" /><path clip-path="url(#clip360)" d="M 0 0 M1009.88 1516.63 L998.072 1535.08 L1009.88 1535.08 L1009.88 1516.63 M1008.65 1512.56 L1014.53 1512.56 L1014.53 1535.08 L1019.46 1535.08 L1019.46 1538.97 L1014.53 1538.97 L1014.53 1547.12 L1009.88 1547.12 L1009.88 1538.97 L994.276 1538.97 L994.276 1534.46 L1008.65 1512.56 Z" fill="#000000" fill-rule="evenodd" fill-opacity="1" /><path clip-path="url(#clip360)" d="M 0 0 M1419.39 1515.64 Q1415.78 1515.64 1413.95 1519.2 Q1412.15 1522.75 1412.15 1529.87 Q1412.15 1536.98 1413.95 1540.55 Q1415.78 1544.09 1419.39 1544.09 Q1423.03 1544.09 1424.83 1540.55 Q1426.66 1536.98 1426.66 1529.87 Q1426.66 1522.75 1424.83 1519.2 Q1423.03 1515.64 1419.39 1515.64 M1419.39 1511.93 Q1425.2 1511.93 1428.26 1516.54 Q1431.34 1521.12 1431.34 1529.87 Q1431.34 1538.6 1428.26 1543.21 Q1425.2 1547.79 1419.39 1547.79 Q1413.58 1547.79 1410.5 1543.21 Q1407.45 1538.6 1407.45 1529.87 Q1407.45 1521.12 1410.5 1516.54 Q1413.58 1511.93 1419.39 1511.93 Z" fill="#000000" fill-rule="evenodd" fill-opacity="1" /><path clip-path="url(#clip360)" d="M 0 0 M1436.41 1541.24 L1441.29 1541.24 L1441.29 1547.12 L1436.41 1547.12 L1436.41 1541.24 Z" fill="#000000" fill-rule="evenodd" fill-opacity="1" /><path clip-path="url(#clip360)" d="M 0 0 M1456.94 1527.98 Q1453.79 1527.98 1451.94 1530.13 Q1450.11 1532.28 1450.11 1536.03 Q1450.11 1539.76 1451.94 1541.93 Q1453.79 1544.09 1456.94 1544.09 Q1460.09 1544.09 1461.91 1541.93 Q1463.77 1539.76 1463.77 1536.03 Q1463.77 1532.28 1461.91 1530.13 Q1460.09 1527.98 1456.94 1527.98 M1466.22 1513.32 L1466.22 1517.58 Q1464.46 1516.75 1462.66 1516.31 Q1460.87 1515.87 1459.11 1515.87 Q1454.48 1515.87 1452.03 1519 Q1449.6 1522.12 1449.25 1528.44 Q1450.62 1526.43 1452.68 1525.36 Q1454.74 1524.27 1457.22 1524.27 Q1462.42 1524.27 1465.43 1527.44 Q1468.47 1530.59 1468.47 1536.03 Q1468.47 1541.36 1465.32 1544.57 Q1462.17 1547.79 1456.94 1547.79 Q1450.94 1547.79 1447.77 1543.21 Q1444.6 1538.6 1444.6 1529.87 Q1444.6 1521.68 1448.49 1516.82 Q1452.38 1511.93 1458.93 1511.93 Q1460.69 1511.93 1462.47 1512.28 Q1464.28 1512.63 1466.22 1513.32 Z" fill="#000000" fill-rule="evenodd" fill-opacity="1" /><path clip-path="url(#clip360)" d="M 0 0 M1868.69 1515.64 Q1865.07 1515.64 1863.25 1519.2 Q1861.44 1522.75 1861.44 1529.87 Q1861.44 1536.98 1863.25 1540.55 Q1865.07 1544.09 1868.69 1544.09 Q1872.32 1544.09 1874.13 1540.55 Q1875.95 1536.98 1875.95 1529.87 Q1875.95 1522.75 1874.13 1519.2 Q1872.32 1515.64 1868.69 1515.64 M1868.69 1511.93 Q1874.5 1511.93 1877.55 1516.54 Q1880.63 1521.12 1880.63 1529.87 Q1880.63 1538.6 1877.55 1543.21 Q1874.5 1547.79 1868.69 1547.79 Q1862.88 1547.79 1859.8 1543.21 Q1856.74 1538.6 1856.74 1529.87 Q1856.74 1521.12 1859.8 1516.54 Q1862.88 1511.93 1868.69 1511.93 Z" fill="#000000" fill-rule="evenodd" fill-opacity="1" /><path clip-path="url(#clip360)" d="M 0 0 M1885.7 1541.24 L1890.58 1541.24 L1890.58 1547.12 L1885.7 1547.12 L1885.7 1541.24 Z" fill="#000000" fill-rule="evenodd" fill-opacity="1" /><path clip-path="url(#clip360)" d="M 0 0 M1905.65 1530.71 Q1902.32 1530.71 1900.4 1532.49 Q1898.5 1534.27 1898.5 1537.4 Q1898.5 1540.52 1900.4 1542.31 Q1902.32 1544.09 1905.65 1544.09 Q1908.99 1544.09 1910.91 1542.31 Q1912.83 1540.5 1912.83 1537.4 Q1912.83 1534.27 1910.91 1532.49 Q1909.01 1530.71 1905.65 1530.71 M1900.98 1528.72 Q1897.97 1527.98 1896.28 1525.92 Q1894.61 1523.86 1894.61 1520.89 Q1894.61 1516.75 1897.55 1514.34 Q1900.51 1511.93 1905.65 1511.93 Q1910.82 1511.93 1913.75 1514.34 Q1916.69 1516.75 1916.69 1520.89 Q1916.69 1523.86 1915 1525.92 Q1913.34 1527.98 1910.35 1528.72 Q1913.73 1529.5 1915.61 1531.8 Q1917.5 1534.09 1917.5 1537.4 Q1917.5 1542.42 1914.43 1545.11 Q1911.37 1547.79 1905.65 1547.79 Q1899.94 1547.79 1896.86 1545.11 Q1893.8 1542.42 1893.8 1537.4 Q1893.8 1534.09 1895.7 1531.8 Q1897.6 1529.5 1900.98 1528.72 M1899.26 1521.33 Q1899.26 1524.02 1900.93 1525.52 Q1902.62 1527.03 1905.65 1527.03 Q1908.66 1527.03 1910.35 1525.52 Q1912.07 1524.02 1912.07 1521.33 Q1912.07 1518.65 1910.35 1517.14 Q1908.66 1515.64 1905.65 1515.64 Q1902.62 1515.64 1900.93 1517.14 Q1899.26 1518.65 1899.26 1521.33 Z" fill="#000000" fill-rule="evenodd" fill-opacity="1" /><path clip-path="url(#clip360)" d="M 0 0 M2308.19 1543.18 L2315.83 1543.18 L2315.83 1516.82 L2307.52 1518.49 L2307.52 1514.23 L2315.78 1512.56 L2320.46 1512.56 L2320.46 1543.18 L2328.1 1543.18 L2328.1 1547.12 L2308.19 1547.12 L2308.19 1543.18 Z" fill="#000000" fill-rule="evenodd" fill-opacity="1" /><path clip-path="url(#clip360)" d="M 0 0 M2333.16 1541.24 L2338.05 1541.24 L2338.05 1547.12 L2333.16 1547.12 L2333.16 1541.24 Z" fill="#000000" fill-rule="evenodd" fill-opacity="1" /><path clip-path="url(#clip360)" d="M 0 0 M2353.12 1515.64 Q2349.51 1515.64 2347.68 1519.2 Q2345.87 1522.75 2345.87 1529.87 Q2345.87 1536.98 2347.68 1540.55 Q2349.51 1544.09 2353.12 1544.09 Q2356.75 1544.09 2358.56 1540.55 Q2360.39 1536.98 2360.39 1529.87 Q2360.39 1522.75 2358.56 1519.2 Q2356.75 1515.64 2353.12 1515.64 M2353.12 1511.93 Q2358.93 1511.93 2361.98 1516.54 Q2365.06 1521.12 2365.06 1529.87 Q2365.06 1538.6 2361.98 1543.21 Q2358.93 1547.79 2353.12 1547.79 Q2347.31 1547.79 2344.23 1543.21 Q2341.17 1538.6 2341.17 1529.87 Q2341.17 1521.12 2344.23 1516.54 Q2347.31 1511.93 2353.12 1511.93 Z" fill="#000000" fill-rule="evenodd" fill-opacity="1" /><polyline clip-path="url(#clip362)" style="stroke:#000000; stroke-width:2; stroke-opacity:0.1; fill:none" points="
  148.334,1217.42 2352.76,1217.42 
  "/>
<polyline clip-path="url(#clip362)" style="stroke:#000000; stroke-width:2; stroke-opacity:0.1; fill:none" points="
  148.334,929.888 2352.76,929.888 
  "/>
<polyline clip-path="url(#clip362)" style="stroke:#000000; stroke-width:2; stroke-opacity:0.1; fill:none" points="
  148.334,642.354 2352.76,642.354 
  "/>
<polyline clip-path="url(#clip362)" style="stroke:#000000; stroke-width:2; stroke-opacity:0.1; fill:none" points="
  148.334,354.819 2352.76,354.819 
  "/>
<polyline clip-path="url(#clip362)" style="stroke:#000000; stroke-width:2; stroke-opacity:0.1; fill:none" points="
  148.334,67.2849 2352.76,67.2849 
  "/>
<polyline clip-path="url(#clip360)" style="stroke:#000000; stroke-width:4; stroke-opacity:1; fill:none" points="
  148.334,1486.45 148.334,47.2441 
  "/>
<polyline clip-path="url(#clip360)" style="stroke:#000000; stroke-width:4; stroke-opacity:1; fill:none" points="
  148.334,1217.42 174.787,1217.42 
  "/>
<polyline clip-path="url(#clip360)" style="stroke:#000000; stroke-width:4; stroke-opacity:1; fill:none" points="
  148.334,929.888 174.787,929.888 
  "/>
<polyline clip-path="url(#clip360)" style="stroke:#000000; stroke-width:4; stroke-opacity:1; fill:none" points="
  148.334,642.354 174.787,642.354 
  "/>
<polyline clip-path="url(#clip360)" style="stroke:#000000; stroke-width:4; stroke-opacity:1; fill:none" points="
  148.334,354.819 174.787,354.819 
  "/>
<polyline clip-path="url(#clip360)" style="stroke:#000000; stroke-width:4; stroke-opacity:1; fill:none" points="
  148.334,67.2849 174.787,67.2849 
  "/>
<path clip-path="url(#clip360)" d="M 0 0 M65.0198 1203.22 Q61.4087 1203.22 59.58 1206.79 Q57.7745 1210.33 57.7745 1217.46 Q57.7745 1224.56 59.58 1228.13 Q61.4087 1231.67 65.0198 1231.67 Q68.6541 1231.67 70.4596 1228.13 Q72.2883 1224.56 72.2883 1217.46 Q72.2883 1210.33 70.4596 1206.79 Q68.6541 1203.22 65.0198 1203.22 M65.0198 1199.52 Q70.83 1199.52 73.8855 1204.12 Q76.9642 1208.71 76.9642 1217.46 Q76.9642 1226.18 73.8855 1230.79 Q70.83 1235.37 65.0198 1235.37 Q59.2097 1235.37 56.131 1230.79 Q53.0754 1226.18 53.0754 1217.46 Q53.0754 1208.71 56.131 1204.12 Q59.2097 1199.52 65.0198 1199.52 Z" fill="#000000" fill-rule="evenodd" fill-opacity="1" /><path clip-path="url(#clip360)" d="M 0 0 M82.0336 1228.82 L86.9179 1228.82 L86.9179 1234.7 L82.0336 1234.7 L82.0336 1228.82 Z" fill="#000000" fill-rule="evenodd" fill-opacity="1" /><path clip-path="url(#clip360)" d="M 0 0 M96.015 1230.77 L112.334 1230.77 L112.334 1234.7 L90.3901 1234.7 L90.3901 1230.77 Q93.0521 1228.01 97.6354 1223.38 Q102.242 1218.73 103.422 1217.39 Q105.668 1214.86 106.547 1213.13 Q107.45 1211.37 107.45 1209.68 Q107.45 1206.93 105.506 1205.19 Q103.584 1203.45 100.483 1203.45 Q98.2835 1203.45 95.8298 1204.22 Q93.3993 1204.98 90.6215 1206.53 L90.6215 1201.81 Q93.4456 1200.68 95.8993 1200.1 Q98.353 1199.52 100.39 1199.52 Q105.76 1199.52 108.955 1202.2 Q112.149 1204.89 112.149 1209.38 Q112.149 1211.51 111.339 1213.43 Q110.552 1215.33 108.446 1217.92 Q107.867 1218.59 104.765 1221.81 Q101.663 1225 96.015 1230.77 Z" fill="#000000" fill-rule="evenodd" fill-opacity="1" /><path clip-path="url(#clip360)" d="M 0 0 M62.9365 915.687 Q59.3254 915.687 57.4967 919.252 Q55.6912 922.793 55.6912 929.923 Q55.6912 937.03 57.4967 940.594 Q59.3254 944.136 62.9365 944.136 Q66.5707 944.136 68.3763 940.594 Q70.205 937.03 70.205 929.923 Q70.205 922.793 68.3763 919.252 Q66.5707 915.687 62.9365 915.687 M62.9365 911.983 Q68.7467 911.983 71.8022 916.59 Q74.8809 921.173 74.8809 929.923 Q74.8809 938.65 71.8022 943.256 Q68.7467 947.84 62.9365 947.84 Q57.1264 947.84 54.0477 943.256 Q50.9921 938.65 50.9921 929.923 Q50.9921 921.173 54.0477 916.59 Q57.1264 911.983 62.9365 911.983 Z" fill="#000000" fill-rule="evenodd" fill-opacity="1" /><path clip-path="url(#clip360)" d="M 0 0 M79.9503 941.289 L84.8345 941.289 L84.8345 947.168 L79.9503 947.168 L79.9503 941.289 Z" fill="#000000" fill-rule="evenodd" fill-opacity="1" /><path clip-path="url(#clip360)" d="M 0 0 M102.751 916.682 L90.9456 935.131 L102.751 935.131 L102.751 916.682 M101.524 912.608 L107.404 912.608 L107.404 935.131 L112.334 935.131 L112.334 939.02 L107.404 939.02 L107.404 947.168 L102.751 947.168 L102.751 939.02 L87.1493 939.02 L87.1493 934.506 L101.524 912.608 Z" fill="#000000" fill-rule="evenodd" fill-opacity="1" /><path clip-path="url(#clip360)" d="M 0 0 M63.2606 628.153 Q59.6495 628.153 57.8208 631.717 Q56.0152 635.259 56.0152 642.389 Q56.0152 649.495 57.8208 653.06 Q59.6495 656.602 63.2606 656.602 Q66.8948 656.602 68.7004 653.06 Q70.5291 649.495 70.5291 642.389 Q70.5291 635.259 68.7004 631.717 Q66.8948 628.153 63.2606 628.153 M63.2606 624.449 Q69.0707 624.449 72.1263 629.055 Q75.205 633.639 75.205 642.389 Q75.205 651.115 72.1263 655.722 Q69.0707 660.305 63.2606 660.305 Q57.4504 660.305 54.3717 655.722 Q51.3162 651.115 51.3162 642.389 Q51.3162 633.639 54.3717 629.055 Q57.4504 624.449 63.2606 624.449 Z" fill="#000000" fill-rule="evenodd" fill-opacity="1" /><path clip-path="url(#clip360)" d="M 0 0 M80.2744 653.754 L85.1586 653.754 L85.1586 659.634 L80.2744 659.634 L80.2744 653.754 Z" fill="#000000" fill-rule="evenodd" fill-opacity="1" /><path clip-path="url(#clip360)" d="M 0 0 M100.807 640.49 Q97.6585 640.49 95.8067 642.643 Q93.978 644.796 93.978 648.546 Q93.978 652.273 95.8067 654.449 Q97.6585 656.602 100.807 656.602 Q103.955 656.602 105.783 654.449 Q107.635 652.273 107.635 648.546 Q107.635 644.796 105.783 642.643 Q103.955 640.49 100.807 640.49 M110.089 625.838 L110.089 630.097 Q108.33 629.264 106.524 628.824 Q104.742 628.384 102.983 628.384 Q98.353 628.384 95.8993 631.509 Q93.4688 634.634 93.1215 640.953 Q94.4873 638.94 96.5474 637.875 Q98.6076 636.787 101.084 636.787 Q106.293 636.787 109.302 639.958 Q112.334 643.106 112.334 648.546 Q112.334 653.87 109.186 657.088 Q106.038 660.305 100.807 660.305 Q94.8113 660.305 91.6401 655.722 Q88.4688 651.115 88.4688 642.389 Q88.4688 634.194 92.3576 629.333 Q96.2465 624.449 102.797 624.449 Q104.557 624.449 106.339 624.796 Q108.145 625.143 110.089 625.838 Z" fill="#000000" fill-rule="evenodd" fill-opacity="1" /><path clip-path="url(#clip360)" d="M 0 0 M63.5152 340.618 Q59.9041 340.618 58.0754 344.183 Q56.2699 347.725 56.2699 354.854 Q56.2699 361.961 58.0754 365.525 Q59.9041 369.067 63.5152 369.067 Q67.1494 369.067 68.955 365.525 Q70.7837 361.961 70.7837 354.854 Q70.7837 347.725 68.955 344.183 Q67.1494 340.618 63.5152 340.618 M63.5152 336.914 Q69.3254 336.914 72.3809 341.521 Q75.4596 346.104 75.4596 354.854 Q75.4596 363.581 72.3809 368.187 Q69.3254 372.771 63.5152 372.771 Q57.7051 372.771 54.6264 368.187 Q51.5708 363.581 51.5708 354.854 Q51.5708 346.104 54.6264 341.521 Q57.7051 336.914 63.5152 336.914 Z" fill="#000000" fill-rule="evenodd" fill-opacity="1" /><path clip-path="url(#clip360)" d="M 0 0 M80.529 366.22 L85.4132 366.22 L85.4132 372.099 L80.529 372.099 L80.529 366.22 Z" fill="#000000" fill-rule="evenodd" fill-opacity="1" /><path clip-path="url(#clip360)" d="M 0 0 M100.483 355.687 Q97.1493 355.687 95.228 357.47 Q93.3299 359.252 93.3299 362.377 Q93.3299 365.502 95.228 367.285 Q97.1493 369.067 100.483 369.067 Q103.816 369.067 105.737 367.285 Q107.658 365.479 107.658 362.377 Q107.658 359.252 105.737 357.47 Q103.839 355.687 100.483 355.687 M95.8067 353.697 Q92.7975 352.956 91.1077 350.896 Q89.441 348.836 89.441 345.873 Q89.441 341.729 92.3808 339.322 Q95.3437 336.914 100.483 336.914 Q105.645 336.914 108.584 339.322 Q111.524 341.729 111.524 345.873 Q111.524 348.836 109.834 350.896 Q108.168 352.956 105.182 353.697 Q108.561 354.484 110.436 356.775 Q112.334 359.067 112.334 362.377 Q112.334 367.4 109.256 370.086 Q106.2 372.771 100.483 372.771 Q94.765 372.771 91.6864 370.086 Q88.6308 367.4 88.6308 362.377 Q88.6308 359.067 90.529 356.775 Q92.4271 354.484 95.8067 353.697 M94.0937 346.313 Q94.0937 348.998 95.7604 350.502 Q97.4502 352.007 100.483 352.007 Q103.492 352.007 105.182 350.502 Q106.895 348.998 106.895 346.313 Q106.895 343.627 105.182 342.123 Q103.492 340.618 100.483 340.618 Q97.4502 340.618 95.7604 342.123 Q94.0937 343.627 94.0937 346.313 Z" fill="#000000" fill-rule="evenodd" fill-opacity="1" /><path clip-path="url(#clip360)" d="M 0 0 M55.4597 80.6298 L63.0985 80.6298 L63.0985 54.2642 L54.7884 55.9308 L54.7884 51.6716 L63.0522 50.0049 L67.7281 50.0049 L67.7281 80.6298 L75.367 80.6298 L75.367 84.5649 L55.4597 84.5649 L55.4597 80.6298 Z" fill="#000000" fill-rule="evenodd" fill-opacity="1" /><path clip-path="url(#clip360)" d="M 0 0 M80.4364 78.6853 L85.3206 78.6853 L85.3206 84.5649 L80.4364 84.5649 L80.4364 78.6853 Z" fill="#000000" fill-rule="evenodd" fill-opacity="1" /><path clip-path="url(#clip360)" d="M 0 0 M100.39 53.0836 Q96.7789 53.0836 94.9502 56.6484 Q93.1447 60.1901 93.1447 67.3197 Q93.1447 74.4261 94.9502 77.9909 Q96.7789 81.5326 100.39 81.5326 Q104.024 81.5326 105.83 77.9909 Q107.658 74.4261 107.658 67.3197 Q107.658 60.1901 105.83 56.6484 Q104.024 53.0836 100.39 53.0836 M100.39 49.3799 Q106.2 49.3799 109.256 53.9864 Q112.334 58.5697 112.334 67.3197 Q112.334 76.0465 109.256 80.6529 Q106.2 85.2362 100.39 85.2362 Q94.5799 85.2362 91.5012 80.6529 Q88.4456 76.0465 88.4456 67.3197 Q88.4456 58.5697 91.5012 53.9864 Q94.5799 49.3799 100.39 49.3799 Z" fill="#000000" fill-rule="evenodd" fill-opacity="1" /><polyline clip-path="url(#clip362)" style="stroke:#000000; stroke-width:4; stroke-opacity:1; fill:none" points="
  1091.16,571.025 1226.93,87.9763 210.724,536.071 
  "/>
<polyline clip-path="url(#clip362)" style="stroke:#000000; stroke-width:4; stroke-opacity:1; fill:none" points="
  1091.16,571.025 210.724,536.071 
  "/>
<polyline clip-path="url(#clip362)" style="stroke:#000000; stroke-width:4; stroke-opacity:1; fill:none" points="
  803.733,704.731 601.375,1445.72 2290.37,1100.68 
  "/>
<polyline clip-path="url(#clip362)" style="stroke:#000000; stroke-width:4; stroke-opacity:1; fill:none" points="
  803.733,704.731 2290.37,1100.68 
  "/>
<polyline clip-path="url(#clip362)" style="stroke:#000000; stroke-width:4; stroke-opacity:1; fill:none" points="
  1091.16,571.025 803.733,704.731 2290.37,1100.68 
  "/>
<polyline clip-path="url(#clip362)" style="stroke:#000000; stroke-width:4; stroke-opacity:1; fill:none" points="
  1091.16,571.025 2290.37,1100.68 
  "/>
<polyline clip-path="url(#clip362)" style="stroke:#000000; stroke-width:4; stroke-opacity:1; fill:none" points="
  601.375,1445.72 803.733,704.731 210.724,536.071 
  "/>
<polyline clip-path="url(#clip362)" style="stroke:#000000; stroke-width:4; stroke-opacity:1; fill:none" points="
  601.375,1445.72 210.724,536.071 
  "/>
<polyline clip-path="url(#clip362)" style="stroke:#000000; stroke-width:4; stroke-opacity:1; fill:none" points="
  803.733,704.731 1091.16,571.025 210.724,536.071 
  "/>
<polyline clip-path="url(#clip362)" style="stroke:#000000; stroke-width:4; stroke-opacity:1; fill:none" points="
  803.733,704.731 210.724,536.071 
  "/>
<polyline clip-path="url(#clip362)" style="stroke:#000000; stroke-width:4; stroke-opacity:1; fill:none" points="
  1702.42,480.421 1091.16,571.025 2290.37,1100.68 
  "/>
<polyline clip-path="url(#clip362)" style="stroke:#000000; stroke-width:4; stroke-opacity:1; fill:none" points="
  1702.42,480.421 2290.37,1100.68 
  "/>
<polyline clip-path="url(#clip362)" style="stroke:#000000; stroke-width:4; stroke-opacity:1; fill:none" points="
  2103.27,562.981 1702.42,480.421 2290.37,1100.68 
  "/>
<polyline clip-path="url(#clip362)" style="stroke:#000000; stroke-width:4; stroke-opacity:1; fill:none" points="
  2103.27,562.981 2290.37,1100.68 
  "/>
<polyline clip-path="url(#clip362)" style="stroke:#000000; stroke-width:4; stroke-opacity:1; fill:none" points="
  1789.12,254.573 1702.42,480.421 2103.27,562.981 
  "/>
<polyline clip-path="url(#clip362)" style="stroke:#000000; stroke-width:4; stroke-opacity:1; fill:none" points="
  1789.12,254.573 2103.27,562.981 
  "/>
<polyline clip-path="url(#clip362)" style="stroke:#000000; stroke-width:4; stroke-opacity:1; fill:none" points="
  1426.52,303.082 1789.12,254.573 1226.93,87.9763 
  "/>
<polyline clip-path="url(#clip362)" style="stroke:#000000; stroke-width:4; stroke-opacity:1; fill:none" points="
  1426.52,303.082 1226.93,87.9763 
  "/>
<polyline clip-path="url(#clip362)" style="stroke:#000000; stroke-width:4; stroke-opacity:1; fill:none" points="
  1789.12,254.573 1426.52,303.082 1702.42,480.421 
  "/>
<polyline clip-path="url(#clip362)" style="stroke:#000000; stroke-width:4; stroke-opacity:1; fill:none" points="
  1789.12,254.573 1702.42,480.421 
  "/>
<polyline clip-path="url(#clip362)" style="stroke:#000000; stroke-width:4; stroke-opacity:1; fill:none" points="
  1091.16,571.025 1426.52,303.082 1226.93,87.9763 
  "/>
<polyline clip-path="url(#clip362)" style="stroke:#000000; stroke-width:4; stroke-opacity:1; fill:none" points="
  1091.16,571.025 1226.93,87.9763 
  "/>
<polyline clip-path="url(#clip362)" style="stroke:#000000; stroke-width:4; stroke-opacity:1; fill:none" points="
  1702.42,480.421 1426.52,303.082 1091.16,571.025 
  "/>
<polyline clip-path="url(#clip362)" style="stroke:#000000; stroke-width:4; stroke-opacity:1; fill:none" points="
  1702.42,480.421 1091.16,571.025 
  "/>
<path clip-path="url(#clip360)" d="M 0 0 M2300.8 1102.98 L2310.35 1102.98 L2310.35 1070.02 L2299.96 1072.11 L2299.96 1066.78 L2310.29 1064.7 L2316.14 1064.7 L2316.14 1102.98 L2325.69 1102.98 L2325.69 1107.9 L2300.8 1107.9 L2300.8 1102.98 Z" fill="#000000" fill-rule="evenodd" fill-opacity="1" /><path clip-path="url(#clip360)" d="M 0 0 M617.149 1448.02 L637.548 1448.02 L637.548 1452.94 L610.118 1452.94 L610.118 1448.02 Q613.446 1444.58 619.175 1438.79 Q624.933 1432.97 626.409 1431.3 Q629.215 1428.14 630.315 1425.97 Q631.443 1423.77 631.443 1421.66 Q631.443 1418.22 629.013 1416.05 Q626.611 1413.88 622.734 1413.88 Q619.985 1413.88 616.918 1414.83 Q613.88 1415.79 610.407 1417.73 L610.407 1411.82 Q613.938 1410.4 617.005 1409.68 Q620.072 1408.96 622.618 1408.96 Q629.331 1408.96 633.324 1412.31 Q637.317 1415.67 637.317 1421.28 Q637.317 1423.95 636.304 1426.35 Q635.32 1428.72 632.687 1431.96 Q631.964 1432.8 628.087 1436.82 Q624.209 1440.82 617.149 1448.02 Z" fill="#000000" fill-rule="evenodd" fill-opacity="1" /><path clip-path="url(#clip360)" d="M 0 0 M1730.19 464.351 Q1734.39 465.248 1736.73 468.084 Q1739.1 470.92 1739.1 475.086 Q1739.1 481.481 1734.71 484.982 Q1730.31 488.483 1722.21 488.483 Q1719.49 488.483 1716.59 487.934 Q1713.73 487.413 1710.66 486.342 L1710.66 480.7 Q1713.09 482.118 1715.98 482.841 Q1718.88 483.564 1722.03 483.564 Q1727.53 483.564 1730.39 481.394 Q1733.29 479.224 1733.29 475.086 Q1733.29 471.267 1730.6 469.126 Q1727.93 466.956 1723.16 466.956 L1718.13 466.956 L1718.13 462.152 L1723.39 462.152 Q1727.7 462.152 1729.99 460.445 Q1732.28 458.709 1732.28 455.468 Q1732.28 452.141 1729.9 450.376 Q1727.56 448.582 1723.16 448.582 Q1720.76 448.582 1718.01 449.103 Q1715.26 449.624 1711.96 450.723 L1711.96 445.515 Q1715.29 444.589 1718.18 444.126 Q1721.11 443.663 1723.68 443.663 Q1730.34 443.663 1734.21 446.701 Q1738.09 449.71 1738.09 454.861 Q1738.09 458.449 1736.04 460.937 Q1733.98 463.397 1730.19 464.351 Z" fill="#000000" fill-rule="evenodd" fill-opacity="1" /><path clip-path="url(#clip360)" d="M 0 0 M1117.38 540.141 L1102.62 563.202 L1117.38 563.202 L1117.38 540.141 M1115.84 535.048 L1123.19 535.048 L1123.19 563.202 L1129.36 563.202 L1129.36 568.063 L1123.19 568.063 L1123.19 578.248 L1117.38 578.248 L1117.38 568.063 L1097.87 568.063 L1097.87 562.421 L1115.84 535.048 Z" fill="#000000" fill-rule="evenodd" fill-opacity="1" /><path clip-path="url(#clip360)" d="M 0 0 M1799.43 218.597 L1822.37 218.597 L1822.37 223.516 L1804.78 223.516 L1804.78 234.106 Q1806.05 233.672 1807.33 233.469 Q1808.6 233.238 1809.87 233.238 Q1817.11 233.238 1821.33 237.202 Q1825.56 241.166 1825.56 247.937 Q1825.56 254.91 1821.22 258.788 Q1816.88 262.636 1808.98 262.636 Q1806.26 262.636 1803.42 262.173 Q1800.61 261.71 1797.61 260.784 L1797.61 254.91 Q1800.21 256.328 1802.99 257.022 Q1805.77 257.717 1808.86 257.717 Q1813.87 257.717 1816.79 255.084 Q1819.71 252.451 1819.71 247.937 Q1819.71 243.423 1816.79 240.79 Q1813.87 238.157 1808.86 238.157 Q1806.52 238.157 1804.17 238.678 Q1801.86 239.199 1799.43 240.298 L1799.43 218.597 Z" fill="#000000" fill-rule="evenodd" fill-opacity="1" /><path clip-path="url(#clip360)" d="M 0 0 M826.698 688.025 Q822.762 688.025 820.448 690.716 Q818.162 693.407 818.162 698.095 Q818.162 702.753 820.448 705.473 Q822.762 708.164 826.698 708.164 Q830.633 708.164 832.919 705.473 Q835.233 702.753 835.233 698.095 Q835.233 693.407 832.919 690.716 Q830.633 688.025 826.698 688.025 M838.301 669.71 L838.301 675.034 Q836.102 673.992 833.845 673.442 Q831.617 672.892 829.418 672.892 Q823.631 672.892 820.563 676.799 Q817.525 680.705 817.091 688.604 Q818.798 686.087 821.374 684.756 Q823.949 683.396 827.045 683.396 Q833.555 683.396 837.317 687.36 Q841.107 691.295 841.107 698.095 Q841.107 704.75 837.172 708.772 Q833.237 712.794 826.698 712.794 Q819.203 712.794 815.239 707.065 Q811.275 701.307 811.275 690.398 Q811.275 680.155 816.136 674.079 Q820.997 667.973 829.186 667.973 Q831.385 667.973 833.613 668.407 Q835.87 668.841 838.301 669.71 Z" fill="#000000" fill-rule="evenodd" fill-opacity="1" /><path clip-path="url(#clip360)" d="M 0 0 M219.293 500.094 L247.071 500.094 L247.071 502.582 L231.388 543.294 L225.283 543.294 L240.04 505.013 L219.293 505.013 L219.293 500.094 Z" fill="#000000" fill-rule="evenodd" fill-opacity="1" /><path clip-path="url(#clip360)" d="M 0 0 M1448.98 289.79 Q1444.81 289.79 1442.41 292.018 Q1440.04 294.246 1440.04 298.152 Q1440.04 302.058 1442.41 304.286 Q1444.81 306.514 1448.98 306.514 Q1453.14 306.514 1455.54 304.286 Q1457.95 302.029 1457.95 298.152 Q1457.95 294.246 1455.54 292.018 Q1453.17 289.79 1448.98 289.79 M1443.13 287.302 Q1439.37 286.376 1437.26 283.8 Q1435.17 281.225 1435.17 277.522 Q1435.17 272.342 1438.85 269.333 Q1442.55 266.324 1448.98 266.324 Q1455.43 266.324 1459.1 269.333 Q1462.78 272.342 1462.78 277.522 Q1462.78 281.225 1460.67 283.8 Q1458.58 286.376 1454.85 287.302 Q1459.07 288.285 1461.42 291.15 Q1463.79 294.014 1463.79 298.152 Q1463.79 304.431 1459.94 307.788 Q1456.12 311.144 1448.98 311.144 Q1441.83 311.144 1437.98 307.788 Q1434.16 304.431 1434.16 298.152 Q1434.16 294.014 1436.53 291.15 Q1438.91 288.285 1443.13 287.302 M1440.99 278.071 Q1440.99 281.428 1443.07 283.309 Q1445.19 285.189 1448.98 285.189 Q1452.74 285.189 1454.85 283.309 Q1456.99 281.428 1456.99 278.071 Q1456.99 274.715 1454.85 272.834 Q1452.74 270.953 1448.98 270.953 Q1445.19 270.953 1443.07 272.834 Q1440.99 274.715 1440.99 278.071 Z" fill="#000000" fill-rule="evenodd" fill-opacity="1" /><path clip-path="url(#clip360)" d="M 0 0 M2113.6 569.307 L2113.6 563.983 Q2115.8 565.025 2118.06 565.575 Q2120.32 566.125 2122.49 566.125 Q2128.27 566.125 2131.31 562.247 Q2134.38 558.341 2134.81 550.413 Q2133.14 552.901 2130.56 554.232 Q2127.99 555.563 2124.86 555.563 Q2118.38 555.563 2114.59 551.657 Q2110.83 547.722 2110.83 540.922 Q2110.83 534.267 2114.76 530.245 Q2118.7 526.223 2125.24 526.223 Q2132.73 526.223 2136.67 531.981 Q2140.63 537.71 2140.63 548.648 Q2140.63 558.862 2135.77 564.967 Q2130.94 571.043 2122.75 571.043 Q2120.55 571.043 2118.29 570.609 Q2116.03 570.175 2113.6 569.307 M2125.24 550.992 Q2129.17 550.992 2131.46 548.301 Q2133.77 545.61 2133.77 540.922 Q2133.77 536.264 2131.46 533.573 Q2129.17 530.853 2125.24 530.853 Q2121.3 530.853 2118.99 533.573 Q2116.7 536.264 2116.7 540.922 Q2116.7 545.61 2118.99 548.301 Q2121.3 550.992 2125.24 550.992 Z" fill="#000000" fill-rule="evenodd" fill-opacity="1" /><path clip-path="url(#clip360)" d="M 0 0 M1220.48 90.2806 L1230.03 90.2806 L1230.03 57.3236 L1219.64 59.4069 L1219.64 54.0829 L1229.97 51.9996 L1235.81 51.9996 L1235.81 90.2806 L1245.36 90.2806 L1245.36 95.1996 L1220.48 95.1996 L1220.48 90.2806 Z" fill="#000000" fill-rule="evenodd" fill-opacity="1" /><path clip-path="url(#clip360)" d="M 0 0 M1264.2 55.8479 Q1259.69 55.8479 1257.4 60.3039 Q1255.14 64.731 1255.14 73.643 Q1255.14 82.526 1257.4 86.982 Q1259.69 91.4091 1264.2 91.4091 Q1268.74 91.4091 1271 86.982 Q1273.28 82.526 1273.28 73.643 Q1273.28 64.731 1271 60.3039 Q1268.74 55.8479 1264.2 55.8479 M1264.2 51.2183 Q1271.46 51.2183 1275.28 56.9764 Q1279.13 62.7055 1279.13 73.643 Q1279.13 84.5515 1275.28 90.3095 Q1271.46 96.0387 1264.2 96.0387 Q1256.94 96.0387 1253.09 90.3095 Q1249.27 84.5515 1249.27 73.643 Q1249.27 62.7055 1253.09 56.9764 Q1256.94 51.2183 1264.2 51.2183 Z" fill="#000000" fill-rule="evenodd" fill-opacity="1" /></svg>
