<?xml version="1.0" encoding="utf-8"?>
<svg xmlns="http://www.w3.org/2000/svg" xmlns:xlink="http://www.w3.org/1999/xlink" width="600" height="400" viewBox="0 0 2400 1600">
<defs>
  <clipPath id="clip870">
    <rect x="0" y="0" width="2400" height="1600"/>
  </clipPath>
</defs>
<path clip-path="url(#clip870)" d="
M0 1600 L2400 1600 L2400 0 L0 0  Z
  " fill="#ffffff" fill-rule="evenodd" fill-opacity="1"/>
<defs>
  <clipPath id="clip871">
    <rect x="480" y="0" width="1681" height="1600"/>
  </clipPath>
</defs>
<path clip-path="url(#clip870)" d="
M238.616 1423.18 L2352.76 1423.18 L2352.76 47.2441 L238.616 47.2441  Z
  " fill="#ffffff" fill-rule="evenodd" fill-opacity="1"/>
<defs>
  <clipPath id="clip872">
    <rect x="238" y="47" width="2115" height="1377"/>
  </clipPath>
</defs>
<polyline clip-path="url(#clip872)" style="stroke:#000000; stroke-width:2; stroke-opacity:0.1; fill:none" points="
  298.45,1423.18 298.45,47.2441 
  "/>
<polyline clip-path="url(#clip872)" style="stroke:#000000; stroke-width:2; stroke-opacity:0.1; fill:none" points="
  797.068,1423.18 797.068,47.2441 
  "/>
<polyline clip-path="url(#clip872)" style="stroke:#000000; stroke-width:2; stroke-opacity:0.1; fill:none" points="
  1295.69,1423.18 1295.69,47.2441 
  "/>
<polyline clip-path="url(#clip872)" style="stroke:#000000; stroke-width:2; stroke-opacity:0.1; fill:none" points="
  1794.3,1423.18 1794.3,47.2441 
  "/>
<polyline clip-path="url(#clip872)" style="stroke:#000000; stroke-width:2; stroke-opacity:0.1; fill:none" points="
  2292.92,1423.18 2292.92,47.2441 
  "/>
<polyline clip-path="url(#clip870)" style="stroke:#000000; stroke-width:4; stroke-opacity:1; fill:none" points="
  238.616,1423.18 2352.76,1423.18 
  "/>
<polyline clip-path="url(#clip870)" style="stroke:#000000; stroke-width:4; stroke-opacity:1; fill:none" points="
  298.45,1423.18 298.45,1406.67 
  "/>
<polyline clip-path="url(#clip870)" style="stroke:#000000; stroke-width:4; stroke-opacity:1; fill:none" points="
  797.068,1423.18 797.068,1406.67 
  "/>
<polyline clip-path="url(#clip870)" style="stroke:#000000; stroke-width:4; stroke-opacity:1; fill:none" points="
  1295.69,1423.18 1295.69,1406.67 
  "/>
<polyline clip-path="url(#clip870)" style="stroke:#000000; stroke-width:4; stroke-opacity:1; fill:none" points="
  1794.3,1423.18 1794.3,1406.67 
  "/>
<polyline clip-path="url(#clip870)" style="stroke:#000000; stroke-width:4; stroke-opacity:1; fill:none" points="
  2292.92,1423.18 2292.92,1406.67 
  "/>
<path clip-path="url(#clip870)" d="M 0 0 M266.46 1452.37 Q262.849 1452.37 261.02 1455.94 Q259.214 1459.48 259.214 1466.61 Q259.214 1473.71 261.02 1477.28 Q262.849 1480.82 266.46 1480.82 Q270.094 1480.82 271.9 1477.28 Q273.728 1473.71 273.728 1466.61 Q273.728 1459.48 271.9 1455.94 Q270.094 1452.37 266.46 1452.37 M266.46 1448.67 Q272.27 1448.67 275.325 1453.27 Q278.404 1457.86 278.404 1466.61 Q278.404 1475.33 275.325 1479.94 Q272.27 1484.52 266.46 1484.52 Q260.65 1484.52 257.571 1479.94 Q254.515 1475.33 254.515 1466.61 Q254.515 1457.86 257.571 1453.27 Q260.65 1448.67 266.46 1448.67 Z" fill="#000000" fill-rule="evenodd" fill-opacity="1" /><path clip-path="url(#clip870)" d="M 0 0 M283.474 1477.97 L288.358 1477.97 L288.358 1483.85 L283.474 1483.85 L283.474 1477.97 Z" fill="#000000" fill-rule="evenodd" fill-opacity="1" /><path clip-path="url(#clip870)" d="M 0 0 M303.427 1452.37 Q299.816 1452.37 297.987 1455.94 Q296.182 1459.48 296.182 1466.61 Q296.182 1473.71 297.987 1477.28 Q299.816 1480.82 303.427 1480.82 Q307.061 1480.82 308.867 1477.28 Q310.696 1473.71 310.696 1466.61 Q310.696 1459.48 308.867 1455.94 Q307.061 1452.37 303.427 1452.37 M303.427 1448.67 Q309.237 1448.67 312.293 1453.27 Q315.372 1457.86 315.372 1466.61 Q315.372 1475.33 312.293 1479.94 Q309.237 1484.52 303.427 1484.52 Q297.617 1484.52 294.538 1479.94 Q291.483 1475.33 291.483 1466.61 Q291.483 1457.86 294.538 1453.27 Q297.617 1448.67 303.427 1448.67 Z" fill="#000000" fill-rule="evenodd" fill-opacity="1" /><path clip-path="url(#clip870)" d="M 0 0 M330.441 1452.37 Q326.83 1452.37 325.001 1455.94 Q323.196 1459.48 323.196 1466.61 Q323.196 1473.71 325.001 1477.28 Q326.83 1480.82 330.441 1480.82 Q334.075 1480.82 335.881 1477.28 Q337.709 1473.71 337.709 1466.61 Q337.709 1459.48 335.881 1455.94 Q334.075 1452.37 330.441 1452.37 M330.441 1448.67 Q336.251 1448.67 339.307 1453.27 Q342.385 1457.86 342.385 1466.61 Q342.385 1475.33 339.307 1479.94 Q336.251 1484.52 330.441 1484.52 Q324.631 1484.52 321.552 1479.94 Q318.496 1475.33 318.496 1466.61 Q318.496 1457.86 321.552 1453.27 Q324.631 1448.67 330.441 1448.67 Z" fill="#000000" fill-rule="evenodd" fill-opacity="1" /><path clip-path="url(#clip870)" d="M 0 0 M766.374 1452.37 Q762.763 1452.37 760.934 1455.94 Q759.129 1459.48 759.129 1466.61 Q759.129 1473.71 760.934 1477.28 Q762.763 1480.82 766.374 1480.82 Q770.008 1480.82 771.814 1477.28 Q773.642 1473.71 773.642 1466.61 Q773.642 1459.48 771.814 1455.94 Q770.008 1452.37 766.374 1452.37 M766.374 1448.67 Q772.184 1448.67 775.24 1453.27 Q778.318 1457.86 778.318 1466.61 Q778.318 1475.33 775.24 1479.94 Q772.184 1484.52 766.374 1484.52 Q760.564 1484.52 757.485 1479.94 Q754.43 1475.33 754.43 1466.61 Q754.43 1457.86 757.485 1453.27 Q760.564 1448.67 766.374 1448.67 Z" fill="#000000" fill-rule="evenodd" fill-opacity="1" /><path clip-path="url(#clip870)" d="M 0 0 M783.388 1477.97 L788.272 1477.97 L788.272 1483.85 L783.388 1483.85 L783.388 1477.97 Z" fill="#000000" fill-rule="evenodd" fill-opacity="1" /><path clip-path="url(#clip870)" d="M 0 0 M797.369 1479.92 L813.688 1479.92 L813.688 1483.85 L791.744 1483.85 L791.744 1479.92 Q794.406 1477.16 798.989 1472.53 Q803.596 1467.88 804.776 1466.54 Q807.022 1464.01 807.901 1462.28 Q808.804 1460.52 808.804 1458.83 Q808.804 1456.07 806.86 1454.34 Q804.939 1452.6 801.837 1452.6 Q799.638 1452.6 797.184 1453.37 Q794.753 1454.13 791.976 1455.68 L791.976 1450.96 Q794.8 1449.82 797.253 1449.25 Q799.707 1448.67 801.744 1448.67 Q807.114 1448.67 810.309 1451.35 Q813.503 1454.04 813.503 1458.53 Q813.503 1460.66 812.693 1462.58 Q811.906 1464.48 809.8 1467.07 Q809.221 1467.74 806.119 1470.96 Q803.017 1474.15 797.369 1479.92 Z" fill="#000000" fill-rule="evenodd" fill-opacity="1" /><path clip-path="url(#clip870)" d="M 0 0 M818.804 1449.29 L837.161 1449.29 L837.161 1453.23 L823.087 1453.23 L823.087 1461.7 Q824.105 1461.35 825.124 1461.19 Q826.142 1461 827.161 1461 Q832.948 1461 836.327 1464.18 Q839.707 1467.35 839.707 1472.76 Q839.707 1478.34 836.235 1481.44 Q832.762 1484.52 826.443 1484.52 Q824.267 1484.52 821.999 1484.15 Q819.753 1483.78 817.346 1483.04 L817.346 1478.34 Q819.429 1479.48 821.651 1480.03 Q823.874 1480.59 826.35 1480.59 Q830.355 1480.59 832.693 1478.48 Q835.031 1476.38 835.031 1472.76 Q835.031 1469.15 832.693 1467.05 Q830.355 1464.94 826.35 1464.94 Q824.475 1464.94 822.6 1465.36 Q820.749 1465.77 818.804 1466.65 L818.804 1449.29 Z" fill="#000000" fill-rule="evenodd" fill-opacity="1" /><path clip-path="url(#clip870)" d="M 0 0 M1264.19 1452.37 Q1260.58 1452.37 1258.75 1455.94 Q1256.95 1459.48 1256.95 1466.61 Q1256.95 1473.71 1258.75 1477.28 Q1260.58 1480.82 1264.19 1480.82 Q1267.83 1480.82 1269.63 1477.28 Q1271.46 1473.71 1271.46 1466.61 Q1271.46 1459.48 1269.63 1455.94 Q1267.83 1452.37 1264.19 1452.37 M1264.19 1448.67 Q1270 1448.67 1273.06 1453.27 Q1276.14 1457.86 1276.14 1466.61 Q1276.14 1475.33 1273.06 1479.94 Q1270 1484.52 1264.19 1484.52 Q1258.38 1484.52 1255.3 1479.94 Q1252.25 1475.33 1252.25 1466.61 Q1252.25 1457.86 1255.3 1453.27 Q1258.38 1448.67 1264.19 1448.67 Z" fill="#000000" fill-rule="evenodd" fill-opacity="1" /><path clip-path="url(#clip870)" d="M 0 0 M1281.21 1477.97 L1286.09 1477.97 L1286.09 1483.85 L1281.21 1483.85 L1281.21 1477.97 Z" fill="#000000" fill-rule="evenodd" fill-opacity="1" /><path clip-path="url(#clip870)" d="M 0 0 M1291.21 1449.29 L1309.56 1449.29 L1309.56 1453.23 L1295.49 1453.23 L1295.49 1461.7 Q1296.51 1461.35 1297.53 1461.19 Q1298.54 1461 1299.56 1461 Q1305.35 1461 1308.73 1464.18 Q1312.11 1467.35 1312.11 1472.76 Q1312.11 1478.34 1308.64 1481.44 Q1305.17 1484.52 1298.85 1484.52 Q1296.67 1484.52 1294.4 1484.15 Q1292.16 1483.78 1289.75 1483.04 L1289.75 1478.34 Q1291.83 1479.48 1294.05 1480.03 Q1296.28 1480.59 1298.75 1480.59 Q1302.76 1480.59 1305.1 1478.48 Q1307.43 1476.38 1307.43 1472.76 Q1307.43 1469.15 1305.1 1467.05 Q1302.76 1464.94 1298.75 1464.94 Q1296.88 1464.94 1295 1465.36 Q1293.15 1465.77 1291.21 1466.65 L1291.21 1449.29 Z" fill="#000000" fill-rule="evenodd" fill-opacity="1" /><path clip-path="url(#clip870)" d="M 0 0 M1327.18 1452.37 Q1323.57 1452.37 1321.74 1455.94 Q1319.93 1459.48 1319.93 1466.61 Q1319.93 1473.71 1321.74 1477.28 Q1323.57 1480.82 1327.18 1480.82 Q1330.81 1480.82 1332.62 1477.28 Q1334.45 1473.71 1334.45 1466.61 Q1334.45 1459.48 1332.62 1455.94 Q1330.81 1452.37 1327.18 1452.37 M1327.18 1448.67 Q1332.99 1448.67 1336.04 1453.27 Q1339.12 1457.86 1339.12 1466.61 Q1339.12 1475.33 1336.04 1479.94 Q1332.99 1484.52 1327.18 1484.52 Q1321.37 1484.52 1318.29 1479.94 Q1315.23 1475.33 1315.23 1466.61 Q1315.23 1457.86 1318.29 1453.27 Q1321.37 1448.67 1327.18 1448.67 Z" fill="#000000" fill-rule="evenodd" fill-opacity="1" /><path clip-path="url(#clip870)" d="M 0 0 M1763.26 1452.37 Q1759.65 1452.37 1757.82 1455.94 Q1756.02 1459.48 1756.02 1466.61 Q1756.02 1473.71 1757.82 1477.28 Q1759.65 1480.82 1763.26 1480.82 Q1766.9 1480.82 1768.7 1477.28 Q1770.53 1473.71 1770.53 1466.61 Q1770.53 1459.48 1768.7 1455.94 Q1766.9 1452.37 1763.26 1452.37 M1763.26 1448.67 Q1769.07 1448.67 1772.13 1453.27 Q1775.21 1457.86 1775.21 1466.61 Q1775.21 1475.33 1772.13 1479.94 Q1769.07 1484.52 1763.26 1484.52 Q1757.45 1484.52 1754.37 1479.94 Q1751.32 1475.33 1751.32 1466.61 Q1751.32 1457.86 1754.37 1453.27 Q1757.45 1448.67 1763.26 1448.67 Z" fill="#000000" fill-rule="evenodd" fill-opacity="1" /><path clip-path="url(#clip870)" d="M 0 0 M1780.28 1477.97 L1785.16 1477.97 L1785.16 1483.85 L1780.28 1483.85 L1780.28 1477.97 Z" fill="#000000" fill-rule="evenodd" fill-opacity="1" /><path clip-path="url(#clip870)" d="M 0 0 M1789.05 1449.29 L1811.27 1449.29 L1811.27 1451.28 L1798.73 1483.85 L1793.84 1483.85 L1805.65 1453.23 L1789.05 1453.23 L1789.05 1449.29 Z" fill="#000000" fill-rule="evenodd" fill-opacity="1" /><path clip-path="url(#clip870)" d="M 0 0 M1816.39 1449.29 L1834.74 1449.29 L1834.74 1453.23 L1820.67 1453.23 L1820.67 1461.7 Q1821.69 1461.35 1822.71 1461.19 Q1823.73 1461 1824.74 1461 Q1830.53 1461 1833.91 1464.18 Q1837.29 1467.35 1837.29 1472.76 Q1837.29 1478.34 1833.82 1481.44 Q1830.35 1484.52 1824.03 1484.52 Q1821.85 1484.52 1819.58 1484.15 Q1817.34 1483.78 1814.93 1483.04 L1814.93 1478.34 Q1817.01 1479.48 1819.23 1480.03 Q1821.46 1480.59 1823.93 1480.59 Q1827.94 1480.59 1830.28 1478.48 Q1832.61 1476.38 1832.61 1472.76 Q1832.61 1469.15 1830.28 1467.05 Q1827.94 1464.94 1823.93 1464.94 Q1822.06 1464.94 1820.18 1465.36 Q1818.33 1465.77 1816.39 1466.65 L1816.39 1449.29 Z" fill="#000000" fill-rule="evenodd" fill-opacity="1" /><path clip-path="url(#clip870)" d="M 0 0 M2251.31 1479.92 L2258.95 1479.92 L2258.95 1453.55 L2250.64 1455.22 L2250.64 1450.96 L2258.91 1449.29 L2263.58 1449.29 L2263.58 1479.92 L2271.22 1479.92 L2271.22 1483.85 L2251.31 1483.85 L2251.31 1479.92 Z" fill="#000000" fill-rule="evenodd" fill-opacity="1" /><path clip-path="url(#clip870)" d="M 0 0 M2276.29 1477.97 L2281.17 1477.97 L2281.17 1483.85 L2276.29 1483.85 L2276.29 1477.97 Z" fill="#000000" fill-rule="evenodd" fill-opacity="1" /><path clip-path="url(#clip870)" d="M 0 0 M2296.24 1452.37 Q2292.63 1452.37 2290.8 1455.94 Q2289 1459.48 2289 1466.61 Q2289 1473.71 2290.8 1477.28 Q2292.63 1480.82 2296.24 1480.82 Q2299.88 1480.82 2301.68 1477.28 Q2303.51 1473.71 2303.51 1466.61 Q2303.51 1459.48 2301.68 1455.94 Q2299.88 1452.37 2296.24 1452.37 M2296.24 1448.67 Q2302.05 1448.67 2305.11 1453.27 Q2308.19 1457.86 2308.19 1466.61 Q2308.19 1475.33 2305.11 1479.94 Q2302.05 1484.52 2296.24 1484.52 Q2290.43 1484.52 2287.35 1479.94 Q2284.3 1475.33 2284.3 1466.61 Q2284.3 1457.86 2287.35 1453.27 Q2290.43 1448.67 2296.24 1448.67 Z" fill="#000000" fill-rule="evenodd" fill-opacity="1" /><path clip-path="url(#clip870)" d="M 0 0 M2323.26 1452.37 Q2319.65 1452.37 2317.82 1455.94 Q2316.01 1459.48 2316.01 1466.61 Q2316.01 1473.71 2317.82 1477.28 Q2319.65 1480.82 2323.26 1480.82 Q2326.89 1480.82 2328.7 1477.28 Q2330.53 1473.71 2330.53 1466.61 Q2330.53 1459.48 2328.7 1455.94 Q2326.89 1452.37 2323.26 1452.37 M2323.26 1448.67 Q2329.07 1448.67 2332.12 1453.27 Q2335.2 1457.86 2335.2 1466.61 Q2335.2 1475.33 2332.12 1479.94 Q2329.07 1484.52 2323.26 1484.52 Q2317.45 1484.52 2314.37 1479.94 Q2311.31 1475.33 2311.31 1466.61 Q2311.31 1457.86 2314.37 1453.27 Q2317.45 1448.67 2323.26 1448.67 Z" fill="#000000" fill-rule="evenodd" fill-opacity="1" /><path clip-path="url(#clip870)" d="M 0 0 M1312.3 1520.4 L1299.41 1537.74 L1312.97 1556.04 L1306.06 1556.04 L1295.69 1542.04 L1285.31 1556.04 L1278.4 1556.04 L1292.25 1537.39 L1279.58 1520.4 L1286.49 1520.4 L1295.94 1533.1 L1305.39 1520.4 L1312.3 1520.4 Z" fill="#000000" fill-rule="evenodd" fill-opacity="1" /><polyline clip-path="url(#clip872)" style="stroke:#000000; stroke-width:2; stroke-opacity:0.1; fill:none" points="
  238.616,1384.24 2352.76,1384.24 
  "/>
<polyline clip-path="url(#clip872)" style="stroke:#000000; stroke-width:2; stroke-opacity:0.1; fill:none" points="
  238.616,1031.36 2352.76,1031.36 
  "/>
<polyline clip-path="url(#clip872)" style="stroke:#000000; stroke-width:2; stroke-opacity:0.1; fill:none" points="
  238.616,678.478 2352.76,678.478 
  "/>
<polyline clip-path="url(#clip872)" style="stroke:#000000; stroke-width:2; stroke-opacity:0.1; fill:none" points="
  238.616,325.599 2352.76,325.599 
  "/>
<polyline clip-path="url(#clip870)" style="stroke:#000000; stroke-width:4; stroke-opacity:1; fill:none" points="
  238.616,1423.18 238.616,47.2441 
  "/>
<polyline clip-path="url(#clip870)" style="stroke:#000000; stroke-width:4; stroke-opacity:1; fill:none" points="
  238.616,1384.24 263.986,1384.24 
  "/>
<polyline clip-path="url(#clip870)" style="stroke:#000000; stroke-width:4; stroke-opacity:1; fill:none" points="
  238.616,1031.36 263.986,1031.36 
  "/>
<polyline clip-path="url(#clip870)" style="stroke:#000000; stroke-width:4; stroke-opacity:1; fill:none" points="
  238.616,678.478 263.986,678.478 
  "/>
<polyline clip-path="url(#clip870)" style="stroke:#000000; stroke-width:4; stroke-opacity:1; fill:none" points="
  238.616,325.599 263.986,325.599 
  "/>
<path clip-path="url(#clip870)" d="M 0 0 M126.691 1370.04 Q123.08 1370.04 121.251 1373.6 Q119.445 1377.14 119.445 1384.27 Q119.445 1391.38 121.251 1394.94 Q123.08 1398.49 126.691 1398.49 Q130.325 1398.49 132.13 1394.94 Q133.959 1391.38 133.959 1384.27 Q133.959 1377.14 132.13 1373.6 Q130.325 1370.04 126.691 1370.04 M126.691 1366.33 Q132.501 1366.33 135.556 1370.94 Q138.635 1375.52 138.635 1384.27 Q138.635 1393 135.556 1397.61 Q132.501 1402.19 126.691 1402.19 Q120.88 1402.19 117.802 1397.61 Q114.746 1393 114.746 1384.27 Q114.746 1375.52 117.802 1370.94 Q120.88 1366.33 126.691 1366.33 Z" fill="#000000" fill-rule="evenodd" fill-opacity="1" /><path clip-path="url(#clip870)" d="M 0 0 M143.704 1395.64 L148.589 1395.64 L148.589 1401.52 L143.704 1401.52 L143.704 1395.64 Z" fill="#000000" fill-rule="evenodd" fill-opacity="1" /><path clip-path="url(#clip870)" d="M 0 0 M163.658 1370.04 Q160.047 1370.04 158.218 1373.6 Q156.413 1377.14 156.413 1384.27 Q156.413 1391.38 158.218 1394.94 Q160.047 1398.49 163.658 1398.49 Q167.292 1398.49 169.098 1394.94 Q170.927 1391.38 170.927 1384.27 Q170.927 1377.14 169.098 1373.6 Q167.292 1370.04 163.658 1370.04 M163.658 1366.33 Q169.468 1366.33 172.524 1370.94 Q175.602 1375.52 175.602 1384.27 Q175.602 1393 172.524 1397.61 Q169.468 1402.19 163.658 1402.19 Q157.848 1402.19 154.769 1397.61 Q151.714 1393 151.714 1384.27 Q151.714 1375.52 154.769 1370.94 Q157.848 1366.33 163.658 1366.33 Z" fill="#000000" fill-rule="evenodd" fill-opacity="1" /><path clip-path="url(#clip870)" d="M 0 0 M190.672 1370.04 Q187.061 1370.04 185.232 1373.6 Q183.426 1377.14 183.426 1384.27 Q183.426 1391.38 185.232 1394.94 Q187.061 1398.49 190.672 1398.49 Q194.306 1398.49 196.112 1394.94 Q197.94 1391.38 197.94 1384.27 Q197.94 1377.14 196.112 1373.6 Q194.306 1370.04 190.672 1370.04 M190.672 1366.33 Q196.482 1366.33 199.537 1370.94 Q202.616 1375.52 202.616 1384.27 Q202.616 1393 199.537 1397.61 Q196.482 1402.19 190.672 1402.19 Q184.862 1402.19 181.783 1397.61 Q178.727 1393 178.727 1384.27 Q178.727 1375.52 181.783 1370.94 Q184.862 1366.33 190.672 1366.33 Z" fill="#000000" fill-rule="evenodd" fill-opacity="1" /><path clip-path="url(#clip870)" d="M 0 0 M128.288 1017.16 Q124.677 1017.16 122.848 1020.72 Q121.043 1024.26 121.043 1031.39 Q121.043 1038.5 122.848 1042.06 Q124.677 1045.61 128.288 1045.61 Q131.922 1045.61 133.728 1042.06 Q135.556 1038.5 135.556 1031.39 Q135.556 1024.26 133.728 1020.72 Q131.922 1017.16 128.288 1017.16 M128.288 1013.45 Q134.098 1013.45 137.154 1018.06 Q140.232 1022.64 140.232 1031.39 Q140.232 1040.12 137.154 1044.73 Q134.098 1049.31 128.288 1049.31 Q122.478 1049.31 119.399 1044.73 Q116.343 1040.12 116.343 1031.39 Q116.343 1022.64 119.399 1018.06 Q122.478 1013.45 128.288 1013.45 Z" fill="#000000" fill-rule="evenodd" fill-opacity="1" /><path clip-path="url(#clip870)" d="M 0 0 M145.302 1042.76 L150.186 1042.76 L150.186 1048.64 L145.302 1048.64 L145.302 1042.76 Z" fill="#000000" fill-rule="evenodd" fill-opacity="1" /><path clip-path="url(#clip870)" d="M 0 0 M165.255 1017.16 Q161.644 1017.16 159.815 1020.72 Q158.01 1024.26 158.01 1031.39 Q158.01 1038.5 159.815 1042.06 Q161.644 1045.61 165.255 1045.61 Q168.889 1045.61 170.695 1042.06 Q172.524 1038.5 172.524 1031.39 Q172.524 1024.26 170.695 1020.72 Q168.889 1017.16 165.255 1017.16 M165.255 1013.45 Q171.065 1013.45 174.121 1018.06 Q177.2 1022.64 177.2 1031.39 Q177.2 1040.12 174.121 1044.73 Q171.065 1049.31 165.255 1049.31 Q159.445 1049.31 156.366 1044.73 Q153.311 1040.12 153.311 1031.39 Q153.311 1022.64 156.366 1018.06 Q159.445 1013.45 165.255 1013.45 Z" fill="#000000" fill-rule="evenodd" fill-opacity="1" /><path clip-path="url(#clip870)" d="M 0 0 M186.297 1044.7 L202.616 1044.7 L202.616 1048.64 L180.672 1048.64 L180.672 1044.7 Q183.334 1041.95 187.917 1037.32 Q192.524 1032.67 193.704 1031.32 Q195.95 1028.8 196.829 1027.06 Q197.732 1025.31 197.732 1023.62 Q197.732 1020.86 195.787 1019.12 Q193.866 1017.39 190.764 1017.39 Q188.565 1017.39 186.112 1018.15 Q183.681 1018.92 180.903 1020.47 L180.903 1015.75 Q183.727 1014.61 186.181 1014.03 Q188.635 1013.45 190.672 1013.45 Q196.042 1013.45 199.237 1016.14 Q202.431 1018.82 202.431 1023.31 Q202.431 1025.44 201.621 1027.37 Q200.834 1029.26 198.727 1031.86 Q198.149 1032.53 195.047 1035.74 Q191.945 1038.94 186.297 1044.7 Z" fill="#000000" fill-rule="evenodd" fill-opacity="1" /><path clip-path="url(#clip870)" d="M 0 0 M126.205 664.277 Q122.593 664.277 120.765 667.842 Q118.959 671.384 118.959 678.513 Q118.959 685.62 120.765 689.184 Q122.593 692.726 126.205 692.726 Q129.839 692.726 131.644 689.184 Q133.473 685.62 133.473 678.513 Q133.473 671.384 131.644 667.842 Q129.839 664.277 126.205 664.277 M126.205 660.573 Q132.015 660.573 135.07 665.18 Q138.149 669.763 138.149 678.513 Q138.149 687.24 135.07 691.846 Q132.015 696.43 126.205 696.43 Q120.394 696.43 117.316 691.846 Q114.26 687.24 114.26 678.513 Q114.26 669.763 117.316 665.18 Q120.394 660.573 126.205 660.573 Z" fill="#000000" fill-rule="evenodd" fill-opacity="1" /><path clip-path="url(#clip870)" d="M 0 0 M143.218 689.879 L148.103 689.879 L148.103 695.758 L143.218 695.758 L143.218 689.879 Z" fill="#000000" fill-rule="evenodd" fill-opacity="1" /><path clip-path="url(#clip870)" d="M 0 0 M163.172 664.277 Q159.561 664.277 157.732 667.842 Q155.927 671.384 155.927 678.513 Q155.927 685.62 157.732 689.184 Q159.561 692.726 163.172 692.726 Q166.806 692.726 168.612 689.184 Q170.44 685.62 170.44 678.513 Q170.44 671.384 168.612 667.842 Q166.806 664.277 163.172 664.277 M163.172 660.573 Q168.982 660.573 172.038 665.18 Q175.116 669.763 175.116 678.513 Q175.116 687.24 172.038 691.846 Q168.982 696.43 163.172 696.43 Q157.362 696.43 154.283 691.846 Q151.228 687.24 151.228 678.513 Q151.228 669.763 154.283 665.18 Q157.362 660.573 163.172 660.573 Z" fill="#000000" fill-rule="evenodd" fill-opacity="1" /><path clip-path="url(#clip870)" d="M 0 0 M193.033 665.272 L181.227 683.721 L193.033 683.721 L193.033 665.272 M191.806 661.198 L197.686 661.198 L197.686 683.721 L202.616 683.721 L202.616 687.61 L197.686 687.61 L197.686 695.758 L193.033 695.758 L193.033 687.61 L177.431 687.61 L177.431 683.096 L191.806 661.198 Z" fill="#000000" fill-rule="evenodd" fill-opacity="1" /><path clip-path="url(#clip870)" d="M 0 0 M126.529 311.397 Q122.918 311.397 121.089 314.962 Q119.283 318.504 119.283 325.633 Q119.283 332.74 121.089 336.304 Q122.918 339.846 126.529 339.846 Q130.163 339.846 131.968 336.304 Q133.797 332.74 133.797 325.633 Q133.797 318.504 131.968 314.962 Q130.163 311.397 126.529 311.397 M126.529 307.694 Q132.339 307.694 135.394 312.3 Q138.473 316.883 138.473 325.633 Q138.473 334.36 135.394 338.967 Q132.339 343.55 126.529 343.55 Q120.718 343.55 117.64 338.967 Q114.584 334.36 114.584 325.633 Q114.584 316.883 117.64 312.3 Q120.718 307.694 126.529 307.694 Z" fill="#000000" fill-rule="evenodd" fill-opacity="1" /><path clip-path="url(#clip870)" d="M 0 0 M143.542 336.999 L148.427 336.999 L148.427 342.879 L143.542 342.879 L143.542 336.999 Z" fill="#000000" fill-rule="evenodd" fill-opacity="1" /><path clip-path="url(#clip870)" d="M 0 0 M163.496 311.397 Q159.885 311.397 158.056 314.962 Q156.251 318.504 156.251 325.633 Q156.251 332.74 158.056 336.304 Q159.885 339.846 163.496 339.846 Q167.13 339.846 168.936 336.304 Q170.764 332.74 170.764 325.633 Q170.764 318.504 168.936 314.962 Q167.13 311.397 163.496 311.397 M163.496 307.694 Q169.306 307.694 172.362 312.3 Q175.44 316.883 175.44 325.633 Q175.44 334.36 172.362 338.967 Q169.306 343.55 163.496 343.55 Q157.686 343.55 154.607 338.967 Q151.552 334.36 151.552 325.633 Q151.552 316.883 154.607 312.3 Q157.686 307.694 163.496 307.694 Z" fill="#000000" fill-rule="evenodd" fill-opacity="1" /><path clip-path="url(#clip870)" d="M 0 0 M191.088 323.735 Q187.94 323.735 186.088 325.888 Q184.26 328.041 184.26 331.791 Q184.26 335.517 186.088 337.693 Q187.94 339.846 191.088 339.846 Q194.237 339.846 196.065 337.693 Q197.917 335.517 197.917 331.791 Q197.917 328.041 196.065 325.888 Q194.237 323.735 191.088 323.735 M200.371 309.082 L200.371 313.342 Q198.612 312.508 196.806 312.069 Q195.024 311.629 193.264 311.629 Q188.635 311.629 186.181 314.754 Q183.751 317.879 183.403 324.198 Q184.769 322.184 186.829 321.119 Q188.889 320.031 191.366 320.031 Q196.575 320.031 199.584 323.203 Q202.616 326.351 202.616 331.791 Q202.616 337.115 199.468 340.332 Q196.32 343.55 191.088 343.55 Q185.093 343.55 181.922 338.967 Q178.751 334.36 178.751 325.633 Q178.751 317.439 182.639 312.578 Q186.528 307.694 193.079 307.694 Q194.838 307.694 196.621 308.041 Q198.426 308.388 200.371 309.082 Z" fill="#000000" fill-rule="evenodd" fill-opacity="1" /><path clip-path="url(#clip870)" d="M 0 0 M73.9359 788.382 L52.3562 788.382 L52.3562 782.525 L73.7131 782.525 Q78.7739 782.525 81.3202 780.552 Q83.8346 778.578 83.8346 774.632 Q83.8346 769.889 80.8109 767.152 Q77.7872 764.383 72.5673 764.383 L52.3562 764.383 L52.3562 758.526 L88.0042 758.526 L88.0042 764.383 L82.5296 764.383 Q85.7762 766.515 87.3676 769.348 Q88.9272 772.149 88.9272 775.873 Q88.9272 782.016 85.1078 785.199 Q81.2883 788.382 73.9359 788.382 M51.4968 773.645 L51.4968 773.645 Z" fill="#000000" fill-rule="evenodd" fill-opacity="1" /><path clip-path="url(#clip870)" d="M 0 0 M38.5426 738.315 Q45.8632 742.58 53.0246 744.649 Q60.186 746.718 67.5384 746.718 Q74.8908 746.718 82.1159 744.649 Q89.3091 742.548 96.5979 738.315 L96.5979 743.408 Q89.1182 748.182 81.8931 750.569 Q74.668 752.925 67.5384 752.925 Q60.4406 752.925 53.2474 750.569 Q46.0542 748.214 38.5426 743.408 L38.5426 738.315 Z" fill="#000000" fill-rule="evenodd" fill-opacity="1" /><path clip-path="url(#clip870)" d="M 0 0 M52.3562 702.54 L69.7028 715.431 L88.0042 701.872 L88.0042 708.778 L73.9996 719.154 L88.0042 729.531 L88.0042 736.437 L69.3526 722.592 L52.3562 735.26 L52.3562 728.353 L65.0558 718.9 L52.3562 709.447 L52.3562 702.54 Z" fill="#000000" fill-rule="evenodd" fill-opacity="1" /><path clip-path="url(#clip870)" d="M 0 0 M38.5426 696.652 L38.5426 691.559 Q46.0542 686.785 53.2474 684.43 Q60.4406 682.042 67.5384 682.042 Q74.668 682.042 81.8931 684.43 Q89.1182 686.785 96.5979 691.559 L96.5979 696.652 Q89.3091 692.419 82.1159 690.35 Q74.8908 688.249 67.5384 688.249 Q60.186 688.249 53.0246 690.35 Q45.8632 692.419 38.5426 696.652 Z" fill="#000000" fill-rule="evenodd" fill-opacity="1" /><polyline clip-path="url(#clip872)" style="stroke:#ff0000; stroke-width:4; stroke-opacity:1; fill:none" points="
  298.45,1384.24 318.395,1344.46 338.34,1304.72 358.284,1265.06 378.229,1225.52 398.174,1186.13 418.119,1146.94 438.063,1107.98 458.008,1069.3 477.953,1030.92 
  497.897,992.897 517.842,955.259 537.787,918.043 557.732,881.288 577.676,845.029 597.621,809.302 617.566,774.143 637.51,739.585 657.455,705.664 677.4,672.413 
  697.345,639.864 717.289,608.049 737.234,577.001 757.179,546.749 777.123,517.324 797.068,488.754 817.013,461.068 836.958,434.293 856.902,408.456 876.847,383.582 
  896.792,359.695 916.736,336.819 936.681,314.977 956.626,294.19 976.571,274.479 996.515,255.863 1016.46,238.36 1036.4,221.989 1056.35,206.764 1076.29,192.702 
  1096.24,179.815 1116.18,168.117 1136.13,157.619 1156.07,148.332 1176.02,140.264 1195.96,133.424 1215.91,127.819 1235.85,123.453 1255.8,120.332 1275.74,118.458 
  1295.69,117.833 1315.63,118.458 1335.58,120.332 1355.52,123.453 1375.46,127.819 1395.41,133.424 1415.35,140.264 1435.3,148.332 1455.24,157.619 1475.19,168.117 
  1495.13,179.815 1515.08,192.702 1535.02,206.764 1554.97,221.989 1574.91,238.36 1594.86,255.863 1614.8,274.479 1634.75,294.19 1654.69,314.977 1674.64,336.819 
  1694.58,359.695 1714.53,383.582 1734.47,408.456 1754.41,434.293 1774.36,461.068 1794.3,488.754 1814.25,517.324 1834.19,546.749 1854.14,577.001 1874.08,608.049 
  1894.03,639.864 1913.97,672.413 1933.92,705.664 1953.86,739.585 1973.81,774.143 1993.75,809.302 2013.7,845.029 2033.64,881.288 2053.59,918.043 2073.53,955.259 
  2093.47,992.897 2113.42,1030.92 2133.36,1069.3 2153.31,1107.98 2173.25,1146.94 2193.2,1186.13 2213.14,1225.52 2233.09,1265.06 2253.03,1304.72 2272.98,1344.46 
  2292.92,1384.24 
  "/>
<polyline clip-path="url(#clip872)" style="stroke:#008000; stroke-width:4; stroke-opacity:1; fill:none" points="
  298.45,1384.24 318.395,1353.62 338.34,1323.01 358.284,1292.41 378.229,1261.81 398.174,1231.23 418.119,1200.67 438.063,1170.13 458.008,1139.61 477.953,1109.13 
  497.897,1078.69 517.842,1048.3 537.787,1017.96 557.732,987.687 577.676,957.492 597.621,927.385 617.566,897.38 637.51,867.49 657.455,837.732 677.4,808.122 
  697.345,778.679 717.289,749.422 737.234,720.374 757.179,691.557 777.123,662.995 797.068,634.713 817.013,606.739 836.958,579.101 856.902,551.829 876.847,524.955 
  896.792,498.51 916.736,472.528 936.681,447.044 956.626,422.094 976.571,397.716 996.515,373.946 1016.46,350.823 1036.4,328.388 1056.35,306.68 1076.29,285.739 
  1096.24,265.607 1116.18,246.326 1136.13,227.935 1156.07,210.478 1176.02,193.995 1195.96,178.528 1215.91,164.117 1235.85,150.803 1255.8,138.625 1275.74,127.622 
  1295.69,117.833 1315.63,109.293 1335.58,102.038 1355.52,96.1031 1375.46,91.5202 1395.41,88.3205 1415.35,86.5333 1435.3,86.1857 1455.24,87.303 1475.19,89.9084 
  1495.13,94.0227 1515.08,99.6641 1535.02,106.849 1554.97,115.589 1574.91,125.897 1594.86,137.78 1614.8,151.242 1634.75,166.285 1654.69,182.909 1674.64,201.11 
  1694.58,220.88 1714.53,242.208 1734.47,265.083 1754.41,289.486 1774.36,315.398 1794.3,342.796 1814.25,371.653 1834.19,401.942 1854.14,433.628 1874.08,466.676 
  1894.03,501.049 1913.97,536.704 1933.92,573.597 1953.86,611.681 1973.81,650.906 1993.75,691.219 2013.7,732.566 2033.64,774.889 2053.59,818.128 2073.53,862.221 
  2093.47,907.105 2113.42,952.714 2133.36,998.98 2153.31,1045.83 2173.25,1093.21 2193.2,1141.03 2213.14,1189.22 2233.09,1237.71 2253.03,1286.43 2272.98,1335.29 
  2292.92,1384.24 
  "/>
<polyline clip-path="url(#clip872)" style="stroke:#0000ff; stroke-width:4; stroke-opacity:1; fill:none" points="
  298.45,1384.24 318.395,1349.61 338.34,1315.03 358.284,1280.52 378.229,1246.12 398.174,1211.88 418.119,1177.83 438.063,1144 458.008,1110.43 477.953,1077.15 
  497.897,1044.2 517.842,1011.6 537.787,979.385 557.732,947.576 577.676,916.2 597.621,885.279 617.566,854.832 637.51,824.879 657.455,795.436 677.4,766.517 
  697.345,738.134 717.289,710.297 737.234,683.016 757.179,656.297 777.123,630.147 797.068,604.568 817.013,579.565 836.958,555.139 856.902,531.291 876.847,508.024 
  896.792,485.336 916.736,463.228 936.681,441.701 956.626,420.755 976.571,400.392 996.515,380.615 1016.46,361.425 1036.4,342.829 1056.35,324.831 1076.29,307.44 
  1096.24,290.666 1116.18,274.518 1136.13,259.012 1156.07,244.164 1176.02,229.99 1195.96,216.513 1215.91,203.755 1235.85,191.742 1255.8,180.502 1275.74,170.065 
  1295.69,160.464 1315.63,151.735 1335.58,143.915 1355.52,137.042 1375.46,131.158 1395.41,126.305 1415.35,122.528 1435.3,119.871 1455.24,118.38 1475.19,118.101 
  1495.13,119.081 1515.08,121.365 1535.02,125 1554.97,130.03 1574.91,136.499 1594.86,144.449 1614.8,153.918 1634.75,164.946 1654.69,177.566 1674.64,191.81 
  1694.58,207.706 1714.53,225.277 1734.47,244.545 1754.41,265.523 1774.36,288.223 1794.3,312.651 1814.25,338.805 1834.19,366.682 1854.14,396.269 1874.08,427.551 
  1894.03,460.504 1913.97,495.099 1933.92,531.302 1953.86,569.07 1973.81,608.358 1993.75,649.113 2013.7,691.274 2033.64,734.778 2053.59,779.554 2073.53,825.526 
  2093.47,872.615 2113.42,920.735 2133.36,969.797 2153.31,1019.71 2173.25,1070.36 2193.2,1121.67 2213.14,1173.52 2233.09,1225.82 2253.03,1278.44 2272.98,1331.28 
  2292.92,1384.24 
  "/>
<polyline clip-path="url(#clip872)" style="stroke:#000000; stroke-width:4; stroke-opacity:1; fill:none" points="
  298.45,1384.24 318.395,1351.86 338.34,1319.48 358.284,1287.1 378.229,1254.74 398.174,1222.4 418.119,1190.08 438.063,1157.79 458.008,1125.54 477.953,1093.35 
  497.897,1061.22 517.842,1029.18 537.787,997.245 557.732,965.437 577.676,933.779 597.621,902.299 617.566,871.025 637.51,839.99 657.455,809.225 677.4,778.768 
  697.345,748.653 717.289,718.919 737.234,689.604 757.179,660.748 777.123,632.389 797.068,604.568 817.013,577.322 836.958,550.688 856.902,524.703 876.847,499.402 
  896.792,474.817 916.736,450.977 936.681,427.912 956.626,405.645 976.571,384.2 996.515,363.595 1016.46,343.846 1036.4,324.968 1056.35,306.971 1076.29,289.861 
  1096.24,273.645 1116.18,258.325 1136.13,243.902 1156.07,230.374 1176.02,217.739 1195.96,205.994 1215.91,195.133 1235.85,185.154 1255.8,176.051 1275.74,167.822 
  1295.69,160.464 1315.63,153.978 1335.58,148.365 1355.52,143.63 1375.46,139.779 1395.41,136.824 1415.35,134.779 1435.3,133.66 1455.24,133.49 1475.19,134.294 
  1495.13,136.101 1515.08,138.944 1535.02,142.861 1554.97,147.891 1574.91,154.078 1594.86,161.469 1614.8,170.111 1634.75,180.056 1654.69,191.355 1674.64,204.061 
  1694.58,218.225 1714.53,233.899 1734.47,251.133 1754.41,269.974 1774.36,290.466 1794.3,312.651 1814.25,336.562 1834.19,362.231 1854.14,389.681 1874.08,418.93 
  1894.03,449.985 1913.97,482.848 1933.92,517.512 1953.86,553.96 1973.81,592.166 1993.75,632.092 2013.7,673.695 2033.64,716.917 2053.59,761.693 2073.53,807.947 
  2093.47,855.595 2113.42,904.543 2133.36,954.687 2153.31,1005.92 2173.25,1058.11 2193.2,1111.15 2213.14,1164.9 2233.09,1219.23 2253.03,1273.99 2272.98,1329.04 
  2292.92,1384.24 
  "/>
<path clip-path="url(#clip870)" d="
M1998.17 395.509 L2282.28 395.509 L2282.28 93.1086 L1998.17 93.1086  Z
  " fill="#ffffff" fill-rule="evenodd" fill-opacity="1"/>
<polyline clip-path="url(#clip870)" style="stroke:#000000; stroke-width:4; stroke-opacity:1; fill:none" points="
  1998.17,395.509 2282.28,395.509 2282.28,93.1086 1998.17,93.1086 1998.17,395.509 
  "/>
<polyline clip-path="url(#clip870)" style="stroke:#ff0000; stroke-width:4; stroke-opacity:1; fill:none" points="
  2021.66,153.589 2162.6,153.589 
  "/>
<path clip-path="url(#clip870)" d="M 0 0 M2186.09 160.637 L2186.09 144.943 L2190.35 144.943 L2190.35 160.475 Q2190.35 164.156 2191.79 166.008 Q2193.22 167.836 2196.09 167.836 Q2199.54 167.836 2201.53 165.637 Q2203.54 163.438 2203.54 159.642 L2203.54 144.943 L2207.8 144.943 L2207.8 170.869 L2203.54 170.869 L2203.54 166.887 Q2201.99 169.248 2199.93 170.406 Q2197.9 171.54 2195.19 171.54 Q2190.72 171.54 2188.41 168.762 Q2186.09 165.984 2186.09 160.637 M2196.81 144.318 L2196.81 144.318 Z" fill="#000000" fill-rule="evenodd" fill-opacity="1" /><path clip-path="url(#clip870)" d="M 0 0 M2213.68 166.933 L2221.32 166.933 L2221.32 140.568 L2213.01 142.235 L2213.01 137.975 L2221.28 136.309 L2225.95 136.309 L2225.95 166.933 L2233.59 166.933 L2233.59 170.869 L2213.68 170.869 L2213.68 166.933 Z" fill="#000000" fill-rule="evenodd" fill-opacity="1" /><polyline clip-path="url(#clip870)" style="stroke:#008000; stroke-width:4; stroke-opacity:1; fill:none" points="
  2021.66,214.069 2162.6,214.069 
  "/>
<path clip-path="url(#clip870)" d="M 0 0 M2186.09 221.117 L2186.09 205.423 L2190.35 205.423 L2190.35 220.955 Q2190.35 224.636 2191.79 226.488 Q2193.22 228.316 2196.09 228.316 Q2199.54 228.316 2201.53 226.117 Q2203.54 223.918 2203.54 220.122 L2203.54 205.423 L2207.8 205.423 L2207.8 231.349 L2203.54 231.349 L2203.54 227.367 Q2201.99 229.728 2199.93 230.886 Q2197.9 232.02 2195.19 232.02 Q2190.72 232.02 2188.41 229.242 Q2186.09 226.464 2186.09 221.117 M2196.81 204.798 L2196.81 204.798 Z" fill="#000000" fill-rule="evenodd" fill-opacity="1" /><path clip-path="url(#clip870)" d="M 0 0 M2216.9 227.413 L2233.22 227.413 L2233.22 231.349 L2211.28 231.349 L2211.28 227.413 Q2213.94 224.659 2218.52 220.029 Q2223.13 215.376 2224.31 214.034 Q2226.55 211.511 2227.43 209.775 Q2228.34 208.015 2228.34 206.326 Q2228.34 203.571 2226.39 201.835 Q2224.47 200.099 2221.37 200.099 Q2219.17 200.099 2216.72 200.863 Q2214.29 201.627 2211.51 203.177 L2211.51 198.455 Q2214.33 197.321 2216.79 196.742 Q2219.24 196.164 2221.28 196.164 Q2226.65 196.164 2229.84 198.849 Q2233.04 201.534 2233.04 206.025 Q2233.04 208.154 2232.23 210.076 Q2231.44 211.974 2229.33 214.566 Q2228.75 215.238 2225.65 218.455 Q2222.55 221.65 2216.9 227.413 Z" fill="#000000" fill-rule="evenodd" fill-opacity="1" /><polyline clip-path="url(#clip870)" style="stroke:#0000ff; stroke-width:4; stroke-opacity:1; fill:none" points="
  2021.66,274.549 2162.6,274.549 
  "/>
<path clip-path="url(#clip870)" d="M 0 0 M2186.09 281.597 L2186.09 265.903 L2190.35 265.903 L2190.35 281.435 Q2190.35 285.116 2191.79 286.968 Q2193.22 288.796 2196.09 288.796 Q2199.54 288.796 2201.53 286.597 Q2203.54 284.398 2203.54 280.602 L2203.54 265.903 L2207.8 265.903 L2207.8 291.829 L2203.54 291.829 L2203.54 287.847 Q2201.99 290.208 2199.93 291.366 Q2197.9 292.5 2195.19 292.5 Q2190.72 292.5 2188.41 289.722 Q2186.09 286.944 2186.09 281.597 M2196.81 265.278 L2196.81 265.278 Z" fill="#000000" fill-rule="evenodd" fill-opacity="1" /><path clip-path="url(#clip870)" d="M 0 0 M2227.04 273.194 Q2230.4 273.912 2232.27 276.181 Q2234.17 278.449 2234.17 281.782 Q2234.17 286.898 2230.65 289.699 Q2227.13 292.5 2220.65 292.5 Q2218.48 292.5 2216.16 292.06 Q2213.87 291.643 2211.41 290.787 L2211.41 286.273 Q2213.36 287.407 2215.67 287.986 Q2217.99 288.565 2220.51 288.565 Q2224.91 288.565 2227.2 286.829 Q2229.52 285.093 2229.52 281.782 Q2229.52 278.727 2227.36 277.014 Q2225.23 275.278 2221.41 275.278 L2217.39 275.278 L2217.39 271.435 L2221.6 271.435 Q2225.05 271.435 2226.88 270.069 Q2228.71 268.681 2228.71 266.088 Q2228.71 263.426 2226.81 262.014 Q2224.93 260.579 2221.41 260.579 Q2219.49 260.579 2217.29 260.995 Q2215.1 261.412 2212.46 262.292 L2212.46 258.125 Q2215.12 257.384 2217.43 257.014 Q2219.77 256.644 2221.83 256.644 Q2227.16 256.644 2230.26 259.074 Q2233.36 261.482 2233.36 265.602 Q2233.36 268.472 2231.72 270.463 Q2230.07 272.431 2227.04 273.194 Z" fill="#000000" fill-rule="evenodd" fill-opacity="1" /><polyline clip-path="url(#clip870)" style="stroke:#000000; stroke-width:4; stroke-opacity:1; fill:none" points="
  2021.66,335.029 2162.6,335.029 
  "/>
<path clip-path="url(#clip870)" d="M 0 0 M2186.09 342.077 L2186.09 326.383 L2190.35 326.383 L2190.35 341.915 Q2190.35 345.596 2191.79 347.448 Q2193.22 349.276 2196.09 349.276 Q2199.54 349.276 2201.53 347.077 Q2203.54 344.878 2203.54 341.082 L2203.54 326.383 L2207.8 326.383 L2207.8 352.309 L2203.54 352.309 L2203.54 348.327 Q2201.99 350.688 2199.93 351.846 Q2197.9 352.98 2195.19 352.98 Q2190.72 352.98 2188.41 350.202 Q2186.09 347.424 2186.09 342.077 M2196.81 325.758 L2196.81 325.758 Z" fill="#000000" fill-rule="evenodd" fill-opacity="1" /><path clip-path="url(#clip870)" d="M 0 0 M2225.72 321.823 L2213.91 340.272 L2225.72 340.272 L2225.72 321.823 M2224.49 317.749 L2230.37 317.749 L2230.37 340.272 L2235.3 340.272 L2235.3 344.161 L2230.37 344.161 L2230.37 352.309 L2225.72 352.309 L2225.72 344.161 L2210.12 344.161 L2210.12 339.647 L2224.49 317.749 Z" fill="#000000" fill-rule="evenodd" fill-opacity="1" /></svg>
