<?xml version="1.0" encoding="utf-8"?>
<svg xmlns="http://www.w3.org/2000/svg" xmlns:xlink="http://www.w3.org/1999/xlink" width="600" height="400" viewBox="0 0 2400 1600">
<defs>
  <clipPath id="clip990">
    <rect x="0" y="0" width="2400" height="1600"/>
  </clipPath>
</defs>
<path clip-path="url(#clip990)" d="
M0 1600 L2400 1600 L2400 0 L0 0  Z
  " fill="#ffffff" fill-rule="evenodd" fill-opacity="1"/>
<defs>
  <clipPath id="clip991">
    <rect x="480" y="0" width="1681" height="1600"/>
  </clipPath>
</defs>
<path clip-path="url(#clip990)" d="
M238.13 1423.18 L2352.76 1423.18 L2352.76 47.2441 L238.13 47.2441  Z
  " fill="#ffffff" fill-rule="evenodd" fill-opacity="1"/>
<defs>
  <clipPath id="clip992">
    <rect x="238" y="47" width="2116" height="1377"/>
  </clipPath>
</defs>
<polyline clip-path="url(#clip992)" style="stroke:#000000; stroke-width:2; stroke-opacity:0.1; fill:none" points="
  540.219,1423.18 540.219,47.2441 
  "/>
<polyline clip-path="url(#clip992)" style="stroke:#000000; stroke-width:2; stroke-opacity:0.1; fill:none" points="
  917.831,1423.18 917.831,47.2441 
  "/>
<polyline clip-path="url(#clip992)" style="stroke:#000000; stroke-width:2; stroke-opacity:0.1; fill:none" points="
  1295.44,1423.18 1295.44,47.2441 
  "/>
<polyline clip-path="url(#clip992)" style="stroke:#000000; stroke-width:2; stroke-opacity:0.1; fill:none" points="
  1673.05,1423.18 1673.05,47.2441 
  "/>
<polyline clip-path="url(#clip992)" style="stroke:#000000; stroke-width:2; stroke-opacity:0.1; fill:none" points="
  2050.67,1423.18 2050.67,47.2441 
  "/>
<polyline clip-path="url(#clip990)" style="stroke:#000000; stroke-width:4; stroke-opacity:1; fill:none" points="
  238.13,1423.18 2352.76,1423.18 
  "/>
<polyline clip-path="url(#clip990)" style="stroke:#000000; stroke-width:4; stroke-opacity:1; fill:none" points="
  540.219,1423.18 540.219,1406.67 
  "/>
<polyline clip-path="url(#clip990)" style="stroke:#000000; stroke-width:4; stroke-opacity:1; fill:none" points="
  917.831,1423.18 917.831,1406.67 
  "/>
<polyline clip-path="url(#clip990)" style="stroke:#000000; stroke-width:4; stroke-opacity:1; fill:none" points="
  1295.44,1423.18 1295.44,1406.67 
  "/>
<polyline clip-path="url(#clip990)" style="stroke:#000000; stroke-width:4; stroke-opacity:1; fill:none" points="
  1673.05,1423.18 1673.05,1406.67 
  "/>
<polyline clip-path="url(#clip990)" style="stroke:#000000; stroke-width:4; stroke-opacity:1; fill:none" points="
  2050.67,1423.18 2050.67,1406.67 
  "/>
<path clip-path="url(#clip990)" d="M 0 0 M508.229 1452.37 Q504.618 1452.37 502.789 1455.94 Q500.984 1459.48 500.984 1466.61 Q500.984 1473.71 502.789 1477.28 Q504.618 1480.82 508.229 1480.82 Q511.863 1480.82 513.669 1477.28 Q515.497 1473.71 515.497 1466.61 Q515.497 1459.48 513.669 1455.94 Q511.863 1452.37 508.229 1452.37 M508.229 1448.67 Q514.039 1448.67 517.095 1453.27 Q520.173 1457.86 520.173 1466.61 Q520.173 1475.33 517.095 1479.94 Q514.039 1484.52 508.229 1484.52 Q502.419 1484.52 499.34 1479.94 Q496.285 1475.33 496.285 1466.61 Q496.285 1457.86 499.34 1453.27 Q502.419 1448.67 508.229 1448.67 Z" fill="#000000" fill-rule="evenodd" fill-opacity="1" /><path clip-path="url(#clip990)" d="M 0 0 M525.243 1477.97 L530.127 1477.97 L530.127 1483.85 L525.243 1483.85 L525.243 1477.97 Z" fill="#000000" fill-rule="evenodd" fill-opacity="1" /><path clip-path="url(#clip990)" d="M 0 0 M545.196 1452.37 Q541.585 1452.37 539.757 1455.94 Q537.951 1459.48 537.951 1466.61 Q537.951 1473.71 539.757 1477.28 Q541.585 1480.82 545.196 1480.82 Q548.831 1480.82 550.636 1477.28 Q552.465 1473.71 552.465 1466.61 Q552.465 1459.48 550.636 1455.94 Q548.831 1452.37 545.196 1452.37 M545.196 1448.67 Q551.006 1448.67 554.062 1453.27 Q557.141 1457.86 557.141 1466.61 Q557.141 1475.33 554.062 1479.94 Q551.006 1484.52 545.196 1484.52 Q539.386 1484.52 536.307 1479.94 Q533.252 1475.33 533.252 1466.61 Q533.252 1457.86 536.307 1453.27 Q539.386 1448.67 545.196 1448.67 Z" fill="#000000" fill-rule="evenodd" fill-opacity="1" /><path clip-path="url(#clip990)" d="M 0 0 M572.21 1452.37 Q568.599 1452.37 566.77 1455.94 Q564.965 1459.48 564.965 1466.61 Q564.965 1473.71 566.77 1477.28 Q568.599 1480.82 572.21 1480.82 Q575.844 1480.82 577.65 1477.28 Q579.479 1473.71 579.479 1466.61 Q579.479 1459.48 577.65 1455.94 Q575.844 1452.37 572.21 1452.37 M572.21 1448.67 Q578.02 1448.67 581.076 1453.27 Q584.154 1457.86 584.154 1466.61 Q584.154 1475.33 581.076 1479.94 Q578.02 1484.52 572.21 1484.52 Q566.4 1484.52 563.321 1479.94 Q560.266 1475.33 560.266 1466.61 Q560.266 1457.86 563.321 1453.27 Q566.4 1448.67 572.21 1448.67 Z" fill="#000000" fill-rule="evenodd" fill-opacity="1" /><path clip-path="url(#clip990)" d="M 0 0 M887.137 1452.37 Q883.526 1452.37 881.697 1455.94 Q879.892 1459.48 879.892 1466.61 Q879.892 1473.71 881.697 1477.28 Q883.526 1480.82 887.137 1480.82 Q890.771 1480.82 892.577 1477.28 Q894.405 1473.71 894.405 1466.61 Q894.405 1459.48 892.577 1455.94 Q890.771 1452.37 887.137 1452.37 M887.137 1448.67 Q892.947 1448.67 896.003 1453.27 Q899.081 1457.86 899.081 1466.61 Q899.081 1475.33 896.003 1479.94 Q892.947 1484.52 887.137 1484.52 Q881.327 1484.52 878.248 1479.94 Q875.193 1475.33 875.193 1466.61 Q875.193 1457.86 878.248 1453.27 Q881.327 1448.67 887.137 1448.67 Z" fill="#000000" fill-rule="evenodd" fill-opacity="1" /><path clip-path="url(#clip990)" d="M 0 0 M904.151 1477.97 L909.035 1477.97 L909.035 1483.85 L904.151 1483.85 L904.151 1477.97 Z" fill="#000000" fill-rule="evenodd" fill-opacity="1" /><path clip-path="url(#clip990)" d="M 0 0 M918.132 1479.92 L934.452 1479.92 L934.452 1483.85 L912.507 1483.85 L912.507 1479.92 Q915.169 1477.16 919.753 1472.53 Q924.359 1467.88 925.54 1466.54 Q927.785 1464.01 928.664 1462.28 Q929.567 1460.52 929.567 1458.83 Q929.567 1456.07 927.623 1454.34 Q925.702 1452.6 922.6 1452.6 Q920.401 1452.6 917.947 1453.37 Q915.516 1454.13 912.739 1455.68 L912.739 1450.96 Q915.563 1449.82 918.016 1449.25 Q920.47 1448.67 922.507 1448.67 Q927.877 1448.67 931.072 1451.35 Q934.266 1454.04 934.266 1458.53 Q934.266 1460.66 933.456 1462.58 Q932.669 1464.48 930.563 1467.07 Q929.984 1467.74 926.882 1470.96 Q923.78 1474.15 918.132 1479.92 Z" fill="#000000" fill-rule="evenodd" fill-opacity="1" /><path clip-path="url(#clip990)" d="M 0 0 M939.567 1449.29 L957.924 1449.29 L957.924 1453.23 L943.85 1453.23 L943.85 1461.7 Q944.868 1461.35 945.887 1461.19 Q946.905 1461 947.924 1461 Q953.711 1461 957.09 1464.18 Q960.47 1467.35 960.47 1472.76 Q960.47 1478.34 956.998 1481.44 Q953.525 1484.52 947.206 1484.52 Q945.03 1484.52 942.762 1484.15 Q940.516 1483.78 938.109 1483.04 L938.109 1478.34 Q940.192 1479.48 942.414 1480.03 Q944.637 1480.59 947.113 1480.59 Q951.118 1480.59 953.456 1478.48 Q955.794 1476.38 955.794 1472.76 Q955.794 1469.15 953.456 1467.05 Q951.118 1464.94 947.113 1464.94 Q945.238 1464.94 943.363 1465.36 Q941.512 1465.77 939.567 1466.65 L939.567 1449.29 Z" fill="#000000" fill-rule="evenodd" fill-opacity="1" /><path clip-path="url(#clip990)" d="M 0 0 M1263.95 1452.37 Q1260.34 1452.37 1258.51 1455.94 Q1256.7 1459.48 1256.7 1466.61 Q1256.7 1473.71 1258.51 1477.28 Q1260.34 1480.82 1263.95 1480.82 Q1267.58 1480.82 1269.39 1477.28 Q1271.22 1473.71 1271.22 1466.61 Q1271.22 1459.48 1269.39 1455.94 Q1267.58 1452.37 1263.95 1452.37 M1263.95 1448.67 Q1269.76 1448.67 1272.82 1453.27 Q1275.89 1457.86 1275.89 1466.61 Q1275.89 1475.33 1272.82 1479.94 Q1269.76 1484.52 1263.95 1484.52 Q1258.14 1484.52 1255.06 1479.94 Q1252.01 1475.33 1252.01 1466.61 Q1252.01 1457.86 1255.06 1453.27 Q1258.14 1448.67 1263.95 1448.67 Z" fill="#000000" fill-rule="evenodd" fill-opacity="1" /><path clip-path="url(#clip990)" d="M 0 0 M1280.96 1477.97 L1285.85 1477.97 L1285.85 1483.85 L1280.96 1483.85 L1280.96 1477.97 Z" fill="#000000" fill-rule="evenodd" fill-opacity="1" /><path clip-path="url(#clip990)" d="M 0 0 M1290.96 1449.29 L1309.32 1449.29 L1309.32 1453.23 L1295.25 1453.23 L1295.25 1461.7 Q1296.26 1461.35 1297.28 1461.19 Q1298.3 1461 1299.32 1461 Q1305.11 1461 1308.49 1464.18 Q1311.87 1467.35 1311.87 1472.76 Q1311.87 1478.34 1308.39 1481.44 Q1304.92 1484.52 1298.6 1484.52 Q1296.43 1484.52 1294.16 1484.15 Q1291.91 1483.78 1289.51 1483.04 L1289.51 1478.34 Q1291.59 1479.48 1293.81 1480.03 Q1296.03 1480.59 1298.51 1480.59 Q1302.51 1480.59 1304.85 1478.48 Q1307.19 1476.38 1307.19 1472.76 Q1307.19 1469.15 1304.85 1467.05 Q1302.51 1464.94 1298.51 1464.94 Q1296.64 1464.94 1294.76 1465.36 Q1292.91 1465.77 1290.96 1466.65 L1290.96 1449.29 Z" fill="#000000" fill-rule="evenodd" fill-opacity="1" /><path clip-path="url(#clip990)" d="M 0 0 M1326.94 1452.37 Q1323.32 1452.37 1321.5 1455.94 Q1319.69 1459.48 1319.69 1466.61 Q1319.69 1473.71 1321.5 1477.28 Q1323.32 1480.82 1326.94 1480.82 Q1330.57 1480.82 1332.38 1477.28 Q1334.2 1473.71 1334.2 1466.61 Q1334.2 1459.48 1332.38 1455.94 Q1330.57 1452.37 1326.94 1452.37 M1326.94 1448.67 Q1332.75 1448.67 1335.8 1453.27 Q1338.88 1457.86 1338.88 1466.61 Q1338.88 1475.33 1335.8 1479.94 Q1332.75 1484.52 1326.94 1484.52 Q1321.13 1484.52 1318.05 1479.94 Q1314.99 1475.33 1314.99 1466.61 Q1314.99 1457.86 1318.05 1453.27 Q1321.13 1448.67 1326.94 1448.67 Z" fill="#000000" fill-rule="evenodd" fill-opacity="1" /><path clip-path="url(#clip990)" d="M 0 0 M1642.01 1452.37 Q1638.4 1452.37 1636.57 1455.94 Q1634.77 1459.48 1634.77 1466.61 Q1634.77 1473.71 1636.57 1477.28 Q1638.4 1480.82 1642.01 1480.82 Q1645.65 1480.82 1647.45 1477.28 Q1649.28 1473.71 1649.28 1466.61 Q1649.28 1459.48 1647.45 1455.94 Q1645.65 1452.37 1642.01 1452.37 M1642.01 1448.67 Q1647.82 1448.67 1650.88 1453.27 Q1653.96 1457.86 1653.96 1466.61 Q1653.96 1475.33 1650.88 1479.94 Q1647.82 1484.52 1642.01 1484.52 Q1636.2 1484.52 1633.12 1479.94 Q1630.07 1475.33 1630.07 1466.61 Q1630.07 1457.86 1633.12 1453.27 Q1636.2 1448.67 1642.01 1448.67 Z" fill="#000000" fill-rule="evenodd" fill-opacity="1" /><path clip-path="url(#clip990)" d="M 0 0 M1659.03 1477.97 L1663.91 1477.97 L1663.91 1483.85 L1659.03 1483.85 L1659.03 1477.97 Z" fill="#000000" fill-rule="evenodd" fill-opacity="1" /><path clip-path="url(#clip990)" d="M 0 0 M1667.8 1449.29 L1690.02 1449.29 L1690.02 1451.28 L1677.48 1483.85 L1672.59 1483.85 L1684.4 1453.23 L1667.8 1453.23 L1667.8 1449.29 Z" fill="#000000" fill-rule="evenodd" fill-opacity="1" /><path clip-path="url(#clip990)" d="M 0 0 M1695.14 1449.29 L1713.49 1449.29 L1713.49 1453.23 L1699.42 1453.23 L1699.42 1461.7 Q1700.44 1461.35 1701.46 1461.19 Q1702.48 1461 1703.49 1461 Q1709.28 1461 1712.66 1464.18 Q1716.04 1467.35 1716.04 1472.76 Q1716.04 1478.34 1712.57 1481.44 Q1709.1 1484.52 1702.78 1484.52 Q1700.6 1484.52 1698.33 1484.15 Q1696.09 1483.78 1693.68 1483.04 L1693.68 1478.34 Q1695.76 1479.48 1697.99 1480.03 Q1700.21 1480.59 1702.68 1480.59 Q1706.69 1480.59 1709.03 1478.48 Q1711.36 1476.38 1711.36 1472.76 Q1711.36 1469.15 1709.03 1467.05 Q1706.69 1464.94 1702.68 1464.94 Q1700.81 1464.94 1698.93 1465.36 Q1697.08 1465.77 1695.14 1466.65 L1695.14 1449.29 Z" fill="#000000" fill-rule="evenodd" fill-opacity="1" /><path clip-path="url(#clip990)" d="M 0 0 M2009.06 1479.92 L2016.7 1479.92 L2016.7 1453.55 L2008.39 1455.22 L2008.39 1450.96 L2016.65 1449.29 L2021.33 1449.29 L2021.33 1479.92 L2028.97 1479.92 L2028.97 1483.85 L2009.06 1483.85 L2009.06 1479.92 Z" fill="#000000" fill-rule="evenodd" fill-opacity="1" /><path clip-path="url(#clip990)" d="M 0 0 M2034.03 1477.97 L2038.92 1477.97 L2038.92 1483.85 L2034.03 1483.85 L2034.03 1477.97 Z" fill="#000000" fill-rule="evenodd" fill-opacity="1" /><path clip-path="url(#clip990)" d="M 0 0 M2053.99 1452.37 Q2050.38 1452.37 2048.55 1455.94 Q2046.74 1459.48 2046.74 1466.61 Q2046.74 1473.71 2048.55 1477.28 Q2050.38 1480.82 2053.99 1480.82 Q2057.62 1480.82 2059.43 1477.28 Q2061.26 1473.71 2061.26 1466.61 Q2061.26 1459.48 2059.43 1455.94 Q2057.62 1452.37 2053.99 1452.37 M2053.99 1448.67 Q2059.8 1448.67 2062.85 1453.27 Q2065.93 1457.86 2065.93 1466.61 Q2065.93 1475.33 2062.85 1479.94 Q2059.8 1484.52 2053.99 1484.52 Q2048.18 1484.52 2045.1 1479.94 Q2042.04 1475.33 2042.04 1466.61 Q2042.04 1457.86 2045.1 1453.27 Q2048.18 1448.67 2053.99 1448.67 Z" fill="#000000" fill-rule="evenodd" fill-opacity="1" /><path clip-path="url(#clip990)" d="M 0 0 M2081 1452.37 Q2077.39 1452.37 2075.56 1455.94 Q2073.76 1459.48 2073.76 1466.61 Q2073.76 1473.71 2075.56 1477.28 Q2077.39 1480.82 2081 1480.82 Q2084.64 1480.82 2086.44 1477.28 Q2088.27 1473.71 2088.27 1466.61 Q2088.27 1459.48 2086.44 1455.94 Q2084.64 1452.37 2081 1452.37 M2081 1448.67 Q2086.81 1448.67 2089.87 1453.27 Q2092.95 1457.86 2092.95 1466.61 Q2092.95 1475.33 2089.87 1479.94 Q2086.81 1484.52 2081 1484.52 Q2075.19 1484.52 2072.11 1479.94 Q2069.06 1475.33 2069.06 1466.61 Q2069.06 1457.86 2072.11 1453.27 Q2075.19 1448.67 2081 1448.67 Z" fill="#000000" fill-rule="evenodd" fill-opacity="1" /><path clip-path="url(#clip990)" d="M 0 0 M1312.06 1520.4 L1299.17 1537.74 L1312.73 1556.04 L1305.82 1556.04 L1295.44 1542.04 L1285.07 1556.04 L1278.16 1556.04 L1292.01 1537.39 L1279.34 1520.4 L1286.24 1520.4 L1295.7 1533.1 L1305.15 1520.4 L1312.06 1520.4 Z" fill="#000000" fill-rule="evenodd" fill-opacity="1" /><polyline clip-path="url(#clip992)" style="stroke:#000000; stroke-width:2; stroke-opacity:0.1; fill:none" points="
  238.13,1226.62 2352.76,1226.62 
  "/>
<polyline clip-path="url(#clip992)" style="stroke:#000000; stroke-width:2; stroke-opacity:0.1; fill:none" points="
  238.13,980.915 2352.76,980.915 
  "/>
<polyline clip-path="url(#clip992)" style="stroke:#000000; stroke-width:2; stroke-opacity:0.1; fill:none" points="
  238.13,735.212 2352.76,735.212 
  "/>
<polyline clip-path="url(#clip992)" style="stroke:#000000; stroke-width:2; stroke-opacity:0.1; fill:none" points="
  238.13,489.509 2352.76,489.509 
  "/>
<polyline clip-path="url(#clip992)" style="stroke:#000000; stroke-width:2; stroke-opacity:0.1; fill:none" points="
  238.13,243.806 2352.76,243.806 
  "/>
<polyline clip-path="url(#clip990)" style="stroke:#000000; stroke-width:4; stroke-opacity:1; fill:none" points="
  238.13,1423.18 238.13,47.2441 
  "/>
<polyline clip-path="url(#clip990)" style="stroke:#000000; stroke-width:4; stroke-opacity:1; fill:none" points="
  238.13,1226.62 263.506,1226.62 
  "/>
<polyline clip-path="url(#clip990)" style="stroke:#000000; stroke-width:4; stroke-opacity:1; fill:none" points="
  238.13,980.915 263.506,980.915 
  "/>
<polyline clip-path="url(#clip990)" style="stroke:#000000; stroke-width:4; stroke-opacity:1; fill:none" points="
  238.13,735.212 263.506,735.212 
  "/>
<polyline clip-path="url(#clip990)" style="stroke:#000000; stroke-width:4; stroke-opacity:1; fill:none" points="
  238.13,489.509 263.506,489.509 
  "/>
<polyline clip-path="url(#clip990)" style="stroke:#000000; stroke-width:4; stroke-opacity:1; fill:none" points="
  238.13,243.806 263.506,243.806 
  "/>
<path clip-path="url(#clip990)" d="M 0 0 M126.205 1212.42 Q122.593 1212.42 120.765 1215.98 Q118.959 1219.52 118.959 1226.65 Q118.959 1233.76 120.765 1237.32 Q122.593 1240.87 126.205 1240.87 Q129.839 1240.87 131.644 1237.32 Q133.473 1233.76 133.473 1226.65 Q133.473 1219.52 131.644 1215.98 Q129.839 1212.42 126.205 1212.42 M126.205 1208.71 Q132.015 1208.71 135.07 1213.32 Q138.149 1217.9 138.149 1226.65 Q138.149 1235.38 135.07 1239.99 Q132.015 1244.57 126.205 1244.57 Q120.394 1244.57 117.316 1239.99 Q114.26 1235.38 114.26 1226.65 Q114.26 1217.9 117.316 1213.32 Q120.394 1208.71 126.205 1208.71 Z" fill="#000000" fill-rule="evenodd" fill-opacity="1" /><path clip-path="url(#clip990)" d="M 0 0 M143.218 1238.02 L148.103 1238.02 L148.103 1243.9 L143.218 1243.9 L143.218 1238.02 Z" fill="#000000" fill-rule="evenodd" fill-opacity="1" /><path clip-path="url(#clip990)" d="M 0 0 M163.172 1212.42 Q159.561 1212.42 157.732 1215.98 Q155.927 1219.52 155.927 1226.65 Q155.927 1233.76 157.732 1237.32 Q159.561 1240.87 163.172 1240.87 Q166.806 1240.87 168.612 1237.32 Q170.44 1233.76 170.44 1226.65 Q170.44 1219.52 168.612 1215.98 Q166.806 1212.42 163.172 1212.42 M163.172 1208.71 Q168.982 1208.71 172.038 1213.32 Q175.116 1217.9 175.116 1226.65 Q175.116 1235.38 172.038 1239.99 Q168.982 1244.57 163.172 1244.57 Q157.362 1244.57 154.283 1239.99 Q151.228 1235.38 151.228 1226.65 Q151.228 1217.9 154.283 1213.32 Q157.362 1208.71 163.172 1208.71 Z" fill="#000000" fill-rule="evenodd" fill-opacity="1" /><path clip-path="url(#clip990)" d="M 0 0 M190.186 1212.42 Q186.575 1212.42 184.746 1215.98 Q182.94 1219.52 182.94 1226.65 Q182.94 1233.76 184.746 1237.32 Q186.575 1240.87 190.186 1240.87 Q193.82 1240.87 195.625 1237.32 Q197.454 1233.76 197.454 1226.65 Q197.454 1219.52 195.625 1215.98 Q193.82 1212.42 190.186 1212.42 M190.186 1208.71 Q195.996 1208.71 199.051 1213.32 Q202.13 1217.9 202.13 1226.65 Q202.13 1235.38 199.051 1239.99 Q195.996 1244.57 190.186 1244.57 Q184.376 1244.57 181.297 1239.99 Q178.241 1235.38 178.241 1226.65 Q178.241 1217.9 181.297 1213.32 Q184.376 1208.71 190.186 1208.71 Z" fill="#000000" fill-rule="evenodd" fill-opacity="1" /><path clip-path="url(#clip990)" d="M 0 0 M128.797 966.713 Q125.186 966.713 123.357 970.278 Q121.552 973.82 121.552 980.95 Q121.552 988.056 123.357 991.621 Q125.186 995.162 128.797 995.162 Q132.431 995.162 134.237 991.621 Q136.066 988.056 136.066 980.95 Q136.066 973.82 134.237 970.278 Q132.431 966.713 128.797 966.713 M128.797 963.01 Q134.607 963.01 137.663 967.616 Q140.741 972.2 140.741 980.95 Q140.741 989.676 137.663 994.283 Q134.607 998.866 128.797 998.866 Q122.987 998.866 119.908 994.283 Q116.853 989.676 116.853 980.95 Q116.853 972.2 119.908 967.616 Q122.987 963.01 128.797 963.01 Z" fill="#000000" fill-rule="evenodd" fill-opacity="1" /><path clip-path="url(#clip990)" d="M 0 0 M145.811 992.315 L150.695 992.315 L150.695 998.195 L145.811 998.195 L145.811 992.315 Z" fill="#000000" fill-rule="evenodd" fill-opacity="1" /><path clip-path="url(#clip990)" d="M 0 0 M159.792 994.26 L176.112 994.26 L176.112 998.195 L154.167 998.195 L154.167 994.26 Q156.829 991.505 161.413 986.875 Q166.019 982.223 167.2 980.88 Q169.445 978.357 170.325 976.621 Q171.227 974.862 171.227 973.172 Q171.227 970.417 169.283 968.681 Q167.362 966.945 164.26 966.945 Q162.061 966.945 159.607 967.709 Q157.177 968.473 154.399 970.024 L154.399 965.301 Q157.223 964.167 159.677 963.588 Q162.13 963.01 164.167 963.01 Q169.538 963.01 172.732 965.695 Q175.926 968.38 175.926 972.871 Q175.926 975 175.116 976.922 Q174.329 978.82 172.223 981.412 Q171.644 982.084 168.542 985.301 Q165.44 988.496 159.792 994.26 Z" fill="#000000" fill-rule="evenodd" fill-opacity="1" /><path clip-path="url(#clip990)" d="M 0 0 M181.227 963.635 L199.584 963.635 L199.584 967.57 L185.51 967.57 L185.51 976.042 Q186.528 975.695 187.547 975.533 Q188.565 975.348 189.584 975.348 Q195.371 975.348 198.75 978.519 Q202.13 981.69 202.13 987.107 Q202.13 992.686 198.658 995.787 Q195.186 998.866 188.866 998.866 Q186.69 998.866 184.422 998.496 Q182.176 998.125 179.769 997.385 L179.769 992.686 Q181.852 993.82 184.075 994.375 Q186.297 994.931 188.774 994.931 Q192.778 994.931 195.116 992.824 Q197.454 990.718 197.454 987.107 Q197.454 983.496 195.116 981.389 Q192.778 979.283 188.774 979.283 Q186.899 979.283 185.024 979.7 Q183.172 980.116 181.227 980.996 L181.227 963.635 Z" fill="#000000" fill-rule="evenodd" fill-opacity="1" /><path clip-path="url(#clip990)" d="M 0 0 M127.2 721.011 Q123.589 721.011 121.76 724.575 Q119.955 728.117 119.955 735.247 Q119.955 742.353 121.76 745.918 Q123.589 749.46 127.2 749.46 Q130.834 749.46 132.64 745.918 Q134.468 742.353 134.468 735.247 Q134.468 728.117 132.64 724.575 Q130.834 721.011 127.2 721.011 M127.2 717.307 Q133.01 717.307 136.066 721.913 Q139.144 726.497 139.144 735.247 Q139.144 743.973 136.066 748.58 Q133.01 753.163 127.2 753.163 Q121.39 753.163 118.311 748.58 Q115.256 743.973 115.256 735.247 Q115.256 726.497 118.311 721.913 Q121.39 717.307 127.2 717.307 Z" fill="#000000" fill-rule="evenodd" fill-opacity="1" /><path clip-path="url(#clip990)" d="M 0 0 M144.214 746.612 L149.098 746.612 L149.098 752.492 L144.214 752.492 L144.214 746.612 Z" fill="#000000" fill-rule="evenodd" fill-opacity="1" /><path clip-path="url(#clip990)" d="M 0 0 M154.214 717.932 L172.57 717.932 L172.57 721.867 L158.496 721.867 L158.496 730.339 Q159.515 729.992 160.533 729.83 Q161.552 729.645 162.57 729.645 Q168.357 729.645 171.737 732.816 Q175.116 735.987 175.116 741.404 Q175.116 746.983 171.644 750.085 Q168.172 753.163 161.852 753.163 Q159.677 753.163 157.408 752.793 Q155.163 752.423 152.755 751.682 L152.755 746.983 Q154.839 748.117 157.061 748.673 Q159.283 749.228 161.76 749.228 Q165.765 749.228 168.102 747.122 Q170.44 745.015 170.44 741.404 Q170.44 737.793 168.102 735.687 Q165.765 733.58 161.76 733.58 Q159.885 733.58 158.01 733.997 Q156.158 734.413 154.214 735.293 L154.214 717.932 Z" fill="#000000" fill-rule="evenodd" fill-opacity="1" /><path clip-path="url(#clip990)" d="M 0 0 M190.186 721.011 Q186.575 721.011 184.746 724.575 Q182.94 728.117 182.94 735.247 Q182.94 742.353 184.746 745.918 Q186.575 749.46 190.186 749.46 Q193.82 749.46 195.625 745.918 Q197.454 742.353 197.454 735.247 Q197.454 728.117 195.625 724.575 Q193.82 721.011 190.186 721.011 M190.186 717.307 Q195.996 717.307 199.051 721.913 Q202.13 726.497 202.13 735.247 Q202.13 743.973 199.051 748.58 Q195.996 753.163 190.186 753.163 Q184.376 753.163 181.297 748.58 Q178.241 743.973 178.241 735.247 Q178.241 726.497 181.297 721.913 Q184.376 717.307 190.186 717.307 Z" fill="#000000" fill-rule="evenodd" fill-opacity="1" /><path clip-path="url(#clip990)" d="M 0 0 M128.103 475.308 Q124.492 475.308 122.663 478.873 Q120.857 482.414 120.857 489.544 Q120.857 496.65 122.663 500.215 Q124.492 503.757 128.103 503.757 Q131.737 503.757 133.542 500.215 Q135.371 496.65 135.371 489.544 Q135.371 482.414 133.542 478.873 Q131.737 475.308 128.103 475.308 M128.103 471.604 Q133.913 471.604 136.968 476.211 Q140.047 480.794 140.047 489.544 Q140.047 498.271 136.968 502.877 Q133.913 507.46 128.103 507.46 Q122.293 507.46 119.214 502.877 Q116.158 498.271 116.158 489.544 Q116.158 480.794 119.214 476.211 Q122.293 471.604 128.103 471.604 Z" fill="#000000" fill-rule="evenodd" fill-opacity="1" /><path clip-path="url(#clip990)" d="M 0 0 M145.116 500.91 L150.001 500.91 L150.001 506.789 L145.116 506.789 L145.116 500.91 Z" fill="#000000" fill-rule="evenodd" fill-opacity="1" /><path clip-path="url(#clip990)" d="M 0 0 M153.89 472.229 L176.112 472.229 L176.112 474.22 L163.565 506.789 L158.681 506.789 L170.487 476.164 L153.89 476.164 L153.89 472.229 Z" fill="#000000" fill-rule="evenodd" fill-opacity="1" /><path clip-path="url(#clip990)" d="M 0 0 M181.227 472.229 L199.584 472.229 L199.584 476.164 L185.51 476.164 L185.51 484.636 Q186.528 484.289 187.547 484.127 Q188.565 483.942 189.584 483.942 Q195.371 483.942 198.75 487.113 Q202.13 490.285 202.13 495.701 Q202.13 501.28 198.658 504.382 Q195.186 507.46 188.866 507.46 Q186.69 507.46 184.422 507.09 Q182.176 506.72 179.769 505.979 L179.769 501.28 Q181.852 502.414 184.075 502.97 Q186.297 503.525 188.774 503.525 Q192.778 503.525 195.116 501.419 Q197.454 499.312 197.454 495.701 Q197.454 492.09 195.116 489.984 Q192.778 487.877 188.774 487.877 Q186.899 487.877 185.024 488.294 Q183.172 488.711 181.227 489.59 L181.227 472.229 Z" fill="#000000" fill-rule="evenodd" fill-opacity="1" /><path clip-path="url(#clip990)" d="M 0 0 M118.242 257.151 L125.88 257.151 L125.88 230.786 L117.57 232.452 L117.57 228.193 L125.834 226.526 L130.51 226.526 L130.51 257.151 L138.149 257.151 L138.149 261.086 L118.242 261.086 L118.242 257.151 Z" fill="#000000" fill-rule="evenodd" fill-opacity="1" /><path clip-path="url(#clip990)" d="M 0 0 M143.218 255.207 L148.103 255.207 L148.103 261.086 L143.218 261.086 L143.218 255.207 Z" fill="#000000" fill-rule="evenodd" fill-opacity="1" /><path clip-path="url(#clip990)" d="M 0 0 M163.172 229.605 Q159.561 229.605 157.732 233.17 Q155.927 236.711 155.927 243.841 Q155.927 250.948 157.732 254.512 Q159.561 258.054 163.172 258.054 Q166.806 258.054 168.612 254.512 Q170.44 250.948 170.44 243.841 Q170.44 236.711 168.612 233.17 Q166.806 229.605 163.172 229.605 M163.172 225.901 Q168.982 225.901 172.038 230.508 Q175.116 235.091 175.116 243.841 Q175.116 252.568 172.038 257.174 Q168.982 261.758 163.172 261.758 Q157.362 261.758 154.283 257.174 Q151.228 252.568 151.228 243.841 Q151.228 235.091 154.283 230.508 Q157.362 225.901 163.172 225.901 Z" fill="#000000" fill-rule="evenodd" fill-opacity="1" /><path clip-path="url(#clip990)" d="M 0 0 M190.186 229.605 Q186.575 229.605 184.746 233.17 Q182.94 236.711 182.94 243.841 Q182.94 250.948 184.746 254.512 Q186.575 258.054 190.186 258.054 Q193.82 258.054 195.625 254.512 Q197.454 250.948 197.454 243.841 Q197.454 236.711 195.625 233.17 Q193.82 229.605 190.186 229.605 M190.186 225.901 Q195.996 225.901 199.051 230.508 Q202.13 235.091 202.13 243.841 Q202.13 252.568 199.051 257.174 Q195.996 261.758 190.186 261.758 Q184.376 261.758 181.297 257.174 Q178.241 252.568 178.241 243.841 Q178.241 235.091 181.297 230.508 Q184.376 225.901 190.186 225.901 Z" fill="#000000" fill-rule="evenodd" fill-opacity="1" /><path clip-path="url(#clip990)" d="M 0 0 M73.9359 788.382 L52.3562 788.382 L52.3562 782.525 L73.7131 782.525 Q78.7739 782.525 81.3202 780.552 Q83.8346 778.578 83.8346 774.632 Q83.8346 769.889 80.8109 767.152 Q77.7872 764.383 72.5673 764.383 L52.3562 764.383 L52.3562 758.526 L88.0042 758.526 L88.0042 764.383 L82.5296 764.383 Q85.7762 766.515 87.3676 769.348 Q88.9272 772.149 88.9272 775.873 Q88.9272 782.016 85.1078 785.199 Q81.2883 788.382 73.9359 788.382 M51.4968 773.645 L51.4968 773.645 Z" fill="#000000" fill-rule="evenodd" fill-opacity="1" /><path clip-path="url(#clip990)" d="M 0 0 M38.5426 738.315 Q45.8632 742.58 53.0246 744.649 Q60.186 746.718 67.5384 746.718 Q74.8908 746.718 82.1159 744.649 Q89.3091 742.548 96.5979 738.315 L96.5979 743.408 Q89.1182 748.182 81.8931 750.569 Q74.668 752.925 67.5384 752.925 Q60.4406 752.925 53.2474 750.569 Q46.0542 748.214 38.5426 743.408 L38.5426 738.315 Z" fill="#000000" fill-rule="evenodd" fill-opacity="1" /><path clip-path="url(#clip990)" d="M 0 0 M52.3562 702.54 L69.7028 715.431 L88.0042 701.872 L88.0042 708.778 L73.9996 719.154 L88.0042 729.531 L88.0042 736.437 L69.3526 722.592 L52.3562 735.26 L52.3562 728.353 L65.0558 718.9 L52.3562 709.447 L52.3562 702.54 Z" fill="#000000" fill-rule="evenodd" fill-opacity="1" /><path clip-path="url(#clip990)" d="M 0 0 M38.5426 696.652 L38.5426 691.559 Q46.0542 686.785 53.2474 684.43 Q60.4406 682.042 67.5384 682.042 Q74.668 682.042 81.8931 684.43 Q89.1182 686.785 96.5979 691.559 L96.5979 696.652 Q89.3091 692.419 82.1159 690.35 Q74.8908 688.249 67.5384 688.249 Q60.186 688.249 53.0246 690.35 Q45.8632 692.419 38.5426 696.652 Z" fill="#000000" fill-rule="evenodd" fill-opacity="1" /><polyline clip-path="url(#clip992)" style="stroke:#ff0000; stroke-width:8; stroke-opacity:1; fill:none" points="
  238.13,1439.82 258.781,1425.45 449.73,1290.91 564.482,1209.37 661.504,1140.48 766.896,1066.03 864.059,997.977 968.228,925.862 1088.92,843.634 1196.17,771.906 
  1290.22,710.119 1392.77,643.963 1495.92,578.663 1609.97,507.838 1718.48,441.643 1831.31,373.83 1926.29,317.338 2042.25,248.778 2151.25,184.366 2325.88,80.1433 
  2352.76,63.887 
  "/>
<polyline clip-path="url(#clip992)" style="stroke:#000000; stroke-width:4; stroke-opacity:1; fill:none" points="
  540.219,1226.62 555.324,1215.88 570.428,1205.14 585.533,1194.41 600.637,1183.68 615.742,1172.95 630.846,1162.23 645.951,1151.51 661.055,1140.8 676.16,1130.1 
  691.264,1119.41 706.369,1108.72 721.473,1098.05 736.578,1087.39 751.682,1076.74 766.787,1066.11 781.891,1055.48 796.995,1044.88 812.1,1034.29 827.204,1023.71 
  842.309,1013.15 857.413,1002.61 872.518,992.086 887.622,981.581 902.727,971.095 917.831,960.63 932.936,950.185 948.04,939.761 963.145,929.358 978.249,918.977 
  993.354,908.619 1008.46,898.284 1023.56,887.972 1038.67,877.685 1053.77,867.421 1068.88,857.182 1083.98,846.967 1099.08,836.778 1114.19,826.615 1129.29,816.477 
  1144.4,806.365 1159.5,796.28 1174.61,786.221 1189.71,776.189 1204.82,766.183 1219.92,756.205 1235.03,746.254 1250.13,736.33 1265.23,726.433 1280.34,716.564 
  1295.44,706.722 1310.55,696.908 1325.65,687.121 1340.76,677.361 1355.86,667.629 1370.97,657.924 1386.07,648.246 1401.17,638.595 1416.28,628.971 1431.38,619.374 
  1446.49,609.803 1461.59,600.258 1476.7,590.74 1491.8,581.247 1506.91,571.78 1522.01,562.338 1537.11,552.921 1552.22,543.529 1567.32,534.16 1582.43,524.816 
  1597.53,515.495 1612.64,506.197 1627.74,496.921 1642.85,487.667 1657.95,478.435 1673.05,469.224 1688.16,460.034 1703.26,450.863 1718.37,441.711 1733.47,432.579 
  1748.58,423.464 1763.68,414.367 1778.79,405.286 1793.89,396.222 1808.99,387.173 1824.1,378.138 1839.2,369.117 1854.31,360.11 1869.41,351.114 1884.52,342.13 
  1899.62,333.157 1914.73,324.193 1929.83,315.238 1944.94,306.292 1960.04,297.352 1975.14,288.418 1990.25,279.49 2005.35,270.565 2020.46,261.644 2035.56,252.725 
  2050.67,243.806 
  "/>
<path clip-path="url(#clip990)" d="
M2020.85 274.549 L2282.27 274.549 L2282.27 93.1086 L2020.85 93.1086  Z
  " fill="#ffffff" fill-rule="evenodd" fill-opacity="1"/>
<polyline clip-path="url(#clip990)" style="stroke:#000000; stroke-width:4; stroke-opacity:1; fill:none" points="
  2020.85,274.549 2282.27,274.549 2282.27,93.1086 2020.85,93.1086 2020.85,274.549 
  "/>
<polyline clip-path="url(#clip990)" style="stroke:#ff0000; stroke-width:4; stroke-opacity:1; fill:none" points="
  2044.35,153.589 2185.32,153.589 
  "/>
<path clip-path="url(#clip990)" d="M 0 0 M2208.82 136.309 L2213.52 136.309 L2213.52 157.304 Q2213.52 162.859 2215.53 165.313 Q2217.55 167.744 2222.06 167.744 Q2226.55 167.744 2228.56 165.313 Q2230.58 162.859 2230.58 157.304 L2230.58 136.309 L2235.28 136.309 L2235.28 157.883 Q2235.28 164.642 2231.92 168.091 Q2228.59 171.54 2222.06 171.54 Q2215.51 171.54 2212.15 168.091 Q2208.82 164.642 2208.82 157.883 L2208.82 136.309 Z" fill="#000000" fill-rule="evenodd" fill-opacity="1" /><polyline clip-path="url(#clip990)" style="stroke:#000000; stroke-width:4; stroke-opacity:1; fill:none" points="
  2044.35,214.069 2185.32,214.069 
  "/>
<path clip-path="url(#clip990)" d="M 0 0 M2208.82 221.117 L2208.82 205.423 L2213.08 205.423 L2213.08 220.955 Q2213.08 224.636 2214.51 226.488 Q2215.95 228.316 2218.82 228.316 Q2222.27 228.316 2224.26 226.117 Q2226.27 223.918 2226.27 220.122 L2226.27 205.423 L2230.53 205.423 L2230.53 231.349 L2226.27 231.349 L2226.27 227.367 Q2224.72 229.728 2222.66 230.886 Q2220.62 232.02 2217.92 232.02 Q2213.45 232.02 2211.13 229.242 Q2208.82 226.464 2208.82 221.117 M2219.54 204.798 L2219.54 204.798 Z" fill="#000000" fill-rule="evenodd" fill-opacity="1" /></svg>
