<?xml version="1.0" encoding="utf-8"?>
<svg xmlns="http://www.w3.org/2000/svg" xmlns:xlink="http://www.w3.org/1999/xlink" width="600" height="400" viewBox="0 0 2400 1600">
<defs>
  <clipPath id="clip110">
    <rect x="0" y="0" width="2400" height="1600"/>
  </clipPath>
</defs>
<path clip-path="url(#clip110)" d="
M0 1600 L2400 1600 L2400 0 L0 0  Z
  " fill="#ffffff" fill-rule="evenodd" fill-opacity="1"/>
<defs>
  <clipPath id="clip111">
    <rect x="480" y="0" width="1681" height="1600"/>
  </clipPath>
</defs>
<path clip-path="url(#clip110)" d="
M207.436 1423.18 L2352.76 1423.18 L2352.76 47.2441 L207.436 47.2441  Z
  " fill="#ffffff" fill-rule="evenodd" fill-opacity="1"/>
<defs>
  <clipPath id="clip112">
    <rect x="207" y="47" width="2146" height="1377"/>
  </clipPath>
</defs>
<polyline clip-path="url(#clip112)" style="stroke:#000000; stroke-width:2; stroke-opacity:0.1; fill:none" points="
  360.673,1423.18 360.673,47.2441 
  "/>
<polyline clip-path="url(#clip112)" style="stroke:#000000; stroke-width:2; stroke-opacity:0.1; fill:none" points="
  667.147,1423.18 667.147,47.2441 
  "/>
<polyline clip-path="url(#clip112)" style="stroke:#000000; stroke-width:2; stroke-opacity:0.1; fill:none" points="
  973.622,1423.18 973.622,47.2441 
  "/>
<polyline clip-path="url(#clip112)" style="stroke:#000000; stroke-width:2; stroke-opacity:0.1; fill:none" points="
  1280.1,1423.18 1280.1,47.2441 
  "/>
<polyline clip-path="url(#clip112)" style="stroke:#000000; stroke-width:2; stroke-opacity:0.1; fill:none" points="
  1586.57,1423.18 1586.57,47.2441 
  "/>
<polyline clip-path="url(#clip112)" style="stroke:#000000; stroke-width:2; stroke-opacity:0.1; fill:none" points="
  1893.04,1423.18 1893.04,47.2441 
  "/>
<polyline clip-path="url(#clip112)" style="stroke:#000000; stroke-width:2; stroke-opacity:0.1; fill:none" points="
  2199.52,1423.18 2199.52,47.2441 
  "/>
<polyline clip-path="url(#clip110)" style="stroke:#000000; stroke-width:4; stroke-opacity:1; fill:none" points="
  207.436,1423.18 2352.76,1423.18 
  "/>
<polyline clip-path="url(#clip110)" style="stroke:#000000; stroke-width:4; stroke-opacity:1; fill:none" points="
  360.673,1423.18 360.673,1406.67 
  "/>
<polyline clip-path="url(#clip110)" style="stroke:#000000; stroke-width:4; stroke-opacity:1; fill:none" points="
  667.147,1423.18 667.147,1406.67 
  "/>
<polyline clip-path="url(#clip110)" style="stroke:#000000; stroke-width:4; stroke-opacity:1; fill:none" points="
  973.622,1423.18 973.622,1406.67 
  "/>
<polyline clip-path="url(#clip110)" style="stroke:#000000; stroke-width:4; stroke-opacity:1; fill:none" points="
  1280.1,1423.18 1280.1,1406.67 
  "/>
<polyline clip-path="url(#clip110)" style="stroke:#000000; stroke-width:4; stroke-opacity:1; fill:none" points="
  1586.57,1423.18 1586.57,1406.67 
  "/>
<polyline clip-path="url(#clip110)" style="stroke:#000000; stroke-width:4; stroke-opacity:1; fill:none" points="
  1893.04,1423.18 1893.04,1406.67 
  "/>
<polyline clip-path="url(#clip110)" style="stroke:#000000; stroke-width:4; stroke-opacity:1; fill:none" points="
  2199.52,1423.18 2199.52,1406.67 
  "/>
<path clip-path="url(#clip110)" d="M 0 0 M360.673 1452.37 Q357.062 1452.37 355.233 1455.94 Q353.428 1459.48 353.428 1466.61 Q353.428 1473.71 355.233 1477.28 Q357.062 1480.82 360.673 1480.82 Q364.307 1480.82 366.113 1477.28 Q367.941 1473.71 367.941 1466.61 Q367.941 1459.48 366.113 1455.94 Q364.307 1452.37 360.673 1452.37 M360.673 1448.67 Q366.483 1448.67 369.539 1453.27 Q372.617 1457.86 372.617 1466.61 Q372.617 1475.33 369.539 1479.94 Q366.483 1484.52 360.673 1484.52 Q354.863 1484.52 351.784 1479.94 Q348.729 1475.33 348.729 1466.61 Q348.729 1457.86 351.784 1453.27 Q354.863 1448.67 360.673 1448.67 Z" fill="#000000" fill-rule="evenodd" fill-opacity="1" /><path clip-path="url(#clip110)" d="M 0 0 M657.529 1479.92 L665.168 1479.92 L665.168 1453.55 L656.858 1455.22 L656.858 1450.96 L665.122 1449.29 L669.798 1449.29 L669.798 1479.92 L677.437 1479.92 L677.437 1483.85 L657.529 1483.85 L657.529 1479.92 Z" fill="#000000" fill-rule="evenodd" fill-opacity="1" /><path clip-path="url(#clip110)" d="M 0 0 M968.274 1479.92 L984.594 1479.92 L984.594 1483.85 L962.649 1483.85 L962.649 1479.92 Q965.311 1477.16 969.895 1472.53 Q974.501 1467.88 975.682 1466.54 Q977.927 1464.01 978.807 1462.28 Q979.709 1460.52 979.709 1458.83 Q979.709 1456.07 977.765 1454.34 Q975.844 1452.6 972.742 1452.6 Q970.543 1452.6 968.089 1453.37 Q965.659 1454.13 962.881 1455.68 L962.881 1450.96 Q965.705 1449.82 968.159 1449.25 Q970.612 1448.67 972.649 1448.67 Q978.02 1448.67 981.214 1451.35 Q984.409 1454.04 984.409 1458.53 Q984.409 1460.66 983.598 1462.58 Q982.811 1464.48 980.705 1467.07 Q980.126 1467.74 977.024 1470.96 Q973.922 1474.15 968.274 1479.92 Z" fill="#000000" fill-rule="evenodd" fill-opacity="1" /><path clip-path="url(#clip110)" d="M 0 0 M1284.34 1465.22 Q1287.7 1465.94 1289.57 1468.2 Q1291.47 1470.47 1291.47 1473.81 Q1291.47 1478.92 1287.95 1481.72 Q1284.44 1484.52 1277.95 1484.52 Q1275.78 1484.52 1273.46 1484.08 Q1271.17 1483.67 1268.72 1482.81 L1268.72 1478.3 Q1270.66 1479.43 1272.98 1480.01 Q1275.29 1480.59 1277.82 1480.59 Q1282.21 1480.59 1284.51 1478.85 Q1286.82 1477.12 1286.82 1473.81 Q1286.82 1470.75 1284.67 1469.04 Q1282.54 1467.3 1278.72 1467.3 L1274.69 1467.3 L1274.69 1463.46 L1278.9 1463.46 Q1282.35 1463.46 1284.18 1462.09 Q1286.01 1460.7 1286.01 1458.11 Q1286.01 1455.45 1284.11 1454.04 Q1282.24 1452.6 1278.72 1452.6 Q1276.8 1452.6 1274.6 1453.02 Q1272.4 1453.44 1269.76 1454.31 L1269.76 1450.15 Q1272.42 1449.41 1274.74 1449.04 Q1277.08 1448.67 1279.14 1448.67 Q1284.46 1448.67 1287.56 1451.1 Q1290.66 1453.5 1290.66 1457.63 Q1290.66 1460.5 1289.02 1462.49 Q1287.38 1464.45 1284.34 1465.22 Z" fill="#000000" fill-rule="evenodd" fill-opacity="1" /><path clip-path="url(#clip110)" d="M 0 0 M1589.58 1453.37 L1577.77 1471.81 L1589.58 1471.81 L1589.58 1453.37 M1588.35 1449.29 L1594.23 1449.29 L1594.23 1471.81 L1599.16 1471.81 L1599.16 1475.7 L1594.23 1475.7 L1594.23 1483.85 L1589.58 1483.85 L1589.58 1475.7 L1573.98 1475.7 L1573.98 1471.19 L1588.35 1449.29 Z" fill="#000000" fill-rule="evenodd" fill-opacity="1" /><path clip-path="url(#clip110)" d="M 0 0 M1883.32 1449.29 L1901.68 1449.29 L1901.68 1453.23 L1887.6 1453.23 L1887.6 1461.7 Q1888.62 1461.35 1889.64 1461.19 Q1890.66 1461 1891.68 1461 Q1897.47 1461 1900.85 1464.18 Q1904.22 1467.35 1904.22 1472.76 Q1904.22 1478.34 1900.75 1481.44 Q1897.28 1484.52 1890.96 1484.52 Q1888.79 1484.52 1886.52 1484.15 Q1884.27 1483.78 1881.86 1483.04 L1881.86 1478.34 Q1883.95 1479.48 1886.17 1480.03 Q1888.39 1480.59 1890.87 1480.59 Q1894.87 1480.59 1897.21 1478.48 Q1899.55 1476.38 1899.55 1472.76 Q1899.55 1469.15 1897.21 1467.05 Q1894.87 1464.94 1890.87 1464.94 Q1888.99 1464.94 1887.12 1465.36 Q1885.27 1465.77 1883.32 1466.65 L1883.32 1449.29 Z" fill="#000000" fill-rule="evenodd" fill-opacity="1" /><path clip-path="url(#clip110)" d="M 0 0 M2199.92 1464.71 Q2196.78 1464.71 2194.92 1466.86 Q2193.1 1469.01 2193.1 1472.76 Q2193.1 1476.49 2194.92 1478.67 Q2196.78 1480.82 2199.92 1480.82 Q2203.07 1480.82 2204.9 1478.67 Q2206.75 1476.49 2206.75 1472.76 Q2206.75 1469.01 2204.9 1466.86 Q2203.07 1464.71 2199.92 1464.71 M2209.21 1450.06 L2209.21 1454.31 Q2207.45 1453.48 2205.64 1453.04 Q2203.86 1452.6 2202.1 1452.6 Q2197.47 1452.6 2195.02 1455.73 Q2192.59 1458.85 2192.24 1465.17 Q2193.6 1463.16 2195.66 1462.09 Q2197.72 1461 2200.2 1461 Q2205.41 1461 2208.42 1464.18 Q2211.45 1467.32 2211.45 1472.76 Q2211.45 1478.09 2208.3 1481.31 Q2205.16 1484.52 2199.92 1484.52 Q2193.93 1484.52 2190.76 1479.94 Q2187.59 1475.33 2187.59 1466.61 Q2187.59 1458.41 2191.47 1453.55 Q2195.36 1448.67 2201.91 1448.67 Q2203.67 1448.67 2205.46 1449.01 Q2207.26 1449.36 2209.21 1450.06 Z" fill="#000000" fill-rule="evenodd" fill-opacity="1" /><path clip-path="url(#clip110)" d="M 0 0 M1296.71 1520.4 L1283.82 1537.74 L1297.38 1556.04 L1290.47 1556.04 L1280.1 1542.04 L1269.72 1556.04 L1262.81 1556.04 L1276.66 1537.39 L1263.99 1520.4 L1270.9 1520.4 L1280.35 1533.1 L1289.8 1520.4 L1296.71 1520.4 Z" fill="#000000" fill-rule="evenodd" fill-opacity="1" /><polyline clip-path="url(#clip112)" style="stroke:#000000; stroke-width:2; stroke-opacity:0.1; fill:none" points="
  207.436,1227.88 2352.76,1227.88 
  "/>
<polyline clip-path="url(#clip112)" style="stroke:#000000; stroke-width:2; stroke-opacity:0.1; fill:none" points="
  207.436,843.55 2352.76,843.55 
  "/>
<polyline clip-path="url(#clip112)" style="stroke:#000000; stroke-width:2; stroke-opacity:0.1; fill:none" points="
  207.436,459.216 2352.76,459.216 
  "/>
<polyline clip-path="url(#clip112)" style="stroke:#000000; stroke-width:2; stroke-opacity:0.1; fill:none" points="
  207.436,74.8816 2352.76,74.8816 
  "/>
<polyline clip-path="url(#clip110)" style="stroke:#000000; stroke-width:4; stroke-opacity:1; fill:none" points="
  207.436,1423.18 207.436,47.2441 
  "/>
<polyline clip-path="url(#clip110)" style="stroke:#000000; stroke-width:4; stroke-opacity:1; fill:none" points="
  207.436,1227.88 233.18,1227.88 
  "/>
<polyline clip-path="url(#clip110)" style="stroke:#000000; stroke-width:4; stroke-opacity:1; fill:none" points="
  207.436,843.55 233.18,843.55 
  "/>
<polyline clip-path="url(#clip110)" style="stroke:#000000; stroke-width:4; stroke-opacity:1; fill:none" points="
  207.436,459.216 233.18,459.216 
  "/>
<polyline clip-path="url(#clip110)" style="stroke:#000000; stroke-width:4; stroke-opacity:1; fill:none" points="
  207.436,74.8816 233.18,74.8816 
  "/>
<path clip-path="url(#clip110)" d="M 0 0 M114.26 1228.34 L143.936 1228.34 L143.936 1232.27 L114.26 1232.27 L114.26 1228.34 Z" fill="#000000" fill-rule="evenodd" fill-opacity="1" /><path clip-path="url(#clip110)" d="M 0 0 M161.852 1214.68 L150.047 1233.13 L161.852 1233.13 L161.852 1214.68 M160.626 1210.6 L166.505 1210.6 L166.505 1233.13 L171.436 1233.13 L171.436 1237.02 L166.505 1237.02 L166.505 1245.16 L161.852 1245.16 L161.852 1237.02 L146.251 1237.02 L146.251 1232.5 L160.626 1210.6 Z" fill="#000000" fill-rule="evenodd" fill-opacity="1" /><path clip-path="url(#clip110)" d="M 0 0 M116.343 844.002 L146.019 844.002 L146.019 847.937 L116.343 847.937 L116.343 844.002 Z" fill="#000000" fill-rule="evenodd" fill-opacity="1" /><path clip-path="url(#clip110)" d="M 0 0 M155.116 856.895 L171.436 856.895 L171.436 860.83 L149.491 860.83 L149.491 856.895 Q152.153 854.14 156.737 849.511 Q161.343 844.858 162.524 843.516 Q164.769 840.992 165.649 839.256 Q166.552 837.497 166.552 835.807 Q166.552 833.053 164.607 831.317 Q162.686 829.58 159.584 829.58 Q157.385 829.58 154.931 830.344 Q152.501 831.108 149.723 832.659 L149.723 827.937 Q152.547 826.803 155.001 826.224 Q157.454 825.645 159.491 825.645 Q164.862 825.645 168.056 828.33 Q171.251 831.016 171.251 835.506 Q171.251 837.636 170.44 839.557 Q169.653 841.455 167.547 844.048 Q166.968 844.719 163.866 847.937 Q160.765 851.131 155.116 856.895 Z" fill="#000000" fill-rule="evenodd" fill-opacity="1" /><path clip-path="url(#clip110)" d="M 0 0 M159.491 445.015 Q155.88 445.015 154.052 448.579 Q152.246 452.121 152.246 459.251 Q152.246 466.357 154.052 469.922 Q155.88 473.464 159.491 473.464 Q163.126 473.464 164.931 469.922 Q166.76 466.357 166.76 459.251 Q166.76 452.121 164.931 448.579 Q163.126 445.015 159.491 445.015 M159.491 441.311 Q165.302 441.311 168.357 445.917 Q171.436 450.501 171.436 459.251 Q171.436 467.977 168.357 472.584 Q165.302 477.167 159.491 477.167 Q153.681 477.167 150.603 472.584 Q147.547 467.977 147.547 459.251 Q147.547 450.501 150.603 445.917 Q153.681 441.311 159.491 441.311 Z" fill="#000000" fill-rule="evenodd" fill-opacity="1" /><path clip-path="url(#clip110)" d="M 0 0 M155.116 88.2264 L171.436 88.2264 L171.436 92.1616 L149.491 92.1616 L149.491 88.2264 Q152.153 85.4718 156.737 80.8422 Q161.343 76.1894 162.524 74.8468 Q164.769 72.3237 165.649 70.5876 Q166.552 68.8284 166.552 67.1385 Q166.552 64.3839 164.607 62.6478 Q162.686 60.9117 159.584 60.9117 Q157.385 60.9117 154.931 61.6756 Q152.501 62.4395 149.723 63.9904 L149.723 59.2682 Q152.547 58.134 155.001 57.5553 Q157.454 56.9766 159.491 56.9766 Q164.862 56.9766 168.056 59.6617 Q171.251 62.3469 171.251 66.8376 Q171.251 68.9672 170.44 70.8885 Q169.653 72.7867 167.547 75.3792 Q166.968 76.0505 163.866 79.2681 Q160.765 82.4625 155.116 88.2264 Z" fill="#000000" fill-rule="evenodd" fill-opacity="1" /><path clip-path="url(#clip110)" d="M 0 0 M73.9359 788.382 L52.3562 788.382 L52.3562 782.525 L73.7131 782.525 Q78.7739 782.525 81.3202 780.552 Q83.8346 778.578 83.8346 774.632 Q83.8346 769.889 80.8109 767.152 Q77.7872 764.383 72.5673 764.383 L52.3562 764.383 L52.3562 758.526 L88.0042 758.526 L88.0042 764.383 L82.5296 764.383 Q85.7762 766.515 87.3676 769.348 Q88.9272 772.149 88.9272 775.873 Q88.9272 782.016 85.1078 785.199 Q81.2883 788.382 73.9359 788.382 M51.4968 773.645 L51.4968 773.645 Z" fill="#000000" fill-rule="evenodd" fill-opacity="1" /><path clip-path="url(#clip110)" d="M 0 0 M38.5426 738.315 Q45.8632 742.58 53.0246 744.649 Q60.186 746.718 67.5384 746.718 Q74.8908 746.718 82.1159 744.649 Q89.3091 742.548 96.5979 738.315 L96.5979 743.408 Q89.1182 748.182 81.8931 750.569 Q74.668 752.925 67.5384 752.925 Q60.4406 752.925 53.2474 750.569 Q46.0542 748.214 38.5426 743.408 L38.5426 738.315 Z" fill="#000000" fill-rule="evenodd" fill-opacity="1" /><path clip-path="url(#clip110)" d="M 0 0 M52.3562 702.54 L69.7028 715.431 L88.0042 701.872 L88.0042 708.778 L73.9996 719.154 L88.0042 729.531 L88.0042 736.437 L69.3526 722.592 L52.3562 735.26 L52.3562 728.353 L65.0558 718.9 L52.3562 709.447 L52.3562 702.54 Z" fill="#000000" fill-rule="evenodd" fill-opacity="1" /><path clip-path="url(#clip110)" d="M 0 0 M38.5426 696.652 L38.5426 691.559 Q46.0542 686.785 53.2474 684.43 Q60.4406 682.042 67.5384 682.042 Q74.668 682.042 81.8931 684.43 Q89.1182 686.785 96.5979 691.559 L96.5979 696.652 Q89.3091 692.419 82.1159 690.35 Q74.8908 688.249 67.5384 688.249 Q60.186 688.249 53.0246 690.35 Q45.8632 692.419 38.5426 696.652 Z" fill="#000000" fill-rule="evenodd" fill-opacity="1" /><polyline clip-path="url(#clip112)" style="stroke:#000000; stroke-width:4; stroke-opacity:1; fill:none" points="
  207.436,413.151 212.673,416.124 217.911,419.01 223.149,421.807 228.387,424.514 276.817,445.008 325.247,456.654 373.677,458.87 422.107,451.546 480.316,430.668 
  538.525,398.072 587.74,363.118 636.955,323.356 743.877,231.167 842.45,157.129 895.291,129.037 948.131,112.698 978.741,109.566 1009.35,111.569 1039.96,119.025 
  1070.57,132.175 1097.78,148.772 1124.98,170.054 1152.18,196.025 1179.38,226.631 1203.24,257.2 1227.09,291.142 1250.95,328.314 1274.8,368.539 1326.82,465.792 
  1378.83,573.874 1431.16,690.202 1483.48,810.281 1541.33,942.224 1599.19,1067.32 1626.71,1122.61 1654.23,1174.25 1681.75,1221.59 1709.27,1263.99 1737.89,1302.21 
  1766.51,1333.8 1795.12,1358.2 1823.74,1374.86 1847.83,1382.57 1871.92,1384.24 1896.01,1379.68 1920.1,1368.75 1949.51,1346.6 1978.92,1314.67 2008.33,1272.98 
  2037.74,1221.62 2065.38,1164.72 2093.03,1099.73 2120.68,1027.01 2148.32,947.001 2192.62,804.932 2236.91,648.026 2281.2,479.288 2325.49,302.134 2332.31,274.359 
  2339.12,246.487 2345.94,218.533 2352.76,190.512 
  "/>
<polyline clip-path="url(#clip112)" style="stroke:#008000; stroke-width:4; stroke-opacity:1; fill:none" points="
  360.673,459.216 379.929,424.179 399.186,394.922 418.442,371.272 437.698,352.858 456.955,339.13 476.211,329.397 495.467,322.861 514.724,318.66 533.98,315.909 
  553.236,313.749 572.493,311.382 591.749,308.111 611.005,303.366 630.262,296.73 649.518,287.946 668.775,276.929 688.031,263.754 707.287,248.645 726.544,231.955 
  745.8,214.141 765.056,195.727 784.313,177.282 803.569,159.376 822.825,142.559 842.082,127.326 861.338,114.099 880.594,103.211 899.851,94.8941 919.107,89.2774 
  938.363,86.3931 957.62,86.1857 976.876,88.5275 996.132,93.2384 1015.39,100.107 1034.65,108.914 1053.9,119.451 1073.16,131.543 1092.41,145.06 1111.67,159.93 
  1130.93,176.144 1150.18,193.752 1169.44,212.862 1188.7,233.626 1207.95,256.225 1227.21,280.851 1246.46,307.688 1265.72,336.894 1284.98,368.578 1304.23,402.789 
  1323.49,439.5 1342.75,478.604 1362,519.908 1381.26,563.142 1400.52,607.962 1419.77,653.965 1439.03,700.707 1458.28,747.722 1477.54,794.542 1496.8,840.721 
  1516.05,885.849 1535.31,929.57 1554.57,971.597 1573.82,1011.72 1593.08,1049.79 1612.34,1085.74 1631.59,1119.57 1650.85,1151.31 1670.1,1181.04 1689.36,1208.82 
  1708.62,1234.72 1727.87,1258.77 1747.13,1280.93 1766.39,1301.11 1785.64,1319.14 1804.9,1334.75 1824.16,1347.6 1843.41,1357.28 1862.67,1363.32 1881.92,1365.22 
  1901.18,1362.47 1920.44,1354.59 1939.69,1341.15 1958.95,1321.83 1978.21,1296.39 1997.46,1264.77 2016.72,1227.06 2035.98,1183.54 2055.23,1134.65 2074.49,1081.02 
  2093.74,1023.45 2113,962.878 2132.26,900.34 2151.51,836.956 2170.77,773.879 2190.03,712.244 2209.28,653.131 2228.54,597.521 2247.8,546.252 2267.05,499.993 
  2286.31,459.216 
  "/>
<polyline clip-path="url(#clip112)" style="stroke:#ff0000; stroke-width:4; stroke-opacity:1; fill:none" points="
  360.673,459.216 379.929,427.285 399.186,406.796 418.442,396.031 437.698,392.365 456.955,392.709 476.211,394.004 495.467,393.672 514.724,389.947 533.98,382.031 
  553.236,370.059 572.493,354.898 591.749,337.831 611.005,320.213 630.262,303.158 649.518,287.332 668.775,272.881 688.031,259.494 707.287,246.568 726.544,233.435 
  745.8,219.58 765.056,204.797 784.313,189.263 803.569,173.493 822.825,158.226 842.082,144.25 861.338,132.23 880.594,122.578 899.851,115.394 919.107,110.491 
  938.363,107.497 957.62,105.993 976.876,105.658 996.132,106.377 1015.39,108.291 1034.65,111.769 1053.9,117.318 1073.16,125.46 1092.41,136.599 1111.67,150.926 
  1130.93,168.376 1150.18,188.654 1169.44,211.321 1188.7,235.906 1207.95,262.031 1227.21,289.497 1246.46,318.318 1265.72,348.699 1284.98,380.945 1304.23,415.357 
  1323.49,452.109 1342.75,491.171 1362,532.275 1381.26,574.947 1400.52,618.592 1419.77,662.611 1439.03,706.513 1458.28,750.001 1477.54,793.001 1496.8,835.623 
  1516.05,878.081 1535.31,920.566 1554.57,963.137 1573.82,1005.63 1593.08,1047.65 1612.34,1088.59 1631.59,1127.75 1650.85,1164.45 1670.1,1198.17 1689.36,1228.63 
  1708.62,1255.82 1727.87,1279.98 1747.13,1301.43 1766.39,1320.48 1785.64,1337.27 1804.9,1351.67 1824.16,1363.27 1843.41,1371.39 1862.67,1375.3 1881.92,1374.29 
  1901.18,1367.91 1920.44,1356.07 1939.69,1339.08 1958.95,1317.57 1978.21,1292.34 1997.46,1264.16 2016.72,1233.49 2035.98,1200.39 2055.23,1164.37 2074.49,1124.54 
  2093.74,1079.76 2113,1029 2132.26,971.627 2151.51,907.767 2170.77,838.486 2190.03,765.823 2209.28,692.639 2228.54,622.279 2247.8,558.126 2267.05,503.099 
  2286.31,459.216 
  "/>
<path clip-path="url(#clip110)" d="
M1993.66 335.029 L2281.25 335.029 L2281.25 93.1086 L1993.66 93.1086  Z
  " fill="#ffffff" fill-rule="evenodd" fill-opacity="1"/>
<polyline clip-path="url(#clip110)" style="stroke:#000000; stroke-width:4; stroke-opacity:1; fill:none" points="
  1993.66,335.029 2281.25,335.029 2281.25,93.1086 1993.66,93.1086 1993.66,335.029 
  "/>
<polyline clip-path="url(#clip110)" style="stroke:#000000; stroke-width:4; stroke-opacity:1; fill:none" points="
  2017.5,153.589 2160.52,153.589 
  "/>
<path clip-path="url(#clip110)" d="M 0 0 M2184.36 136.309 L2189.06 136.309 L2189.06 157.304 Q2189.06 162.859 2191.07 165.313 Q2193.09 167.744 2197.6 167.744 Q2202.09 167.744 2204.1 165.313 Q2206.12 162.859 2206.12 157.304 L2206.12 136.309 L2210.82 136.309 L2210.82 157.883 Q2210.82 164.642 2207.46 168.091 Q2204.13 171.54 2197.6 171.54 Q2191.05 171.54 2187.69 168.091 Q2184.36 164.642 2184.36 157.883 L2184.36 136.309 Z" fill="#000000" fill-rule="evenodd" fill-opacity="1" /><polyline clip-path="url(#clip110)" style="stroke:#008000; stroke-width:4; stroke-opacity:1; fill:none" points="
  2017.5,214.069 2160.52,214.069 
  "/>
<path clip-path="url(#clip110)" d="M 0 0 M2184.36 221.117 L2184.36 205.423 L2188.62 205.423 L2188.62 220.955 Q2188.62 224.636 2190.05 226.488 Q2191.49 228.316 2194.36 228.316 Q2197.81 228.316 2199.8 226.117 Q2201.81 223.918 2201.81 220.122 L2201.81 205.423 L2206.07 205.423 L2206.07 231.349 L2201.81 231.349 L2201.81 227.367 Q2200.26 229.728 2198.2 230.886 Q2196.16 232.02 2193.46 232.02 Q2188.99 232.02 2186.67 229.242 Q2184.36 226.464 2184.36 221.117 M2195.08 204.798 L2195.08 204.798 Z" fill="#000000" fill-rule="evenodd" fill-opacity="1" /><path clip-path="url(#clip110)" d="M 0 0 M2223.99 200.863 L2212.18 219.312 L2223.99 219.312 L2223.99 200.863 M2222.76 196.789 L2228.64 196.789 L2228.64 219.312 L2233.57 219.312 L2233.57 223.201 L2228.64 223.201 L2228.64 231.349 L2223.99 231.349 L2223.99 223.201 L2208.39 223.201 L2208.39 218.687 L2222.76 196.789 Z" fill="#000000" fill-rule="evenodd" fill-opacity="1" /><polyline clip-path="url(#clip110)" style="stroke:#ff0000; stroke-width:4; stroke-opacity:1; fill:none" points="
  2017.5,274.549 2160.52,274.549 
  "/>
<path clip-path="url(#clip110)" d="M 0 0 M2184.36 281.597 L2184.36 265.903 L2188.62 265.903 L2188.62 281.435 Q2188.62 285.116 2190.05 286.968 Q2191.49 288.796 2194.36 288.796 Q2197.81 288.796 2199.8 286.597 Q2201.81 284.398 2201.81 280.602 L2201.81 265.903 L2206.07 265.903 L2206.07 291.829 L2201.81 291.829 L2201.81 287.847 Q2200.26 290.208 2198.2 291.366 Q2196.16 292.5 2193.46 292.5 Q2188.99 292.5 2186.67 289.722 Q2184.36 286.944 2184.36 281.597 M2195.08 265.278 L2195.08 265.278 Z" fill="#000000" fill-rule="evenodd" fill-opacity="1" /><path clip-path="url(#clip110)" d="M 0 0 M2221.14 275.417 Q2217.81 275.417 2215.89 277.199 Q2213.99 278.981 2213.99 282.106 Q2213.99 285.231 2215.89 287.014 Q2217.81 288.796 2221.14 288.796 Q2224.47 288.796 2226.4 287.014 Q2228.32 285.208 2228.32 282.106 Q2228.32 278.981 2226.4 277.199 Q2224.5 275.417 2221.14 275.417 M2216.47 273.426 Q2213.46 272.685 2211.77 270.625 Q2210.1 268.565 2210.1 265.602 Q2210.1 261.458 2213.04 259.051 Q2216 256.644 2221.14 256.644 Q2226.3 256.644 2229.24 259.051 Q2232.18 261.458 2232.18 265.602 Q2232.18 268.565 2230.49 270.625 Q2228.83 272.685 2225.84 273.426 Q2229.22 274.213 2231.09 276.505 Q2232.99 278.796 2232.99 282.106 Q2232.99 287.13 2229.91 289.815 Q2226.86 292.5 2221.14 292.5 Q2215.42 292.5 2212.34 289.815 Q2209.29 287.13 2209.29 282.106 Q2209.29 278.796 2211.19 276.505 Q2213.09 274.213 2216.47 273.426 M2214.75 266.042 Q2214.75 268.727 2216.42 270.232 Q2218.11 271.736 2221.14 271.736 Q2224.15 271.736 2225.84 270.232 Q2227.55 268.727 2227.55 266.042 Q2227.55 263.357 2225.84 261.852 Q2224.15 260.347 2221.14 260.347 Q2218.11 260.347 2216.42 261.852 Q2214.75 263.357 2214.75 266.042 Z" fill="#000000" fill-rule="evenodd" fill-opacity="1" /></svg>
