<?xml version="1.0" encoding="UTF-8" standalone="no"?>
<!-- Created with Inkscape (http://www.inkscape.org/) -->

<svg
   xmlns:dc="http://purl.org/dc/elements/1.1/"
   xmlns:cc="http://creativecommons.org/ns#"
   xmlns:rdf="http://www.w3.org/1999/02/22-rdf-syntax-ns#"
   xmlns:svg="http://www.w3.org/2000/svg"
   xmlns="http://www.w3.org/2000/svg"
   xmlns:sodipodi="http://sodipodi.sourceforge.net/DTD/sodipodi-0.dtd"
   xmlns:inkscape="http://www.inkscape.org/namespaces/inkscape"
   width="84.831024mm"
   height="69.291542mm"
   viewBox="0 0 84.831024 69.291542"
   version="1.1"
   id="svg8"
   inkscape:version="0.92.4 (5da689c313, 2019-01-14)"
   sodipodi:docname="0104.svg">
  <defs
     id="defs2">
    <marker
       inkscape:stockid="Arrow2Lend"
       orient="auto"
       refY="0"
       refX="0"
       id="Arrow2Lend"
       style="overflow:visible"
       inkscape:isstock="true">
      <path
         id="path912"
         style="fill:#000000;fill-opacity:1;fill-rule:evenodd;stroke:#000000;stroke-width:0.625;stroke-linejoin:round;stroke-opacity:1"
         d="M 8.7185878,4.0337352 -2.2072895,0.01601326 8.7185884,-4.0017078 c -1.7454984,2.3720609 -1.7354408,5.6174519 -6e-7,8.035443 z"
         transform="matrix(-1.1,0,0,-1.1,-1.1,0)"
         inkscape:connector-curvature="0" />
    </marker>
    <marker
       inkscape:stockid="Arrow2Lend"
       orient="auto"
       refY="0"
       refX="0"
       id="Arrow2Lend-4"
       style="overflow:visible"
       inkscape:isstock="true">
      <path
         inkscape:connector-curvature="0"
         id="path912-5"
         style="fill:#000000;fill-opacity:1;fill-rule:evenodd;stroke:#000000;stroke-width:0.625;stroke-linejoin:round;stroke-opacity:1"
         d="M 8.7185878,4.0337352 -2.2072895,0.01601326 8.7185884,-4.0017078 c -1.7454984,2.3720609 -1.7354408,5.6174519 -6e-7,8.035443 z"
         transform="matrix(-1.1,0,0,-1.1,-1.1,0)" />
    </marker>
    <marker
       inkscape:stockid="Arrow2Lend"
       orient="auto"
       refY="0"
       refX="0"
       id="Arrow2Lend-4-5"
       style="overflow:visible"
       inkscape:isstock="true">
      <path
         inkscape:connector-curvature="0"
         id="path912-5-1"
         style="fill:#000000;fill-opacity:1;fill-rule:evenodd;stroke:#000000;stroke-width:0.625;stroke-linejoin:round;stroke-opacity:1"
         d="M 8.7185878,4.0337352 -2.2072895,0.01601326 8.7185884,-4.0017078 c -1.7454984,2.3720609 -1.7354408,5.6174519 -6e-7,8.035443 z"
         transform="matrix(-1.1,0,0,-1.1,-1.1,0)" />
    </marker>
    <marker
       inkscape:stockid="Arrow2Lend"
       orient="auto"
       refY="0"
       refX="0"
       id="Arrow2Lend-4-5-0"
       style="overflow:visible"
       inkscape:isstock="true">
      <path
         inkscape:connector-curvature="0"
         id="path912-5-1-0"
         style="fill:#000000;fill-opacity:1;fill-rule:evenodd;stroke:#000000;stroke-width:0.625;stroke-linejoin:round;stroke-opacity:1"
         d="M 8.7185878,4.0337352 -2.2072895,0.01601326 8.7185884,-4.0017078 c -1.7454984,2.3720609 -1.7354408,5.6174519 -6e-7,8.035443 z"
         transform="matrix(-1.1,0,0,-1.1,-1.1,0)" />
    </marker>
  </defs>
  <sodipodi:namedview
     id="base"
     pagecolor="#ffffff"
     bordercolor="#666666"
     borderopacity="1.0"
     inkscape:pageopacity="0.0"
     inkscape:pageshadow="2"
     inkscape:zoom="4.7429324"
     inkscape:cx="125.78484"
     inkscape:cy="36.099152"
     inkscape:document-units="mm"
     inkscape:current-layer="layer1"
     showgrid="false"
     inkscape:window-width="1366"
     inkscape:window-height="705"
     inkscape:window-x="-8"
     inkscape:window-y="-8"
     inkscape:window-maximized="1"
     fit-margin-top="0"
     fit-margin-left="0"
     fit-margin-right="0"
     fit-margin-bottom="0" />
  <metadata
     id="metadata5">
    <rdf:RDF>
      <cc:Work
         rdf:about="">
        <dc:format>image/svg+xml</dc:format>
        <dc:type
           rdf:resource="http://purl.org/dc/dcmitype/StillImage" />
        <dc:title />
      </cc:Work>
    </rdf:RDF>
  </metadata>
  <g
     inkscape:label="Layer 1"
     inkscape:groupmode="layer"
     id="layer1"
     transform="translate(-72.552762,-89.093027)">
    <text
       xml:space="preserve"
       style="font-style:italic;font-variant:normal;font-weight:normal;font-stretch:normal;font-size:12.17312527px;line-height:1.25;font-family:'Times New Roman';-inkscape-font-specification:'Times New Roman, Italic';font-variant-ligatures:normal;font-variant-caps:normal;font-variant-numeric:normal;font-feature-settings:normal;text-align:start;letter-spacing:0px;word-spacing:0px;writing-mode:lr-tb;text-anchor:start;fill:#000000;fill-opacity:1;stroke:none;stroke-width:0.30432814"
       x="123.84019"
       y="113.59069"
       id="text16"
       transform="scale(1.0878196,0.91927007)"><tspan
         sodipodi:role="line"
         id="tspan14"
         x="123.84019"
         y="113.59069"
         style="stroke-width:0.30432814">G</tspan></text>
    <g
       id="g28"
       transform="matrix(0.8871602,0,0,0.85094826,2.746389,61.809508)">
      <g
         word-spacing="normal"
         letter-spacing="normal"
         font-size-adjust="none"
         font-stretch="normal"
         font-weight="normal"
         font-variant="normal"
         font-style="normal"
         stroke-miterlimit="10.433"
         xml:space="preserve"
         transform="matrix(0.3,0,0,-0.3,-52.5,222.75)"
         id="content"
         style="font-style:normal;font-variant:normal;font-weight:normal;font-stretch:normal;letter-spacing:normal;word-spacing:normal;text-anchor:start;fill:none;fill-opacity:1;fill-rule:evenodd;stroke:#000000;stroke-linecap:butt;stroke-linejoin:miter;stroke-miterlimit:10.43299961;stroke-dasharray:none;stroke-dashoffset:0;stroke-opacity:1"><path
           id="path25"
           d="m 501.35,413.17 v 0.02 0.02 l -0.01,0.03 v 0.02 l -0.01,0.02 v 0.02 l -0.01,0.02 v 0.02 l -0.01,0.02 -0.01,0.01 -0.01,0.02 -0.01,0.02 -0.01,0.01 -0.02,0.02 -0.01,0.01 -0.01,0.01 -0.02,0.02 -0.01,0.01 -0.01,0.01 -0.02,0.01 -0.02,0.01 -0.01,0.01 -0.02,0.01 -0.02,0.01 h -0.01 l -0.02,0.01 h -0.02 l -0.02,0.01 h -0.02 -0.02 -0.01 -0.02 -0.55 c -0.16,0 -0.3,-0.04 -0.34,-0.15 -2.35,-3.28 -5.49,-6.52 -7.99,-6.52 -1.98,0 -2.83,0.94 -2.83,2.53 0,2.39 1.99,6.28 4.93,10.47 1.2,1.69 2.39,3.39 3.64,5.08 6.67,0.41 13.29,1.84 17.04,7.13 1.54,2.18 2.44,4.43 2.44,6.17 0,1.9 -1.05,3.2 -3.55,3.2 l -0.18,-1.11 c 1.64,0 2.43,-0.84 2.43,-2.23 0,-1.39 -0.84,-3.35 -2.39,-5.53 -3.23,-4.54 -8.87,-5.99 -14.95,-6.49 5.53,7.53 11.17,14.25 14.91,14.25 v 0 l 0.18,1.11 c -7.06,0 -13.89,-7.53 -19.82,-15.55 h -6.38 c 3.69,4.99 7.49,9.96 11.36,14.89 0.11,0.16 0.11,0.25 0.11,0.41 l -0.16,0.39 c -0.04,0.16 -0.2,0.3 -0.39,0.3 -0.11,0 -0.2,-0.05 -0.31,-0.14 -2.48,-2.39 -4.92,-4.78 -7.61,-7.42 -1.84,-2.6 -5.64,-4.4 -8.42,-4.4 -0.61,0 -1,0.3 -1,0.8 0,0.35 0.2,0.8 0.59,1.35 0.71,1.04 1.05,2 1.05,2.79 0,1.64 -1.34,2.69 -3.53,2.69 -2.6,0 -5.28,-3.23 -7.13,-5.88 -0.04,-0.06 -0.04,-0.15 -0.04,-0.2 0,-0.25 0.14,-0.45 0.39,-0.45 H 473 c 0.16,0 0.25,0.09 0.36,0.2 1.89,2.69 3.78,5.24 5.68,5.24 0.79,0 1.25,-0.46 1.25,-1.16 0,-0.69 -0.41,-1.59 -1.21,-2.73 -0.45,-0.66 -0.64,-1.21 -0.64,-1.69 0,-1.41 1.69,-2.05 3.53,-2.05 1.46,0 3.19,0.39 4.83,1.14 -1.23,-1.44 -2.48,-2.89 -3.69,-4.33 -5.72,-0.54 -11.29,-2.2 -14.73,-7.03 l -0.06,-0.25 c 0,-0.2 0.15,-0.39 0.4,-0.39 h 0.55 c 0.16,0 0.3,0.05 0.34,0.14 2.89,4.1 7.53,5.69 12.52,6.28 -2,-2.48 -3.94,-4.98 -5.74,-7.51 -3.68,-5.28 -8.26,-10.72 -12.45,-10.72 -3.34,0 -5.73,1 -5.73,3.05 0,0.48 0.15,1.03 0.45,1.68 0.34,-0.5 0.89,-0.75 1.5,-0.75 1.28,0 2.78,1 2.78,1.94 0,1.25 -0.75,1.7 -1.64,1.7 -1.05,0 -2.25,-0.59 -2.84,-1.45 -0.89,-1.3 -1.3,-2.39 -1.3,-3.33 0,-2.59 2.94,-3.93 6.58,-3.93 5.53,0 12.86,5.53 16.94,11.31 2,2.78 3.98,5.58 6.03,8.36 1.14,0.06 2.29,0.06 3.43,0.06 h 2.99 c -1.09,-1.5 -2.19,-3 -3.19,-4.44 -2.44,-3.44 -3.78,-6.83 -3.78,-9.51 0,-3.05 1.75,-5.1 5.73,-5.1 3.19,0 6.97,3.75 9.41,7.13 0.05,0.11 0.05,0.15 0.05,0.25 z"
           inkscape:connector-curvature="0"
           style="fill:#000000;stroke-width:0" /></g>    </g>
    <g
       id="g49"
       transform="matrix(0.8871602,0,0,0.85094826,59.870063,60.901353)">
      <g
         word-spacing="normal"
         letter-spacing="normal"
         font-size-adjust="none"
         font-stretch="normal"
         font-weight="normal"
         font-variant="normal"
         font-style="normal"
         stroke-miterlimit="10.433"
         xml:space="preserve"
         transform="matrix(0.3,0,0,-0.3,-52.5,222.75)"
         id="g47"
         style="font-style:normal;font-variant:normal;font-weight:normal;font-stretch:normal;letter-spacing:normal;word-spacing:normal;text-anchor:start;fill:none;fill-opacity:1;fill-rule:evenodd;stroke:#000000;stroke-linecap:butt;stroke-linejoin:miter;stroke-miterlimit:10.43299961;stroke-dasharray:none;stroke-dashoffset:0;stroke-opacity:1"><path
           id="path45"
           d="m 470.36,438.93 0.02,0.04 0.03,0.04 0.02,0.03 0.02,0.04 0.02,0.03 0.02,0.03 0.02,0.03 0.02,0.04 0.02,0.03 0.01,0.02 v 0.01 l 0.01,0.02 0.01,0.01 v 0.02 l 0.01,0.02 v 0.01 l 0.01,0.02 v 0.02 l 0.01,0.02 v 0.01 0.02 0.02 0.02 c 0,0.2 -0.14,0.39 -0.39,0.39 -1.84,0 -4.14,-0.8 -6.28,-2.14 -2.3,-1.39 -4.23,-3.23 -5.58,-5.12 -1.54,-2.19 -2.29,-4.24 -2.29,-6.04 0,-1 0.25,-1.93 0.7,-2.73 1.39,-2.59 4.53,-3.69 8.36,-3.69 0.86,0 1.8,0.1 2.75,0.25 0,-0.29 0.05,-0.61 0.09,-0.84 0.55,-2.25 2.5,-3.44 5.33,-3.44 2.09,0 3.94,1.03 5.74,2.53 -1.55,-2.69 -2.3,-5.33 -4.19,-8.01 -1.69,-2.39 -4.88,-4.44 -7.08,-4.44 -4.33,0 -7.77,0.84 -7.77,3.14 0,0.45 0.16,1 0.46,1.59 0.29,-0.5 0.84,-0.75 1.43,-0.75 1.3,0 2.8,1 2.8,1.94 0,1.25 -0.75,1.7 -1.65,1.7 -1.04,0 -2.24,-0.59 -2.83,-1.45 -0.91,-1.3 -1.3,-2.33 -1.3,-3.23 0,-2.99 4.33,-4.03 8.72,-4.03 3.89,0 9.01,1.5 11.5,5.03 2.5,3.57 1.5,6.37 3.89,9.76 1.59,2.24 2.14,5.03 4.98,6.67 0.1,0.05 0.16,0.25 0.16,0.35 l -0.06,0.4 c 0,0 -0.05,0.05 -0.05,0.1 -0.05,0.2 -0.2,0.29 -0.39,0.29 -0.06,0 -0.16,0 -0.2,-0.04 -2.25,-1.3 -4.03,-3.03 -5.53,-4.88 -2.74,-2.79 -5.44,-5.58 -8.43,-5.58 -1.68,0 -2.48,0.94 -2.48,2.29 v 0.25 c 0.05,0.45 0.19,0.95 0.34,1.45 2.49,0.8 5.08,1.98 7.58,3.48 4.88,2.94 9.22,6.83 12.1,10.91 0.79,1.09 1.2,2.2 1.2,3.19 0,0.45 -0.1,0.86 -0.25,1.25 -0.55,1.29 -2.05,1.89 -3.78,1.89 L 488,440.78 c 1.19,0 1.85,-0.46 1.94,-1.14 v -0.25 c 0,-0.86 -0.59,-2.05 -1.48,-3.3 -2.75,-3.83 -6.44,-7.63 -10.97,-10.56 -1.8,-1.14 -3.69,-2.1 -5.49,-2.78 0.71,1.29 1.66,2.68 2.64,4.12 v 0 c 2.4,3.39 5.29,7.49 7.74,9.97 1.98,2.05 4.03,3.94 5.62,3.94 l 0.21,1.14 c -2.55,0 -5.78,-2.14 -8.42,-4.33 -3.85,-3.14 -6.88,-6.67 -9.38,-10.22 -1.44,-2.05 -2.33,-4.08 -2.53,-5.87 -0.91,-0.16 -1.75,-0.25 -2.55,-0.25 -3.33,0 -5.73,1.04 -6.58,3.09 -0.18,0.44 -0.29,0.98 -0.29,1.53 0,1.75 0.9,3.89 2.5,6.24 1.18,1.68 2.58,3.39 4.48,4.78 1.6,1.14 3.28,1.89 4.58,1.89 0.14,0 0.25,0.06 0.34,0.15 z"
           inkscape:connector-curvature="0"
           style="fill:#000000;stroke-width:0" /></g>    </g>
    <text
       xml:space="preserve"
       style="font-style:italic;font-variant:normal;font-weight:normal;font-stretch:normal;font-size:12.17299557px;line-height:1.25;font-family:'Times New Roman';-inkscape-font-specification:'Times New Roman, Italic';font-variant-ligatures:normal;font-variant-caps:normal;font-variant-numeric:normal;font-feature-settings:normal;text-align:start;letter-spacing:0px;word-spacing:0px;writing-mode:lr-tb;text-anchor:start;fill:#000000;fill-opacity:1;stroke:none;stroke-width:0.30432814"
       x="76.605469"
       y="114.03248"
       id="text16-1"
       transform="scale(1.0878196,0.91927007)"><tspan
         sodipodi:role="line"
         id="tspan74"
         x="76.605469"
         y="114.03248"
         style="stroke-width:0.30432814">H</tspan></text>
    <path
       style="fill:none;stroke:#000000;stroke-width:0.23024938;stroke-linecap:butt;stroke-linejoin:miter;stroke-miterlimit:4;stroke-dasharray:none;stroke-opacity:1;marker-end:url(#Arrow2Lend)"
       d="m 98.05771,142.59714 h 29.98203"
       id="path84"
       inkscape:connector-curvature="0"
       sodipodi:nodetypes="cc" />
    <path
       style="fill:none;stroke:#000000;stroke-width:0.23024938;stroke-linecap:butt;stroke-linejoin:miter;stroke-miterlimit:4;stroke-dasharray:none;stroke-opacity:1;marker-end:url(#Arrow2Lend-4)"
       d="M 97.387805,102.03688 H 127.36984"
       id="path84-7"
       inkscape:connector-curvature="0"
       sodipodi:nodetypes="cc" />
    <path
       style="fill:none;stroke:#000000;stroke-width:0.22685485;stroke-linecap:butt;stroke-linejoin:miter;stroke-miterlimit:4;stroke-dasharray:none;stroke-opacity:1;marker-end:url(#Arrow2Lend-4-5)"
       d="M 86.972993,132.28509 86.341794,111.42115"
       id="path84-7-4"
       inkscape:connector-curvature="0"
       sodipodi:nodetypes="cc" />
    <path
       style="fill:none;stroke:#000000;stroke-width:0.22685485;stroke-linecap:butt;stroke-linejoin:miter;stroke-miterlimit:4;stroke-dasharray:none;stroke-opacity:1;marker-end:url(#Arrow2Lend-4-5-0)"
       d="m 140.28042,131.11467 -0.63121,-20.86394"
       id="path84-7-4-9"
       inkscape:connector-curvature="0"
       sodipodi:nodetypes="cc" />
    <text
       xml:space="preserve"
       style="font-style:italic;font-variant:normal;font-weight:normal;font-stretch:normal;font-size:6.75197411px;line-height:1.25;font-family:'Times New Roman';-inkscape-font-specification:'Times New Roman, Italic';font-variant-ligatures:normal;font-variant-caps:normal;font-variant-numeric:normal;font-feature-settings:normal;text-align:start;letter-spacing:0px;word-spacing:0px;writing-mode:lr-tb;text-anchor:start;fill:#000000;fill-opacity:1;stroke:none;stroke-width:0.16879934"
       x="88.198761"
       y="122.59703"
       id="text2318"
       transform="scale(0.99839002,1.0016126)"><tspan
         sodipodi:role="line"
         id="tspan2316"
         x="88.198761"
         y="122.59703"
         style="font-style:normal;font-variant:normal;font-weight:normal;font-stretch:normal;font-size:6.75197411px;font-family:'Times New Roman';-inkscape-font-specification:'Times New Roman, Normal';font-variant-ligatures:normal;font-variant-caps:normal;font-variant-numeric:normal;font-feature-settings:normal;text-align:start;writing-mode:lr-tb;text-anchor:start;stroke-width:0.16879934">exp</tspan></text>
    <text
       xml:space="preserve"
       style="font-style:italic;font-variant:normal;font-weight:normal;font-stretch:normal;font-size:7.60431528px;line-height:1.25;font-family:'Times New Roman';-inkscape-font-specification:'Times New Roman, Italic';font-variant-ligatures:normal;font-variant-caps:normal;font-variant-numeric:normal;font-feature-settings:normal;text-align:start;letter-spacing:0px;word-spacing:0px;writing-mode:lr-tb;text-anchor:start;fill:#000000;fill-opacity:1;stroke:none;stroke-width:0.19010787"
       x="143.50804"
       y="121.91345"
       id="text2318-2"
       transform="scale(0.99272197,1.0073314)"><tspan
         sodipodi:role="line"
         id="tspan2316-2"
         x="143.50804"
         y="121.91345"
         style="font-style:normal;font-variant:normal;font-weight:normal;font-stretch:normal;font-size:7.60431528px;font-family:'Times New Roman';-inkscape-font-specification:'Times New Roman, Normal';font-variant-ligatures:normal;font-variant-caps:normal;font-variant-numeric:normal;font-feature-settings:normal;text-align:start;writing-mode:lr-tb;text-anchor:start;stroke-width:0.19010787">exp</tspan></text>
    <g
       id="g2371"
       transform="matrix(0.64541345,0,0,0.49056935,54.196628,48.7191)">
      <g
         word-spacing="normal"
         letter-spacing="normal"
         font-size-adjust="none"
         font-stretch="normal"
         font-weight="normal"
         font-variant="normal"
         font-style="normal"
         stroke-miterlimit="10.433"
         xml:space="preserve"
         transform="matrix(0.3,0,0,-0.3,-52.5,222.75)"
         id="g2369"
         style="font-style:normal;font-variant:normal;font-weight:normal;font-stretch:normal;letter-spacing:normal;word-spacing:normal;text-anchor:start;fill:none;fill-opacity:1;fill-rule:evenodd;stroke:#000000;stroke-linecap:butt;stroke-linejoin:miter;stroke-miterlimit:10.43299961;stroke-dasharray:none;stroke-dashoffset:0;stroke-opacity:1"><path
           id="path2367"
           d="m 477.29,439.57 v 0.01 0.01 0 0.01 0.01 0.01 0 0.01 l 0.01,0.02 v 0.03 0.02 l 0.01,0.02 0.01,0.03 v 0.03 l 0.01,0.02 v 0.03 l 0.01,0.03 0.01,0.03 0.01,0.06 0.02,0.06 v 0.03 l 0.01,0.02 0.01,0.03 v 0.03 l 0.01,0.02 0.01,0.02 v 0.02 l 0.01,0.02 v 0.01 0.01 0.01 0.01 h 0.01 v 0.01 0.01 0 0.01 0 0 0.01 c 0,0.04 0,0.5 -0.59,0.5 -0.5,0 -0.55,-0.16 -0.75,-1 l -2.89,-11.5 c -7.92,-0.25 -15.25,-6.88 -15.25,-13.66 0,-4.73 3.48,-8.67 9.56,-9.01 l 0.25,1.09 c -2.98,0.14 -6.58,1.89 -6.58,6.87 0,5.99 4.3,12.96 11.72,13.6 l -5.14,-20.47 -0.25,-1.09 c -0.39,-1.55 -0.73,-3.15 -1.14,-4.69 -0.59,-2.35 -1.09,-4.24 -1.09,-4.39 0,-0.49 0.34,-0.55 0.59,-0.55 0.25,0 0.36,0.06 0.5,0.2 0.09,0.1 0.41,1.3 0.55,2 l 1.89,7.43 0.25,1.09 5.14,20.47 c 3.78,-0.19 6.62,-2.49 6.62,-6.88 0,-5.87 -4.28,-13 -11.76,-13.59 l -0.25,-1.09 c 8.03,0.25 15.25,6.96 15.25,13.64 0,3.93 -2.64,8.53 -9.57,9.03 z"
           inkscape:connector-curvature="0"
           style="fill:#000000;stroke-width:0" /></g>    </g>
    <g
       id="g2416"
       transform="matrix(0.57948827,0,0,0.49056935,57.821309,90.490256)">
      <g
         word-spacing="normal"
         letter-spacing="normal"
         font-size-adjust="none"
         font-stretch="normal"
         font-weight="normal"
         font-variant="normal"
         font-style="normal"
         stroke-miterlimit="10.433"
         xml:space="preserve"
         transform="matrix(0.3,0,0,-0.3,-52.5,222.75)"
         id="g2414"
         style="font-style:normal;font-variant:normal;font-weight:normal;font-stretch:normal;letter-spacing:normal;word-spacing:normal;text-anchor:start;fill:none;fill-opacity:1;fill-rule:evenodd;stroke:#000000;stroke-linecap:butt;stroke-linejoin:miter;stroke-miterlimit:10.43299961;stroke-dasharray:none;stroke-dashoffset:0;stroke-opacity:1"><path
           id="path2410"
           d="m 477.29,439.57 v 0.01 0.01 0 0.01 0.01 0.01 0 0.01 l 0.01,0.02 v 0.03 0.02 l 0.01,0.02 0.01,0.03 v 0.03 l 0.01,0.02 v 0.03 l 0.01,0.03 0.01,0.03 0.01,0.06 0.02,0.06 v 0.03 l 0.01,0.02 0.01,0.03 v 0.03 l 0.01,0.02 0.01,0.02 v 0.02 l 0.01,0.02 v 0.01 0.01 0.01 0.01 h 0.01 v 0.01 0.01 0 0.01 0 0 0.01 c 0,0.04 0,0.5 -0.59,0.5 -0.5,0 -0.55,-0.16 -0.75,-1 l -2.89,-11.5 c -7.92,-0.25 -15.25,-6.88 -15.25,-13.66 0,-4.73 3.48,-8.67 9.56,-9.01 l 0.25,1.09 c -2.98,0.14 -6.58,1.89 -6.58,6.87 0,5.99 4.3,12.96 11.72,13.6 l -5.14,-20.47 -0.25,-1.09 c -0.39,-1.55 -0.73,-3.15 -1.14,-4.69 -0.59,-2.35 -1.09,-4.24 -1.09,-4.39 0,-0.49 0.34,-0.55 0.59,-0.55 0.25,0 0.36,0.06 0.5,0.2 0.09,0.1 0.41,1.3 0.55,2 l 1.89,7.43 0.25,1.09 5.14,20.47 c 3.78,-0.19 6.62,-2.49 6.62,-6.88 0,-5.87 -4.28,-13 -11.76,-13.59 l -0.25,-1.09 c 8.03,0.25 15.25,6.96 15.25,13.64 0,3.93 -2.64,8.53 -9.57,9.03 z"
           inkscape:connector-curvature="0"
           style="fill:#000000;stroke-width:0" /><path
           id="path2412"
           d="m 496.41,407.43 0.26,0.12 0.26,0.11 0.24,0.11 0.24,0.1 0.23,0.1 0.22,0.1 0.21,0.09 0.21,0.09 0.2,0.08 0.19,0.08 0.18,0.08 0.18,0.08 0.17,0.07 0.16,0.07 0.16,0.06 0.15,0.07 0.14,0.06 0.14,0.06 0.14,0.05 0.13,0.06 0.12,0.05 0.12,0.05 0.11,0.05 0.11,0.05 0.11,0.04 0.1,0.05 0.19,0.08 0.18,0.09 0.17,0.08 c 0.67,0.26 0.98,0.4 0.98,1.07 0,0.6 -0.45,1.11 -1.08,1.11 -0.25,0 -0.31,0 -0.73,-0.31 l -4.74,-3.17 0.52,5.15 c 0.08,0.63 0,1.5 -1.05,1.5 -0.42,0 -1.08,-0.28 -1.08,-1.04 0,-0.31 0.14,-1.36 0.18,-1.71 0.07,-0.59 0.31,-3.1 0.39,-3.9 l -4.71,3.17 c -0.36,0.2 -0.45,0.31 -0.76,0.31 -0.64,0 -1.1,-0.51 -1.1,-1.11 0,-0.7 0.43,-0.87 0.74,-1.01 l 5.26,-2.19 c -2.86,-1.27 -4.14,-1.75 -5.01,-2.17 -0.66,-0.28 -0.99,-0.42 -0.99,-1.08 0,-0.59 0.46,-1.11 1.1,-1.11 0.23,0 0.31,0 0.72,0.31 l 4.75,3.18 -0.57,-5.61 c 0,-0.77 0.66,-1.05 1.08,-1.05 0.42,0 1.08,0.28 1.08,1.05 0,0.31 -0.14,1.36 -0.17,1.7 -0.06,0.59 -0.31,3.09 -0.38,3.91 l 4.18,-2.8 c 0.9,-0.69 0.98,-0.69 1.29,-0.69 0.63,0 1.08,0.52 1.08,1.11 0,0.7 -0.42,0.88 -0.73,1.02 z"
           inkscape:connector-curvature="0"
           style="fill:#000000;stroke-width:0" /></g>    </g>
  </g>
</svg>
